<svg width="226" height="205" viewBox="0 0 226 205" fill="none" xmlns="http://www.w3.org/2000/svg">
<ellipse cx="113" cy="102.5" rx="112.5" ry="102.5" fill="white"/>
<g clip-path="url(#clip0)">
<path d="M26 86.4861H32.7801V111.127H45.3349V117.37H26V86.4861Z" fill="#1A1918"/>
<path d="M51.5883 86.0281C53.6756 86.0281 55.3694 87.718 55.3694 89.7985C55.3694 91.8824 53.6756 93.5683 51.5883 93.5683C49.5038 93.5683 47.81 91.8824 47.81 89.7985C47.81 87.718 49.5038 86.0281 51.5883 86.0281ZM48.3297 96.4324H54.8473V117.362H48.3297V96.432V96.4324Z" fill="#1A1918"/>
<path d="M58.4508 96.4349H64.7068V99.2956H64.7936C65.6621 97.6489 67.7914 95.916 70.9628 95.916C77.5672 95.916 78.7834 100.249 78.7834 105.884V117.362H72.2661V107.186C72.2661 104.757 72.2214 101.637 68.8759 101.637C65.488 101.637 64.968 104.282 64.968 107.011V117.362H58.4504V96.4352" fill="#1A1918"/>
<path d="M82.0889 86.4844H88.6038V104.942L95.9844 96.4233H103.972L95.4243 106.113L103.793 117.37H95.6031L88.6889 107.024H88.6038V117.37H82.0889V86.4844Z" fill="#1A1918"/>
<path d="M123.207 113.738C121.119 116.383 117.69 117.902 114.3 117.902C107.784 117.902 102.57 113.565 102.57 106.846C102.57 100.128 107.784 95.7939 114.3 95.7939C120.385 95.7939 124.207 100.128 124.207 106.846V108.884H109.087C109.605 111.354 111.475 112.959 113.996 112.959C116.125 112.959 117.558 111.875 118.645 110.4L123.206 113.738H123.207ZM117.69 104.463C117.733 102.295 116.039 100.475 113.691 100.475C110.824 100.475 109.26 102.426 109.088 104.463H117.69H117.69Z" fill="#1A1918"/>
<path d="M148.992 117.358H142.995V114.583H142.91C141.908 116.1 139.391 117.878 136.435 117.878C130.177 117.878 126.05 113.372 126.05 106.999C126.05 101.146 129.7 95.7711 135.695 95.7711C138.391 95.7711 140.91 96.5076 142.388 98.5444H142.473V86.4844H148.992V117.358ZM137.779 101.493C134.523 101.493 132.568 103.663 132.568 106.824C132.568 109.992 134.523 112.156 137.779 112.156C141.04 112.156 142.995 109.992 142.995 106.824C142.995 103.663 141.04 101.493 137.779 101.493V101.493Z" fill="#1A1918"/>
<path d="M196.212 80H158.754C156.964 80 155.51 81.4154 155.51 83.1612V120.692C155.51 122.438 156.964 123.856 158.754 123.856H196.212C198.005 123.856 199.466 122.438 199.466 120.692V83.1609C199.466 81.4154 198.005 80 196.212 80Z" fill="#006087"/>
<path d="M165.288 86.0376C167.373 86.0376 169.066 87.7275 169.066 89.8081C169.066 91.8899 167.373 93.5806 165.288 93.5806C163.199 93.5806 161.508 91.8899 161.508 89.8081C161.508 87.7275 163.199 86.0376 165.288 86.0376ZM162.027 96.4416H168.547V117.371H162.027V96.4416Z" fill="white"/>
<path d="M172.635 96.442H178.889V99.3014H178.976C179.846 97.6564 181.973 95.9211 185.145 95.9211C191.746 95.9211 192.965 100.256 192.965 105.891V117.371H186.45V107.194C186.45 104.765 186.406 101.644 183.063 101.644C179.67 101.644 179.15 104.288 179.15 107.018V117.371H172.635V96.4424" fill="white"/>
</g>
<defs>
<clipPath id="clip0">
<rect width="173.684" height="44" fill="white" transform="translate(26 80)"/>
</clipPath>
</defs>
</svg>
