<svg width="231" height="150" viewBox="0 0 231 150" fill="none" xmlns="http://www.w3.org/2000/svg">
<rect width="231" height="150" rx="5" fill="#051D3B"/>
<path d="M23.611 97.196C22.659 97.196 21.8097 96.9883 21.063 96.573C20.321 96.153 19.7354 95.5627 19.306 94.802C18.8814 94.0367 18.669 93.136 18.669 92.1C18.669 91.064 18.8837 90.1657 19.313 89.405C19.747 88.6397 20.3397 88.0493 21.091 87.634C21.847 87.214 22.7057 87.004 23.667 87.004C24.1664 87.004 24.6424 87.0577 25.095 87.165C25.5477 87.2723 25.9444 87.41 26.285 87.578L26.145 88.81C25.795 88.642 25.41 88.4997 24.99 88.383C24.57 88.2663 24.1244 88.208 23.653 88.208C22.883 88.208 22.2367 88.383 21.714 88.733C21.1914 89.0783 20.7947 89.545 20.524 90.133C20.258 90.721 20.125 91.3767 20.125 92.1C20.125 92.8233 20.2557 93.479 20.517 94.067C20.783 94.655 21.175 95.124 21.693 95.474C22.2157 95.8193 22.8597 95.992 23.625 95.992C24.1104 95.992 24.5584 95.9407 24.969 95.838C25.3844 95.7307 25.7764 95.586 26.145 95.404L26.285 96.636C25.935 96.7947 25.5407 96.9277 25.102 97.035C24.6634 97.1423 24.1664 97.196 23.611 97.196ZM27.5083 97V90.14H28.5443L28.6983 91.274C29.0483 90.84 29.382 90.5203 29.6993 90.315C30.0213 90.105 30.3643 90 30.7283 90C30.845 90 30.9523 90.014 31.0503 90.042L30.9243 91.428C30.8636 91.414 30.7983 91.4047 30.7283 91.4C30.663 91.3907 30.5883 91.386 30.5043 91.386C30.1403 91.386 29.8043 91.4677 29.4963 91.631C29.193 91.7897 28.9783 91.9647 28.8523 92.156V97H27.5083ZM31.938 97V90.14H33.198V97H31.938ZM31.938 88.6V87.2H33.198V88.6H31.938ZM38.1948 97.14C37.3874 97.14 36.7084 96.9743 36.1578 96.643C35.6071 96.3117 35.1894 95.873 34.9048 95.327C34.6248 94.7763 34.4848 94.172 34.4848 93.514C34.4848 92.8747 34.6154 92.289 34.8768 91.757C35.1428 91.225 35.5254 90.8003 36.0248 90.483C36.5288 90.161 37.1354 90 37.8448 90C38.4141 90 38.9204 90.1143 39.3638 90.343C39.8118 90.567 40.1618 90.896 40.4138 91.33C40.6704 91.7593 40.7988 92.282 40.7988 92.898C40.7988 92.996 40.7941 93.1033 40.7848 93.22C40.7801 93.332 40.7661 93.4487 40.7428 93.57H35.7728C35.8334 94.2047 35.9851 94.6993 36.2278 95.054C36.4704 95.4087 36.7761 95.6583 37.1448 95.803C37.5134 95.9477 37.9148 96.02 38.3488 96.02C38.6661 96.02 38.9974 95.9873 39.3428 95.922C39.6881 95.8567 40.0148 95.754 40.3228 95.614L40.4908 96.608C40.2248 96.7247 39.9004 96.8437 39.5178 96.965C39.1351 97.0817 38.6941 97.14 38.1948 97.14ZM35.8848 92.702H39.4968C39.4968 92.38 39.4361 92.1 39.3148 91.862C39.1934 91.624 39.0091 91.442 38.7618 91.316C38.5144 91.1853 38.1994 91.12 37.8168 91.12C37.2568 91.12 36.8251 91.26 36.5218 91.54C36.2231 91.8153 36.0108 92.2027 35.8848 92.702ZM47.1594 97.14C46.5527 97.14 46.0487 97.0677 45.6474 96.923C45.2507 96.7783 44.9707 96.65 44.8074 96.538L44.9614 95.32C45.1107 95.4507 45.3744 95.6 45.7524 95.768C46.1304 95.936 46.5807 96.02 47.1034 96.02C47.5467 96.02 47.885 95.9453 48.1184 95.796C48.3564 95.6467 48.4754 95.4367 48.4754 95.166C48.4754 94.928 48.3984 94.7367 48.2444 94.592C48.095 94.4427 47.913 94.326 47.6984 94.242C47.4884 94.1533 47.29 94.0833 47.1034 94.032C46.7907 93.948 46.4664 93.843 46.1304 93.717C45.799 93.5863 45.519 93.3927 45.2904 93.136C45.0617 92.8793 44.9474 92.52 44.9474 92.058C44.9474 91.708 45.0314 91.3767 45.1994 91.064C45.3674 90.7467 45.6404 90.49 46.0184 90.294C46.3964 90.098 46.898 90 47.5234 90C47.9807 90 48.3517 90.049 48.6364 90.147C48.9257 90.2403 49.1754 90.3407 49.3854 90.448L49.2314 91.596C49.0307 91.428 48.7974 91.2857 48.5314 91.169C48.2654 91.0523 47.9387 90.994 47.5514 90.994C47.1594 90.994 46.8397 91.0687 46.5924 91.218C46.345 91.3627 46.2214 91.596 46.2214 91.918C46.2214 92.24 46.352 92.4687 46.6134 92.604C46.8794 92.7393 47.2807 92.8887 47.8174 93.052C47.9854 93.0987 48.179 93.1663 48.3984 93.255C48.6224 93.3437 48.8394 93.4627 49.0494 93.612C49.2594 93.7613 49.432 93.9573 49.5674 94.2C49.7074 94.438 49.7774 94.7367 49.7774 95.096C49.7774 95.3993 49.705 95.7097 49.5604 96.027C49.4157 96.3397 49.1544 96.6033 48.7764 96.818C48.3984 97.0327 47.8594 97.14 47.1594 97.14ZM51.0103 97V90.14H51.9903L52.2423 91.456L51.7523 91.246C52.2143 90.7327 52.6646 90.3967 53.1033 90.238C53.5466 90.0793 53.9783 90 54.3983 90C55.4016 90 56.1179 90.2893 56.5473 90.868C56.9813 91.4467 57.1983 92.2307 57.1983 93.22V97H55.9383V93.22C55.9383 92.492 55.8029 91.96 55.5323 91.624C55.2616 91.288 54.7996 91.12 54.1463 91.12C53.6843 91.12 53.2596 91.2227 52.8723 91.428C52.4896 91.6287 52.2376 91.9507 52.1163 92.394L52.2703 91.624V97H51.0103ZM58.8306 97V90.14H60.0906V97H58.8306ZM58.8306 88.6V87.2H60.0906V88.6H58.8306ZM61.7974 100.388V90.14H62.7774L63.0014 91.708L62.6514 91.456C62.9407 91.008 63.2977 90.6533 63.7224 90.392C64.147 90.1307 64.6674 90 65.2834 90C65.9087 90 66.4454 90.1587 66.8934 90.476C67.3414 90.7933 67.6844 91.2227 67.9224 91.764C68.1604 92.3007 68.2794 92.9027 68.2794 93.57C68.2794 94.2373 68.1674 94.8417 67.9434 95.383C67.7194 95.9197 67.3857 96.3467 66.9424 96.664C66.499 96.9813 65.946 97.14 65.2834 97.14C64.7374 97.14 64.2427 97.028 63.7994 96.804C63.3607 96.5753 63.0434 96.2347 62.8474 95.782L63.0574 95.53V100.388H61.7974ZM65.0454 96.02C65.6567 96.02 66.1327 95.8053 66.4734 95.376C66.8187 94.942 66.9914 94.34 66.9914 93.57C66.9914 92.8 66.8187 92.2003 66.4734 91.771C66.1327 91.337 65.6567 91.12 65.0454 91.12C64.6674 91.12 64.322 91.211 64.0094 91.393C63.7014 91.5703 63.454 91.841 63.2674 92.205C63.0807 92.5643 62.9874 93.0193 62.9874 93.57C62.9874 94.144 63.0807 94.6107 63.2674 94.97C63.454 95.3293 63.7014 95.5953 64.0094 95.768C64.322 95.936 64.6674 96.02 65.0454 96.02ZM69.5903 100.388V90.14H70.5703L70.7943 91.708L70.4443 91.456C70.7337 91.008 71.0907 90.6533 71.5153 90.392C71.94 90.1307 72.4603 90 73.0763 90C73.7017 90 74.2383 90.1587 74.6863 90.476C75.1343 90.7933 75.4773 91.2227 75.7153 91.764C75.9533 92.3007 76.0723 92.9027 76.0723 93.57C76.0723 94.2373 75.9603 94.8417 75.7363 95.383C75.5123 95.9197 75.1787 96.3467 74.7353 96.664C74.292 96.9813 73.739 97.14 73.0763 97.14C72.5303 97.14 72.0357 97.028 71.5923 96.804C71.1537 96.5753 70.8363 96.2347 70.6403 95.782L70.8503 95.53V100.388H69.5903ZM72.8383 96.02C73.4497 96.02 73.9257 95.8053 74.2663 95.376C74.6117 94.942 74.7843 94.34 74.7843 93.57C74.7843 92.8 74.6117 92.2003 74.2663 91.771C73.9257 91.337 73.4497 91.12 72.8383 91.12C72.4603 91.12 72.115 91.211 71.8023 91.393C71.4943 91.5703 71.247 91.841 71.0603 92.205C70.8737 92.5643 70.7803 93.0193 70.7803 93.57C70.7803 94.144 70.8737 94.6107 71.0603 94.97C71.247 95.3293 71.4943 95.5953 71.8023 95.768C72.115 95.936 72.4603 96.02 72.8383 96.02ZM80.6733 97.14C79.866 97.14 79.187 96.9743 78.6363 96.643C78.0856 96.3117 77.668 95.873 77.3833 95.327C77.1033 94.7763 76.9633 94.172 76.9633 93.514C76.9633 92.8747 77.094 92.289 77.3553 91.757C77.6213 91.225 78.004 90.8003 78.5033 90.483C79.0073 90.161 79.614 90 80.3233 90C80.8926 90 81.399 90.1143 81.8423 90.343C82.2903 90.567 82.6403 90.896 82.8923 91.33C83.149 91.7593 83.2773 92.282 83.2773 92.898C83.2773 92.996 83.2726 93.1033 83.2633 93.22C83.2586 93.332 83.2446 93.4487 83.2213 93.57H78.2513C78.312 94.2047 78.4636 94.6993 78.7063 95.054C78.949 95.4087 79.2546 95.6583 79.6233 95.803C79.992 95.9477 80.3933 96.02 80.8273 96.02C81.1446 96.02 81.476 95.9873 81.8213 95.922C82.1666 95.8567 82.4933 95.754 82.8013 95.614L82.9693 96.608C82.7033 96.7247 82.379 96.8437 81.9963 96.965C81.6136 97.0817 81.1726 97.14 80.6733 97.14ZM78.3633 92.702H81.9753C81.9753 92.38 81.9146 92.1 81.7933 91.862C81.672 91.624 81.4876 91.442 81.2403 91.316C80.993 91.1853 80.678 91.12 80.2953 91.12C79.7353 91.12 79.3036 91.26 79.0003 91.54C78.7016 91.8153 78.4893 92.2027 78.3633 92.702ZM86.9134 97.14C86.4794 97.14 86.1317 97.0607 85.8704 96.902C85.609 96.7433 85.4177 96.5403 85.2964 96.293C85.1797 96.041 85.1214 95.7773 85.1214 95.502V91.12H83.9454L84.0574 90.14H85.1214V88.446L86.3814 88.32V90.14H88.1874V91.12H86.3814V94.732C86.3814 95.1707 86.407 95.488 86.4584 95.684C86.5097 95.88 86.6357 96.0037 86.8364 96.055C87.0417 96.1063 87.3707 96.132 87.8234 96.132H88.1454L88.0474 97.14H86.9134ZM91.2102 97.14C90.6035 97.14 90.0995 97.0677 89.6982 96.923C89.3015 96.7783 89.0215 96.65 88.8582 96.538L89.0122 95.32C89.1615 95.4507 89.4252 95.6 89.8032 95.768C90.1812 95.936 90.6315 96.02 91.1542 96.02C91.5975 96.02 91.9358 95.9453 92.1692 95.796C92.4072 95.6467 92.5262 95.4367 92.5262 95.166C92.5262 94.928 92.4492 94.7367 92.2952 94.592C92.1458 94.4427 91.9638 94.326 91.7492 94.242C91.5392 94.1533 91.3408 94.0833 91.1542 94.032C90.8415 93.948 90.5172 93.843 90.1812 93.717C89.8498 93.5863 89.5698 93.3927 89.3412 93.136C89.1125 92.8793 88.9982 92.52 88.9982 92.058C88.9982 91.708 89.0822 91.3767 89.2502 91.064C89.4182 90.7467 89.6912 90.49 90.0692 90.294C90.4472 90.098 90.9488 90 91.5742 90C92.0315 90 92.4025 90.049 92.6872 90.147C92.9765 90.2403 93.2262 90.3407 93.4362 90.448L93.2822 91.596C93.0815 91.428 92.8482 91.2857 92.5822 91.169C92.3162 91.0523 91.9895 90.994 91.6022 90.994C91.2102 90.994 90.8905 91.0687 90.6432 91.218C90.3958 91.3627 90.2722 91.596 90.2722 91.918C90.2722 92.24 90.4028 92.4687 90.6642 92.604C90.9302 92.7393 91.3315 92.8887 91.8682 93.052C92.0362 93.0987 92.2298 93.1663 92.4492 93.255C92.6732 93.3437 92.8902 93.4627 93.1002 93.612C93.3102 93.7613 93.4828 93.9573 93.6182 94.2C93.7582 94.438 93.8282 94.7367 93.8282 95.096C93.8282 95.3993 93.7558 95.7097 93.6112 96.027C93.4665 96.3397 93.2052 96.6033 92.8272 96.818C92.4492 97.0327 91.9102 97.14 91.2102 97.14ZM100.922 97.14C100.338 97.14 99.8109 96.9813 99.3396 96.664C98.8682 96.3467 98.4926 95.9197 98.2126 95.383C97.9372 94.8463 97.7996 94.2467 97.7996 93.584C97.7996 92.954 97.9256 92.366 98.1776 91.82C98.4342 91.274 98.7959 90.8353 99.2626 90.504C99.7292 90.168 100.282 90 100.922 90C101.379 90 101.82 90.1003 102.245 90.301C102.674 90.497 103.022 90.826 103.288 91.288L103.022 91.47V86.5H104.282V97H103.162L102.924 95.544L103.246 95.768C103.045 96.2207 102.73 96.5637 102.301 96.797C101.871 97.0257 101.412 97.14 100.922 97.14ZM101.146 96.02C101.463 96.02 101.776 95.9383 102.084 95.775C102.396 95.6117 102.653 95.3527 102.854 94.998C103.059 94.6387 103.162 94.1673 103.162 93.584C103.162 93.0427 103.059 92.59 102.854 92.226C102.653 91.8573 102.396 91.582 102.084 91.4C101.776 91.2133 101.463 91.12 101.146 91.12C100.716 91.12 100.348 91.2273 100.04 91.442C99.7316 91.6567 99.4959 91.9507 99.3326 92.324C99.1692 92.6927 99.0876 93.1127 99.0876 93.584C99.0876 94.0273 99.1692 94.4333 99.3326 94.802C99.4959 95.1707 99.7316 95.467 100.04 95.691C100.348 95.9103 100.716 96.02 101.146 96.02ZM109.261 97.14C108.454 97.14 107.775 96.9743 107.224 96.643C106.674 96.3117 106.256 95.873 105.971 95.327C105.691 94.7763 105.551 94.172 105.551 93.514C105.551 92.8747 105.682 92.289 105.943 91.757C106.209 91.225 106.592 90.8003 107.091 90.483C107.595 90.161 108.202 90 108.911 90C109.481 90 109.987 90.1143 110.43 90.343C110.878 90.567 111.228 90.896 111.48 91.33C111.737 91.7593 111.865 92.282 111.865 92.898C111.865 92.996 111.861 93.1033 111.851 93.22C111.847 93.332 111.833 93.4487 111.809 93.57H106.839C106.9 94.2047 107.052 94.6993 107.294 95.054C107.537 95.4087 107.843 95.6583 108.211 95.803C108.58 95.9477 108.981 96.02 109.415 96.02C109.733 96.02 110.064 95.9873 110.409 95.922C110.755 95.8567 111.081 95.754 111.389 95.614L111.557 96.608C111.291 96.7247 110.967 96.8437 110.584 96.965C110.202 97.0817 109.761 97.14 109.261 97.14ZM106.951 92.702H110.563C110.563 92.38 110.503 92.1 110.381 91.862C110.26 91.624 110.076 91.442 109.828 91.316C109.581 91.1853 109.266 91.12 108.883 91.12C108.323 91.12 107.892 91.26 107.588 91.54C107.29 91.8153 107.077 92.2027 106.951 92.702ZM119.43 97.14C118.655 97.14 118.004 96.9837 117.477 96.671C116.954 96.3537 116.557 95.929 116.287 95.397C116.021 94.8603 115.888 94.2653 115.888 93.612C115.888 92.9307 116.016 92.317 116.273 91.771C116.534 91.225 116.933 90.7933 117.47 90.476C118.006 90.1587 118.692 90 119.528 90C119.887 90 120.225 90.0373 120.543 90.112C120.865 90.182 121.152 90.28 121.404 90.406L121.208 91.512C120.951 91.3907 120.678 91.295 120.389 91.225C120.104 91.155 119.808 91.12 119.5 91.12C118.744 91.12 118.167 91.3347 117.771 91.764C117.374 92.1933 117.176 92.7907 117.176 93.556C117.176 94.3027 117.365 94.9023 117.743 95.355C118.121 95.8077 118.697 96.034 119.472 96.034C119.789 96.034 120.092 95.9967 120.382 95.922C120.676 95.8473 120.956 95.7447 121.222 95.614L121.39 96.622C121.203 96.7527 120.93 96.8717 120.571 96.979C120.211 97.0863 119.831 97.14 119.43 97.14ZM125.538 97.14C124.819 97.14 124.205 96.9813 123.697 96.664C123.193 96.342 122.805 95.9127 122.535 95.376C122.269 94.8347 122.136 94.2327 122.136 93.57C122.136 92.9073 122.269 92.3077 122.535 91.771C122.805 91.2297 123.193 90.8003 123.697 90.483C124.205 90.161 124.819 90 125.538 90C126.252 90 126.863 90.161 127.372 90.483C127.88 90.8003 128.268 91.2297 128.534 91.771C128.804 92.3077 128.94 92.9073 128.94 93.57C128.94 94.2327 128.804 94.8347 128.534 95.376C128.268 95.9127 127.88 96.342 127.372 96.664C126.863 96.9813 126.252 97.14 125.538 97.14ZM125.538 96.02C126.219 96.02 126.742 95.8053 127.106 95.376C127.47 94.942 127.652 94.34 127.652 93.57C127.652 92.8 127.47 92.2003 127.106 91.771C126.742 91.337 126.219 91.12 125.538 91.12C124.861 91.12 124.338 91.337 123.97 91.771C123.606 92.2003 123.424 92.8 123.424 93.57C123.424 94.34 123.606 94.942 123.97 95.376C124.338 95.8053 124.861 96.02 125.538 96.02ZM124.236 88.936V88.082L126.854 86.542V87.914L124.236 88.936ZM132.955 97.14C132.371 97.14 131.844 96.9813 131.373 96.664C130.901 96.3467 130.526 95.9197 130.246 95.383C129.97 94.8463 129.833 94.2467 129.833 93.584C129.833 92.954 129.959 92.366 130.211 91.82C130.467 91.274 130.829 90.8353 131.296 90.504C131.762 90.168 132.315 90 132.955 90C133.412 90 133.853 90.1003 134.278 90.301C134.707 90.497 135.055 90.826 135.321 91.288L135.055 91.47V86.5H136.315V97H135.195L134.957 95.544L135.279 95.768C135.078 96.2207 134.763 96.5637 134.334 96.797C133.904 97.0257 133.445 97.14 132.955 97.14ZM133.179 96.02C133.496 96.02 133.809 95.9383 134.117 95.775C134.429 95.6117 134.686 95.3527 134.887 94.998C135.092 94.6387 135.195 94.1673 135.195 93.584C135.195 93.0427 135.092 92.59 134.887 92.226C134.686 91.8573 134.429 91.582 134.117 91.4C133.809 91.2133 133.496 91.12 133.179 91.12C132.749 91.12 132.381 91.2273 132.073 91.442C131.765 91.6567 131.529 91.9507 131.366 92.324C131.202 92.6927 131.121 93.1127 131.121 93.584C131.121 94.0273 131.202 94.4333 131.366 94.802C131.529 95.1707 131.765 95.467 132.073 95.691C132.381 95.9103 132.749 96.02 133.179 96.02ZM138.004 97V90.14H139.264V97H138.004ZM138.004 88.6V87.2H139.264V88.6H138.004ZM143.743 100.5C143.118 100.5 142.558 100.423 142.063 100.269C141.573 100.115 141.186 99.8863 140.901 99.583C140.621 99.2797 140.481 98.904 140.481 98.456C140.481 98.0827 140.586 97.7607 140.796 97.49C141.011 97.224 141.303 97.0093 141.671 96.846C141.452 96.7387 141.284 96.6127 141.167 96.468C141.055 96.3187 140.999 96.1553 140.999 95.978C140.999 95.768 141.062 95.579 141.188 95.411C141.319 95.2383 141.527 95.096 141.811 94.984C141.429 94.746 141.135 94.4263 140.929 94.025C140.724 93.619 140.621 93.1687 140.621 92.674C140.621 92.1747 140.733 91.7243 140.957 91.323C141.181 90.917 141.503 90.595 141.923 90.357C142.348 90.119 142.857 90 143.449 90C143.767 90 144.065 90.0467 144.345 90.14C144.63 90.2333 144.891 90.364 145.129 90.532C145.339 90.4107 145.587 90.3103 145.871 90.231C146.161 90.1517 146.483 90.112 146.837 90.112C146.861 90.112 146.879 90.112 146.893 90.112C146.912 90.112 146.931 90.112 146.949 90.112L146.795 90.952C146.739 90.952 146.686 90.952 146.634 90.952C146.583 90.952 146.529 90.952 146.473 90.952C146.427 90.952 146.319 90.959 146.151 90.973C145.983 90.987 145.829 91.0127 145.689 91.05C145.881 91.274 146.028 91.526 146.13 91.806C146.238 92.0813 146.291 92.3707 146.291 92.674C146.291 93.1967 146.177 93.6657 145.948 94.081C145.724 94.4917 145.4 94.8183 144.975 95.061C144.551 95.299 144.042 95.418 143.449 95.418C143.281 95.418 143.12 95.4087 142.966 95.39C142.812 95.3667 142.665 95.334 142.525 95.292C142.311 95.362 142.203 95.4833 142.203 95.656C142.203 95.7587 142.264 95.8497 142.385 95.929C142.507 96.0037 142.703 96.062 142.973 96.104L144.807 96.398C145.549 96.5147 146.121 96.7293 146.522 97.042C146.928 97.3547 147.131 97.798 147.131 98.372C147.131 98.848 146.991 99.2423 146.711 99.555C146.436 99.8723 146.044 100.108 145.535 100.262C145.027 100.421 144.429 100.5 143.743 100.5ZM143.855 99.38C144.499 99.38 144.994 99.296 145.339 99.128C145.685 98.9647 145.857 98.722 145.857 98.4C145.857 98.148 145.748 97.9497 145.528 97.805C145.314 97.6603 145.003 97.5507 144.597 97.476L142.644 97.147C142.388 97.259 142.164 97.4083 141.972 97.595C141.781 97.7863 141.685 98.008 141.685 98.26C141.685 98.652 141.881 98.9367 142.273 99.114C142.67 99.2913 143.197 99.38 143.855 99.38ZM143.449 94.41C143.981 94.41 144.387 94.2513 144.667 93.934C144.947 93.612 145.087 93.1967 145.087 92.688C145.087 92.198 144.947 91.7967 144.667 91.484C144.387 91.1667 143.981 91.008 143.449 91.008C142.917 91.008 142.514 91.1667 142.238 91.484C141.963 91.7967 141.825 92.198 141.825 92.688C141.825 93.1967 141.963 93.612 142.238 93.934C142.514 94.2513 142.917 94.41 143.449 94.41ZM150.94 97.14C150.221 97.14 149.608 96.9813 149.099 96.664C148.595 96.342 148.208 95.9127 147.937 95.376C147.671 94.8347 147.538 94.2327 147.538 93.57C147.538 92.9073 147.671 92.3077 147.937 91.771C148.208 91.2297 148.595 90.8003 149.099 90.483C149.608 90.161 150.221 90 150.94 90C151.654 90 152.265 90.161 152.774 90.483C153.283 90.8003 153.67 91.2297 153.936 91.771C154.207 92.3077 154.342 92.9073 154.342 93.57C154.342 94.2327 154.207 94.8347 153.936 95.376C153.67 95.9127 153.283 96.342 152.774 96.664C152.265 96.9813 151.654 97.14 150.94 97.14ZM150.94 96.02C151.621 96.02 152.144 95.8053 152.508 95.376C152.872 94.942 153.054 94.34 153.054 93.57C153.054 92.8 152.872 92.2003 152.508 91.771C152.144 91.337 151.621 91.12 150.94 91.12C150.263 91.12 149.741 91.337 149.372 91.771C149.008 92.2003 148.826 92.8 148.826 93.57C148.826 94.34 149.008 94.942 149.372 95.376C149.741 95.8053 150.263 96.02 150.94 96.02ZM161.782 97.14C161.063 97.14 160.449 96.9813 159.941 96.664C159.437 96.342 159.049 95.9127 158.779 95.376C158.513 94.8347 158.38 94.2327 158.38 93.57C158.38 92.9073 158.513 92.3077 158.779 91.771C159.049 91.2297 159.437 90.8003 159.941 90.483C160.449 90.161 161.063 90 161.782 90C162.496 90 163.107 90.161 163.616 90.483C164.124 90.8003 164.512 91.2297 164.778 91.771C165.048 92.3077 165.184 92.9073 165.184 93.57C165.184 94.2327 165.048 94.8347 164.778 95.376C164.512 95.9127 164.124 96.342 163.616 96.664C163.107 96.9813 162.496 97.14 161.782 97.14ZM161.782 96.02C162.463 96.02 162.986 95.8053 163.35 95.376C163.714 94.942 163.896 94.34 163.896 93.57C163.896 92.8 163.714 92.2003 163.35 91.771C162.986 91.337 162.463 91.12 161.782 91.12C161.105 91.12 160.582 91.337 160.214 91.771C159.85 92.2003 159.668 92.8 159.668 93.57C159.668 94.34 159.85 94.942 160.214 95.376C160.582 95.8053 161.105 96.02 161.782 96.02ZM168.947 97.14C168.41 97.14 167.953 97.0327 167.575 96.818C167.197 96.5987 166.908 96.2673 166.707 95.824C166.511 95.3807 166.413 94.816 166.413 94.13V90.14H167.673V93.78C167.673 94.508 167.797 95.0633 168.044 95.446C168.296 95.8287 168.704 96.02 169.269 96.02C169.656 96.02 170.016 95.9267 170.347 95.74C170.678 95.5533 170.907 95.2547 171.033 94.844L170.851 95.53V90.14H172.111V97H170.991L170.739 95.656L171.075 95.88C170.846 96.3047 170.566 96.622 170.235 96.832C169.908 97.0373 169.479 97.14 168.947 97.14ZM178.915 97.14C178.309 97.14 177.805 97.0677 177.403 96.923C177.007 96.7783 176.727 96.65 176.563 96.538L176.717 95.32C176.867 95.4507 177.13 95.6 177.508 95.768C177.886 95.936 178.337 96.02 178.859 96.02C179.303 96.02 179.641 95.9453 179.874 95.796C180.112 95.6467 180.231 95.4367 180.231 95.166C180.231 94.928 180.154 94.7367 180 94.592C179.851 94.4427 179.669 94.326 179.454 94.242C179.244 94.1533 179.046 94.0833 178.859 94.032C178.547 93.948 178.222 93.843 177.886 93.717C177.555 93.5863 177.275 93.3927 177.046 93.136C176.818 92.8793 176.703 92.52 176.703 92.058C176.703 91.708 176.787 91.3767 176.955 91.064C177.123 90.7467 177.396 90.49 177.774 90.294C178.152 90.098 178.654 90 179.279 90C179.737 90 180.108 90.049 180.392 90.147C180.682 90.2403 180.931 90.3407 181.141 90.448L180.987 91.596C180.787 91.428 180.553 91.2857 180.287 91.169C180.021 91.0523 179.695 90.994 179.307 90.994C178.915 90.994 178.596 91.0687 178.348 91.218C178.101 91.3627 177.977 91.596 177.977 91.918C177.977 92.24 178.108 92.4687 178.369 92.604C178.635 92.7393 179.037 92.8887 179.573 93.052C179.741 93.0987 179.935 93.1663 180.154 93.255C180.378 93.3437 180.595 93.4627 180.805 93.612C181.015 93.7613 181.188 93.9573 181.323 94.2C181.463 94.438 181.533 94.7367 181.533 95.096C181.533 95.3993 181.461 95.7097 181.316 96.027C181.172 96.3397 180.91 96.6033 180.532 96.818C180.154 97.0327 179.615 97.14 178.915 97.14ZM185.916 97.14C185.141 97.14 184.49 96.9837 183.963 96.671C183.44 96.3537 183.044 95.929 182.773 95.397C182.507 94.8603 182.374 94.2653 182.374 93.612C182.374 92.9307 182.502 92.317 182.759 91.771C183.02 91.225 183.419 90.7933 183.956 90.476C184.493 90.1587 185.179 90 186.014 90C186.373 90 186.712 90.0373 187.029 90.112C187.351 90.182 187.638 90.28 187.89 90.406L187.694 91.512C187.437 91.3907 187.164 91.295 186.875 91.225C186.59 91.155 186.294 91.12 185.986 91.12C185.23 91.12 184.654 91.3347 184.257 91.764C183.86 92.1933 183.662 92.7907 183.662 93.556C183.662 94.3027 183.851 94.9023 184.229 95.355C184.607 95.8077 185.183 96.034 185.958 96.034C186.275 96.034 186.579 95.9967 186.868 95.922C187.162 95.8473 187.442 95.7447 187.708 95.614L187.876 96.622C187.689 96.7527 187.416 96.8717 187.057 96.979C186.698 97.0863 186.317 97.14 185.916 97.14ZM189.124 97V90.14H190.16L190.314 91.274C190.664 90.84 190.997 90.5203 191.315 90.315C191.637 90.105 191.98 90 192.344 90C192.46 90 192.568 90.014 192.666 90.042L192.54 91.428C192.479 91.414 192.414 91.4047 192.344 91.4C192.278 91.3907 192.204 91.386 192.12 91.386C191.756 91.386 191.42 91.4677 191.112 91.631C190.808 91.7897 190.594 91.9647 190.468 92.156V97H189.124ZM193.553 97V90.14H194.813V97H193.553ZM193.553 88.6V87.2H194.813V88.6H193.553ZM196.52 100.388V90.14H197.5L197.724 91.708L197.374 91.456C197.663 91.008 198.02 90.6533 198.445 90.392C198.87 90.1307 199.39 90 200.006 90C200.631 90 201.168 90.1587 201.616 90.476C202.064 90.7933 202.407 91.2227 202.645 91.764C202.883 92.3007 203.002 92.9027 203.002 93.57C203.002 94.2373 202.89 94.8417 202.666 95.383C202.442 95.9197 202.108 96.3467 201.665 96.664C201.222 96.9813 200.669 97.14 200.006 97.14C199.46 97.14 198.965 97.028 198.522 96.804C198.083 96.5753 197.766 96.2347 197.57 95.782L197.78 95.53V100.388H196.52ZM199.768 96.02C200.379 96.02 200.855 95.8053 201.196 95.376C201.541 94.942 201.714 94.34 201.714 93.57C201.714 92.8 201.541 92.2003 201.196 91.771C200.855 91.337 200.379 91.12 199.768 91.12C199.39 91.12 199.045 91.211 198.732 91.393C198.424 91.5703 198.177 91.841 197.99 92.205C197.803 92.5643 197.71 93.0193 197.71 93.57C197.71 94.144 197.803 94.6107 197.99 94.97C198.177 95.3293 198.424 95.5953 198.732 95.768C199.045 95.936 199.39 96.02 199.768 96.02ZM206.583 97.14C206.149 97.14 205.802 97.0607 205.54 96.902C205.279 96.7433 205.088 96.5403 204.966 96.293C204.85 96.041 204.791 95.7773 204.791 95.502V91.12H203.615L203.727 90.14H204.791V88.446L206.051 88.32V90.14H207.857V91.12H206.051V94.732C206.051 95.1707 206.077 95.488 206.128 95.684C206.18 95.88 206.306 96.0037 206.506 96.055C206.712 96.1063 207.041 96.132 207.493 96.132H207.815L207.717 97.14H206.583ZM210.88 97.14C210.273 97.14 209.769 97.0677 209.368 96.923C208.971 96.7783 208.691 96.65 208.528 96.538L208.682 95.32C208.831 95.4507 209.095 95.6 209.473 95.768C209.851 95.936 210.301 96.02 210.824 96.02C211.267 96.02 211.606 95.9453 211.839 95.796C212.077 95.6467 212.196 95.4367 212.196 95.166C212.196 94.928 212.119 94.7367 211.965 94.592C211.816 94.4427 211.634 94.326 211.419 94.242C211.209 94.1533 211.011 94.0833 210.824 94.032C210.511 93.948 210.187 93.843 209.851 93.717C209.52 93.5863 209.24 93.3927 209.011 93.136C208.782 92.8793 208.668 92.52 208.668 92.058C208.668 91.708 208.752 91.3767 208.92 91.064C209.088 90.7467 209.361 90.49 209.739 90.294C210.117 90.098 210.619 90 211.244 90C211.701 90 212.072 90.049 212.357 90.147C212.646 90.2403 212.896 90.3407 213.106 90.448L212.952 91.596C212.751 91.428 212.518 91.2857 212.252 91.169C211.986 91.0523 211.659 90.994 211.272 90.994C210.88 90.994 210.56 91.0687 210.313 91.218C210.066 91.3627 209.942 91.596 209.942 91.918C209.942 92.24 210.073 92.4687 210.334 92.604C210.6 92.7393 211.001 92.8887 211.538 93.052C211.706 93.0987 211.9 93.1663 212.119 93.255C212.343 93.3437 212.56 93.4627 212.77 93.612C212.98 93.7613 213.153 93.9573 213.288 94.2C213.428 94.438 213.498 94.7367 213.498 95.096C213.498 95.3993 213.426 95.7097 213.281 96.027C213.136 96.3397 212.875 96.6033 212.497 96.818C212.119 97.0327 211.58 97.14 210.88 97.14ZM39.7993 114V107.14H41.0593V114H39.7993ZM39.7993 105.6V104.2H41.0593V105.6H39.7993ZM42.7661 114V107.14H43.7461L43.9981 108.456L43.5081 108.246C43.9701 107.733 44.4204 107.397 44.8591 107.238C45.3024 107.079 45.7341 107 46.1541 107C47.1574 107 47.8738 107.289 48.3031 107.868C48.7371 108.447 48.9541 109.231 48.9541 110.22V114H47.6941V110.22C47.6941 109.492 47.5588 108.96 47.2881 108.624C47.0174 108.288 46.5554 108.12 45.9021 108.12C45.4401 108.12 45.0154 108.223 44.6281 108.428C44.2454 108.629 43.9934 108.951 43.8721 109.394L44.0261 108.624V114H42.7661ZM52.843 114.14C52.409 114.14 52.0614 114.061 51.8 113.902C51.5387 113.743 51.3474 113.54 51.226 113.293C51.1094 113.041 51.051 112.777 51.051 112.502V108.12H49.875L49.987 107.14H51.051V105.446L52.311 105.32V107.14H54.117V108.12H52.311V111.732C52.311 112.171 52.3367 112.488 52.388 112.684C52.4394 112.88 52.5654 113.004 52.766 113.055C52.9714 113.106 53.3004 113.132 53.753 113.132H54.075L53.977 114.14H52.843ZM58.4292 114.14C57.6218 114.14 56.9428 113.974 56.3922 113.643C55.8415 113.312 55.4238 112.873 55.1392 112.327C54.8592 111.776 54.7192 111.172 54.7192 110.514C54.7192 109.875 54.8498 109.289 55.1112 108.757C55.3772 108.225 55.7598 107.8 56.2592 107.483C56.7632 107.161 57.3698 107 58.0792 107C58.6485 107 59.1548 107.114 59.5982 107.343C60.0462 107.567 60.3962 107.896 60.6482 108.33C60.9048 108.759 61.0332 109.282 61.0332 109.898C61.0332 109.996 61.0285 110.103 61.0192 110.22C61.0145 110.332 61.0005 110.449 60.9772 110.57H56.0072C56.0678 111.205 56.2195 111.699 56.4622 112.054C56.7048 112.409 57.0105 112.658 57.3792 112.803C57.7478 112.948 58.1492 113.02 58.5832 113.02C58.9005 113.02 59.2318 112.987 59.5772 112.922C59.9225 112.857 60.2492 112.754 60.5572 112.614L60.7252 113.608C60.4592 113.725 60.1348 113.844 59.7522 113.965C59.3695 114.082 58.9285 114.14 58.4292 114.14ZM56.1192 109.702H59.7312C59.7312 109.38 59.6705 109.1 59.5492 108.862C59.4278 108.624 59.2435 108.442 58.9962 108.316C58.7488 108.185 58.4338 108.12 58.0512 108.12C57.4912 108.12 57.0595 108.26 56.7562 108.54C56.4575 108.815 56.2452 109.203 56.1192 109.702ZM62.3032 114V107.14H63.5632V114H62.3032ZM62.3032 105.6V104.2H63.5632V105.6H62.3032ZM65.27 114V107.14H66.306L66.46 108.274C66.81 107.84 67.1437 107.52 67.461 107.315C67.783 107.105 68.126 107 68.49 107C68.6067 107 68.714 107.014 68.812 107.042L68.686 108.428C68.6253 108.414 68.56 108.405 68.49 108.4C68.4247 108.391 68.35 108.386 68.266 108.386C67.902 108.386 67.566 108.468 67.258 108.631C66.9547 108.79 66.74 108.965 66.614 109.156V114H65.27ZM72.518 114.14C71.7993 114.14 71.1856 113.981 70.677 113.664C70.173 113.342 69.7856 112.913 69.515 112.376C69.249 111.835 69.116 111.233 69.116 110.57C69.116 109.907 69.249 109.308 69.515 108.771C69.7856 108.23 70.173 107.8 70.677 107.483C71.1856 107.161 71.7993 107 72.518 107C73.232 107 73.8433 107.161 74.352 107.483C74.8606 107.8 75.248 108.23 75.514 108.771C75.7846 109.308 75.92 109.907 75.92 110.57C75.92 111.233 75.7846 111.835 75.514 112.376C75.248 112.913 74.8606 113.342 74.352 113.664C73.8433 113.981 73.232 114.14 72.518 114.14ZM72.518 113.02C73.1993 113.02 73.722 112.805 74.086 112.376C74.45 111.942 74.632 111.34 74.632 110.57C74.632 109.8 74.45 109.2 74.086 108.771C73.722 108.337 73.1993 108.12 72.518 108.12C71.8413 108.12 71.3186 108.337 70.95 108.771C70.586 109.2 70.404 109.8 70.404 110.57C70.404 111.34 70.586 111.942 70.95 112.376C71.3186 112.805 71.8413 113.02 72.518 113.02ZM79.1652 114.14C78.5586 114.14 78.0546 114.068 77.6532 113.923C77.2566 113.778 76.9766 113.65 76.8132 113.538L76.9672 112.32C77.1166 112.451 77.3802 112.6 77.7582 112.768C78.1362 112.936 78.5866 113.02 79.1092 113.02C79.5526 113.02 79.8909 112.945 80.1242 112.796C80.3622 112.647 80.4812 112.437 80.4812 112.166C80.4812 111.928 80.4042 111.737 80.2502 111.592C80.1009 111.443 79.9189 111.326 79.7042 111.242C79.4942 111.153 79.2959 111.083 79.1092 111.032C78.7966 110.948 78.4722 110.843 78.1362 110.717C77.8049 110.586 77.5249 110.393 77.2962 110.136C77.0676 109.879 76.9532 109.52 76.9532 109.058C76.9532 108.708 77.0372 108.377 77.2052 108.064C77.3732 107.747 77.6462 107.49 78.0242 107.294C78.4022 107.098 78.9039 107 79.5292 107C79.9866 107 80.3576 107.049 80.6422 107.147C80.9316 107.24 81.1812 107.341 81.3912 107.448L81.2372 108.596C81.0366 108.428 80.8032 108.286 80.5372 108.169C80.2712 108.052 79.9446 107.994 79.5572 107.994C79.1652 107.994 78.8456 108.069 78.5982 108.218C78.3509 108.363 78.2272 108.596 78.2272 108.918C78.2272 109.24 78.3579 109.469 78.6192 109.604C78.8852 109.739 79.2866 109.889 79.8232 110.052C79.9912 110.099 80.1849 110.166 80.4042 110.255C80.6282 110.344 80.8452 110.463 81.0552 110.612C81.2652 110.761 81.4379 110.957 81.5732 111.2C81.7132 111.438 81.7832 111.737 81.7832 112.096C81.7832 112.399 81.7109 112.71 81.5662 113.027C81.4216 113.34 81.1602 113.603 80.7822 113.818C80.4042 114.033 79.8652 114.14 79.1652 114.14ZM89.4506 114.14C88.6433 114.14 87.9643 113.974 87.4136 113.643C86.863 113.312 86.4453 112.873 86.1606 112.327C85.8806 111.776 85.7406 111.172 85.7406 110.514C85.7406 109.875 85.8713 109.289 86.1326 108.757C86.3986 108.225 86.7813 107.8 87.2806 107.483C87.7846 107.161 88.3913 107 89.1006 107C89.67 107 90.1763 107.114 90.6196 107.343C91.0676 107.567 91.4176 107.896 91.6696 108.33C91.9263 108.759 92.0546 109.282 92.0546 109.898C92.0546 109.996 92.05 110.103 92.0406 110.22C92.036 110.332 92.022 110.449 91.9986 110.57H87.0286C87.0893 111.205 87.241 111.699 87.4836 112.054C87.7263 112.409 88.032 112.658 88.4006 112.803C88.7693 112.948 89.1706 113.02 89.6046 113.02C89.922 113.02 90.2533 112.987 90.5986 112.922C90.944 112.857 91.2706 112.754 91.5786 112.614L91.7466 113.608C91.4806 113.725 91.1563 113.844 90.7736 113.965C90.391 114.082 89.95 114.14 89.4506 114.14ZM87.1406 109.702H90.7526C90.7526 109.38 90.692 109.1 90.5706 108.862C90.4493 108.624 90.265 108.442 90.0176 108.316C89.7703 108.185 89.4553 108.12 89.0726 108.12C88.5126 108.12 88.081 108.26 87.7776 108.54C87.479 108.815 87.2666 109.203 87.1406 109.702ZM99.6192 114.14C98.8446 114.14 98.1936 113.984 97.6662 113.671C97.1436 113.354 96.7469 112.929 96.4762 112.397C96.2102 111.86 96.0772 111.265 96.0772 110.612C96.0772 109.931 96.2056 109.317 96.4622 108.771C96.7236 108.225 97.1226 107.793 97.6592 107.476C98.1959 107.159 98.8819 107 99.7172 107C100.077 107 100.415 107.037 100.732 107.112C101.054 107.182 101.341 107.28 101.593 107.406L101.397 108.512C101.141 108.391 100.868 108.295 100.578 108.225C100.294 108.155 99.9972 108.12 99.6892 108.12C98.9332 108.12 98.3569 108.335 97.9602 108.764C97.5636 109.193 97.3652 109.791 97.3652 110.556C97.3652 111.303 97.5542 111.902 97.9322 112.355C98.3102 112.808 98.8866 113.034 99.6612 113.034C99.9786 113.034 100.282 112.997 100.571 112.922C100.865 112.847 101.145 112.745 101.411 112.614L101.579 113.622C101.393 113.753 101.12 113.872 100.76 113.979C100.401 114.086 100.021 114.14 99.6192 114.14ZM105.727 114.14C105.008 114.14 104.395 113.981 103.886 113.664C103.382 113.342 102.995 112.913 102.724 112.376C102.458 111.835 102.325 111.233 102.325 110.57C102.325 109.907 102.458 109.308 102.724 108.771C102.995 108.23 103.382 107.8 103.886 107.483C104.395 107.161 105.008 107 105.727 107C106.441 107 107.052 107.161 107.561 107.483C108.07 107.8 108.457 108.23 108.723 108.771C108.994 109.308 109.129 109.907 109.129 110.57C109.129 111.233 108.994 111.835 108.723 112.376C108.457 112.913 108.07 113.342 107.561 113.664C107.052 113.981 106.441 114.14 105.727 114.14ZM105.727 113.02C106.408 113.02 106.931 112.805 107.295 112.376C107.659 111.942 107.841 111.34 107.841 110.57C107.841 109.8 107.659 109.2 107.295 108.771C106.931 108.337 106.408 108.12 105.727 108.12C105.05 108.12 104.528 108.337 104.159 108.771C103.795 109.2 103.613 109.8 103.613 110.57C103.613 111.34 103.795 111.942 104.159 112.376C104.528 112.805 105.05 113.02 105.727 113.02ZM110.428 114V107.14H111.408L111.66 108.456L111.184 108.232C111.614 107.77 112.031 107.45 112.437 107.273C112.843 107.091 113.27 107 113.718 107C114.054 107 114.376 107.056 114.684 107.168C114.997 107.275 115.277 107.467 115.524 107.742C115.776 108.013 115.977 108.391 116.126 108.876L115.776 108.722C115.982 108.19 116.297 107.77 116.721 107.462C117.146 107.154 117.718 107 118.436 107C119.01 107 119.493 107.107 119.885 107.322C120.277 107.532 120.571 107.856 120.767 108.295C120.968 108.729 121.068 109.282 121.068 109.954V114H119.808V109.968C119.808 109.324 119.682 108.855 119.43 108.561C119.178 108.267 118.768 108.12 118.198 108.12C117.797 108.12 117.475 108.183 117.232 108.309C116.99 108.43 116.805 108.589 116.679 108.785C116.558 108.981 116.476 109.189 116.434 109.408C116.397 109.627 116.378 109.833 116.378 110.024V114H115.118V110.22C115.118 109.66 115.051 109.228 114.915 108.925C114.78 108.622 114.591 108.412 114.348 108.295C114.106 108.178 113.826 108.12 113.508 108.12C113.046 108.12 112.633 108.223 112.269 108.428C111.905 108.629 111.66 108.951 111.534 109.394L111.688 108.708V114H110.428ZM122.706 117.388V107.14H123.686L123.91 108.708L123.56 108.456C123.849 108.008 124.206 107.653 124.631 107.392C125.055 107.131 125.576 107 126.192 107C126.817 107 127.354 107.159 127.802 107.476C128.25 107.793 128.593 108.223 128.831 108.764C129.069 109.301 129.188 109.903 129.188 110.57C129.188 111.237 129.076 111.842 128.852 112.383C128.628 112.92 128.294 113.347 127.851 113.664C127.407 113.981 126.854 114.14 126.192 114.14C125.646 114.14 125.151 114.028 124.708 113.804C124.269 113.575 123.952 113.235 123.756 112.782L123.966 112.53V117.388H122.706ZM125.954 113.02C126.565 113.02 127.041 112.805 127.382 112.376C127.727 111.942 127.9 111.34 127.9 110.57C127.9 109.8 127.727 109.2 127.382 108.771C127.041 108.337 126.565 108.12 125.954 108.12C125.576 108.12 125.23 108.211 124.918 108.393C124.61 108.57 124.362 108.841 124.176 109.205C123.989 109.564 123.896 110.019 123.896 110.57C123.896 111.144 123.989 111.611 124.176 111.97C124.362 112.329 124.61 112.595 124.918 112.768C125.23 112.936 125.576 113.02 125.954 113.02ZM132.095 114.14C131.67 114.14 131.299 114.054 130.982 113.881C130.664 113.708 130.417 113.473 130.24 113.174C130.067 112.875 129.981 112.535 129.981 112.152C129.981 111.765 130.065 111.433 130.233 111.158C130.405 110.878 130.634 110.647 130.919 110.465C131.208 110.278 131.53 110.131 131.885 110.024C132.239 109.912 132.606 109.833 132.984 109.786C133.366 109.735 133.733 109.707 134.083 109.702C134.083 109.049 133.954 108.622 133.698 108.421C133.441 108.22 133.07 108.12 132.585 108.12C132.328 108.12 132.053 108.16 131.759 108.239C131.469 108.318 131.143 108.484 130.779 108.736L130.597 107.714C130.872 107.504 131.215 107.334 131.626 107.203C132.036 107.068 132.468 107 132.921 107C133.499 107 133.966 107.103 134.321 107.308C134.675 107.509 134.934 107.849 135.098 108.33C135.261 108.811 135.343 109.464 135.343 110.29V111.69C135.343 112.017 135.357 112.287 135.385 112.502C135.417 112.712 135.487 112.871 135.595 112.978C135.707 113.081 135.884 113.132 136.127 113.132H136.253L136.057 114.14H135.959C135.553 114.14 135.238 114.1 135.014 114.021C134.794 113.942 134.626 113.827 134.51 113.678C134.393 113.529 134.288 113.347 134.195 113.132C133.938 113.431 133.635 113.673 133.285 113.86C132.935 114.047 132.538 114.14 132.095 114.14ZM132.333 113.132C132.669 113.132 132.993 113.048 133.306 112.88C133.623 112.712 133.882 112.488 134.083 112.208V110.57C133.415 110.593 132.874 110.659 132.459 110.766C132.048 110.873 131.747 111.034 131.556 111.249C131.364 111.464 131.269 111.741 131.269 112.082C131.269 112.451 131.367 112.719 131.563 112.887C131.763 113.05 132.02 113.132 132.333 113.132ZM137.225 114V107.14H138.261L138.415 108.274C138.765 107.84 139.099 107.52 139.416 107.315C139.738 107.105 140.081 107 140.445 107C140.562 107 140.669 107.014 140.767 107.042L140.641 108.428C140.58 108.414 140.515 108.405 140.445 108.4C140.38 108.391 140.305 108.386 140.221 108.386C139.857 108.386 139.521 108.468 139.213 108.631C138.91 108.79 138.695 108.965 138.569 109.156V114H137.225ZM144.021 114.14C143.587 114.14 143.239 114.061 142.978 113.902C142.716 113.743 142.525 113.54 142.404 113.293C142.287 113.041 142.229 112.777 142.229 112.502V108.12H141.053L141.165 107.14H142.229V105.446L143.489 105.32V107.14H145.295V108.12H143.489V111.732C143.489 112.171 143.514 112.488 143.566 112.684C143.617 112.88 143.743 113.004 143.944 113.055C144.149 113.106 144.478 113.132 144.931 113.132H145.253L145.155 114.14H144.021ZM146.372 114V107.14H147.632V114H146.372ZM146.372 105.6V104.2H147.632V105.6H146.372ZM151.102 114.14C150.659 114.14 150.307 114.061 150.045 113.902C149.789 113.739 149.604 113.531 149.492 113.279C149.38 113.027 149.324 112.763 149.324 112.488V103.5H150.584V111.76C150.584 112.152 150.61 112.446 150.661 112.642C150.713 112.838 150.815 112.969 150.969 113.034C151.128 113.099 151.368 113.132 151.69 113.132L151.508 114.14H151.102ZM152.633 114V103.5H153.907V108.33L153.459 108.302C153.781 107.896 154.126 107.579 154.495 107.35C154.868 107.117 155.344 107 155.923 107C156.516 107 157.01 107.133 157.407 107.399C157.804 107.665 158.1 108.036 158.296 108.512C158.497 108.988 158.597 109.543 158.597 110.178V114H157.337V110.332C157.337 109.576 157.197 109.018 156.917 108.659C156.642 108.3 156.217 108.12 155.643 108.12C155.209 108.12 154.824 108.237 154.488 108.47C154.157 108.703 153.893 109.016 153.697 109.408L153.907 108.638V114H152.633ZM163.525 114.14C162.718 114.14 162.039 113.974 161.488 113.643C160.937 113.312 160.52 112.873 160.235 112.327C159.955 111.776 159.815 111.172 159.815 110.514C159.815 109.875 159.946 109.289 160.207 108.757C160.473 108.225 160.856 107.8 161.355 107.483C161.859 107.161 162.466 107 163.175 107C163.744 107 164.251 107.114 164.694 107.343C165.142 107.567 165.492 107.896 165.744 108.33C166.001 108.759 166.129 109.282 166.129 109.898C166.129 109.996 166.124 110.103 166.115 110.22C166.11 110.332 166.096 110.449 166.073 110.57H161.103C161.164 111.205 161.315 111.699 161.558 112.054C161.801 112.409 162.106 112.658 162.475 112.803C162.844 112.948 163.245 113.02 163.679 113.02C163.996 113.02 164.328 112.987 164.673 112.922C165.018 112.857 165.345 112.754 165.653 112.614L165.821 113.608C165.555 113.725 165.231 113.844 164.848 113.965C164.465 114.082 164.024 114.14 163.525 114.14ZM161.215 109.702H164.827C164.827 109.38 164.766 109.1 164.645 108.862C164.524 108.624 164.339 108.442 164.092 108.316C163.845 108.185 163.53 108.12 163.147 108.12C162.587 108.12 162.155 108.26 161.852 108.54C161.553 108.815 161.341 109.203 161.215 109.702ZM173.833 114.14C173.026 114.14 172.347 113.974 171.796 113.643C171.246 113.312 170.828 112.873 170.543 112.327C170.263 111.776 170.123 111.172 170.123 110.514C170.123 109.875 170.254 109.289 170.515 108.757C170.781 108.225 171.164 107.8 171.663 107.483C172.167 107.161 172.774 107 173.483 107C174.053 107 174.559 107.114 175.002 107.343C175.45 107.567 175.8 107.896 176.052 108.33C176.309 108.759 176.437 109.282 176.437 109.898C176.437 109.996 176.433 110.103 176.423 110.22C176.419 110.332 176.405 110.449 176.381 110.57H171.411C171.472 111.205 171.624 111.699 171.866 112.054C172.109 112.409 172.415 112.658 172.783 112.803C173.152 112.948 173.553 113.02 173.987 113.02C174.305 113.02 174.636 112.987 174.981 112.922C175.327 112.857 175.653 112.754 175.961 112.614L176.129 113.608C175.863 113.725 175.539 113.844 175.156 113.965C174.774 114.082 174.333 114.14 173.833 114.14ZM171.523 109.702H175.135C175.135 109.38 175.075 109.1 174.953 108.862C174.832 108.624 174.648 108.442 174.4 108.316C174.153 108.185 173.838 108.12 173.455 108.12C172.895 108.12 172.464 108.26 172.16 108.54C171.862 108.815 171.649 109.203 171.523 109.702ZM179.472 114.14C179.028 114.14 178.676 114.061 178.415 113.902C178.158 113.739 177.974 113.531 177.862 113.279C177.75 113.027 177.694 112.763 177.694 112.488V103.5H178.954V111.76C178.954 112.152 178.979 112.446 179.031 112.642C179.082 112.838 179.185 112.969 179.339 113.034C179.497 113.099 179.738 113.132 180.06 113.132L179.878 114.14H179.472ZM184.238 114.14C183.43 114.14 182.751 113.974 182.201 113.643C181.65 113.312 181.232 112.873 180.948 112.327C180.668 111.776 180.528 111.172 180.528 110.514C180.528 109.875 180.658 109.289 180.92 108.757C181.186 108.225 181.568 107.8 182.068 107.483C182.572 107.161 183.178 107 183.888 107C184.457 107 184.963 107.114 185.407 107.343C185.855 107.567 186.205 107.896 186.457 108.33C186.713 108.759 186.842 109.282 186.842 109.898C186.842 109.996 186.837 110.103 186.828 110.22C186.823 110.332 186.809 110.449 186.786 110.57H181.816C181.876 111.205 182.028 111.699 182.271 112.054C182.513 112.409 182.819 112.658 183.188 112.803C183.556 112.948 183.958 113.02 184.392 113.02C184.709 113.02 185.04 112.987 185.386 112.922C185.731 112.857 186.058 112.754 186.366 112.614L186.534 113.608C186.268 113.725 185.943 113.844 185.561 113.965C185.178 114.082 184.737 114.14 184.238 114.14ZM181.928 109.702H185.54C185.54 109.38 185.479 109.1 185.358 108.862C185.236 108.624 185.052 108.442 184.805 108.316C184.557 108.185 184.242 108.12 183.86 108.12C183.3 108.12 182.868 108.26 182.565 108.54C182.266 108.815 182.054 109.203 181.928 109.702ZM190.058 114.14C189.451 114.14 188.947 114.068 188.546 113.923C188.149 113.778 187.869 113.65 187.706 113.538L187.86 112.32C188.009 112.451 188.273 112.6 188.651 112.768C189.029 112.936 189.479 113.02 190.002 113.02C190.445 113.02 190.783 112.945 191.017 112.796C191.255 112.647 191.374 112.437 191.374 112.166C191.374 111.928 191.297 111.737 191.143 111.592C190.993 111.443 190.811 111.326 190.597 111.242C190.387 111.153 190.188 111.083 190.002 111.032C189.689 110.948 189.365 110.843 189.029 110.717C188.697 110.586 188.417 110.393 188.189 110.136C187.96 109.879 187.846 109.52 187.846 109.058C187.846 108.708 187.93 108.377 188.098 108.064C188.266 107.747 188.539 107.49 188.917 107.294C189.295 107.098 189.796 107 190.422 107C190.879 107 191.25 107.049 191.535 107.147C191.824 107.24 192.074 107.341 192.284 107.448L192.13 108.596C191.929 108.428 191.696 108.286 191.43 108.169C191.164 108.052 190.837 107.994 190.45 107.994C190.058 107.994 189.738 108.069 189.491 108.218C189.243 108.363 189.12 108.596 189.12 108.918C189.12 109.24 189.25 109.469 189.512 109.604C189.778 109.739 190.179 109.889 190.716 110.052C190.884 110.099 191.077 110.166 191.297 110.255C191.521 110.344 191.738 110.463 191.948 110.612C192.158 110.761 192.33 110.957 192.466 111.2C192.606 111.438 192.676 111.737 192.676 112.096C192.676 112.399 192.603 112.71 192.459 113.027C192.314 113.34 192.053 113.603 191.675 113.818C191.297 114.033 190.758 114.14 190.058 114.14Z" fill="white"/>
<path fill-rule="evenodd" clip-rule="evenodd" d="M128.778 50.7698H170.049C171.672 50.7698 173 49.6073 173 48.1541V26.5833C173 25.1625 171.672 24 170.049 24H128.778C127.155 24 125.828 25.1625 125.828 26.5833V48.1864C125.828 49.6073 127.155 50.7698 128.778 50.7698ZM134.82 43.1428V34.4965H133.059V43.1051H131.823V44.7664H136.618C138.417 44.7664 139.766 44.3133 140.59 43.4449C141.414 42.5765 141.827 41.2172 141.827 39.2916V35.5159C141.827 33.6281 141.414 32.231 140.59 31.3626C139.766 30.4942 138.417 30.0411 136.618 30.0411H131.823V31.6647H133.059H134.82H136.356C136.993 31.6647 137.555 31.7402 138.005 31.8535C138.492 31.9667 138.867 32.1933 139.166 32.4953C139.466 32.7974 139.691 33.2127 139.841 33.7036C139.991 34.2322 140.066 34.874 140.066 35.6292V39.1783C140.066 39.9712 139.991 40.6131 139.841 41.104C139.691 41.5948 139.466 42.0101 139.166 42.3122C138.867 42.6142 138.454 42.8408 138.005 42.9541C137.555 43.0673 136.993 43.1428 136.356 43.1428H134.82ZM146.81 43.1429H154.041V44.7665H145.049V30.0412H153.891V31.7025H146.772V43.1429H146.81ZM153.779 36.5732V38.1967H148.646V36.5732H153.779ZM160.86 43.1429L158.462 34.3455H156.626L159.586 44.7665H162.959L167.08 30.0412H165.207L161.61 43.1429H160.86ZM155.39 30.0412L156.064 32.3821H157.9L157.263 30.0412H155.39Z" fill="white"/>
<path d="M67.9218 41.0585H61.8526L60.8208 44.6988H59L63.2889 30.0538H66.4854L70.7744 44.6988H68.9536L67.9218 41.0585ZM64.7658 30.8069L62.3179 39.4266H67.4565L65.0086 30.8069H64.7658Z" fill="white"/>
<path d="M72.8441 30.0538H74.5435V43.0669H81.948V44.6988H72.8441V30.0538Z" fill="white"/>
<path d="M86.5061 30.0538V39.7613C86.5061 40.9469 86.7691 41.8465 87.2951 42.4602C87.8345 43.06 88.6236 43.3598 89.6621 43.3598C90.7006 43.3598 91.4828 43.06 92.0089 42.4602C92.5483 41.8465 92.8181 40.9469 92.8181 39.7613V30.0538H94.5175V39.7613C94.5175 41.4629 94.0859 42.7601 93.2227 43.6527C92.3595 44.5454 91.1726 44.9917 89.6621 44.9917C88.1515 44.9917 86.9646 44.5454 86.1014 43.6527C85.2383 42.7601 84.8067 41.4629 84.8067 39.7613V30.0538H86.5061Z" fill="white"/>
<path d="M106.48 44.6988H104.781V39.8032C104.781 39.4405 104.7 39.1616 104.538 38.9663C104.376 38.7711 104.093 38.6734 103.688 38.6734H99.2779V44.6988H97.5785V30.0538H102.636C103.365 30.0538 103.998 30.1654 104.538 30.3885C105.077 30.5977 105.522 30.8837 105.873 31.2463C106.237 31.6089 106.507 32.0343 106.682 32.5225C106.871 32.9967 106.966 33.4988 106.966 34.0289V34.6565C106.966 35.2005 106.817 35.7444 106.521 36.2884C106.237 36.8323 105.792 37.2508 105.185 37.5437V37.7947C105.59 37.8645 105.907 38.0318 106.136 38.2968C106.365 38.5618 106.48 38.9384 106.48 39.4266V44.6988ZM99.2779 37.0415H102.434C103.391 37.0415 104.1 36.8323 104.558 36.4139C105.03 35.9815 105.266 35.3539 105.266 34.531V34.1544C105.266 33.4152 105.03 32.8224 104.558 32.3761C104.1 31.9158 103.391 31.6856 102.434 31.6856H99.2779V37.0415Z" fill="white"/>
<path d="M117.472 41.0585H111.402L110.371 44.6988H108.55L112.839 30.0538H116.035L120.324 44.6988H118.503L117.472 41.0585ZM114.316 30.8069L111.868 39.4266H117.006L114.558 30.8069H114.316Z" fill="white"/>
</svg>
