<svg width="150" height="150" viewBox="0 0 150 150" fill="none" xmlns="http://www.w3.org/2000/svg">
<circle cx="75" cy="75" r="75" fill="#051D3B"/>
<path fill-rule="evenodd" clip-rule="evenodd" d="M87.7782 88.7698H129.049C130.672 88.7698 132 87.6073 132 86.1541V64.5833C132 63.1625 130.672 62 129.049 62H87.7782C86.1553 62 84.8276 63.1625 84.8276 64.5833V86.1864C84.8276 87.6073 86.1553 88.7698 87.7782 88.7698ZM93.8199 81.1428V72.4965H92.0589V81.1051H90.8225V82.7664H95.6184C97.4169 82.7664 98.7657 82.3133 99.59 81.4449C100.414 80.5765 100.826 79.2172 100.826 77.2916V73.5159C100.826 71.6281 100.414 70.231 99.59 69.3626C98.7657 68.4942 97.4169 68.0411 95.6184 68.0411H90.8225V69.6647H92.0589H93.8199H95.3561C95.9931 69.6647 96.5551 69.7402 97.0047 69.8535C97.4918 69.9667 97.8665 70.1933 98.1662 70.4953C98.466 70.7974 98.6908 71.2127 98.8406 71.7036C98.9905 72.2322 99.0655 72.874 99.0655 73.6292V77.1783C99.0655 77.9712 98.9905 78.6131 98.8406 79.104C98.6908 79.5948 98.466 80.0101 98.1662 80.3122C97.8665 80.6142 97.4543 80.8408 97.0047 80.9541C96.5551 81.0673 95.9931 81.1428 95.3561 81.1428H93.8199ZM105.81 81.1429H113.041V82.7665H104.049V68.0412H112.891V69.7025H105.772V81.1429H105.81ZM112.779 74.5732V76.1967H107.646V74.5732H112.779ZM119.86 81.1429L117.462 72.3455H115.626L118.586 82.7665H121.959L126.08 68.0412H124.207L120.61 81.1429H119.86ZM114.39 68.0412L115.064 70.3822H116.9L116.263 68.0412H114.39Z" fill="white"/>
<path d="M26.9218 79.0585H20.8526L19.8208 82.6988H18L22.2889 68.0538H25.4854L29.7744 82.6988H27.9536L26.9218 79.0585ZM23.7658 68.8069L21.3179 77.4266H26.4565L24.0086 68.8069H23.7658Z" fill="white"/>
<path d="M31.8441 68.0538H33.5435V81.0669H40.9479V82.6988H31.8441V68.0538Z" fill="white"/>
<path d="M45.5061 68.0538V77.7613C45.5061 78.9469 45.7691 79.8465 46.2951 80.4602C46.8345 81.0599 47.6236 81.3598 48.6621 81.3598C49.7006 81.3598 50.4828 81.0599 51.0088 80.4602C51.5483 79.8465 51.8181 78.9469 51.8181 77.7613V68.0538H53.5175V77.7613C53.5175 79.4629 53.0859 80.7601 52.2227 81.6527C51.3595 82.5454 50.1726 82.9917 48.6621 82.9917C47.1515 82.9917 45.9646 82.5454 45.1014 81.6527C44.2383 80.7601 43.8067 79.4629 43.8067 77.7613V68.0538H45.5061Z" fill="white"/>
<path d="M65.4801 82.6988H63.7807V77.8032C63.7807 77.4405 63.6998 77.1616 63.5379 76.9663C63.3761 76.771 63.0928 76.6734 62.6882 76.6734H58.2779V82.6988H56.5785V68.0538H61.6362C62.3645 68.0538 62.9984 68.1653 63.5379 68.3885C64.0774 68.5977 64.5225 68.8836 64.8731 69.2463C65.2373 69.6089 65.507 70.0343 65.6824 70.5225C65.8712 70.9967 65.9656 71.4988 65.9656 72.0288V72.6565C65.9656 73.2004 65.8172 73.7444 65.5205 74.2884C65.2373 74.8323 64.7922 75.2507 64.1853 75.5436V75.7947C64.5899 75.8644 64.9069 76.0318 65.1361 76.2968C65.3654 76.5618 65.4801 76.9384 65.4801 77.4266V82.6988ZM58.2779 75.0415H61.4339C62.3915 75.0415 63.0996 74.8323 63.5581 74.4139C64.0302 73.9815 64.2662 73.3539 64.2662 72.531V72.1544C64.2662 71.4151 64.0302 70.8224 63.5581 70.376C63.0996 69.9158 62.3915 69.6856 61.4339 69.6856H58.2779V75.0415Z" fill="white"/>
<path d="M76.4716 79.0585H70.4023L69.3706 82.6988H67.5498L71.8387 68.0538H75.0352L79.3241 82.6988H77.5034L76.4716 79.0585ZM73.3156 68.8069L70.8676 77.4266H76.0063L73.5583 68.8069H73.3156Z" fill="white"/>
</svg>
