<svg width="150" height="150" viewBox="0 0 150 150" fill="none" xmlns="http://www.w3.org/2000/svg">
<circle cx="75" cy="75" r="75" fill="#300080"/>
<path d="M10.4751 80V64.0978H10.497L18.1634 74.984L17.7034 74.9183L25.3478 64.0978H25.3698V80H24.3184V66.5729L24.406 67.0986L17.9224 76.2325H17.8786L11.3513 67.0986L11.5265 66.6167V80H10.4751ZM33.5235 80.1752C32.6327 80.1752 31.8442 79.9781 31.1578 79.5838C30.4715 79.1896 29.9312 78.6566 29.537 77.9848C29.1573 77.2985 28.9675 76.5319 28.9675 75.6849C28.9675 74.8526 29.1719 74.0933 29.5808 73.4069C29.9896 72.7206 30.5372 72.173 31.2236 71.7642C31.9245 71.3553 32.6984 71.1508 33.5454 71.1508C34.5675 71.1508 35.4218 71.4502 36.1081 72.0489C36.809 72.6476 37.3128 73.4288 37.6195 74.3926L30.1284 77.2839L29.8217 76.5392L36.6776 73.8669L36.4586 74.1736C36.2103 73.5895 35.8307 73.0857 35.3196 72.6622C34.8231 72.2387 34.2098 72.027 33.4796 72.027C32.8225 72.027 32.2311 72.1876 31.7054 72.5089C31.1797 72.8301 30.7563 73.2609 30.435 73.8012C30.1284 74.3415 29.975 74.9548 29.975 75.6411C29.975 76.2836 30.1211 76.8824 30.4131 77.4372C30.7198 77.9921 31.1432 78.4375 31.6835 78.7734C32.2238 79.1092 32.8444 79.2772 33.5454 79.2772C34.0126 79.2772 34.458 79.1896 34.8815 79.0143C35.3196 78.8391 35.7065 78.6128 36.0424 78.3353L36.5681 79.08C36.1592 79.4013 35.6846 79.6641 35.1443 79.8686C34.6186 80.073 34.0784 80.1752 33.5235 80.1752ZM40.4737 63.3531H41.5031V80H40.4737V63.3531ZM45.3935 80V63.3531H46.401V73.7136L46.3353 73.3412C46.6274 72.7425 47.0947 72.2387 47.7372 71.8299C48.3943 71.4064 49.1463 71.1947 49.9933 71.1947C50.7964 71.1947 51.4462 71.4356 51.9427 71.9175C52.4392 72.3848 52.6947 72.9981 52.7093 73.7574V80H51.658V74.0422C51.6434 73.4873 51.4681 73.0273 51.1323 72.6622C50.7964 72.2971 50.3072 72.1073 49.6647 72.0927C49.0952 72.0927 48.5622 72.2387 48.0657 72.5308C47.5692 72.8228 47.1677 73.2171 46.861 73.7136C46.569 74.2101 46.4229 74.7723 46.4229 75.4002V80H45.3935ZM55.7697 75.663C55.7697 74.8307 55.9669 74.0714 56.3611 73.385C56.77 72.6987 57.3176 72.1584 58.0039 71.7642C58.7048 71.3553 59.4861 71.1508 60.3476 71.1508C61.2238 71.1508 62.005 71.3553 62.6913 71.7642C63.3777 72.1584 63.918 72.6987 64.3122 73.385C64.7065 74.0714 64.9036 74.8307 64.9036 75.663C64.9036 76.4954 64.7065 77.2547 64.3122 77.941C63.918 78.6274 63.3704 79.175 62.6694 79.5838C61.9831 79.9781 61.2092 80.1752 60.3476 80.1752C59.4715 80.1752 58.6902 79.9854 58.0039 79.6057C57.3176 79.2115 56.77 78.6785 56.3611 78.0067C55.9669 77.3204 55.7697 76.5392 55.7697 75.663ZM56.7992 75.6849C56.7992 76.3567 56.9525 76.97 57.2592 77.5249C57.5804 78.0652 58.0039 78.4959 58.5296 78.8172C59.0699 79.1384 59.6686 79.2991 60.3257 79.2991C60.9828 79.2991 61.5742 79.1384 62.0999 78.8172C62.6402 78.4959 63.0637 78.0652 63.3704 77.5249C63.6916 76.97 63.8522 76.3567 63.8522 75.6849C63.8522 75.0132 63.6916 74.4072 63.3704 73.8669C63.0637 73.312 62.6402 72.8739 62.0999 72.5527C61.5742 72.2168 60.9828 72.0489 60.3257 72.0489C59.654 72.0489 59.048 72.2241 58.5077 72.5746C57.982 72.9105 57.5658 73.3558 57.2592 73.9107C56.9525 74.4656 56.7992 75.057 56.7992 75.6849ZM68.8585 71.4356L68.968 74.0641L68.8366 73.7355C69.0264 73.2098 69.3257 72.7571 69.7346 72.3775C70.1435 71.9978 70.5962 71.7057 71.0927 71.5013C71.6037 71.2969 72.0929 71.1947 72.5602 71.1947L72.5164 72.2022C71.8593 72.2022 71.2606 72.3483 70.7203 72.6403C70.1946 72.9324 69.7711 73.3266 69.4499 73.8231C69.1432 74.305 68.9899 74.8526 68.9899 75.4659V80H67.9604V71.4356H68.8585ZM81.3313 80L87.9025 63.7692H87.9901L94.5613 80H93.3565L87.6396 65.4777L88.3844 65.0616L82.4046 80H81.3313ZM84.5074 73.845H91.4071L91.7138 74.8526H84.2445L84.5074 73.845ZM98.5271 71.4356L98.6366 73.8231L98.4833 73.6041C98.7753 72.8593 99.2572 72.2752 99.9289 71.8518C100.615 71.4137 101.36 71.1947 102.163 71.1947C102.645 71.1947 103.076 71.2896 103.455 71.4794C103.85 71.6546 104.164 71.9029 104.397 72.2241C104.646 72.5308 104.792 72.8886 104.835 73.2974L104.704 73.4288C105.011 72.6987 105.492 72.1438 106.15 71.7642C106.807 71.3845 107.515 71.1947 108.274 71.1947C109.092 71.1947 109.742 71.4356 110.224 71.9175C110.706 72.3848 110.954 72.9981 110.968 73.7574V80H109.939V73.9764C109.924 73.4654 109.764 73.0346 109.457 72.6841C109.15 72.3191 108.683 72.1219 108.055 72.0927C107.486 72.0927 106.96 72.2387 106.478 72.5308C105.996 72.8228 105.602 73.2098 105.295 73.6917C105.003 74.1736 104.843 74.7139 104.813 75.3126V80H103.784V73.9764C103.769 73.4654 103.601 73.0346 103.28 72.6841C102.974 72.3191 102.506 72.1219 101.878 72.0927C101.294 72.0927 100.754 72.2387 100.257 72.5308C99.7756 72.8228 99.3886 73.2244 99.0966 73.7355C98.8045 74.232 98.6585 74.7869 98.6585 75.4002V80H97.629V71.4356H98.5271ZM114.87 71.4356H115.899V80H114.87V71.4356ZM114.651 68.2814C114.651 68.077 114.731 67.9091 114.892 67.7777C115.052 67.6316 115.227 67.5586 115.417 67.5586C115.622 67.5586 115.797 67.6316 115.943 67.7777C116.089 67.9091 116.162 68.077 116.162 68.2814C116.162 68.5005 116.089 68.683 115.943 68.829C115.797 68.9605 115.622 69.0262 115.417 69.0262C115.227 69.0262 115.052 68.9532 114.892 68.8071C114.731 68.6611 114.651 68.4859 114.651 68.2814ZM123.601 84.1836C123.119 84.1836 122.659 84.1252 122.221 84.0084C121.783 83.9062 121.352 83.7237 120.929 83.4608C120.505 83.198 120.067 82.8548 119.614 82.4313L120.228 81.7304C120.856 82.3291 121.44 82.7307 121.98 82.9351C122.52 83.1542 123.046 83.2637 123.557 83.2637C124.448 83.2637 125.156 83.1176 125.682 82.8256C126.207 82.5481 126.587 82.1685 126.821 81.6866C127.054 81.2193 127.178 80.6936 127.193 80.1095L127.215 77.3277L127.456 77.5906C127.164 78.3499 126.638 78.9705 125.879 79.4524C125.134 79.9343 124.287 80.1752 123.338 80.1752C122.535 80.1752 121.797 79.9781 121.126 79.5838C120.469 79.175 119.943 78.6347 119.549 77.9629C119.154 77.2766 118.957 76.5173 118.957 75.6849C118.957 74.7942 119.162 74.0129 119.57 73.3412C119.979 72.6695 120.534 72.1438 121.235 71.7642C121.936 71.3699 122.71 71.1727 123.557 71.1727C124.346 71.1727 125.09 71.3772 125.791 71.7861C126.507 72.1949 127.025 72.7352 127.346 73.4069L127.215 73.8888L127.324 71.4356H128.244V80.1314C128.244 80.8323 128.084 81.4895 127.763 82.1028C127.456 82.7307 126.959 83.2345 126.273 83.6141C125.601 83.9938 124.711 84.1836 123.601 84.1836ZM119.987 75.663C119.987 76.3348 120.147 76.9481 120.469 77.503C120.79 78.0433 121.221 78.4813 121.761 78.8172C122.316 79.1384 122.929 79.2991 123.601 79.2991C124.243 79.2991 124.827 79.1604 125.353 78.8829C125.879 78.5909 126.31 78.2039 126.645 77.722C126.981 77.2401 127.171 76.7217 127.215 76.1668V74.8964C127.098 74.3415 126.864 73.8523 126.514 73.4288C126.178 73.0054 125.755 72.6695 125.244 72.4213C124.747 72.173 124.2 72.0489 123.601 72.0489C122.929 72.0489 122.316 72.2022 121.761 72.5089C121.221 72.8155 120.79 73.239 120.469 73.7793C120.147 74.3196 119.987 74.9475 119.987 75.663ZM131.321 75.663C131.321 74.8307 131.518 74.0714 131.912 73.385C132.321 72.6987 132.869 72.1584 133.555 71.7642C134.256 71.3553 135.037 71.1508 135.899 71.1508C136.775 71.1508 137.556 71.3553 138.242 71.7642C138.929 72.1584 139.469 72.6987 139.863 73.385C140.258 74.0714 140.455 74.8307 140.455 75.663C140.455 76.4954 140.258 77.2547 139.863 77.941C139.469 78.6274 138.922 79.175 138.221 79.5838C137.534 79.9781 136.76 80.1752 135.899 80.1752C135.023 80.1752 134.241 79.9854 133.555 79.6057C132.869 79.2115 132.321 78.6785 131.912 78.0067C131.518 77.3204 131.321 76.5392 131.321 75.663ZM132.35 75.6849C132.35 76.3567 132.504 76.97 132.81 77.5249C133.132 78.0652 133.555 78.4959 134.081 78.8172C134.621 79.1384 135.22 79.2991 135.877 79.2991C136.534 79.2991 137.125 79.1384 137.651 78.8172C138.191 78.4959 138.615 78.0652 138.922 77.5249C139.243 76.97 139.403 76.3567 139.403 75.6849C139.403 75.0132 139.243 74.4072 138.922 73.8669C138.615 73.312 138.191 72.8739 137.651 72.5527C137.125 72.2168 136.534 72.0489 135.877 72.0489C135.205 72.0489 134.599 72.2241 134.059 72.5746C133.533 72.9105 133.117 73.3558 132.81 73.9107C132.504 74.4656 132.35 75.057 132.35 75.6849Z" fill="white"/>
</svg>
