<svg width="231" height="150" viewBox="0 0 231 150" fill="none" xmlns="http://www.w3.org/2000/svg">
<rect width="231" height="150" rx="5" fill="#300080"/>
<path d="M51.4751 50V34.0978H51.497L59.1634 44.984L58.7034 44.9183L66.3478 34.0978H66.3698V50H65.3184V36.5729L65.406 37.0986L58.9224 46.2325H58.8786L52.3513 37.0986L52.5265 36.6167V50H51.4751ZM74.5235 50.1752C73.6327 50.1752 72.8442 49.9781 72.1578 49.5838C71.4715 49.1896 70.9312 48.6566 70.537 47.9848C70.1573 47.2985 69.9675 46.5319 69.9675 45.6849C69.9675 44.8526 70.1719 44.0933 70.5808 43.4069C70.9896 42.7206 71.5372 42.173 72.2236 41.7642C72.9245 41.3553 73.6984 41.1508 74.5454 41.1508C75.5675 41.1508 76.4218 41.4502 77.1081 42.0489C77.809 42.6476 78.3128 43.4288 78.6195 44.3926L71.1284 47.2839L70.8217 46.5392L77.6776 43.8669L77.4586 44.1736C77.2103 43.5895 76.8307 43.0857 76.3196 42.6622C75.8231 42.2387 75.2098 42.027 74.4796 42.027C73.8225 42.027 73.2311 42.1876 72.7054 42.5089C72.1797 42.8301 71.7563 43.2609 71.435 43.8012C71.1284 44.3415 70.975 44.9548 70.975 45.6411C70.975 46.2836 71.1211 46.8824 71.4131 47.4372C71.7198 47.9921 72.1432 48.4375 72.6835 48.7734C73.2238 49.1092 73.8444 49.2772 74.5454 49.2772C75.0126 49.2772 75.458 49.1896 75.8815 49.0143C76.3196 48.8391 76.7065 48.6128 77.0424 48.3353L77.5681 49.08C77.1592 49.4013 76.6846 49.6641 76.1443 49.8686C75.6186 50.073 75.0784 50.1752 74.5235 50.1752ZM81.4737 33.3531H82.5031V50H81.4737V33.3531ZM86.3935 50V33.3531H87.401V43.7136L87.3353 43.3412C87.6274 42.7425 88.0947 42.2387 88.7372 41.8299C89.3943 41.4064 90.1463 41.1947 90.9933 41.1947C91.7964 41.1947 92.4462 41.4356 92.9427 41.9175C93.4392 42.3848 93.6947 42.9981 93.7093 43.7574V50H92.658V44.0422C92.6434 43.4873 92.4681 43.0273 92.1323 42.6622C91.7964 42.2971 91.3072 42.1073 90.6647 42.0927C90.0952 42.0927 89.5622 42.2387 89.0657 42.5308C88.5692 42.8228 88.1677 43.2171 87.861 43.7136C87.569 44.2101 87.4229 44.7723 87.4229 45.4002V50H86.3935ZM96.7697 45.663C96.7697 44.8307 96.9669 44.0714 97.3611 43.385C97.77 42.6987 98.3176 42.1584 99.0039 41.7642C99.7048 41.3553 100.486 41.1508 101.348 41.1508C102.224 41.1508 103.005 41.3553 103.691 41.7642C104.378 42.1584 104.918 42.6987 105.312 43.385C105.706 44.0714 105.904 44.8307 105.904 45.663C105.904 46.4954 105.706 47.2547 105.312 47.941C104.918 48.6274 104.37 49.175 103.669 49.5838C102.983 49.9781 102.209 50.1752 101.348 50.1752C100.471 50.1752 99.6902 49.9854 99.0039 49.6057C98.3176 49.2115 97.77 48.6785 97.3611 48.0067C96.9669 47.3204 96.7697 46.5392 96.7697 45.663ZM97.7992 45.6849C97.7992 46.3567 97.9525 46.97 98.2592 47.5249C98.5804 48.0652 99.0039 48.4959 99.5296 48.8172C100.07 49.1384 100.669 49.2991 101.326 49.2991C101.983 49.2991 102.574 49.1384 103.1 48.8172C103.64 48.4959 104.064 48.0652 104.37 47.5249C104.692 46.97 104.852 46.3567 104.852 45.6849C104.852 45.0132 104.692 44.4072 104.37 43.8669C104.064 43.312 103.64 42.8739 103.1 42.5527C102.574 42.2168 101.983 42.0489 101.326 42.0489C100.654 42.0489 100.048 42.2241 99.5077 42.5746C98.982 42.9105 98.5658 43.3558 98.2592 43.9107C97.9525 44.4656 97.7992 45.057 97.7992 45.6849ZM109.858 41.4356L109.968 44.0641L109.837 43.7355C110.026 43.2098 110.326 42.7571 110.735 42.3775C111.143 41.9978 111.596 41.7057 112.093 41.5013C112.604 41.2969 113.093 41.1947 113.56 41.1947L113.516 42.2022C112.859 42.2022 112.261 42.3483 111.72 42.6403C111.195 42.9324 110.771 43.3266 110.45 43.8231C110.143 44.305 109.99 44.8526 109.99 45.4659V50H108.96V41.4356H109.858ZM122.331 50L128.902 33.7692H128.99L135.561 50H134.357L128.64 35.4777L129.384 35.0616L123.405 50H122.331ZM125.507 43.845H132.407L132.714 44.8526H125.245L125.507 43.845ZM139.527 41.4356L139.637 43.8231L139.483 43.6041C139.775 42.8593 140.257 42.2752 140.929 41.8518C141.615 41.4137 142.36 41.1947 143.163 41.1947C143.645 41.1947 144.076 41.2896 144.455 41.4794C144.85 41.6546 145.164 41.9029 145.397 42.2241C145.646 42.5308 145.792 42.8886 145.835 43.2974L145.704 43.4288C146.011 42.6987 146.492 42.1438 147.15 41.7642C147.807 41.3845 148.515 41.1947 149.274 41.1947C150.092 41.1947 150.742 41.4356 151.224 41.9175C151.706 42.3848 151.954 42.9981 151.968 43.7574V50H150.939V43.9764C150.924 43.4654 150.764 43.0346 150.457 42.6841C150.15 42.3191 149.683 42.1219 149.055 42.0927C148.486 42.0927 147.96 42.2387 147.478 42.5308C146.996 42.8228 146.602 43.2098 146.295 43.6917C146.003 44.1736 145.843 44.7139 145.813 45.3126V50H144.784V43.9764C144.769 43.4654 144.601 43.0346 144.28 42.6841C143.974 42.3191 143.506 42.1219 142.878 42.0927C142.294 42.0927 141.754 42.2387 141.257 42.5308C140.776 42.8228 140.389 43.2244 140.097 43.7355C139.805 44.232 139.658 44.7869 139.658 45.4002V50H138.629V41.4356H139.527ZM155.87 41.4356H156.899V50H155.87V41.4356ZM155.651 38.2814C155.651 38.077 155.731 37.9091 155.892 37.7777C156.052 37.6316 156.227 37.5586 156.417 37.5586C156.622 37.5586 156.797 37.6316 156.943 37.7777C157.089 37.9091 157.162 38.077 157.162 38.2814C157.162 38.5005 157.089 38.683 156.943 38.829C156.797 38.9605 156.622 39.0262 156.417 39.0262C156.227 39.0262 156.052 38.9532 155.892 38.8071C155.731 38.6611 155.651 38.4859 155.651 38.2814ZM164.601 54.1836C164.119 54.1836 163.659 54.1252 163.221 54.0084C162.783 53.9062 162.352 53.7237 161.929 53.4608C161.505 53.198 161.067 52.8548 160.614 52.4313L161.228 51.7304C161.856 52.3291 162.44 52.7307 162.98 52.9351C163.52 53.1542 164.046 53.2637 164.557 53.2637C165.448 53.2637 166.156 53.1176 166.682 52.8256C167.207 52.5481 167.587 52.1685 167.821 51.6866C168.054 51.2193 168.178 50.6936 168.193 50.1095L168.215 47.3277L168.456 47.5906C168.164 48.3499 167.638 48.9705 166.879 49.4524C166.134 49.9343 165.287 50.1752 164.338 50.1752C163.535 50.1752 162.797 49.9781 162.126 49.5838C161.469 49.175 160.943 48.6347 160.549 47.9629C160.154 47.2766 159.957 46.5173 159.957 45.6849C159.957 44.7942 160.162 44.0129 160.57 43.3412C160.979 42.6695 161.534 42.1438 162.235 41.7642C162.936 41.3699 163.71 41.1727 164.557 41.1727C165.346 41.1727 166.09 41.3772 166.791 41.7861C167.507 42.1949 168.025 42.7352 168.346 43.4069L168.215 43.8888L168.324 41.4356H169.244V50.1314C169.244 50.8323 169.084 51.4895 168.763 52.1028C168.456 52.7307 167.959 53.2345 167.273 53.6141C166.601 53.9938 165.711 54.1836 164.601 54.1836ZM160.987 45.663C160.987 46.3348 161.147 46.9481 161.469 47.503C161.79 48.0433 162.221 48.4813 162.761 48.8172C163.316 49.1384 163.929 49.2991 164.601 49.2991C165.243 49.2991 165.827 49.1604 166.353 48.8829C166.879 48.5909 167.31 48.2039 167.645 47.722C167.981 47.2401 168.171 46.7217 168.215 46.1668V44.8964C168.098 44.3415 167.864 43.8523 167.514 43.4288C167.178 43.0054 166.755 42.6695 166.244 42.4213C165.747 42.173 165.2 42.0489 164.601 42.0489C163.929 42.0489 163.316 42.2022 162.761 42.5089C162.221 42.8155 161.79 43.239 161.469 43.7793C161.147 44.3196 160.987 44.9475 160.987 45.663ZM172.321 45.663C172.321 44.8307 172.518 44.0714 172.912 43.385C173.321 42.6987 173.869 42.1584 174.555 41.7642C175.256 41.3553 176.037 41.1508 176.899 41.1508C177.775 41.1508 178.556 41.3553 179.242 41.7642C179.929 42.1584 180.469 42.6987 180.863 43.385C181.258 44.0714 181.455 44.8307 181.455 45.663C181.455 46.4954 181.258 47.2547 180.863 47.941C180.469 48.6274 179.922 49.175 179.221 49.5838C178.534 49.9781 177.76 50.1752 176.899 50.1752C176.023 50.1752 175.241 49.9854 174.555 49.6057C173.869 49.2115 173.321 48.6785 172.912 48.0067C172.518 47.3204 172.321 46.5392 172.321 45.663ZM173.35 45.6849C173.35 46.3567 173.504 46.97 173.81 47.5249C174.132 48.0652 174.555 48.4959 175.081 48.8172C175.621 49.1384 176.22 49.2991 176.877 49.2991C177.534 49.2991 178.125 49.1384 178.651 48.8172C179.191 48.4959 179.615 48.0652 179.922 47.5249C180.243 46.97 180.403 46.3567 180.403 45.6849C180.403 45.0132 180.243 44.4072 179.922 43.8669C179.615 43.312 179.191 42.8739 178.651 42.5527C178.125 42.2168 177.534 42.0489 176.877 42.0489C176.205 42.0489 175.599 42.2241 175.059 42.5746C174.533 42.9105 174.117 43.3558 173.81 43.9107C173.504 44.4656 173.35 45.057 173.35 45.6849Z" fill="white"/>
<path d="M43.5052 98.196C42.5999 98.196 41.7832 97.9883 41.0552 97.573C40.3319 97.153 39.7579 96.5603 39.3332 95.795C38.9132 95.0297 38.7032 94.1267 38.7032 93.086C38.7032 92.0547 38.9202 91.1587 39.3542 90.398C39.7929 89.6373 40.3926 89.0493 41.1532 88.634C41.9186 88.214 42.7912 88.004 43.7712 88.004C44.2986 88.004 44.8002 88.06 45.2762 88.172C45.7569 88.2793 46.1746 88.41 46.5292 88.564L46.4032 89.726C46.0206 89.5767 45.6146 89.453 45.1852 89.355C44.7559 89.257 44.2986 89.208 43.8132 89.208C42.9779 89.208 42.2896 89.383 41.7482 89.733C41.2116 90.0783 40.8126 90.545 40.5512 91.133C40.2899 91.721 40.1592 92.3767 40.1592 93.1C40.1592 93.8467 40.2922 94.514 40.5582 95.102C40.8242 95.6853 41.2326 96.1473 41.7832 96.488C42.3339 96.824 43.0339 96.992 43.8832 96.992C44.0932 96.992 44.3546 96.9733 44.6672 96.936C44.9799 96.8987 45.2646 96.8287 45.5212 96.726V94.29H43.9812V93.086H46.8512V97.454C46.4686 97.664 45.9926 97.8413 45.4232 97.986C44.8539 98.126 44.2146 98.196 43.5052 98.196ZM51.6391 98.14C50.8318 98.14 50.1528 97.9743 49.6021 97.643C49.0515 97.3117 48.6338 96.873 48.3491 96.327C48.0691 95.7763 47.9291 95.172 47.9291 94.514C47.9291 93.8747 48.0598 93.289 48.3211 92.757C48.5871 92.225 48.9698 91.8003 49.4691 91.483C49.9731 91.161 50.5798 91 51.2891 91C51.8585 91 52.3648 91.1143 52.8081 91.343C53.2561 91.567 53.6061 91.896 53.8581 92.33C54.1148 92.7593 54.2431 93.282 54.2431 93.898C54.2431 93.996 54.2385 94.1033 54.2291 94.22C54.2245 94.332 54.2105 94.4487 54.1871 94.57H49.2171C49.2778 95.2047 49.4295 95.6993 49.6721 96.054C49.9148 96.4087 50.2205 96.6583 50.5891 96.803C50.9578 96.9477 51.3591 97.02 51.7931 97.02C52.1105 97.02 52.4418 96.9873 52.7871 96.922C53.1325 96.8567 53.4591 96.754 53.7671 96.614L53.9351 97.608C53.6691 97.7247 53.3448 97.8437 52.9621 97.965C52.5795 98.0817 52.1385 98.14 51.6391 98.14ZM49.3291 93.702H52.9411C52.9411 93.38 52.8805 93.1 52.7591 92.862C52.6378 92.624 52.4535 92.442 52.2061 92.316C51.9588 92.1853 51.6438 92.12 51.2611 92.12C50.7011 92.12 50.2695 92.26 49.9661 92.54C49.6675 92.8153 49.4551 93.2027 49.3291 93.702ZM55.5132 98V91.14H56.5492L56.7032 92.274C57.0532 91.84 57.3868 91.5203 57.7042 91.315C58.0262 91.105 58.3692 91 58.7332 91C58.8498 91 58.9572 91.014 59.0552 91.042L58.9292 92.428C58.8685 92.414 58.8032 92.4047 58.7332 92.4C58.6678 92.3907 58.5932 92.386 58.5092 92.386C58.1452 92.386 57.8092 92.4677 57.5012 92.631C57.1978 92.7897 56.9832 92.9647 56.8572 93.156V98H55.5132ZM63.0551 98.14C62.2478 98.14 61.5688 97.9743 61.0181 97.643C60.4675 97.3117 60.0498 96.873 59.7651 96.327C59.4851 95.7763 59.3451 95.172 59.3451 94.514C59.3451 93.8747 59.4758 93.289 59.7371 92.757C60.0031 92.225 60.3858 91.8003 60.8851 91.483C61.3891 91.161 61.9958 91 62.7051 91C63.2745 91 63.7808 91.1143 64.2241 91.343C64.6721 91.567 65.0221 91.896 65.2741 92.33C65.5308 92.7593 65.6591 93.282 65.6591 93.898C65.6591 93.996 65.6545 94.1033 65.6451 94.22C65.6405 94.332 65.6265 94.4487 65.6031 94.57H60.6331C60.6938 95.2047 60.8455 95.6993 61.0881 96.054C61.3308 96.4087 61.6365 96.6583 62.0051 96.803C62.3738 96.9477 62.7751 97.02 63.2091 97.02C63.5265 97.02 63.8578 96.9873 64.2031 96.922C64.5485 96.8567 64.8751 96.754 65.1831 96.614L65.3511 97.608C65.0851 97.7247 64.7608 97.8437 64.3781 97.965C63.9955 98.0817 63.5545 98.14 63.0551 98.14ZM60.7451 93.702H64.3571C64.3571 93.38 64.2965 93.1 64.1751 92.862C64.0538 92.624 63.8695 92.442 63.6221 92.316C63.3748 92.1853 63.0598 92.12 62.6771 92.12C62.1171 92.12 61.6855 92.26 61.3821 92.54C61.0835 92.8153 60.8711 93.2027 60.7451 93.702ZM66.9292 98V91.14H67.9092L68.1612 92.456L67.6712 92.246C68.1332 91.7327 68.5835 91.3967 69.0222 91.238C69.4655 91.0793 69.8972 91 70.3172 91C71.3205 91 72.0369 91.2893 72.4662 91.868C72.9002 92.4467 73.1172 93.2307 73.1172 94.22V98H71.8572V94.22C71.8572 93.492 71.7219 92.96 71.4512 92.624C71.1805 92.288 70.7185 92.12 70.0652 92.12C69.6032 92.12 69.1785 92.2227 68.7912 92.428C68.4085 92.6287 68.1565 92.9507 68.0352 93.394L68.1892 92.624V98H66.9292ZM77.8995 98.14C77.1248 98.14 76.4738 97.9837 75.9465 97.671C75.4238 97.3537 75.0272 96.929 74.7565 96.397C74.4905 95.8603 74.3575 95.2653 74.3575 94.612C74.3575 93.9307 74.4858 93.317 74.7425 92.771C75.0038 92.225 75.4028 91.7933 75.9395 91.476C76.4762 91.1587 77.1622 91 77.9975 91C78.3568 91 78.6952 91.0373 79.0125 91.112C79.3345 91.182 79.6215 91.28 79.8735 91.406L79.6775 92.512C79.4208 92.3907 79.1478 92.295 78.8585 92.225C78.5738 92.155 78.2775 92.12 77.9695 92.12C77.2135 92.12 76.6372 92.3347 76.2405 92.764C75.8438 93.1933 75.6455 93.7907 75.6455 94.556C75.6455 95.3027 75.8345 95.9023 76.2125 96.355C76.5905 96.8077 77.1668 97.034 77.9415 97.034C78.2588 97.034 78.5622 96.9967 78.8515 96.922C79.1455 96.8473 79.4255 96.7447 79.6915 96.614L79.8595 97.622C79.6728 97.7527 79.3998 97.8717 79.0405 97.979C78.6812 98.0863 78.3008 98.14 77.8995 98.14ZM81.1069 98V91.14H82.3669V98H81.1069ZM81.1069 89.6V88.2H82.3669V89.6H81.1069ZM87.3637 98.14C86.5564 98.14 85.8774 97.9743 85.3267 97.643C84.7761 97.3117 84.3584 96.873 84.0737 96.327C83.7937 95.7763 83.6537 95.172 83.6537 94.514C83.6537 93.8747 83.7844 93.289 84.0457 92.757C84.3117 92.225 84.6944 91.8003 85.1937 91.483C85.6977 91.161 86.3044 91 87.0137 91C87.5831 91 88.0894 91.1143 88.5327 91.343C88.9807 91.567 89.3307 91.896 89.5827 92.33C89.8394 92.7593 89.9677 93.282 89.9677 93.898C89.9677 93.996 89.9631 94.1033 89.9537 94.22C89.9491 94.332 89.9351 94.4487 89.9117 94.57H84.9417C85.0024 95.2047 85.1541 95.6993 85.3967 96.054C85.6394 96.4087 85.9451 96.6583 86.3137 96.803C86.6824 96.9477 87.0837 97.02 87.5177 97.02C87.8351 97.02 88.1664 96.9873 88.5117 96.922C88.8571 96.8567 89.1837 96.754 89.4917 96.614L89.6597 97.608C89.3937 97.7247 89.0694 97.8437 88.6867 97.965C88.3041 98.0817 87.8631 98.14 87.3637 98.14ZM85.0537 93.702H88.6657C88.6657 93.38 88.6051 93.1 88.4837 92.862C88.3624 92.624 88.1781 92.442 87.9307 92.316C87.6834 92.1853 87.3684 92.12 86.9857 92.12C86.4257 92.12 85.9941 92.26 85.6907 92.54C85.3921 92.8153 85.1797 93.2027 85.0537 93.702ZM95.9783 98.14C95.5537 98.14 95.1827 98.0537 94.8653 97.881C94.548 97.7083 94.3007 97.4727 94.1233 97.174C93.9507 96.8753 93.8643 96.5347 93.8643 96.152C93.8643 95.7647 93.9483 95.4333 94.1163 95.158C94.289 94.878 94.5177 94.647 94.8023 94.465C95.0917 94.2783 95.4137 94.1313 95.7683 94.024C96.123 93.912 96.4893 93.8327 96.8673 93.786C97.25 93.7347 97.6163 93.7067 97.9663 93.702C97.9663 93.0487 97.838 92.6217 97.5813 92.421C97.3247 92.2203 96.9537 92.12 96.4683 92.12C96.2117 92.12 95.9363 92.1597 95.6423 92.239C95.353 92.3183 95.0263 92.484 94.6623 92.736L94.4803 91.714C94.7557 91.504 95.0987 91.3337 95.5093 91.203C95.92 91.0677 96.3517 91 96.8043 91C97.383 91 97.8497 91.1027 98.2043 91.308C98.559 91.5087 98.818 91.8493 98.9813 92.33C99.1447 92.8107 99.2263 93.464 99.2263 94.29V95.69C99.2263 96.0167 99.2403 96.2873 99.2683 96.502C99.301 96.712 99.371 96.8707 99.4783 96.978C99.5903 97.0807 99.7677 97.132 100.01 97.132H100.136L99.9403 98.14H99.8423C99.4363 98.14 99.1213 98.1003 98.8973 98.021C98.678 97.9417 98.51 97.8273 98.3933 97.678C98.2767 97.5287 98.1717 97.3467 98.0783 97.132C97.8217 97.4307 97.5183 97.6733 97.1683 97.86C96.8183 98.0467 96.4217 98.14 95.9783 98.14ZM96.2163 97.132C96.5523 97.132 96.8767 97.048 97.1893 96.88C97.5067 96.712 97.7657 96.488 97.9663 96.208V94.57C97.299 94.5933 96.7577 94.6587 96.3423 94.766C95.9317 94.8733 95.6307 95.0343 95.4393 95.249C95.248 95.4637 95.1523 95.7413 95.1523 96.082C95.1523 96.4507 95.2503 96.719 95.4463 96.887C95.647 97.0503 95.9037 97.132 96.2163 97.132ZM106.199 98.14C105.593 98.14 105.089 98.0677 104.687 97.923C104.291 97.7783 104.011 97.65 103.847 97.538L104.001 96.32C104.151 96.4507 104.414 96.6 104.792 96.768C105.17 96.936 105.621 97.02 106.143 97.02C106.587 97.02 106.925 96.9453 107.158 96.796C107.396 96.6467 107.515 96.4367 107.515 96.166C107.515 95.928 107.438 95.7367 107.284 95.592C107.135 95.4427 106.953 95.326 106.738 95.242C106.528 95.1533 106.33 95.0833 106.143 95.032C105.831 94.948 105.506 94.843 105.17 94.717C104.839 94.5863 104.559 94.3927 104.33 94.136C104.102 93.8793 103.987 93.52 103.987 93.058C103.987 92.708 104.071 92.3767 104.239 92.064C104.407 91.7467 104.68 91.49 105.058 91.294C105.436 91.098 105.938 91 106.563 91C107.021 91 107.392 91.049 107.676 91.147C107.966 91.2403 108.215 91.3407 108.425 91.448L108.271 92.596C108.071 92.428 107.837 92.2857 107.571 92.169C107.305 92.0523 106.979 91.994 106.591 91.994C106.199 91.994 105.88 92.0687 105.632 92.218C105.385 92.3627 105.261 92.596 105.261 92.918C105.261 93.24 105.392 93.4687 105.653 93.604C105.919 93.7393 106.321 93.8887 106.857 94.052C107.025 94.0987 107.219 94.1663 107.438 94.255C107.662 94.3437 107.879 94.4627 108.089 94.612C108.299 94.7613 108.472 94.9573 108.607 95.2C108.747 95.438 108.817 95.7367 108.817 96.096C108.817 96.3993 108.745 96.7097 108.6 97.027C108.456 97.3397 108.194 97.6033 107.816 97.818C107.438 98.0327 106.899 98.14 106.199 98.14ZM111.646 98.14C111.222 98.14 110.851 98.0537 110.533 97.881C110.216 97.7083 109.969 97.4727 109.791 97.174C109.619 96.8753 109.532 96.5347 109.532 96.152C109.532 95.7647 109.616 95.4333 109.784 95.158C109.957 94.878 110.186 94.647 110.47 94.465C110.76 94.2783 111.082 94.1313 111.436 94.024C111.791 93.912 112.157 93.8327 112.535 93.786C112.918 93.7347 113.284 93.7067 113.634 93.702C113.634 93.0487 113.506 92.6217 113.249 92.421C112.993 92.2203 112.622 92.12 112.136 92.12C111.88 92.12 111.604 92.1597 111.31 92.239C111.021 92.3183 110.694 92.484 110.33 92.736L110.148 91.714C110.424 91.504 110.767 91.3337 111.177 91.203C111.588 91.0677 112.02 91 112.472 91C113.051 91 113.518 91.1027 113.872 91.308C114.227 91.5087 114.486 91.8493 114.649 92.33C114.813 92.8107 114.894 93.464 114.894 94.29V95.69C114.894 96.0167 114.908 96.2873 114.936 96.502C114.969 96.712 115.039 96.8707 115.146 96.978C115.258 97.0807 115.436 97.132 115.678 97.132H115.804L115.608 98.14H115.51C115.104 98.14 114.789 98.1003 114.565 98.021C114.346 97.9417 114.178 97.8273 114.061 97.678C113.945 97.5287 113.84 97.3467 113.746 97.132C113.49 97.4307 113.186 97.6733 112.836 97.86C112.486 98.0467 112.09 98.14 111.646 98.14ZM111.884 97.132C112.22 97.132 112.545 97.048 112.857 96.88C113.175 96.712 113.434 96.488 113.634 96.208V94.57C112.967 94.5933 112.426 94.6587 112.01 94.766C111.6 94.8733 111.299 95.0343 111.107 95.249C110.916 95.4637 110.82 95.7413 110.82 96.082C110.82 96.4507 110.918 96.719 111.114 96.887C111.315 97.0503 111.572 97.132 111.884 97.132ZM119.241 98.14C118.704 98.14 118.247 98.0327 117.869 97.818C117.491 97.5987 117.202 97.2673 117.001 96.824C116.805 96.3807 116.707 95.816 116.707 95.13V91.14H117.967V94.78C117.967 95.508 118.091 96.0633 118.338 96.446C118.59 96.8287 118.998 97.02 119.563 97.02C119.95 97.02 120.31 96.9267 120.641 96.74C120.972 96.5533 121.201 96.2547 121.327 95.844L121.145 96.53V91.14H122.405V98H121.285L121.033 96.656L121.369 96.88C121.14 97.3047 120.86 97.622 120.529 97.832C120.202 98.0373 119.773 98.14 119.241 98.14ZM118.289 89.936V89.082L120.907 87.542V88.914L118.289 89.936ZM126.835 98.14C126.251 98.14 125.724 97.9813 125.253 97.664C124.781 97.3467 124.406 96.9197 124.126 96.383C123.85 95.8463 123.713 95.2467 123.713 94.584C123.713 93.954 123.839 93.366 124.091 92.82C124.347 92.274 124.709 91.8353 125.176 91.504C125.642 91.168 126.195 91 126.835 91C127.292 91 127.733 91.1003 128.158 91.301C128.587 91.497 128.935 91.826 129.201 92.288L128.935 92.47V87.5H130.195V98H129.075L128.837 96.544L129.159 96.768C128.958 97.2207 128.643 97.5637 128.214 97.797C127.784 98.0257 127.325 98.14 126.835 98.14ZM127.059 97.02C127.376 97.02 127.689 96.9383 127.997 96.775C128.309 96.6117 128.566 96.3527 128.767 95.998C128.972 95.6387 129.075 95.1673 129.075 94.584C129.075 94.0427 128.972 93.59 128.767 93.226C128.566 92.8573 128.309 92.582 127.997 92.4C127.689 92.2133 127.376 92.12 127.059 92.12C126.629 92.12 126.261 92.2273 125.953 92.442C125.645 92.6567 125.409 92.9507 125.246 93.324C125.082 93.6927 125.001 94.1127 125.001 94.584C125.001 95.0273 125.082 95.4333 125.246 95.802C125.409 96.1707 125.645 96.467 125.953 96.691C126.261 96.9103 126.629 97.02 127.059 97.02ZM135.174 98.14C134.367 98.14 133.688 97.9743 133.137 97.643C132.587 97.3117 132.169 96.873 131.884 96.327C131.604 95.7763 131.464 95.172 131.464 94.514C131.464 93.8747 131.595 93.289 131.856 92.757C132.122 92.225 132.505 91.8003 133.004 91.483C133.508 91.161 134.115 91 134.824 91C135.394 91 135.9 91.1143 136.343 91.343C136.791 91.567 137.141 91.896 137.393 92.33C137.65 92.7593 137.778 93.282 137.778 93.898C137.778 93.996 137.774 94.1033 137.764 94.22C137.76 94.332 137.746 94.4487 137.722 94.57H132.752C132.813 95.2047 132.965 95.6993 133.207 96.054C133.45 96.4087 133.756 96.6583 134.124 96.803C134.493 96.9477 134.894 97.02 135.328 97.02C135.646 97.02 135.977 96.9873 136.322 96.922C136.668 96.8567 136.994 96.754 137.302 96.614L137.47 97.608C137.204 97.7247 136.88 97.8437 136.497 97.965C136.115 98.0817 135.674 98.14 135.174 98.14ZM132.864 93.702H136.476C136.476 93.38 136.416 93.1 136.294 92.862C136.173 92.624 135.989 92.442 135.741 92.316C135.494 92.1853 135.179 92.12 134.796 92.12C134.236 92.12 133.805 92.26 133.501 92.54C133.203 92.8153 132.99 93.2027 132.864 93.702ZM144.909 98.14C144.326 98.14 143.798 97.9813 143.327 97.664C142.856 97.3467 142.48 96.9197 142.2 96.383C141.925 95.8463 141.787 95.2467 141.787 94.584C141.787 93.954 141.913 93.366 142.165 92.82C142.422 92.274 142.783 91.8353 143.25 91.504C143.717 91.168 144.27 91 144.909 91C145.366 91 145.807 91.1003 146.232 91.301C146.661 91.497 147.009 91.826 147.275 92.288L147.009 92.47V87.5H148.269V98H147.149L146.911 96.544L147.233 96.768C147.032 97.2207 146.717 97.5637 146.288 97.797C145.859 98.0257 145.399 98.14 144.909 98.14ZM145.133 97.02C145.45 97.02 145.763 96.9383 146.071 96.775C146.384 96.6117 146.64 96.3527 146.841 95.998C147.046 95.6387 147.149 95.1673 147.149 94.584C147.149 94.0427 147.046 93.59 146.841 93.226C146.64 92.8573 146.384 92.582 146.071 92.4C145.763 92.2133 145.45 92.12 145.133 92.12C144.704 92.12 144.335 92.2273 144.027 92.442C143.719 92.6567 143.483 92.9507 143.32 93.324C143.157 93.6927 143.075 94.1127 143.075 94.584C143.075 95.0273 143.157 95.4333 143.32 95.802C143.483 96.1707 143.719 96.467 144.027 96.691C144.335 96.9103 144.704 97.02 145.133 97.02ZM152.954 98.14C152.236 98.14 151.622 97.9813 151.113 97.664C150.609 97.342 150.222 96.9127 149.951 96.376C149.685 95.8347 149.552 95.2327 149.552 94.57C149.552 93.9073 149.685 93.3077 149.951 92.771C150.222 92.2297 150.609 91.8003 151.113 91.483C151.622 91.161 152.236 91 152.954 91C153.668 91 154.28 91.161 154.788 91.483C155.297 91.8003 155.684 92.2297 155.95 92.771C156.221 93.3077 156.356 93.9073 156.356 94.57C156.356 95.2327 156.221 95.8347 155.95 96.376C155.684 96.9127 155.297 97.342 154.788 97.664C154.28 97.9813 153.668 98.14 152.954 98.14ZM152.954 97.02C153.636 97.02 154.158 96.8053 154.522 96.376C154.886 95.942 155.068 95.34 155.068 94.57C155.068 93.8 154.886 93.2003 154.522 92.771C154.158 92.337 153.636 92.12 152.954 92.12C152.278 92.12 151.755 92.337 151.386 92.771C151.022 93.2003 150.84 93.8 150.84 94.57C150.84 95.34 151.022 95.942 151.386 96.376C151.755 96.8053 152.278 97.02 152.954 97.02ZM159.602 98.14C158.995 98.14 158.491 98.0677 158.09 97.923C157.693 97.7783 157.413 97.65 157.25 97.538L157.404 96.32C157.553 96.4507 157.817 96.6 158.195 96.768C158.573 96.936 159.023 97.02 159.546 97.02C159.989 97.02 160.327 96.9453 160.561 96.796C160.799 96.6467 160.918 96.4367 160.918 96.166C160.918 95.928 160.841 95.7367 160.687 95.592C160.537 95.4427 160.355 95.326 160.141 95.242C159.931 95.1533 159.732 95.0833 159.546 95.032C159.233 94.948 158.909 94.843 158.573 94.717C158.241 94.5863 157.961 94.3927 157.733 94.136C157.504 93.8793 157.39 93.52 157.39 93.058C157.39 92.708 157.474 92.3767 157.642 92.064C157.81 91.7467 158.083 91.49 158.461 91.294C158.839 91.098 159.34 91 159.966 91C160.423 91 160.794 91.049 161.079 91.147C161.368 91.2403 161.618 91.3407 161.828 91.448L161.674 92.596C161.473 92.428 161.24 92.2857 160.974 92.169C160.708 92.0523 160.381 91.994 159.994 91.994C159.602 91.994 159.282 92.0687 159.035 92.218C158.787 92.3627 158.664 92.596 158.664 92.918C158.664 93.24 158.794 93.4687 159.056 93.604C159.322 93.7393 159.723 93.8887 160.26 94.052C160.428 94.0987 160.621 94.1663 160.841 94.255C161.065 94.3437 161.282 94.4627 161.492 94.612C161.702 94.7613 161.874 94.9573 162.01 95.2C162.15 95.438 162.22 95.7367 162.22 96.096C162.22 96.3993 162.147 96.7097 162.003 97.027C161.858 97.3397 161.597 97.6033 161.219 97.818C160.841 98.0327 160.302 98.14 159.602 98.14ZM168.543 98.14C167.936 98.14 167.432 98.0677 167.031 97.923C166.634 97.7783 166.354 97.65 166.191 97.538L166.345 96.32C166.494 96.4507 166.758 96.6 167.136 96.768C167.514 96.936 167.964 97.02 168.487 97.02C168.93 97.02 169.269 96.9453 169.502 96.796C169.74 96.6467 169.859 96.4367 169.859 96.166C169.859 95.928 169.782 95.7367 169.628 95.592C169.479 95.4427 169.297 95.326 169.082 95.242C168.872 95.1533 168.674 95.0833 168.487 95.032C168.174 94.948 167.85 94.843 167.514 94.717C167.183 94.5863 166.903 94.3927 166.674 94.136C166.445 93.8793 166.331 93.52 166.331 93.058C166.331 92.708 166.415 92.3767 166.583 92.064C166.751 91.7467 167.024 91.49 167.402 91.294C167.78 91.098 168.282 91 168.907 91C169.364 91 169.735 91.049 170.02 91.147C170.309 91.2403 170.559 91.3407 170.769 91.448L170.615 92.596C170.414 92.428 170.181 92.2857 169.915 92.169C169.649 92.0523 169.322 91.994 168.935 91.994C168.543 91.994 168.223 92.0687 167.976 92.218C167.729 92.3627 167.605 92.596 167.605 92.918C167.605 93.24 167.736 93.4687 167.997 93.604C168.263 93.7393 168.664 93.8887 169.201 94.052C169.369 94.0987 169.563 94.1663 169.782 94.255C170.006 94.3437 170.223 94.4627 170.433 94.612C170.643 94.7613 170.816 94.9573 170.951 95.2C171.091 95.438 171.161 95.7367 171.161 96.096C171.161 96.3993 171.089 96.7097 170.944 97.027C170.799 97.3397 170.538 97.6033 170.16 97.818C169.782 98.0327 169.243 98.14 168.543 98.14ZM175.684 98.14C174.877 98.14 174.198 97.9743 173.647 97.643C173.096 97.3117 172.679 96.873 172.394 96.327C172.114 95.7763 171.974 95.172 171.974 94.514C171.974 93.8747 172.105 93.289 172.366 92.757C172.632 92.225 173.015 91.8003 173.514 91.483C174.018 91.161 174.625 91 175.334 91C175.903 91 176.41 91.1143 176.853 91.343C177.301 91.567 177.651 91.896 177.903 92.33C178.16 92.7593 178.288 93.282 178.288 93.898C178.288 93.996 178.283 94.1033 178.274 94.22C178.269 94.332 178.255 94.4487 178.232 94.57H173.262C173.323 95.2047 173.474 95.6993 173.717 96.054C173.96 96.4087 174.265 96.6583 174.634 96.803C175.003 96.9477 175.404 97.02 175.838 97.02C176.155 97.02 176.487 96.9873 176.832 96.922C177.177 96.8567 177.504 96.754 177.812 96.614L177.98 97.608C177.714 97.7247 177.39 97.8437 177.007 97.965C176.624 98.0817 176.183 98.14 175.684 98.14ZM173.374 93.702H176.986C176.986 93.38 176.925 93.1 176.804 92.862C176.683 92.624 176.498 92.442 176.251 92.316C176.004 92.1853 175.689 92.12 175.306 92.12C174.746 92.12 174.314 92.26 174.011 92.54C173.712 92.8153 173.5 93.2027 173.374 93.702ZM182.022 98.14C181.485 98.14 181.028 98.0327 180.65 97.818C180.272 97.5987 179.983 97.2673 179.782 96.824C179.586 96.3807 179.488 95.816 179.488 95.13V91.14H180.748V94.78C180.748 95.508 180.872 96.0633 181.119 96.446C181.371 96.8287 181.779 97.02 182.344 97.02C182.731 97.02 183.091 96.9267 183.422 96.74C183.753 96.5533 183.982 96.2547 184.108 95.844L183.926 96.53V91.14H185.186V98H184.066L183.814 96.656L184.15 96.88C183.921 97.3047 183.641 97.622 183.31 97.832C182.983 98.0373 182.554 98.14 182.022 98.14ZM188.846 98.14C188.239 98.14 187.735 98.0677 187.334 97.923C186.937 97.7783 186.657 97.65 186.494 97.538L186.648 96.32C186.797 96.4507 187.061 96.6 187.439 96.768C187.817 96.936 188.267 97.02 188.79 97.02C189.233 97.02 189.572 96.9453 189.805 96.796C190.043 96.6467 190.162 96.4367 190.162 96.166C190.162 95.928 190.085 95.7367 189.931 95.592C189.782 95.4427 189.6 95.326 189.385 95.242C189.175 95.1533 188.977 95.0833 188.79 95.032C188.477 94.948 188.153 94.843 187.817 94.717C187.486 94.5863 187.206 94.3927 186.977 94.136C186.748 93.8793 186.634 93.52 186.634 93.058C186.634 92.708 186.718 92.3767 186.886 92.064C187.054 91.7467 187.327 91.49 187.705 91.294C188.083 91.098 188.585 91 189.21 91C189.667 91 190.038 91.049 190.323 91.147C190.612 91.2403 190.862 91.3407 191.072 91.448L190.918 92.596C190.717 92.428 190.484 92.2857 190.218 92.169C189.952 92.0523 189.625 91.994 189.238 91.994C188.846 91.994 188.526 92.0687 188.279 92.218C188.032 92.3627 187.908 92.596 187.908 92.918C187.908 93.24 188.039 93.4687 188.3 93.604C188.566 93.7393 188.967 93.8887 189.504 94.052C189.672 94.0987 189.866 94.1663 190.085 94.255C190.309 94.3437 190.526 94.4627 190.736 94.612C190.946 94.7613 191.119 94.9573 191.254 95.2C191.394 95.438 191.464 95.7367 191.464 96.096C191.464 96.3993 191.392 96.7097 191.247 97.027C191.102 97.3397 190.841 97.6033 190.463 97.818C190.085 98.0327 189.546 98.14 188.846 98.14ZM103.119 118.388V108.14H104.099L104.323 109.708L103.973 109.456C104.262 109.008 104.619 108.653 105.044 108.392C105.468 108.131 105.989 108 106.605 108C107.23 108 107.767 108.159 108.215 108.476C108.663 108.793 109.006 109.223 109.244 109.764C109.482 110.301 109.601 110.903 109.601 111.57C109.601 112.237 109.489 112.842 109.265 113.383C109.041 113.92 108.707 114.347 108.264 114.664C107.82 114.981 107.267 115.14 106.605 115.14C106.059 115.14 105.564 115.028 105.121 114.804C104.682 114.575 104.365 114.235 104.169 113.782L104.379 113.53V118.388H103.119ZM106.367 114.02C106.978 114.02 107.454 113.805 107.795 113.376C108.14 112.942 108.313 112.34 108.313 111.57C108.313 110.8 108.14 110.2 107.795 109.771C107.454 109.337 106.978 109.12 106.367 109.12C105.989 109.12 105.643 109.211 105.331 109.393C105.023 109.57 104.775 109.841 104.589 110.205C104.402 110.564 104.309 111.019 104.309 111.57C104.309 112.144 104.402 112.611 104.589 112.97C104.775 113.329 105.023 113.595 105.331 113.768C105.643 113.936 105.989 114.02 106.367 114.02ZM114.202 115.14C113.394 115.14 112.715 114.974 112.165 114.643C111.614 114.312 111.196 113.873 110.912 113.327C110.632 112.776 110.492 112.172 110.492 111.514C110.492 110.875 110.622 110.289 110.884 109.757C111.15 109.225 111.532 108.8 112.032 108.483C112.536 108.161 113.142 108 113.852 108C114.421 108 114.927 108.114 115.371 108.343C115.819 108.567 116.169 108.896 116.421 109.33C116.677 109.759 116.806 110.282 116.806 110.898C116.806 110.996 116.801 111.103 116.792 111.22C116.787 111.332 116.773 111.449 116.75 111.57H111.78C111.84 112.205 111.992 112.699 112.235 113.054C112.477 113.409 112.783 113.658 113.152 113.803C113.52 113.948 113.922 114.02 114.356 114.02C114.673 114.02 115.004 113.987 115.35 113.922C115.695 113.857 116.022 113.754 116.33 113.614L116.498 114.608C116.232 114.725 115.907 114.844 115.525 114.965C115.142 115.082 114.701 115.14 114.202 115.14ZM111.892 110.702H115.504C115.504 110.38 115.443 110.1 115.322 109.862C115.2 109.624 115.016 109.442 114.769 109.316C114.521 109.185 114.206 109.12 113.824 109.12C113.264 109.12 112.832 109.26 112.529 109.54C112.23 109.815 112.018 110.203 111.892 110.702ZM120.442 115.14C120.008 115.14 119.66 115.061 119.399 114.902C119.137 114.743 118.946 114.54 118.825 114.293C118.708 114.041 118.65 113.777 118.65 113.502V109.12H117.474L117.586 108.14H118.65V106.446L119.91 106.32V108.14H121.716V109.12H119.91V112.732C119.91 113.171 119.935 113.488 119.987 113.684C120.038 113.88 120.164 114.004 120.365 114.055C120.57 114.106 120.899 114.132 121.352 114.132H121.674L121.576 115.14H120.442ZM124.738 115.14C124.132 115.14 123.628 115.068 123.226 114.923C122.83 114.778 122.55 114.65 122.386 114.538L122.54 113.32C122.69 113.451 122.953 113.6 123.331 113.768C123.709 113.936 124.16 114.02 124.682 114.02C125.126 114.02 125.464 113.945 125.697 113.796C125.935 113.647 126.054 113.437 126.054 113.166C126.054 112.928 125.977 112.737 125.823 112.592C125.674 112.443 125.492 112.326 125.277 112.242C125.067 112.153 124.869 112.083 124.682 112.032C124.37 111.948 124.045 111.843 123.709 111.717C123.378 111.586 123.098 111.393 122.869 111.136C122.641 110.879 122.526 110.52 122.526 110.058C122.526 109.708 122.61 109.377 122.778 109.064C122.946 108.747 123.219 108.49 123.597 108.294C123.975 108.098 124.477 108 125.102 108C125.56 108 125.931 108.049 126.215 108.147C126.505 108.24 126.754 108.341 126.964 108.448L126.81 109.596C126.61 109.428 126.376 109.286 126.11 109.169C125.844 109.052 125.518 108.994 125.13 108.994C124.738 108.994 124.419 109.069 124.171 109.218C123.924 109.363 123.8 109.596 123.8 109.918C123.8 110.24 123.931 110.469 124.192 110.604C124.458 110.739 124.86 110.889 125.396 111.052C125.564 111.099 125.758 111.166 125.977 111.255C126.201 111.344 126.418 111.463 126.628 111.612C126.838 111.761 127.011 111.957 127.146 112.2C127.286 112.438 127.356 112.737 127.356 113.096C127.356 113.399 127.284 113.71 127.139 114.027C126.995 114.34 126.733 114.603 126.355 114.818C125.977 115.033 125.438 115.14 124.738 115.14Z" fill="white"/>
</svg>
