<svg width="231" height="150" viewBox="0 0 231 150" fill="none" xmlns="http://www.w3.org/2000/svg">
<rect width="231" height="150" rx="5" fill="#000341"/>
<path d="M45.6854 100.354H41.4854V99.15H45.6854V100.354ZM43.3894 94.502H43.7814L40.7714 103H39.3714L42.8854 93.2H44.2854L47.7994 103H46.3994L43.3894 94.502ZM50.4227 103.14C49.9794 103.14 49.627 103.061 49.3657 102.902C49.109 102.739 48.9247 102.531 48.8127 102.279C48.7007 102.027 48.6447 101.763 48.6447 101.488V92.5H49.9047V100.76C49.9047 101.152 49.9304 101.446 49.9817 101.642C50.033 101.838 50.1357 101.969 50.2897 102.034C50.4484 102.099 50.6887 102.132 51.0107 102.132L50.8287 103.14H50.4227ZM54.4313 103.14C53.8946 103.14 53.4373 103.033 53.0593 102.818C52.6813 102.599 52.3919 102.267 52.1913 101.824C51.9953 101.381 51.8973 100.816 51.8973 100.13V96.14H53.1573V99.78C53.1573 100.508 53.2809 101.063 53.5283 101.446C53.7803 101.829 54.1886 102.02 54.7533 102.02C55.1406 102.02 55.4999 101.927 55.8313 101.74C56.1626 101.553 56.3913 101.255 56.5173 100.844L56.3353 101.53V96.14H57.5953V103H56.4753L56.2233 101.656L56.5593 101.88C56.3306 102.305 56.0506 102.622 55.7193 102.832C55.3926 103.037 54.9633 103.14 54.4313 103.14ZM62.0811 106.5C61.4557 106.5 60.8957 106.423 60.4011 106.269C59.9111 106.115 59.5237 105.886 59.2391 105.583C58.9591 105.28 58.8191 104.904 58.8191 104.456C58.8191 104.083 58.9241 103.761 59.1341 103.49C59.3487 103.224 59.6404 103.009 60.0091 102.846C59.7897 102.739 59.6217 102.613 59.5051 102.468C59.3931 102.319 59.3371 102.155 59.3371 101.978C59.3371 101.768 59.4001 101.579 59.5261 101.411C59.6567 101.238 59.8644 101.096 60.1491 100.984C59.7664 100.746 59.4724 100.426 59.2671 100.025C59.0617 99.619 58.9591 99.1687 58.9591 98.674C58.9591 98.1747 59.0711 97.7243 59.2951 97.323C59.5191 96.917 59.8411 96.595 60.2611 96.357C60.6857 96.119 61.1944 96 61.7871 96C62.1044 96 62.4031 96.0467 62.6831 96.14C62.9677 96.2333 63.2291 96.364 63.4671 96.532C63.6771 96.4107 63.9244 96.3103 64.2091 96.231C64.4984 96.1517 64.8204 96.112 65.1751 96.112C65.1984 96.112 65.2171 96.112 65.2311 96.112C65.2497 96.112 65.2684 96.112 65.2871 96.112L65.1331 96.952C65.0771 96.952 65.0234 96.952 64.9721 96.952C64.9207 96.952 64.8671 96.952 64.8111 96.952C64.7644 96.952 64.6571 96.959 64.4891 96.973C64.3211 96.987 64.1671 97.0127 64.0271 97.05C64.2184 97.274 64.3654 97.526 64.4681 97.806C64.5754 98.0813 64.6291 98.3707 64.6291 98.674C64.6291 99.1967 64.5147 99.6657 64.2861 100.081C64.0621 100.492 63.7377 100.818 63.3131 101.061C62.8884 101.299 62.3797 101.418 61.7871 101.418C61.6191 101.418 61.4581 101.409 61.3041 101.39C61.1501 101.367 61.0031 101.334 60.8631 101.292C60.6484 101.362 60.5411 101.483 60.5411 101.656C60.5411 101.759 60.6017 101.85 60.7231 101.929C60.8444 102.004 61.0404 102.062 61.3111 102.104L63.1451 102.398C63.8871 102.515 64.4587 102.729 64.8601 103.042C65.2661 103.355 65.4691 103.798 65.4691 104.372C65.4691 104.848 65.3291 105.242 65.0491 105.555C64.7737 105.872 64.3817 106.108 63.8731 106.262C63.3644 106.421 62.7671 106.5 62.0811 106.5ZM62.1931 105.38C62.8371 105.38 63.3317 105.296 63.6771 105.128C64.0224 104.965 64.1951 104.722 64.1951 104.4C64.1951 104.148 64.0854 103.95 63.8661 103.805C63.6514 103.66 63.3411 103.551 62.9351 103.476L60.9821 103.147C60.7254 103.259 60.5014 103.408 60.3101 103.595C60.1187 103.786 60.0231 104.008 60.0231 104.26C60.0231 104.652 60.2191 104.937 60.6111 105.114C61.0077 105.291 61.5351 105.38 62.1931 105.38ZM61.7871 100.41C62.3191 100.41 62.7251 100.251 63.0051 99.934C63.2851 99.612 63.4251 99.1967 63.4251 98.688C63.4251 98.198 63.2851 97.7967 63.0051 97.484C62.7251 97.1667 62.3191 97.008 61.7871 97.008C61.2551 97.008 60.8514 97.1667 60.5761 97.484C60.3007 97.7967 60.1631 98.198 60.1631 98.688C60.1631 99.1967 60.3007 99.612 60.5761 99.934C60.8514 100.251 61.2551 100.41 61.7871 100.41ZM68.7457 103.14C68.2091 103.14 67.7517 103.033 67.3737 102.818C66.9957 102.599 66.7064 102.267 66.5057 101.824C66.3097 101.381 66.2117 100.816 66.2117 100.13V96.14H67.4717V99.78C67.4717 100.508 67.5954 101.063 67.8427 101.446C68.0947 101.829 68.5031 102.02 69.0677 102.02C69.4551 102.02 69.8144 101.927 70.1457 101.74C70.4771 101.553 70.7057 101.255 70.8317 100.844L70.6497 101.53V96.14H71.9097V103H70.7897L70.5377 101.656L70.8737 101.88C70.6451 102.305 70.3651 102.622 70.0337 102.832C69.7071 103.037 69.2777 103.14 68.7457 103.14ZM76.9135 103.14C76.1062 103.14 75.4272 102.974 74.8765 102.643C74.3259 102.312 73.9082 101.873 73.6235 101.327C73.3435 100.776 73.2035 100.172 73.2035 99.514C73.2035 98.8747 73.3342 98.289 73.5955 97.757C73.8615 97.225 74.2442 96.8003 74.7435 96.483C75.2475 96.161 75.8542 96 76.5635 96C77.1329 96 77.6392 96.1143 78.0825 96.343C78.5305 96.567 78.8805 96.896 79.1325 97.33C79.3892 97.7593 79.5175 98.282 79.5175 98.898C79.5175 98.996 79.5129 99.1033 79.5035 99.22C79.4989 99.332 79.4849 99.4487 79.4615 99.57H74.4915C74.5522 100.205 74.7039 100.699 74.9465 101.054C75.1892 101.409 75.4949 101.658 75.8635 101.803C76.2322 101.948 76.6335 102.02 77.0675 102.02C77.3849 102.02 77.7162 101.987 78.0615 101.922C78.4069 101.857 78.7335 101.754 79.0415 101.614L79.2095 102.608C78.9435 102.725 78.6192 102.844 78.2365 102.965C77.8539 103.082 77.4129 103.14 76.9135 103.14ZM74.6035 98.702H78.2155C78.2155 98.38 78.1549 98.1 78.0335 97.862C77.9122 97.624 77.7279 97.442 77.4805 97.316C77.2332 97.1853 76.9182 97.12 76.5355 97.12C75.9755 97.12 75.5439 97.26 75.2405 97.54C74.9419 97.8153 74.7295 98.2027 74.6035 98.702ZM85.8781 103.14C85.2715 103.14 84.7675 103.068 84.3661 102.923C83.9695 102.778 83.6895 102.65 83.5261 102.538L83.6801 101.32C83.8295 101.451 84.0931 101.6 84.4711 101.768C84.8491 101.936 85.2995 102.02 85.8221 102.02C86.2655 102.02 86.6038 101.945 86.8371 101.796C87.0751 101.647 87.1941 101.437 87.1941 101.166C87.1941 100.928 87.1171 100.737 86.9631 100.592C86.8138 100.443 86.6318 100.326 86.4171 100.242C86.2071 100.153 86.0088 100.083 85.8221 100.032C85.5095 99.948 85.1851 99.843 84.8491 99.717C84.5178 99.5863 84.2378 99.3927 84.0091 99.136C83.7805 98.8793 83.6661 98.52 83.6661 98.058C83.6661 97.708 83.7501 97.3767 83.9181 97.064C84.0861 96.7467 84.3591 96.49 84.7371 96.294C85.1151 96.098 85.6168 96 86.2421 96C86.6995 96 87.0705 96.049 87.3551 96.147C87.6445 96.2403 87.8941 96.3407 88.1041 96.448L87.9501 97.596C87.7495 97.428 87.5161 97.2857 87.2501 97.169C86.9841 97.0523 86.6575 96.994 86.2701 96.994C85.8781 96.994 85.5585 97.0687 85.3111 97.218C85.0638 97.3627 84.9401 97.596 84.9401 97.918C84.9401 98.24 85.0708 98.4687 85.3321 98.604C85.5981 98.7393 85.9995 98.8887 86.5361 99.052C86.7041 99.0987 86.8978 99.1663 87.1171 99.255C87.3411 99.3437 87.5581 99.4627 87.7681 99.612C87.9781 99.7613 88.1508 99.9573 88.2861 100.2C88.4261 100.438 88.4961 100.737 88.4961 101.096C88.4961 101.399 88.4238 101.71 88.2791 102.027C88.1345 102.34 87.8731 102.603 87.4951 102.818C87.1171 103.033 86.5781 103.14 85.8781 103.14ZM93.019 103.14C92.2117 103.14 91.5327 102.974 90.982 102.643C90.4313 102.312 90.0137 101.873 89.729 101.327C89.449 100.776 89.309 100.172 89.309 99.514C89.309 98.8747 89.4397 98.289 89.701 97.757C89.967 97.225 90.3497 96.8003 90.849 96.483C91.353 96.161 91.9597 96 92.669 96C93.2383 96 93.7447 96.1143 94.188 96.343C94.636 96.567 94.986 96.896 95.238 97.33C95.4947 97.7593 95.623 98.282 95.623 98.898C95.623 98.996 95.6183 99.1033 95.609 99.22C95.6043 99.332 95.5903 99.4487 95.567 99.57H90.597C90.6577 100.205 90.8093 100.699 91.052 101.054C91.2947 101.409 91.6003 101.658 91.969 101.803C92.3377 101.948 92.739 102.02 93.173 102.02C93.4903 102.02 93.8217 101.987 94.167 101.922C94.5123 101.857 94.839 101.754 95.147 101.614L95.315 102.608C95.049 102.725 94.7247 102.844 94.342 102.965C93.9593 103.082 93.5183 103.14 93.019 103.14ZM90.709 98.702H94.321C94.321 98.38 94.2603 98.1 94.139 97.862C94.0177 97.624 93.8333 97.442 93.586 97.316C93.3387 97.1853 93.0237 97.12 92.641 97.12C92.081 97.12 91.6493 97.26 91.346 97.54C91.0473 97.8153 90.835 98.2027 90.709 98.702ZM99.3571 103.14C98.8204 103.14 98.3631 103.033 97.9851 102.818C97.6071 102.599 97.3177 102.267 97.1171 101.824C96.9211 101.381 96.8231 100.816 96.8231 100.13V96.14H98.0831V99.78C98.0831 100.508 98.2067 101.063 98.4541 101.446C98.7061 101.829 99.1144 102.02 99.6791 102.02C100.066 102.02 100.426 101.927 100.757 101.74C101.088 101.553 101.317 101.255 101.443 100.844L101.261 101.53V96.14H102.521V103H101.401L101.149 101.656L101.485 101.88C101.256 102.305 100.976 102.622 100.645 102.832C100.318 103.037 99.8891 103.14 99.3571 103.14ZM110.529 103.14C109.755 103.14 109.104 102.984 108.576 102.671C108.054 102.354 107.657 101.929 107.386 101.397C107.12 100.86 106.987 100.265 106.987 99.612C106.987 98.9307 107.116 98.317 107.372 97.771C107.634 97.225 108.033 96.7933 108.569 96.476C109.106 96.1587 109.792 96 110.627 96C110.987 96 111.325 96.0373 111.642 96.112C111.964 96.182 112.251 96.28 112.503 96.406L112.307 97.512C112.051 97.3907 111.778 97.295 111.488 97.225C111.204 97.155 110.907 97.12 110.599 97.12C109.843 97.12 109.267 97.3347 108.87 97.764C108.474 98.1933 108.275 98.7907 108.275 99.556C108.275 100.303 108.464 100.902 108.842 101.355C109.22 101.808 109.797 102.034 110.571 102.034C110.889 102.034 111.192 101.997 111.481 101.922C111.775 101.847 112.055 101.745 112.321 101.614L112.489 102.622C112.303 102.753 112.03 102.872 111.67 102.979C111.311 103.086 110.931 103.14 110.529 103.14ZM115.333 103.14C114.908 103.14 114.537 103.054 114.22 102.881C113.902 102.708 113.655 102.473 113.478 102.174C113.305 101.875 113.219 101.535 113.219 101.152C113.219 100.765 113.303 100.433 113.471 100.158C113.643 99.878 113.872 99.647 114.157 99.465C114.446 99.2783 114.768 99.1313 115.123 99.024C115.477 98.912 115.844 98.8327 116.222 98.786C116.604 98.7347 116.971 98.7067 117.321 98.702C117.321 98.0487 117.192 97.6217 116.936 97.421C116.679 97.2203 116.308 97.12 115.823 97.12C115.566 97.12 115.291 97.1597 114.997 97.239C114.707 97.3183 114.381 97.484 114.017 97.736L113.835 96.714C114.11 96.504 114.453 96.3337 114.864 96.203C115.274 96.0677 115.706 96 116.159 96C116.737 96 117.204 96.1027 117.559 96.308C117.913 96.5087 118.172 96.8493 118.336 97.33C118.499 97.8107 118.581 98.464 118.581 99.29V100.69C118.581 101.017 118.595 101.287 118.623 101.502C118.655 101.712 118.725 101.871 118.833 101.978C118.945 102.081 119.122 102.132 119.365 102.132H119.491L119.295 103.14H119.197C118.791 103.14 118.476 103.1 118.252 103.021C118.032 102.942 117.864 102.827 117.748 102.678C117.631 102.529 117.526 102.347 117.433 102.132C117.176 102.431 116.873 102.673 116.523 102.86C116.173 103.047 115.776 103.14 115.333 103.14ZM115.571 102.132C115.907 102.132 116.231 102.048 116.544 101.88C116.861 101.712 117.12 101.488 117.321 101.208V99.57C116.653 99.5933 116.112 99.6587 115.697 99.766C115.286 99.8733 114.985 100.034 114.794 100.249C114.602 100.464 114.507 100.741 114.507 101.082C114.507 101.451 114.605 101.719 114.801 101.887C115.001 102.05 115.258 102.132 115.571 102.132ZM120.463 103V96.14H121.499L121.653 97.274C122.003 96.84 122.337 96.5203 122.654 96.315C122.976 96.105 123.319 96 123.683 96C123.8 96 123.907 96.014 124.005 96.042L123.879 97.428C123.819 97.414 123.753 97.4047 123.683 97.4C123.618 97.3907 123.543 97.386 123.459 97.386C123.095 97.386 122.759 97.4677 122.451 97.631C122.148 97.7897 121.933 97.9647 121.807 98.156V103H120.463ZM124.893 103V96.14H125.929L126.083 97.274C126.433 96.84 126.767 96.5203 127.084 96.315C127.406 96.105 127.749 96 128.113 96C128.23 96 128.337 96.014 128.435 96.042L128.309 97.428C128.248 97.414 128.183 97.4047 128.113 97.4C128.048 97.3907 127.973 97.386 127.889 97.386C127.525 97.386 127.189 97.4677 126.881 97.631C126.578 97.7897 126.363 97.9647 126.237 98.156V103H124.893ZM132.141 103.14C131.422 103.14 130.809 102.981 130.3 102.664C129.796 102.342 129.409 101.913 129.138 101.376C128.872 100.835 128.739 100.233 128.739 99.57C128.739 98.9073 128.872 98.3077 129.138 97.771C129.409 97.2297 129.796 96.8003 130.3 96.483C130.809 96.161 131.422 96 132.141 96C132.855 96 133.466 96.161 133.975 96.483C134.484 96.8003 134.871 97.2297 135.137 97.771C135.408 98.3077 135.543 98.9073 135.543 99.57C135.543 100.233 135.408 100.835 135.137 101.376C134.871 101.913 134.484 102.342 133.975 102.664C133.466 102.981 132.855 103.14 132.141 103.14ZM132.141 102.02C132.822 102.02 133.345 101.805 133.709 101.376C134.073 100.942 134.255 100.34 134.255 99.57C134.255 98.8 134.073 98.2003 133.709 97.771C133.345 97.337 132.822 97.12 132.141 97.12C131.464 97.12 130.942 97.337 130.573 97.771C130.209 98.2003 130.027 98.8 130.027 99.57C130.027 100.34 130.209 100.942 130.573 101.376C130.942 101.805 131.464 102.02 132.141 102.02ZM139.987 103V96.14H140.967L141.219 97.456L140.729 97.246C141.191 96.7327 141.641 96.3967 142.08 96.238C142.523 96.0793 142.955 96 143.375 96C144.378 96 145.094 96.2893 145.524 96.868C145.958 97.4467 146.175 98.2307 146.175 99.22V103H144.915V99.22C144.915 98.492 144.779 97.96 144.509 97.624C144.238 97.288 143.776 97.12 143.123 97.12C142.661 97.12 142.236 97.2227 141.849 97.428C141.466 97.6287 141.214 97.9507 141.093 98.394L141.247 97.624V103H139.987ZM150.803 103.14C150.084 103.14 149.471 102.981 148.962 102.664C148.458 102.342 148.071 101.913 147.8 101.376C147.534 100.835 147.401 100.233 147.401 99.57C147.401 98.9073 147.534 98.3077 147.8 97.771C148.071 97.2297 148.458 96.8003 148.962 96.483C149.471 96.161 150.084 96 150.803 96C151.517 96 152.128 96.161 152.637 96.483C153.146 96.8003 153.533 97.2297 153.799 97.771C154.07 98.3077 154.205 98.9073 154.205 99.57C154.205 100.233 154.07 100.835 153.799 101.376C153.533 101.913 153.146 102.342 152.637 102.664C152.128 102.981 151.517 103.14 150.803 103.14ZM150.803 102.02C151.484 102.02 152.007 101.805 152.371 101.376C152.735 100.942 152.917 100.34 152.917 99.57C152.917 98.8 152.735 98.2003 152.371 97.771C152.007 97.337 151.484 97.12 150.803 97.12C150.126 97.12 149.604 97.337 149.235 97.771C148.871 98.2003 148.689 98.8 148.689 99.57C148.689 100.34 148.871 100.942 149.235 101.376C149.604 101.805 150.126 102.02 150.803 102.02ZM158.915 103V93.2H164.893V94.404H160.245V97.274H163.941V98.478H160.245V101.796H165.019V103H158.915ZM168.898 103.14C168.315 103.14 167.787 102.981 167.316 102.664C166.845 102.347 166.469 101.92 166.189 101.383C165.914 100.846 165.776 100.247 165.776 99.584C165.776 98.954 165.902 98.366 166.154 97.82C166.411 97.274 166.772 96.8353 167.239 96.504C167.706 96.168 168.259 96 168.898 96C169.355 96 169.796 96.1003 170.221 96.301C170.65 96.497 170.998 96.826 171.264 97.288L170.998 97.47V92.5H172.258V103H171.138L170.9 101.544L171.222 101.768C171.021 102.221 170.706 102.564 170.277 102.797C169.848 103.026 169.388 103.14 168.898 103.14ZM169.122 102.02C169.439 102.02 169.752 101.938 170.06 101.775C170.373 101.612 170.629 101.353 170.83 100.998C171.035 100.639 171.138 100.167 171.138 99.584C171.138 99.0427 171.035 98.59 170.83 98.226C170.629 97.8573 170.373 97.582 170.06 97.4C169.752 97.2133 169.439 97.12 169.122 97.12C168.693 97.12 168.324 97.2273 168.016 97.442C167.708 97.6567 167.472 97.9507 167.309 98.324C167.146 98.6927 167.064 99.1127 167.064 99.584C167.064 100.027 167.146 100.433 167.309 100.802C167.472 101.171 167.708 101.467 168.016 101.691C168.324 101.91 168.693 102.02 169.122 102.02ZM178.431 103.196C177.479 103.196 176.63 102.988 175.883 102.573C175.141 102.153 174.556 101.563 174.126 100.802C173.702 100.037 173.489 99.136 173.489 98.1C173.489 97.064 173.704 96.1657 174.133 95.405C174.567 94.6397 175.16 94.0493 175.911 93.634C176.667 93.214 177.526 93.004 178.487 93.004C178.987 93.004 179.463 93.0577 179.915 93.165C180.368 93.2723 180.765 93.41 181.105 93.578L180.965 94.81C180.615 94.642 180.23 94.4997 179.81 94.383C179.39 94.2663 178.945 94.208 178.473 94.208C177.703 94.208 177.057 94.383 176.534 94.733C176.012 95.0783 175.615 95.545 175.344 96.133C175.078 96.721 174.945 97.3767 174.945 98.1C174.945 98.8233 175.076 99.479 175.337 100.067C175.603 100.655 175.995 101.124 176.513 101.474C177.036 101.819 177.68 101.992 178.445 101.992C178.931 101.992 179.379 101.941 179.789 101.838C180.205 101.731 180.597 101.586 180.965 101.404L181.105 102.636C180.755 102.795 180.361 102.928 179.922 103.035C179.484 103.142 178.987 103.196 178.431 103.196ZM184.02 103.14C183.596 103.14 183.225 103.054 182.907 102.881C182.59 102.708 182.343 102.473 182.165 102.174C181.993 101.875 181.906 101.535 181.906 101.152C181.906 100.765 181.99 100.433 182.158 100.158C182.331 99.878 182.56 99.647 182.844 99.465C183.134 99.2783 183.456 99.1313 183.81 99.024C184.165 98.912 184.531 98.8327 184.909 98.786C185.292 98.7347 185.658 98.7067 186.008 98.702C186.008 98.0487 185.88 97.6217 185.623 97.421C185.367 97.2203 184.996 97.12 184.51 97.12C184.254 97.12 183.978 97.1597 183.684 97.239C183.395 97.3183 183.068 97.484 182.704 97.736L182.522 96.714C182.798 96.504 183.141 96.3337 183.551 96.203C183.962 96.0677 184.394 96 184.846 96C185.425 96 185.892 96.1027 186.246 96.308C186.601 96.5087 186.86 96.8493 187.023 97.33C187.187 97.8107 187.268 98.464 187.268 99.29V100.69C187.268 101.017 187.282 101.287 187.31 101.502C187.343 101.712 187.413 101.871 187.52 101.978C187.632 102.081 187.81 102.132 188.052 102.132H188.178L187.982 103.14H187.884C187.478 103.14 187.163 103.1 186.939 103.021C186.72 102.942 186.552 102.827 186.435 102.678C186.319 102.529 186.214 102.347 186.12 102.132C185.864 102.431 185.56 102.673 185.21 102.86C184.86 103.047 184.464 103.14 184.02 103.14ZM184.258 102.132C184.594 102.132 184.919 102.048 185.231 101.88C185.549 101.712 185.808 101.488 186.008 101.208V99.57C185.341 99.5933 184.8 99.6587 184.384 99.766C183.974 99.8733 183.673 100.034 183.481 100.249C183.29 100.464 183.194 100.741 183.194 101.082C183.194 101.451 183.292 101.719 183.488 101.887C183.689 102.05 183.946 102.132 184.258 102.132ZM189.151 103V96.14H190.187L190.341 97.274C190.691 96.84 191.025 96.5203 191.342 96.315C191.664 96.105 192.007 96 192.371 96C192.488 96 192.595 96.014 192.693 96.042L192.567 97.428C192.506 97.414 192.441 97.4047 192.371 97.4C192.306 97.3907 192.231 97.386 192.147 97.386C191.783 97.386 191.447 97.4677 191.139 97.631C190.836 97.7897 190.621 97.9647 190.495 98.156V103H189.151Z" fill="white"/>
<path d="M83.1904 51H68.5574V24.8147H83.1904V27.7119H71.8581V35.8902H82.5302V38.7508H71.8581V48.1027H83.1904V51ZM95.4639 51.3667C93.019 51.3667 91.063 50.5232 89.596 48.8362C88.1291 47.1248 87.3956 44.582 87.3956 41.208C87.3956 37.834 88.1291 35.2912 89.596 33.5798C91.0875 31.8439 93.0556 30.9759 95.5006 30.9759C96.5275 30.9759 97.4199 31.1104 98.1778 31.3793C98.9357 31.6238 99.5959 31.9661 100.158 32.4062C100.721 32.8463 101.197 33.3353 101.588 33.8732H101.809C101.784 33.5553 101.735 33.0908 101.662 32.4796C101.613 31.8439 101.588 31.3427 101.588 30.9759V23.1276H104.816V51H102.212L101.735 48.3595H101.588C101.197 48.9218 100.721 49.4352 100.158 49.8998C99.5959 50.3399 98.9235 50.6944 98.1411 50.9633C97.3832 51.2323 96.4908 51.3667 95.4639 51.3667ZM95.9773 48.6895C98.0555 48.6895 99.5103 48.1272 100.342 47.0025C101.197 45.8534 101.625 44.1297 101.625 41.8315V41.2447C101.625 38.7997 101.222 36.9293 100.415 35.6335C99.6081 34.3133 98.1167 33.6531 95.9407 33.6531C94.2048 33.6531 92.8967 34.3499 92.0165 35.7436C91.1608 37.1127 90.7329 38.9587 90.7329 41.2813C90.7329 43.6285 91.1608 45.45 92.0165 46.7458C92.8967 48.0416 94.217 48.6895 95.9773 48.6895ZM122.721 27.3452C121.328 27.3452 120.069 27.5897 118.944 28.0787C117.819 28.5432 116.866 29.24 116.083 30.1691C115.301 31.0737 114.702 32.1862 114.286 33.5064C113.871 34.8022 113.663 36.2692 113.663 37.9073C113.663 40.0589 113.993 41.9293 114.653 43.5185C115.338 45.1077 116.34 46.3302 117.66 47.1859C119.005 48.0416 120.68 48.4695 122.685 48.4695C123.834 48.4695 124.922 48.3717 125.949 48.1761C126.976 47.9805 127.978 47.736 128.956 47.4426V50.3032C127.978 50.6699 126.963 50.9389 125.912 51.11C124.885 51.2812 123.65 51.3667 122.208 51.3667C119.543 51.3667 117.318 50.8166 115.533 49.7164C113.748 48.6162 112.404 47.0514 111.499 45.0221C110.619 42.9928 110.179 40.609 110.179 37.8707C110.179 35.8902 110.448 34.081 110.986 32.4429C111.548 30.8048 112.355 29.3867 113.406 28.1887C114.482 26.9907 115.802 26.0738 117.367 25.4381C118.932 24.778 120.729 24.4479 122.758 24.4479C124.103 24.4479 125.399 24.5824 126.646 24.8513C127.892 25.1203 129.005 25.4992 129.983 25.9882L128.663 28.7755C127.856 28.4087 126.951 28.0787 125.949 27.7853C124.971 27.4919 123.895 27.3452 122.721 27.3452ZM141.676 31.0126C144.072 31.0126 145.845 31.5382 146.994 32.5896C148.143 33.6409 148.717 35.3157 148.717 37.6139V51H146.37L145.747 48.2128H145.6C145.038 48.9218 144.451 49.5208 143.84 50.0098C143.253 50.4743 142.568 50.8166 141.786 51.0367C141.028 51.2567 140.099 51.3667 138.999 51.3667C137.825 51.3667 136.762 51.1589 135.808 50.7433C134.879 50.3276 134.145 49.692 133.608 48.8362C133.07 47.956 132.801 46.8558 132.801 45.5356C132.801 43.5796 133.571 42.076 135.111 41.0246C136.652 39.9489 139.023 39.3621 142.226 39.2643L145.563 39.1542V37.9807C145.563 36.3426 145.209 35.2057 144.5 34.57C143.791 33.9343 142.788 33.6164 141.493 33.6164C140.466 33.6164 139.488 33.7754 138.559 34.0932C137.63 34.3866 136.762 34.7289 135.955 35.1201L134.965 32.6996C135.82 32.2351 136.835 31.8439 138.009 31.526C139.182 31.1837 140.405 31.0126 141.676 31.0126ZM142.629 41.5014C140.185 41.5992 138.485 41.9904 137.532 42.675C136.603 43.3596 136.138 44.3253 136.138 45.5722C136.138 46.6724 136.468 47.4793 137.128 47.9927C137.813 48.5062 138.681 48.7629 139.732 48.7629C141.395 48.7629 142.776 48.3106 143.876 47.4059C144.977 46.4769 145.527 45.0588 145.527 43.1517V41.3914L142.629 41.5014ZM163.957 30.9759C164.324 30.9759 164.715 31.0004 165.131 31.0493C165.571 31.0737 165.95 31.1226 166.268 31.196L165.864 34.1666C165.546 34.0932 165.192 34.0321 164.801 33.9832C164.434 33.9343 164.079 33.9098 163.737 33.9098C162.979 33.9098 162.258 34.0688 161.573 34.3866C160.889 34.7044 160.278 35.1568 159.74 35.7436C159.202 36.3059 158.774 36.9905 158.456 37.7973C158.163 38.6041 158.016 39.5088 158.016 40.5112V51H154.789V31.3427H157.429L157.796 34.9367H157.943C158.358 34.2032 158.859 33.5431 159.446 32.9563C160.033 32.3451 160.705 31.8683 161.463 31.526C162.221 31.1593 163.053 30.9759 163.957 30.9759Z" fill="white"/>
</svg>
