<svg width="225" height="205" viewBox="0 0 225 205" fill="none" xmlns="http://www.w3.org/2000/svg">
<ellipse cx="112.5" cy="102.5" rx="112.5" ry="102.5" fill="#000341"/>
<path d="M54.744 127H29.208V81.304H54.744V86.36H34.968V100.632H53.592V105.624H34.968V121.944H54.744V127ZM76.1625 127.64C71.8958 127.64 68.4825 126.168 65.9225 123.224C63.3625 120.237 62.0825 115.8 62.0825 109.912C62.0825 104.024 63.3625 99.5867 65.9225 96.6C68.5252 93.5707 71.9598 92.056 76.2265 92.056C78.8718 92.056 81.0265 92.5467 82.6905 93.528C84.3972 94.5093 85.7838 95.704 86.8505 97.112H87.2345C87.1918 96.5573 87.1065 95.7467 86.9785 94.68C86.8932 93.5707 86.8505 92.696 86.8505 92.056V78.36H92.4825V127H87.9385L87.1065 122.392H86.8505C85.8265 123.843 84.4612 125.08 82.7545 126.104C81.0478 127.128 78.8505 127.64 76.1625 127.64ZM77.0585 122.968C80.6852 122.968 83.2238 121.987 84.6745 120.024C86.1678 118.019 86.9145 115.011 86.9145 111V109.976C86.9145 105.709 86.2105 102.445 84.8025 100.184C83.3945 97.88 80.7918 96.728 76.9945 96.728C73.9652 96.728 71.6825 97.944 70.1465 100.376C68.6532 102.765 67.9065 105.987 67.9065 110.04C67.9065 114.136 68.6532 117.315 70.1465 119.576C71.6825 121.837 73.9865 122.968 77.0585 122.968ZM123.73 85.72C118.823 85.72 114.962 87.3627 112.146 90.648C109.33 93.9333 107.922 98.4347 107.922 104.152C107.922 109.827 109.223 114.328 111.826 117.656C114.471 120.941 118.418 122.584 123.666 122.584C125.671 122.584 127.57 122.413 129.362 122.072C131.154 121.731 132.903 121.304 134.61 120.792V125.784C132.903 126.424 131.132 126.893 129.298 127.192C127.506 127.491 125.351 127.64 122.834 127.64C118.183 127.64 114.3 126.68 111.186 124.76C108.071 122.84 105.724 120.109 104.146 116.568C102.61 113.027 101.842 108.867 101.842 104.088C101.842 99.48 102.674 95.4267 104.338 91.928C106.044 88.3867 108.54 85.6347 111.826 83.672C115.111 81.6667 119.1 80.664 123.794 80.664C128.615 80.664 132.818 81.56 136.402 83.352L134.097 88.216C132.69 87.576 131.111 87 129.362 86.488C127.655 85.976 125.778 85.72 123.73 85.72ZM156.807 92.12C160.988 92.12 164.082 93.0373 166.087 94.872C168.092 96.7067 169.095 99.6293 169.095 103.64V127H164.999L163.911 122.136H163.655C162.162 124.013 160.583 125.4 158.919 126.296C157.298 127.192 155.036 127.64 152.135 127.64C149.02 127.64 146.439 126.829 144.391 125.208C142.343 123.544 141.319 120.963 141.319 117.464C141.319 114.051 142.663 111.427 145.351 109.592C148.039 107.715 152.178 106.691 157.767 106.52L163.591 106.328V104.28C163.591 101.421 162.972 99.4373 161.735 98.328C160.498 97.2187 158.748 96.664 156.487 96.664C154.695 96.664 152.988 96.9413 151.367 97.496C149.746 98.008 148.231 98.6053 146.823 99.288L145.095 95.064C146.588 94.2533 148.359 93.5707 150.407 93.016C152.455 92.4187 154.588 92.12 156.807 92.12ZM158.471 110.424C154.204 110.595 151.239 111.277 149.575 112.472C147.954 113.667 147.143 115.352 147.143 117.528C147.143 119.448 147.719 120.856 148.871 121.752C150.066 122.648 151.58 123.096 153.415 123.096C156.316 123.096 158.727 122.307 160.647 120.728C162.567 119.107 163.527 116.632 163.527 113.304V110.232L158.471 110.424ZM195.69 92.056C196.33 92.056 197.013 92.0987 197.738 92.184C198.506 92.2267 199.167 92.312 199.722 92.44L199.018 97.624C198.463 97.496 197.845 97.3893 197.162 97.304C196.522 97.2187 195.903 97.176 195.306 97.176C193.557 97.176 191.914 97.6667 190.378 98.648C188.842 99.5867 187.605 100.931 186.666 102.68C185.77 104.387 185.322 106.392 185.322 108.696V127H179.69V92.696H184.298L184.938 98.968H185.194C186.303 97.0907 187.733 95.4693 189.482 94.104C191.231 92.7387 193.301 92.056 195.69 92.056Z" fill="white"/>
</svg>
