<svg width="150" height="150" viewBox="0 0 150 150" fill="none" xmlns="http://www.w3.org/2000/svg">
<circle cx="75" cy="75" r="75" fill="#000341"/>
<path d="M42.1904 89H27.5574V62.8147H42.1904V65.7119H30.8581V73.8902H41.5302V76.7508H30.8581V86.1027H42.1904V89ZM54.4639 89.3667C52.019 89.3667 50.063 88.5232 48.596 86.8362C47.1291 85.1248 46.3956 82.582 46.3956 79.208C46.3956 75.834 47.1291 73.2912 48.596 71.5798C50.0875 69.8439 52.0556 68.9759 54.5006 68.9759C55.5275 68.9759 56.4199 69.1104 57.1778 69.3793C57.9357 69.6238 58.5959 69.9661 59.1582 70.4062C59.7205 70.8463 60.1973 71.3353 60.5885 71.8732H60.8085C60.7841 71.5553 60.7352 71.0908 60.6618 70.4796C60.6129 69.8439 60.5885 69.3427 60.5885 68.9759V61.1276H63.8158V89H61.2119L60.7352 86.3595H60.5885C60.1973 86.9218 59.7205 87.4352 59.1582 87.8998C58.5959 88.3399 57.9235 88.6944 57.1411 88.9633C56.3832 89.2323 55.4908 89.3667 54.4639 89.3667ZM54.9773 86.6895C57.0555 86.6895 58.5103 86.1272 59.3416 85.0025C60.1973 83.8534 60.6252 82.1297 60.6252 79.8315V79.2447C60.6252 76.7997 60.2217 74.9293 59.4149 73.6335C58.6081 72.3133 57.1167 71.6531 54.9407 71.6531C53.2048 71.6531 51.8967 72.3499 51.0165 73.7436C50.1608 75.1127 49.7329 76.9587 49.7329 79.2813C49.7329 81.6285 50.1608 83.45 51.0165 84.7458C51.8967 86.0416 53.217 86.6895 54.9773 86.6895ZM81.7214 65.3452C80.3278 65.3452 79.0686 65.5897 77.944 66.0787C76.8193 66.5432 75.8658 67.24 75.0834 68.1691C74.301 69.0737 73.702 70.1862 73.2863 71.5064C72.8707 72.8022 72.6629 74.2692 72.6629 75.9073C72.6629 78.0589 72.9929 79.9293 73.6531 81.5185C74.3377 83.1077 75.3401 84.3302 76.6604 85.1859C78.0051 86.0416 79.6799 86.4695 81.6847 86.4695C82.8338 86.4695 83.9218 86.3717 84.9487 86.1761C85.9756 85.9805 86.978 85.736 87.956 85.4426V88.3032C86.978 88.6699 85.9634 88.9389 84.912 89.11C83.8852 89.2812 82.6505 89.3667 81.208 89.3667C78.543 89.3667 76.3181 88.8166 74.5333 87.7164C72.7485 86.6162 71.4037 85.0514 70.4991 83.0221C69.6189 80.9928 69.1788 78.609 69.1788 75.8707C69.1788 73.8902 69.4478 72.081 69.9857 70.4429C70.548 68.8048 71.3548 67.3867 72.4062 66.1887C73.4819 64.9907 74.8022 64.0738 76.367 63.4381C77.9317 62.778 79.7288 62.4479 81.7581 62.4479C83.1028 62.4479 84.3986 62.5824 85.6455 62.8513C86.8925 63.1203 88.0049 63.4992 88.9829 63.9882L87.6626 66.7755C86.8558 66.4087 85.9511 66.0787 84.9487 65.7853C83.9707 65.4919 82.895 65.3452 81.7214 65.3452ZM100.676 69.0126C103.072 69.0126 104.845 69.5382 105.994 70.5896C107.143 71.6409 107.717 73.3157 107.717 75.6139V89H105.37L104.747 86.2128H104.6C104.038 86.9218 103.451 87.5208 102.84 88.0098C102.253 88.4743 101.568 88.8166 100.786 89.0367C100.028 89.2567 99.0989 89.3667 97.9987 89.3667C96.8251 89.3667 95.7616 89.1589 94.8081 88.7433C93.879 88.3276 93.1455 87.692 92.6076 86.8362C92.0697 85.956 91.8008 84.8558 91.8008 83.5356C91.8008 81.5796 92.5709 80.076 94.1112 79.0246C95.6516 77.9489 98.0232 77.3621 101.226 77.2643L104.563 77.1542V75.9807C104.563 74.3426 104.209 73.2057 103.5 72.57C102.791 71.9343 101.788 71.6164 100.493 71.6164C99.4657 71.6164 98.4877 71.7754 97.5586 72.0932C96.6295 72.3866 95.7616 72.7289 94.9548 73.1201L93.9645 70.6996C94.8203 70.2351 95.8349 69.8439 97.0085 69.526C98.1821 69.1837 99.4045 69.0126 100.676 69.0126ZM101.629 79.5014C99.1845 79.5992 97.4853 79.9904 96.5317 80.675C95.6027 81.3596 95.1381 82.3253 95.1381 83.5722C95.1381 84.6724 95.4682 85.4793 96.1283 85.9927C96.8129 86.5062 97.6809 86.7629 98.7322 86.7629C100.395 86.7629 101.776 86.3106 102.876 85.4059C103.977 84.4769 104.527 83.0588 104.527 81.1517V79.3914L101.629 79.5014ZM122.957 68.9759C123.324 68.9759 123.715 69.0004 124.131 69.0493C124.571 69.0737 124.95 69.1226 125.268 69.196L124.864 72.1666C124.546 72.0932 124.192 72.0321 123.801 71.9832C123.434 71.9343 123.079 71.9098 122.737 71.9098C121.979 71.9098 121.258 72.0688 120.573 72.3866C119.889 72.7044 119.278 73.1568 118.74 73.7436C118.202 74.3059 117.774 74.9905 117.456 75.7973C117.163 76.6041 117.016 77.5088 117.016 78.5112V89H113.789V69.3427H116.429L116.796 72.9367H116.943C117.358 72.2032 117.859 71.5431 118.446 70.9563C119.033 70.3451 119.705 69.8683 120.463 69.526C121.221 69.1593 122.053 68.9759 122.957 68.9759Z" fill="white"/>
</svg>
