<svg width="150" height="150" viewBox="0 0 150 150" fill="none" xmlns="http://www.w3.org/2000/svg">
<circle cx="75" cy="75" r="75" fill="#087CB9"/>
<path d="M105.571 46.8293H44.4286C43.0772 46.8293 41.7812 47.4287 40.8257 48.4958C39.8701 49.5629 39.3333 51.0101 39.3333 52.5191V98.0381C39.3333 99.5472 39.8701 100.994 40.8257 102.061C41.7812 103.129 43.0772 103.728 44.4286 103.728H105.571C106.923 103.728 108.219 103.129 109.174 102.061C110.13 100.994 110.667 99.5472 110.667 98.0381V52.5191C110.667 51.0101 110.13 49.5629 109.174 48.4958C108.219 47.4287 106.923 46.8293 105.571 46.8293V46.8293ZM99.9666 52.5191L75 71.8078L50.0333 52.5191H99.9666ZM44.4286 98.0381V55.108L73.5478 77.6115C73.9743 77.9419 74.4809 78.1189 75 78.1189C75.519 78.1189 76.0257 77.9419 76.4521 77.6115L105.571 55.108V98.0381H44.4286Z" fill="white"/>
</svg>
