<svg width="98" height="98" viewBox="0 0 98 98" fill="none" xmlns="http://www.w3.org/2000/svg">
<path fill-rule="evenodd" clip-rule="evenodd" d="M49 49C49 42.2346 54.4846 36.75 61.25 36.75C68.0154 36.75 73.5 42.2346 73.5 49C73.5 55.7654 68.0154 61.25 61.25 61.25C54.4846 61.25 49 55.7654 49 49Z" fill="#1ABCFE"/>
<path fill-rule="evenodd" clip-rule="evenodd" d="M24.5 73.5C24.5 66.7346 29.9845 61.25 36.75 61.25H49V73.5C49 80.2654 43.5154 85.75 36.75 85.75C29.9845 85.75 24.5 80.2654 24.5 73.5Z" fill="#0ACF83"/>
<path fill-rule="evenodd" clip-rule="evenodd" d="M49 12.25V36.75H61.25C68.0154 36.75 73.5 31.2654 73.5 24.5C73.5 17.7345 68.0154 12.25 61.25 12.25H49Z" fill="#FF7262"/>
<path fill-rule="evenodd" clip-rule="evenodd" d="M24.5 24.5C24.5 31.2654 29.9845 36.75 36.75 36.75H49V12.25H36.75C29.9845 12.25 24.5 17.7345 24.5 24.5Z" fill="#F24E1E"/>
<path fill-rule="evenodd" clip-rule="evenodd" d="M24.5 49C24.5 55.7654 29.9845 61.25 36.75 61.25H49V36.75H36.75C29.9845 36.75 24.5 42.2346 24.5 49Z" fill="#A259FF"/>
</svg>
