<svg width="225" height="205" viewBox="0 0 225 205" fill="none" xmlns="http://www.w3.org/2000/svg">
<ellipse cx="112.5" cy="102.5" rx="112.5" ry="102.5" fill="white"/>
<path fill-rule="evenodd" clip-rule="evenodd" d="M112.5 26C70.2337 26 36 60.2337 36 102.5C36 136.351 57.8981 164.943 88.3069 175.079C92.1319 175.749 93.5662 173.454 93.5662 171.446C93.5662 169.629 93.4706 163.604 93.4706 157.197C74.25 160.736 69.2775 152.512 67.7475 148.209C66.8869 146.009 63.1575 139.22 59.9062 137.403C57.2288 135.969 53.4037 132.431 59.8106 132.335C65.835 132.239 70.1381 137.881 71.5725 140.176C78.4575 151.747 89.4544 148.496 93.8531 146.487C94.5225 141.515 96.5306 138.168 98.73 136.256C81.7088 134.343 63.9225 127.745 63.9225 98.4837C63.9225 90.1644 66.8869 83.2794 71.7638 77.9244C70.9988 76.0119 68.3212 68.1706 72.5288 57.6519C72.5288 57.6519 78.9356 55.6438 93.5662 65.4931C99.6862 63.7719 106.189 62.9112 112.691 62.9112C119.194 62.9112 125.696 63.7719 131.816 65.4931C146.447 55.5481 152.854 57.6519 152.854 57.6519C157.061 68.1706 154.384 76.0119 153.619 77.9244C158.496 83.2794 161.46 90.0687 161.46 98.4837C161.46 127.841 143.578 134.343 126.557 136.256C129.33 138.646 131.721 143.236 131.721 150.408C131.721 160.64 131.625 168.864 131.625 171.446C131.625 173.454 133.059 175.844 136.884 175.079C152.071 169.952 165.267 160.192 174.616 147.172C183.965 134.152 188.995 118.529 189 102.5C189 60.2337 154.766 26 112.5 26Z" fill="black"/>
</svg>
