<svg width="150" height="150" viewBox="0 0 150 150" fill="none" xmlns="http://www.w3.org/2000/svg">
<circle cx="75" cy="75" r="75" fill="#087CB9"/>
<path fill-rule="evenodd" clip-rule="evenodd" d="M75 30C50.1375 30 30 50.6469 30 76.1382C30 96.5544 42.8812 113.799 60.7687 119.912C63.0187 120.316 63.8625 118.931 63.8625 117.72C63.8625 116.625 63.8063 112.991 63.8063 109.127C52.5 111.261 49.575 106.301 48.675 103.706C48.1688 102.379 45.975 98.2846 44.0625 97.1888C42.4875 96.3237 40.2375 94.1898 44.0062 94.1321C47.55 94.0745 50.0812 97.4771 50.925 98.8613C54.975 105.84 61.4437 103.879 64.0312 102.668C64.425 99.6687 65.6063 97.6502 66.9 96.4967C56.8875 95.3433 46.425 91.3638 46.425 73.716C46.425 68.6984 48.1688 64.546 51.0375 61.3163C50.5875 60.1629 49.0125 55.4337 51.4875 49.0897C51.4875 49.0897 55.2562 47.8786 63.8625 53.8189C67.4625 52.7807 71.2875 52.2617 75.1125 52.2617C78.9375 52.2617 82.7625 52.7807 86.3625 53.8189C94.9687 47.8209 98.7375 49.0897 98.7375 49.0897C101.212 55.4337 99.6375 60.1629 99.1875 61.3163C102.056 64.546 103.8 68.6408 103.8 73.716C103.8 91.4215 93.2812 95.3433 83.2687 96.4967C84.9 97.9385 86.3063 100.707 86.3063 105.032C86.3063 111.203 86.25 116.163 86.25 117.72C86.25 118.931 87.0937 120.373 89.3437 119.912C98.2769 116.82 106.039 110.933 111.539 103.081C117.038 95.2281 119.997 85.8053 120 76.1382C120 50.6469 99.8625 30 75 30Z" fill="white"/>
</svg>
