<svg width="60" height="59" viewBox="0 0 60 59" fill="none" xmlns="http://www.w3.org/2000/svg">
<path d="M30 0C13.425 0 0 13.4325 0 30C0 43.2575 8.595 54.5 20.5125 58.4625C22.0125 58.745 22.5625 57.8175 22.5625 57.02C22.5625 56.3075 22.5375 54.42 22.525 51.92C14.18 53.73 12.42 47.895 12.42 47.895C11.055 44.4325 9.0825 43.5075 9.0825 43.5075C6.365 41.6475 9.2925 41.685 9.2925 41.685C12.305 41.895 13.8875 44.775 13.8875 44.775C16.5625 49.3625 20.91 48.0375 22.625 47.27C22.895 45.33 23.6675 44.0075 24.525 43.2575C17.8625 42.5075 10.86 39.9275 10.86 28.4325C10.86 25.1575 12.0225 22.4825 13.9475 20.3825C13.61 19.625 12.5975 16.575 14.21 12.4425C14.21 12.4425 16.7225 11.6375 22.46 15.5175C24.86 14.85 27.41 14.52 29.96 14.505C32.51 14.52 35.06 14.85 37.46 15.5175C43.16 11.6375 45.6725 12.4425 45.6725 12.4425C47.285 16.575 46.2725 19.625 45.9725 20.3825C47.885 22.4825 49.0475 25.1575 49.0475 28.4325C49.0475 39.9575 42.035 42.495 35.36 43.2325C36.41 44.1325 37.385 45.9725 37.385 48.7825C37.385 52.7975 37.3475 56.0225 37.3475 56.9975C37.3475 57.785 37.8725 58.7225 39.41 58.4225C51.4125 54.4875 60 43.2375 60 30C60 13.4325 46.5675 0 30 0Z" fill="#045885"/>
</svg>
