<svg width="47" height="45" viewBox="0 0 47 45" fill="none" xmlns="http://www.w3.org/2000/svg">
<line x1="0.245537" y1="-0.245537" x2="33.8711" y2="-0.245537" transform="matrix(0.665932 0.746013 -0.966278 0.257503 0.282104 0.529114)" stroke="white" stroke-width="0.491074" stroke-linecap="round"/>
<line x1="0.245537" y1="-0.245537" x2="34.1321" y2="-0.245537" transform="matrix(0.665932 -0.746013 0.966278 0.257503 23.5499 26.0778)" stroke="white" stroke-width="0.491074" stroke-linecap="round"/>
<line x1="0.245537" y1="-0.245537" x2="33.8711" y2="-0.245537" transform="matrix(0.665932 0.746013 -0.966278 0.257503 0.282104 9.36844)" stroke="white" stroke-width="0.491074" stroke-linecap="round"/>
<line x1="0.245537" y1="-0.245537" x2="34.1321" y2="-0.245537" transform="matrix(0.665932 -0.746013 0.966278 0.257503 23.5499 34.9172)" stroke="white" stroke-width="0.491074" stroke-linecap="round"/>
<line x1="0.245537" y1="-0.245537" x2="33.8711" y2="-0.245537" transform="matrix(0.665932 0.746013 -0.966278 0.257503 0.282104 19.1899)" stroke="white" stroke-width="0.491074" stroke-linecap="round"/>
<line x1="0.245537" y1="-0.245537" x2="34.1321" y2="-0.245537" transform="matrix(0.665932 -0.746013 0.966278 0.257503 23.5499 44.7386)" stroke="white" stroke-width="0.491074" stroke-linecap="round"/>
</svg>
