<svg width="50" height="52" viewBox="0 0 50 52" fill="none" xmlns="http://www.w3.org/2000/svg">
<path d="M25.5102 21.8644V30.6122H39.9787C39.3941 34.3644 35.608 41.6114 25.5102 41.6114C16.8048 41.6114 9.696 34.4069 9.696 25.5102C9.696 16.6135 16.807 9.40901 25.5102 9.40901C30.4634 9.40901 33.7819 11.5115 35.6824 13.3397L42.5999 6.66879C38.1569 2.52126 32.3958 0 25.5102 0C11.4052 0 0 11.4052 0 25.5102C0 39.6152 11.4052 51.0204 25.5102 51.0204C40.2338 51.0204 50 40.6696 50 26.0927C50 24.4175 49.8193 23.1378 49.5982 21.8644H25.5102Z" fill="#045885"/>
</svg>
