<svg width="231" height="150" viewBox="0 0 231 150" fill="none" xmlns="http://www.w3.org/2000/svg">
<rect width="231" height="150" rx="5" fill="#1C4B23"/>
<path d="M53.8641 36.748V55H49.4181V47.486H42.5021V55H38.0561V36.748H42.5021V43.898H49.4181V36.748H53.8641ZM57.2296 47.72C57.2296 46.2293 57.507 44.9207 58.0616 43.794C58.6336 42.6673 59.405 41.8007 60.3756 41.194C61.3463 40.5873 62.4296 40.284 63.6256 40.284C64.6483 40.284 65.541 40.492 66.3036 40.908C67.0836 41.324 67.6816 41.87 68.0976 42.546V40.492H72.5436V55H68.0976V52.946C67.6643 53.622 67.0576 54.168 66.2776 54.584C65.515 55 64.6223 55.208 63.5996 55.208C62.421 55.208 61.3463 54.9047 60.3756 54.298C59.405 53.674 58.6336 52.7987 58.0616 51.672C57.507 50.528 57.2296 49.2107 57.2296 47.72ZM68.0976 47.746C68.0976 46.6367 67.7856 45.7613 67.1616 45.12C66.555 44.4787 65.8096 44.158 64.9256 44.158C64.0416 44.158 63.2876 44.4787 62.6636 45.12C62.057 45.744 61.7536 46.6107 61.7536 47.72C61.7536 48.8293 62.057 49.7133 62.6636 50.372C63.2876 51.0133 64.0416 51.334 64.9256 51.334C65.8096 51.334 66.555 51.0133 67.1616 50.372C67.7856 49.7307 68.0976 48.8553 68.0976 47.746ZM81.2461 35.76V55H76.8001V35.76H81.2461ZM89.9541 35.76V55H85.5081V35.76H89.9541ZM107.37 55.208C105.948 55.208 104.666 54.9047 103.522 54.298C102.395 53.6913 101.502 52.8247 100.844 51.698C100.202 50.5713 99.8818 49.254 99.8818 47.746C99.8818 46.2553 100.211 44.9467 100.87 43.82C101.528 42.676 102.43 41.8007 103.574 41.194C104.718 40.5873 106 40.284 107.422 40.284C108.843 40.284 110.126 40.5873 111.27 41.194C112.414 41.8007 113.315 42.676 113.974 43.82C114.632 44.9467 114.962 46.2553 114.962 47.746C114.962 49.2367 114.624 50.554 113.948 51.698C113.289 52.8247 112.379 53.6913 111.218 54.298C110.074 54.9047 108.791 55.208 107.37 55.208ZM107.37 51.36C108.219 51.36 108.938 51.048 109.528 50.424C110.134 49.8 110.438 48.9073 110.438 47.746C110.438 46.5847 110.143 45.692 109.554 45.068C108.982 44.444 108.271 44.132 107.422 44.132C106.555 44.132 105.836 44.444 105.264 45.068C104.692 45.6747 104.406 46.5673 104.406 47.746C104.406 48.9073 104.683 49.8 105.238 50.424C105.81 51.048 106.52 51.36 107.37 51.36ZM125.641 44.184H123.249V55H118.803V44.184H117.191V40.492H118.803V40.076C118.803 38.2907 119.314 36.9387 120.337 36.02C121.359 35.084 122.859 34.616 124.835 34.616C125.164 34.616 125.407 34.6247 125.563 34.642V38.412C124.713 38.36 124.115 38.4813 123.769 38.776C123.422 39.0707 123.249 39.5993 123.249 40.362V40.492H125.641V44.184ZM139.765 42.546C140.199 41.87 140.797 41.324 141.559 40.908C142.322 40.492 143.215 40.284 144.237 40.284C145.433 40.284 146.517 40.5873 147.487 41.194C148.458 41.8007 149.221 42.6673 149.775 43.794C150.347 44.9207 150.633 46.2293 150.633 47.72C150.633 49.2107 150.347 50.528 149.775 51.672C149.221 52.7987 148.458 53.674 147.487 54.298C146.517 54.9047 145.433 55.208 144.237 55.208C143.232 55.208 142.339 55 141.559 54.584C140.797 54.168 140.199 53.6307 139.765 52.972V61.916H135.319V40.492H139.765V42.546ZM146.109 47.72C146.109 46.6107 145.797 45.744 145.173 45.12C144.567 44.4787 143.813 44.158 142.911 44.158C142.027 44.158 141.273 44.4787 140.649 45.12C140.043 45.7613 139.739 46.6367 139.739 47.746C139.739 48.8553 140.043 49.7307 140.649 50.372C141.273 51.0133 142.027 51.334 142.911 51.334C143.795 51.334 144.549 51.0133 145.173 50.372C145.797 49.7133 146.109 48.8293 146.109 47.72ZM167.682 47.512C167.682 47.928 167.656 48.3613 167.604 48.812H157.542C157.611 49.7133 157.897 50.4067 158.4 50.892C158.92 51.36 159.553 51.594 160.298 51.594C161.407 51.594 162.179 51.126 162.612 50.19H167.344C167.101 51.1433 166.659 52.0013 166.018 52.764C165.394 53.5267 164.605 54.1247 163.652 54.558C162.699 54.9913 161.633 55.208 160.454 55.208C159.033 55.208 157.767 54.9047 156.658 54.298C155.549 53.6913 154.682 52.8247 154.058 51.698C153.434 50.5713 153.122 49.254 153.122 47.746C153.122 46.238 153.425 44.9207 154.032 43.794C154.656 42.6673 155.523 41.8007 156.632 41.194C157.741 40.5873 159.015 40.284 160.454 40.284C161.858 40.284 163.106 40.5787 164.198 41.168C165.29 41.7573 166.139 42.598 166.746 43.69C167.37 44.782 167.682 46.056 167.682 47.512ZM163.132 46.342C163.132 45.5793 162.872 44.9727 162.352 44.522C161.832 44.0713 161.182 43.846 160.402 43.846C159.657 43.846 159.024 44.0627 158.504 44.496C158.001 44.9293 157.689 45.5447 157.568 46.342H163.132ZM179.153 51.23V55H176.891C175.279 55 174.023 54.61 173.121 53.83C172.22 53.0327 171.769 51.7413 171.769 49.956V44.184H170.001V40.492H171.769V36.956H176.215V40.492H179.127V44.184H176.215V50.008C176.215 50.4413 176.319 50.7533 176.527 50.944C176.735 51.1347 177.082 51.23 177.567 51.23H179.153ZM188.572 55.208C187.307 55.208 186.18 54.9913 185.192 54.558C184.204 54.1247 183.424 53.5353 182.852 52.79C182.28 52.0273 181.959 51.178 181.89 50.242H186.284C186.336 50.7447 186.57 51.152 186.986 51.464C187.402 51.776 187.913 51.932 188.52 51.932C189.075 51.932 189.499 51.828 189.794 51.62C190.106 51.3947 190.262 51.1087 190.262 50.762C190.262 50.346 190.045 50.0427 189.612 49.852C189.179 49.644 188.477 49.4187 187.506 49.176C186.466 48.9333 185.599 48.682 184.906 48.422C184.213 48.1447 183.615 47.72 183.112 47.148C182.609 46.5587 182.358 45.77 182.358 44.782C182.358 43.95 182.583 43.196 183.034 42.52C183.502 41.8267 184.178 41.2807 185.062 40.882C185.963 40.4833 187.029 40.284 188.26 40.284C190.08 40.284 191.51 40.7347 192.55 41.636C193.607 42.5373 194.214 43.7333 194.37 45.224H190.262C190.193 44.7213 189.967 44.3227 189.586 44.028C189.222 43.7333 188.737 43.586 188.13 43.586C187.61 43.586 187.211 43.69 186.934 43.898C186.657 44.0887 186.518 44.3573 186.518 44.704C186.518 45.12 186.735 45.432 187.168 45.64C187.619 45.848 188.312 46.056 189.248 46.264C190.323 46.5413 191.198 46.8187 191.874 47.096C192.55 47.356 193.139 47.7893 193.642 48.396C194.162 48.9853 194.431 49.7827 194.448 50.788C194.448 51.6373 194.205 52.4 193.72 53.076C193.252 53.7347 192.567 54.2547 191.666 54.636C190.782 55.0173 189.751 55.208 188.572 55.208Z" fill="white"/>
<path d="M48.8942 100.196C47.9748 100.196 47.2142 100.021 46.6122 99.671C46.0148 99.3163 45.5692 98.8147 45.2752 98.166C44.9812 97.5127 44.8342 96.738 44.8342 95.842V90.2H46.1642V95.478C46.1642 95.926 46.1992 96.36 46.2692 96.78C46.3392 97.2 46.4675 97.5757 46.6542 97.907C46.8455 98.2383 47.1208 98.502 47.4802 98.698C47.8442 98.894 48.3155 98.992 48.8942 98.992C49.4775 98.992 49.9488 98.894 50.3082 98.698C50.6675 98.502 50.9405 98.2383 51.1272 97.907C51.3185 97.571 51.4492 97.193 51.5192 96.773C51.5892 96.353 51.6242 95.9213 51.6242 95.478V90.2H52.9542V95.842C52.9542 96.738 52.8072 97.5127 52.5132 98.166C52.2192 98.8147 51.7712 99.3163 51.1692 99.671C50.5718 100.021 49.8135 100.196 48.8942 100.196ZM54.5923 100V93.14H55.5723L55.8243 94.456L55.3483 94.232C55.7776 93.77 56.1953 93.4503 56.6013 93.273C57.0073 93.091 57.4343 93 57.8823 93C58.2183 93 58.5403 93.056 58.8483 93.168C59.1609 93.2753 59.4409 93.4667 59.6883 93.742C59.9403 94.0127 60.1409 94.3907 60.2903 94.876L59.9403 94.722C60.1456 94.19 60.4606 93.77 60.8853 93.462C61.3099 93.154 61.8816 93 62.6003 93C63.1743 93 63.6573 93.1073 64.0493 93.322C64.4413 93.532 64.7353 93.8563 64.9313 94.295C65.1319 94.729 65.2323 95.282 65.2323 95.954V100H63.9723V95.968C63.9723 95.324 63.8463 94.855 63.5943 94.561C63.3423 94.267 62.9316 94.12 62.3623 94.12C61.9609 94.12 61.6389 94.183 61.3963 94.309C61.1536 94.4303 60.9693 94.589 60.8433 94.785C60.7219 94.981 60.6403 95.1887 60.5983 95.408C60.5609 95.6273 60.5423 95.8327 60.5423 96.024V100H59.2823V96.22C59.2823 95.66 59.2146 95.2283 59.0793 94.925C58.9439 94.6217 58.7549 94.4117 58.5123 94.295C58.2696 94.1783 57.9896 94.12 57.6723 94.12C57.2103 94.12 56.7973 94.2227 56.4333 94.428C56.0693 94.6287 55.8243 94.9507 55.6983 95.394L55.8523 94.708V100H54.5923ZM70.0002 100V89.5H71.2742V94.33L70.8262 94.302C71.1482 93.896 71.4935 93.5787 71.8622 93.35C72.2355 93.1167 72.7115 93 73.2902 93C73.8828 93 74.3775 93.133 74.7742 93.399C75.1708 93.665 75.4672 94.036 75.6632 94.512C75.8638 94.988 75.9642 95.5433 75.9642 96.178V100H74.7042V96.332C74.7042 95.576 74.5642 95.0183 74.2842 94.659C74.0088 94.2997 73.5842 94.12 73.0102 94.12C72.5762 94.12 72.1912 94.2367 71.8552 94.47C71.5238 94.7033 71.2602 95.016 71.0642 95.408L71.2742 94.638V100H70.0002ZM79.198 100.14C78.7734 100.14 78.4024 100.054 78.085 99.881C77.7677 99.7083 77.5204 99.4727 77.343 99.174C77.1704 98.8753 77.084 98.5347 77.084 98.152C77.084 97.7647 77.168 97.4333 77.336 97.158C77.5087 96.878 77.7374 96.647 78.022 96.465C78.3114 96.2783 78.6334 96.1313 78.988 96.024C79.3427 95.912 79.709 95.8327 80.087 95.786C80.4697 95.7347 80.836 95.7067 81.186 95.702C81.186 95.0487 81.0577 94.6217 80.801 94.421C80.5444 94.2203 80.1734 94.12 79.688 94.12C79.4314 94.12 79.156 94.1597 78.862 94.239C78.5727 94.3183 78.246 94.484 77.882 94.736L77.7 93.714C77.9754 93.504 78.3184 93.3337 78.729 93.203C79.1397 93.0677 79.5714 93 80.024 93C80.6027 93 81.0694 93.1027 81.424 93.308C81.7787 93.5087 82.0377 93.8493 82.201 94.33C82.3644 94.8107 82.446 95.464 82.446 96.29V97.69C82.446 98.0167 82.46 98.2873 82.488 98.502C82.5207 98.712 82.5907 98.8707 82.698 98.978C82.81 99.0807 82.9874 99.132 83.23 99.132H83.356L83.16 100.14H83.062C82.656 100.14 82.341 100.1 82.117 100.021C81.8977 99.9417 81.7297 99.8273 81.613 99.678C81.4964 99.5287 81.3914 99.3467 81.298 99.132C81.0414 99.4307 80.738 99.6733 80.388 99.86C80.038 100.047 79.6414 100.14 79.198 100.14ZM79.436 99.132C79.772 99.132 80.0964 99.048 80.409 98.88C80.7264 98.712 80.9854 98.488 81.186 98.208V96.57C80.5187 96.5933 79.9774 96.6587 79.562 96.766C79.1514 96.8733 78.8504 97.0343 78.659 97.249C78.4677 97.4637 78.372 97.7413 78.372 98.082C78.372 98.4507 78.47 98.719 78.666 98.887C78.8667 99.0503 79.1234 99.132 79.436 99.132ZM86.0926 100.14C85.6493 100.14 85.2969 100.061 85.0356 99.902C84.7789 99.7387 84.5946 99.531 84.4826 99.279C84.3706 99.027 84.3146 98.7633 84.3146 98.488V89.5H85.5746V97.76C85.5746 98.152 85.6003 98.446 85.6516 98.642C85.7029 98.838 85.8056 98.9687 85.9596 99.034C86.1183 99.0993 86.3586 99.132 86.6806 99.132L86.4986 100.14H86.0926ZM89.4012 100.14C88.9579 100.14 88.6055 100.061 88.3442 99.902C88.0875 99.7387 87.9032 99.531 87.7912 99.279C87.6792 99.027 87.6232 98.7633 87.6232 98.488V89.5H88.8832V97.76C88.8832 98.152 88.9089 98.446 88.9602 98.642C89.0115 98.838 89.1142 98.9687 89.2682 99.034C89.4269 99.0993 89.6672 99.132 89.9892 99.132L89.8072 100.14H89.4012ZM97.2403 100.14C96.4657 100.14 95.8147 99.9837 95.2873 99.671C94.7647 99.3537 94.368 98.929 94.0973 98.397C93.8313 97.8603 93.6983 97.2653 93.6983 96.612C93.6983 95.9307 93.8267 95.317 94.0833 94.771C94.3447 94.225 94.7437 93.7933 95.2803 93.476C95.817 93.1587 96.503 93 97.3383 93C97.6977 93 98.036 93.0373 98.3533 93.112C98.6753 93.182 98.9623 93.28 99.2143 93.406L99.0183 94.512C98.7617 94.3907 98.4887 94.295 98.1993 94.225C97.9147 94.155 97.6183 94.12 97.3103 94.12C96.5543 94.12 95.978 94.3347 95.5813 94.764C95.1847 95.1933 94.9863 95.7907 94.9863 96.556C94.9863 97.3027 95.1753 97.9023 95.5533 98.355C95.9313 98.8077 96.5077 99.034 97.2823 99.034C97.5997 99.034 97.903 98.9967 98.1923 98.922C98.4863 98.8473 98.7663 98.7447 99.0323 98.614L99.2003 99.622C99.0137 99.7527 98.7407 99.8717 98.3813 99.979C98.022 100.086 97.6417 100.14 97.2403 100.14ZM103.348 100.14C102.629 100.14 102.016 99.9813 101.507 99.664C101.003 99.342 100.616 98.9127 100.345 98.376C100.079 97.8347 99.946 97.2327 99.946 96.57C99.946 95.9073 100.079 95.3077 100.345 94.771C100.616 94.2297 101.003 93.8003 101.507 93.483C102.016 93.161 102.629 93 103.348 93C104.062 93 104.673 93.161 105.182 93.483C105.691 93.8003 106.078 94.2297 106.344 94.771C106.615 95.3077 106.75 95.9073 106.75 96.57C106.75 97.2327 106.615 97.8347 106.344 98.376C106.078 98.9127 105.691 99.342 105.182 99.664C104.673 99.9813 104.062 100.14 103.348 100.14ZM103.348 99.02C104.029 99.02 104.552 98.8053 104.916 98.376C105.28 97.942 105.462 97.34 105.462 96.57C105.462 95.8 105.28 95.2003 104.916 94.771C104.552 94.337 104.029 94.12 103.348 94.12C102.671 94.12 102.149 94.337 101.78 94.771C101.416 95.2003 101.234 95.8 101.234 96.57C101.234 97.34 101.416 97.942 101.78 98.376C102.149 98.8053 102.671 99.02 103.348 99.02ZM108.049 100V93.14H109.029L109.281 94.456L108.805 94.232C109.235 93.77 109.652 93.4503 110.058 93.273C110.464 93.091 110.891 93 111.339 93C111.675 93 111.997 93.056 112.305 93.168C112.618 93.2753 112.898 93.4667 113.145 93.742C113.397 94.0127 113.598 94.3907 113.747 94.876L113.397 94.722C113.603 94.19 113.918 93.77 114.342 93.462C114.767 93.154 115.339 93 116.057 93C116.631 93 117.114 93.1073 117.506 93.322C117.898 93.532 118.192 93.8563 118.388 94.295C118.589 94.729 118.689 95.282 118.689 95.954V100H117.429V95.968C117.429 95.324 117.303 94.855 117.051 94.561C116.799 94.267 116.389 94.12 115.819 94.12C115.418 94.12 115.096 94.183 114.853 94.309C114.611 94.4303 114.426 94.589 114.3 94.785C114.179 94.981 114.097 95.1887 114.055 95.408C114.018 95.6273 113.999 95.8327 113.999 96.024V100H112.739V96.22C112.739 95.66 112.672 95.2283 112.536 94.925C112.401 94.6217 112.212 94.4117 111.969 94.295C111.727 94.1783 111.447 94.12 111.129 94.12C110.667 94.12 110.254 94.2227 109.89 94.428C109.526 94.6287 109.281 94.9507 109.155 95.394L109.309 94.708V100H108.049ZM126.467 100.14C125.749 100.14 125.135 99.9813 124.626 99.664C124.122 99.342 123.735 98.9127 123.464 98.376C123.198 97.8347 123.065 97.2327 123.065 96.57C123.065 95.9073 123.198 95.3077 123.464 94.771C123.735 94.2297 124.122 93.8003 124.626 93.483C125.135 93.161 125.749 93 126.467 93C127.181 93 127.793 93.161 128.301 93.483C128.81 93.8003 129.197 94.2297 129.463 94.771C129.734 95.3077 129.869 95.9073 129.869 96.57C129.869 97.2327 129.734 97.8347 129.463 98.376C129.197 98.9127 128.81 99.342 128.301 99.664C127.793 99.9813 127.181 100.14 126.467 100.14ZM126.467 99.02C127.149 99.02 127.671 98.8053 128.035 98.376C128.399 97.942 128.581 97.34 128.581 96.57C128.581 95.8 128.399 95.2003 128.035 94.771C127.671 94.337 127.149 94.12 126.467 94.12C125.791 94.12 125.268 94.337 124.899 94.771C124.535 95.2003 124.353 95.8 124.353 96.57C124.353 97.34 124.535 97.942 124.899 98.376C125.268 98.8053 125.791 99.02 126.467 99.02ZM133.114 100.14C132.508 100.14 132.004 100.068 131.602 99.923C131.206 99.7783 130.926 99.65 130.762 99.538L130.916 98.32C131.066 98.4507 131.329 98.6 131.707 98.768C132.085 98.936 132.536 99.02 133.058 99.02C133.502 99.02 133.84 98.9453 134.073 98.796C134.311 98.6467 134.43 98.4367 134.43 98.166C134.43 97.928 134.353 97.7367 134.199 97.592C134.05 97.4427 133.868 97.326 133.653 97.242C133.443 97.1533 133.245 97.0833 133.058 97.032C132.746 96.948 132.421 96.843 132.085 96.717C131.754 96.5863 131.474 96.3927 131.245 96.136C131.017 95.8793 130.902 95.52 130.902 95.058C130.902 94.708 130.986 94.3767 131.154 94.064C131.322 93.7467 131.595 93.49 131.973 93.294C132.351 93.098 132.853 93 133.478 93C133.936 93 134.307 93.049 134.591 93.147C134.881 93.2403 135.13 93.3407 135.34 93.448L135.186 94.596C134.986 94.428 134.752 94.2857 134.486 94.169C134.22 94.0523 133.894 93.994 133.506 93.994C133.114 93.994 132.795 94.0687 132.547 94.218C132.3 94.3627 132.176 94.596 132.176 94.918C132.176 95.24 132.307 95.4687 132.568 95.604C132.834 95.7393 133.236 95.8887 133.772 96.052C133.94 96.0987 134.134 96.1663 134.353 96.255C134.577 96.3437 134.794 96.4627 135.004 96.612C135.214 96.7613 135.387 96.9573 135.522 97.2C135.662 97.438 135.732 97.7367 135.732 98.096C135.732 98.3993 135.66 98.7097 135.515 99.027C135.371 99.3397 135.109 99.6033 134.731 99.818C134.353 100.033 133.814 100.14 133.114 100.14ZM142.056 100.14C141.449 100.14 140.945 100.068 140.544 99.923C140.147 99.7783 139.867 99.65 139.704 99.538L139.858 98.32C140.007 98.4507 140.271 98.6 140.649 98.768C141.027 98.936 141.477 99.02 142 99.02C142.443 99.02 142.782 98.9453 143.015 98.796C143.253 98.6467 143.372 98.4367 143.372 98.166C143.372 97.928 143.295 97.7367 143.141 97.592C142.992 97.4427 142.81 97.326 142.595 97.242C142.385 97.1533 142.187 97.0833 142 97.032C141.687 96.948 141.363 96.843 141.027 96.717C140.696 96.5863 140.416 96.3927 140.187 96.136C139.958 95.8793 139.844 95.52 139.844 95.058C139.844 94.708 139.928 94.3767 140.096 94.064C140.264 93.7467 140.537 93.49 140.915 93.294C141.293 93.098 141.795 93 142.42 93C142.877 93 143.248 93.049 143.533 93.147C143.822 93.2403 144.072 93.3407 144.282 93.448L144.128 94.596C143.927 94.428 143.694 94.2857 143.428 94.169C143.162 94.0523 142.835 93.994 142.448 93.994C142.056 93.994 141.736 94.0687 141.489 94.218C141.242 94.3627 141.118 94.596 141.118 94.918C141.118 95.24 141.249 95.4687 141.51 95.604C141.776 95.7393 142.177 95.8887 142.714 96.052C142.882 96.0987 143.076 96.1663 143.295 96.255C143.519 96.3437 143.736 96.4627 143.946 96.612C144.156 96.7613 144.329 96.9573 144.464 97.2C144.604 97.438 144.674 97.7367 144.674 98.096C144.674 98.3993 144.602 98.7097 144.457 99.027C144.312 99.3397 144.051 99.6033 143.673 99.818C143.295 100.033 142.756 100.14 142.056 100.14ZM149.197 100.14C148.389 100.14 147.71 99.9743 147.16 99.643C146.609 99.3117 146.191 98.873 145.907 98.327C145.627 97.7763 145.487 97.172 145.487 96.514C145.487 95.8747 145.617 95.289 145.879 94.757C146.145 94.225 146.527 93.8003 147.027 93.483C147.531 93.161 148.137 93 148.847 93C149.416 93 149.922 93.1143 150.366 93.343C150.814 93.567 151.164 93.896 151.416 94.33C151.672 94.7593 151.801 95.282 151.801 95.898C151.801 95.996 151.796 96.1033 151.787 96.22C151.782 96.332 151.768 96.4487 151.745 96.57H146.775C146.835 97.2047 146.987 97.6993 147.23 98.054C147.472 98.4087 147.778 98.6583 148.147 98.803C148.515 98.9477 148.917 99.02 149.351 99.02C149.668 99.02 149.999 98.9873 150.345 98.922C150.69 98.8567 151.017 98.754 151.325 98.614L151.493 99.608C151.227 99.7247 150.902 99.8437 150.52 99.965C150.137 100.082 149.696 100.14 149.197 100.14ZM146.887 95.702H150.499C150.499 95.38 150.438 95.1 150.317 94.862C150.195 94.624 150.011 94.442 149.764 94.316C149.516 94.1853 149.201 94.12 148.819 94.12C148.259 94.12 147.827 94.26 147.524 94.54C147.225 94.8153 147.013 95.2027 146.887 95.702ZM155.535 100.14C154.998 100.14 154.541 100.033 154.163 99.818C153.785 99.5987 153.495 99.2673 153.295 98.824C153.099 98.3807 153.001 97.816 153.001 97.13V93.14H154.261V96.78C154.261 97.508 154.384 98.0633 154.632 98.446C154.884 98.8287 155.292 99.02 155.857 99.02C156.244 99.02 156.603 98.9267 156.935 98.74C157.266 98.5533 157.495 98.2547 157.621 97.844L157.439 98.53V93.14H158.699V100H157.579L157.327 98.656L157.663 98.88C157.434 99.3047 157.154 99.622 156.823 99.832C156.496 100.037 156.067 100.14 155.535 100.14ZM163.557 103.388V93.14H164.537L164.761 94.708L164.411 94.456C164.7 94.008 165.057 93.6533 165.482 93.392C165.907 93.1307 166.427 93 167.043 93C167.668 93 168.205 93.1587 168.653 93.476C169.101 93.7933 169.444 94.2227 169.682 94.764C169.92 95.3007 170.039 95.9027 170.039 96.57C170.039 97.2373 169.927 97.8417 169.703 98.383C169.479 98.9197 169.145 99.3467 168.702 99.664C168.259 99.9813 167.706 100.14 167.043 100.14C166.497 100.14 166.002 100.028 165.559 99.804C165.12 99.5753 164.803 99.2347 164.607 98.782L164.817 98.53V103.388H163.557ZM166.805 99.02C167.416 99.02 167.892 98.8053 168.233 98.376C168.578 97.942 168.751 97.34 168.751 96.57C168.751 95.8 168.578 95.2003 168.233 94.771C167.892 94.337 167.416 94.12 166.805 94.12C166.427 94.12 166.082 94.211 165.769 94.393C165.461 94.5703 165.214 94.841 165.027 95.205C164.84 95.5643 164.747 96.0193 164.747 96.57C164.747 97.144 164.84 97.6107 165.027 97.97C165.214 98.3293 165.461 98.5953 165.769 98.768C166.082 98.936 166.427 99.02 166.805 99.02ZM174.64 100.14C173.833 100.14 173.154 99.9743 172.603 99.643C172.052 99.3117 171.635 98.873 171.35 98.327C171.07 97.7763 170.93 97.172 170.93 96.514C170.93 95.8747 171.061 95.289 171.322 94.757C171.588 94.225 171.971 93.8003 172.47 93.483C172.974 93.161 173.581 93 174.29 93C174.859 93 175.366 93.1143 175.809 93.343C176.257 93.567 176.607 93.896 176.859 94.33C177.116 94.7593 177.244 95.282 177.244 95.898C177.244 95.996 177.239 96.1033 177.23 96.22C177.225 96.332 177.211 96.4487 177.188 96.57H172.218C172.279 97.2047 172.43 97.6993 172.673 98.054C172.916 98.4087 173.221 98.6583 173.59 98.803C173.959 98.9477 174.36 99.02 174.794 99.02C175.111 99.02 175.443 98.9873 175.788 98.922C176.133 98.8567 176.46 98.754 176.768 98.614L176.936 99.608C176.67 99.7247 176.346 99.8437 175.963 99.965C175.58 100.082 175.139 100.14 174.64 100.14ZM172.33 95.702H175.942C175.942 95.38 175.881 95.1 175.76 94.862C175.639 94.624 175.454 94.442 175.207 94.316C174.96 94.1853 174.645 94.12 174.262 94.12C173.702 94.12 173.27 94.26 172.967 94.54C172.668 94.8153 172.456 95.2027 172.33 95.702ZM180.88 100.14C180.446 100.14 180.098 100.061 179.837 99.902C179.576 99.7433 179.384 99.5403 179.263 99.293C179.146 99.041 179.088 98.7773 179.088 98.502V94.12H177.912L178.024 93.14H179.088V91.446L180.348 91.32V93.14H182.154V94.12H180.348V97.732C180.348 98.1707 180.374 98.488 180.425 98.684C180.476 98.88 180.602 99.0037 180.803 99.055C181.008 99.1063 181.337 99.132 181.79 99.132H182.112L182.014 100.14H180.88ZM185.177 100.14C184.57 100.14 184.066 100.068 183.665 99.923C183.268 99.7783 182.988 99.65 182.825 99.538L182.979 98.32C183.128 98.4507 183.392 98.6 183.77 98.768C184.148 98.936 184.598 99.02 185.121 99.02C185.564 99.02 185.903 98.9453 186.136 98.796C186.374 98.6467 186.493 98.4367 186.493 98.166C186.493 97.928 186.416 97.7367 186.262 97.592C186.113 97.4427 185.931 97.326 185.716 97.242C185.506 97.1533 185.308 97.0833 185.121 97.032C184.808 96.948 184.484 96.843 184.148 96.717C183.817 96.5863 183.537 96.3927 183.308 96.136C183.079 95.8793 182.965 95.52 182.965 95.058C182.965 94.708 183.049 94.3767 183.217 94.064C183.385 93.7467 183.658 93.49 184.036 93.294C184.414 93.098 184.916 93 185.541 93C185.998 93 186.369 93.049 186.654 93.147C186.943 93.2403 187.193 93.3407 187.403 93.448L187.249 94.596C187.048 94.428 186.815 94.2857 186.549 94.169C186.283 94.0523 185.956 93.994 185.569 93.994C185.177 93.994 184.857 94.0687 184.61 94.218C184.363 94.3627 184.239 94.596 184.239 94.918C184.239 95.24 184.37 95.4687 184.631 95.604C184.897 95.7393 185.298 95.8887 185.835 96.052C186.003 96.0987 186.197 96.1663 186.416 96.255C186.64 96.3437 186.857 96.4627 187.067 96.612C187.277 96.7613 187.45 96.9573 187.585 97.2C187.725 97.438 187.795 97.7367 187.795 98.096C187.795 98.3993 187.723 98.7097 187.578 99.027C187.433 99.3397 187.172 99.6033 186.794 99.818C186.416 100.033 185.877 100.14 185.177 100.14ZM77.9028 117V110.14H78.8828L79.1348 111.456L78.6588 111.232C79.0882 110.77 79.5058 110.45 79.9118 110.273C80.3178 110.091 80.7448 110 81.1928 110C81.5288 110 81.8508 110.056 82.1588 110.168C82.4715 110.275 82.7515 110.467 82.9988 110.742C83.2508 111.013 83.4515 111.391 83.6008 111.876L83.2508 111.722C83.4562 111.19 83.7712 110.77 84.1958 110.462C84.6205 110.154 85.1922 110 85.9108 110C86.4848 110 86.9678 110.107 87.3598 110.322C87.7518 110.532 88.0458 110.856 88.2418 111.295C88.4425 111.729 88.5428 112.282 88.5428 112.954V117H87.2828V112.968C87.2828 112.324 87.1568 111.855 86.9048 111.561C86.6528 111.267 86.2422 111.12 85.6728 111.12C85.2715 111.12 84.9495 111.183 84.7068 111.309C84.4642 111.43 84.2798 111.589 84.1538 111.785C84.0325 111.981 83.9508 112.189 83.9088 112.408C83.8715 112.627 83.8528 112.833 83.8528 113.024V117H82.5928V113.22C82.5928 112.66 82.5252 112.228 82.3898 111.925C82.2545 111.622 82.0655 111.412 81.8228 111.295C81.5802 111.178 81.3002 111.12 80.9828 111.12C80.5208 111.12 80.1078 111.223 79.7438 111.428C79.3798 111.629 79.1348 111.951 79.0088 112.394L79.1628 111.708V117H77.9028ZM91.7762 117.14C91.3515 117.14 90.9805 117.054 90.6632 116.881C90.3458 116.708 90.0985 116.473 89.9212 116.174C89.7485 115.875 89.6622 115.535 89.6622 115.152C89.6622 114.765 89.7462 114.433 89.9142 114.158C90.0868 113.878 90.3155 113.647 90.6002 113.465C90.8895 113.278 91.2115 113.131 91.5662 113.024C91.9208 112.912 92.2872 112.833 92.6652 112.786C93.0478 112.735 93.4142 112.707 93.7642 112.702C93.7642 112.049 93.6358 111.622 93.3792 111.421C93.1225 111.22 92.7515 111.12 92.2662 111.12C92.0095 111.12 91.7342 111.16 91.4402 111.239C91.1508 111.318 90.8242 111.484 90.4602 111.736L90.2782 110.714C90.5535 110.504 90.8965 110.334 91.3072 110.203C91.7178 110.068 92.1495 110 92.6022 110C93.1808 110 93.6475 110.103 94.0022 110.308C94.3568 110.509 94.6158 110.849 94.7792 111.33C94.9425 111.811 95.0242 112.464 95.0242 113.29V114.69C95.0242 115.017 95.0382 115.287 95.0662 115.502C95.0988 115.712 95.1688 115.871 95.2762 115.978C95.3882 116.081 95.5655 116.132 95.8082 116.132H95.9342L95.7382 117.14H95.6402C95.2342 117.14 94.9192 117.1 94.6952 117.021C94.4758 116.942 94.3078 116.827 94.1912 116.678C94.0745 116.529 93.9695 116.347 93.8762 116.132C93.6195 116.431 93.3162 116.673 92.9662 116.86C92.6162 117.047 92.2195 117.14 91.7762 117.14ZM92.0142 116.132C92.3502 116.132 92.6745 116.048 92.9872 115.88C93.3045 115.712 93.5635 115.488 93.7642 115.208V113.57C93.0968 113.593 92.5555 113.659 92.1402 113.766C91.7295 113.873 91.4285 114.034 91.2372 114.249C91.0458 114.464 90.9502 114.741 90.9502 115.082C90.9502 115.451 91.0482 115.719 91.2442 115.887C91.4448 116.05 91.7015 116.132 92.0142 116.132ZM96.9067 117V110.14H98.1667V117H96.9067ZM96.9067 108.6V107.2H98.1667V108.6H96.9067ZM101.82 117.14C101.213 117.14 100.709 117.068 100.308 116.923C99.9109 116.778 99.6309 116.65 99.4675 116.538L99.6215 115.32C99.7709 115.451 100.035 115.6 100.413 115.768C100.791 115.936 101.241 116.02 101.764 116.02C102.207 116.02 102.545 115.945 102.779 115.796C103.017 115.647 103.136 115.437 103.136 115.166C103.136 114.928 103.059 114.737 102.905 114.592C102.755 114.443 102.573 114.326 102.359 114.242C102.149 114.153 101.95 114.083 101.764 114.032C101.451 113.948 101.127 113.843 100.791 113.717C100.459 113.586 100.179 113.393 99.9505 113.136C99.7219 112.879 99.6075 112.52 99.6075 112.058C99.6075 111.708 99.6915 111.377 99.8595 111.064C100.028 110.747 100.301 110.49 100.679 110.294C101.057 110.098 101.558 110 102.184 110C102.641 110 103.012 110.049 103.297 110.147C103.586 110.24 103.836 110.341 104.046 110.448L103.892 111.596C103.691 111.428 103.458 111.286 103.192 111.169C102.926 111.052 102.599 110.994 102.212 110.994C101.82 110.994 101.5 111.069 101.253 111.218C101.005 111.363 100.882 111.596 100.882 111.918C100.882 112.24 101.012 112.469 101.274 112.604C101.54 112.739 101.941 112.889 102.478 113.052C102.646 113.099 102.839 113.166 103.059 113.255C103.283 113.344 103.5 113.463 103.71 113.612C103.92 113.761 104.092 113.957 104.228 114.2C104.368 114.438 104.438 114.737 104.438 115.096C104.438 115.399 104.365 115.71 104.221 116.027C104.076 116.34 103.815 116.603 103.437 116.818C103.059 117.033 102.52 117.14 101.82 117.14ZM110.411 117.14C109.986 117.14 109.615 117.054 109.298 116.881C108.981 116.708 108.733 116.473 108.556 116.174C108.383 115.875 108.297 115.535 108.297 115.152C108.297 114.765 108.381 114.433 108.549 114.158C108.722 113.878 108.95 113.647 109.235 113.465C109.524 113.278 109.846 113.131 110.201 113.024C110.556 112.912 110.922 112.833 111.3 112.786C111.683 112.735 112.049 112.707 112.399 112.702C112.399 112.049 112.271 111.622 112.014 111.421C111.757 111.22 111.386 111.12 110.901 111.12C110.644 111.12 110.369 111.16 110.075 111.239C109.786 111.318 109.459 111.484 109.095 111.736L108.913 110.714C109.188 110.504 109.531 110.334 109.942 110.203C110.353 110.068 110.784 110 111.237 110C111.816 110 112.282 110.103 112.637 110.308C112.992 110.509 113.251 110.849 113.414 111.33C113.577 111.811 113.659 112.464 113.659 113.29V114.69C113.659 115.017 113.673 115.287 113.701 115.502C113.734 115.712 113.804 115.871 113.911 115.978C114.023 116.081 114.2 116.132 114.443 116.132H114.569L114.373 117.14H114.275C113.869 117.14 113.554 117.1 113.33 117.021C113.111 116.942 112.943 116.827 112.826 116.678C112.709 116.529 112.604 116.347 112.511 116.132C112.254 116.431 111.951 116.673 111.601 116.86C111.251 117.047 110.854 117.14 110.411 117.14ZM110.649 116.132C110.985 116.132 111.309 116.048 111.622 115.88C111.939 115.712 112.198 115.488 112.399 115.208V113.57C111.732 113.593 111.19 113.659 110.775 113.766C110.364 113.873 110.063 114.034 109.872 114.249C109.681 114.464 109.585 114.741 109.585 115.082C109.585 115.451 109.683 115.719 109.879 115.887C110.08 116.05 110.336 116.132 110.649 116.132ZM115.542 117V110.14H116.522L116.774 111.456L116.298 111.232C116.727 110.77 117.145 110.45 117.551 110.273C117.957 110.091 118.384 110 118.832 110C119.168 110 119.49 110.056 119.798 110.168C120.11 110.275 120.39 110.467 120.638 110.742C120.89 111.013 121.09 111.391 121.24 111.876L120.89 111.722C121.095 111.19 121.41 110.77 121.835 110.462C122.259 110.154 122.831 110 123.55 110C124.124 110 124.607 110.107 124.999 110.322C125.391 110.532 125.685 110.856 125.881 111.295C126.081 111.729 126.182 112.282 126.182 112.954V117H124.922V112.968C124.922 112.324 124.796 111.855 124.544 111.561C124.292 111.267 123.881 111.12 123.312 111.12C122.91 111.12 122.588 111.183 122.346 111.309C122.103 111.43 121.919 111.589 121.793 111.785C121.671 111.981 121.59 112.189 121.548 112.408C121.51 112.627 121.492 112.833 121.492 113.024V117H120.232V113.22C120.232 112.66 120.164 112.228 120.029 111.925C119.893 111.622 119.704 111.412 119.462 111.295C119.219 111.178 118.939 111.12 118.622 111.12C118.16 111.12 117.747 111.223 117.383 111.428C117.019 111.629 116.774 111.951 116.648 112.394L116.802 111.708V117H115.542ZM129.415 117.14C128.99 117.14 128.619 117.054 128.302 116.881C127.985 116.708 127.737 116.473 127.56 116.174C127.387 115.875 127.301 115.535 127.301 115.152C127.301 114.765 127.385 114.433 127.553 114.158C127.726 113.878 127.954 113.647 128.239 113.465C128.528 113.278 128.85 113.131 129.205 113.024C129.56 112.912 129.926 112.833 130.304 112.786C130.687 112.735 131.053 112.707 131.403 112.702C131.403 112.049 131.275 111.622 131.018 111.421C130.761 111.22 130.39 111.12 129.905 111.12C129.648 111.12 129.373 111.16 129.079 111.239C128.79 111.318 128.463 111.484 128.099 111.736L127.917 110.714C128.192 110.504 128.535 110.334 128.946 110.203C129.357 110.068 129.788 110 130.241 110C130.82 110 131.286 110.103 131.641 110.308C131.996 110.509 132.255 110.849 132.418 111.33C132.581 111.811 132.663 112.464 132.663 113.29V114.69C132.663 115.017 132.677 115.287 132.705 115.502C132.738 115.712 132.808 115.871 132.915 115.978C133.027 116.081 133.204 116.132 133.447 116.132H133.573L133.377 117.14H133.279C132.873 117.14 132.558 117.1 132.334 117.021C132.115 116.942 131.947 116.827 131.83 116.678C131.713 116.529 131.608 116.347 131.515 116.132C131.258 116.431 130.955 116.673 130.605 116.86C130.255 117.047 129.858 117.14 129.415 117.14ZM129.653 116.132C129.989 116.132 130.313 116.048 130.626 115.88C130.943 115.712 131.202 115.488 131.403 115.208V113.57C130.736 113.593 130.194 113.659 129.779 113.766C129.368 113.873 129.067 114.034 128.876 114.249C128.685 114.464 128.589 114.741 128.589 115.082C128.589 115.451 128.687 115.719 128.883 115.887C129.084 116.05 129.34 116.132 129.653 116.132ZM137.261 117.14C136.678 117.14 136.151 116.981 135.679 116.664C135.208 116.347 134.832 115.92 134.552 115.383C134.277 114.846 134.139 114.247 134.139 113.584C134.139 112.954 134.265 112.366 134.517 111.82C134.774 111.274 135.136 110.835 135.602 110.504C136.069 110.168 136.622 110 137.261 110C137.719 110 138.16 110.1 138.584 110.301C139.014 110.497 139.361 110.826 139.627 111.288L139.361 111.47V106.5H140.621V117H139.501L139.263 115.544L139.585 115.768C139.385 116.221 139.07 116.564 138.64 116.797C138.211 117.026 137.751 117.14 137.261 117.14ZM137.485 116.02C137.803 116.02 138.115 115.938 138.423 115.775C138.736 115.612 138.993 115.353 139.193 114.998C139.399 114.639 139.501 114.167 139.501 113.584C139.501 113.043 139.399 112.59 139.193 112.226C138.993 111.857 138.736 111.582 138.423 111.4C138.115 111.213 137.803 111.12 137.485 111.12C137.056 111.12 136.687 111.227 136.379 111.442C136.071 111.657 135.836 111.951 135.672 112.324C135.509 112.693 135.427 113.113 135.427 113.584C135.427 114.027 135.509 114.433 135.672 114.802C135.836 115.171 136.071 115.467 136.379 115.691C136.687 115.91 137.056 116.02 137.485 116.02ZM145.307 117.14C144.588 117.14 143.975 116.981 143.466 116.664C142.962 116.342 142.575 115.913 142.304 115.376C142.038 114.835 141.905 114.233 141.905 113.57C141.905 112.907 142.038 112.308 142.304 111.771C142.575 111.23 142.962 110.8 143.466 110.483C143.975 110.161 144.588 110 145.307 110C146.021 110 146.632 110.161 147.141 110.483C147.65 110.8 148.037 111.23 148.303 111.771C148.574 112.308 148.709 112.907 148.709 113.57C148.709 114.233 148.574 114.835 148.303 115.376C148.037 115.913 147.65 116.342 147.141 116.664C146.632 116.981 146.021 117.14 145.307 117.14ZM145.307 116.02C145.988 116.02 146.511 115.805 146.875 115.376C147.239 114.942 147.421 114.34 147.421 113.57C147.421 112.8 147.239 112.2 146.875 111.771C146.511 111.337 145.988 111.12 145.307 111.12C144.63 111.12 144.108 111.337 143.739 111.771C143.375 112.2 143.193 112.8 143.193 113.57C143.193 114.34 143.375 114.942 143.739 115.376C144.108 115.805 144.63 116.02 145.307 116.02ZM151.954 117.14C151.348 117.14 150.844 117.068 150.442 116.923C150.046 116.778 149.766 116.65 149.602 116.538L149.756 115.32C149.906 115.451 150.169 115.6 150.547 115.768C150.925 115.936 151.376 116.02 151.898 116.02C152.342 116.02 152.68 115.945 152.913 115.796C153.151 115.647 153.27 115.437 153.27 115.166C153.27 114.928 153.193 114.737 153.039 114.592C152.89 114.443 152.708 114.326 152.493 114.242C152.283 114.153 152.085 114.083 151.898 114.032C151.586 113.948 151.261 113.843 150.925 113.717C150.594 113.586 150.314 113.393 150.085 113.136C149.857 112.879 149.742 112.52 149.742 112.058C149.742 111.708 149.826 111.377 149.994 111.064C150.162 110.747 150.435 110.49 150.813 110.294C151.191 110.098 151.693 110 152.318 110C152.776 110 153.147 110.049 153.431 110.147C153.721 110.24 153.97 110.341 154.18 110.448L154.026 111.596C153.826 111.428 153.592 111.286 153.326 111.169C153.06 111.052 152.734 110.994 152.346 110.994C151.954 110.994 151.635 111.069 151.387 111.218C151.14 111.363 151.016 111.596 151.016 111.918C151.016 112.24 151.147 112.469 151.408 112.604C151.674 112.739 152.076 112.889 152.612 113.052C152.78 113.099 152.974 113.166 153.193 113.255C153.417 113.344 153.634 113.463 153.844 113.612C154.054 113.761 154.227 113.957 154.362 114.2C154.502 114.438 154.572 114.737 154.572 115.096C154.572 115.399 154.5 115.71 154.355 116.027C154.211 116.34 153.949 116.603 153.571 116.818C153.193 117.033 152.654 117.14 151.954 117.14Z" fill="white"/>
</svg>
