<svg width="20" height="16" viewBox="0 0 20 16" fill="none" xmlns="http://www.w3.org/2000/svg">
<path d="M9.75 16C9.55001 16.0001 9.35459 15.9401 9.189 15.828C8.964 15.677 3.681 12.098 2.043 10.457C0.212 8.626 0 6.68 0 5.375C0.00132386 3.94987 0.568042 2.58348 1.57576 1.57576C2.58348 0.568042 3.94987 0.00132386 5.375 0C7.177 0 8.773 0.891 9.75 2.256C10.2467 1.55857 10.9029 0.989948 11.664 0.597523C12.425 0.205098 13.2688 0.000233377 14.125 0C15.5501 0.00132386 16.9165 0.568042 17.9242 1.57576C18.932 2.58348 19.4987 3.94987 19.5 5.375C19.5 6.68 19.288 8.626 17.457 10.457C15.816 12.098 10.534 15.677 10.311 15.828C10.1454 15.9401 9.94999 16.0001 9.75 16ZM5.375 2C4.48022 2.00106 3.62239 2.35698 2.98968 2.98968C2.35698 3.62239 2.00106 4.48022 2 5.375C2 6.468 2.173 7.759 3.457 9.043C4.669 10.255 8.34 12.818 9.75 13.789C11.16 12.818 14.831 10.255 16.043 9.043C17.327 7.759 17.5 6.468 17.5 5.375C17.5 3.514 15.986 2 14.125 2C12.264 2 10.75 3.514 10.75 5.375C10.75 5.64022 10.6446 5.89457 10.4571 6.08211C10.2696 6.26964 10.0152 6.375 9.75 6.375C9.48478 6.375 9.23043 6.26964 9.04289 6.08211C8.85536 5.89457 8.75 5.64022 8.75 5.375C8.74894 4.48022 8.39302 3.62239 7.76032 2.98968C7.12761 2.35698 6.26978 2.00106 5.375 2V2Z" fill="#4F00CF"/>
</svg>
