<svg width="150" height="150" viewBox="0 0 150 150" fill="none" xmlns="http://www.w3.org/2000/svg">
<circle cx="75" cy="75" r="75" fill="#087CB9"/>
<g clip-path="url(#clip0_544_273)">
<path d="M17.3334 63.2825H21.8535V81.3127H30.2233V85.8802H17.3334V63.2825Z" fill="white"/>
<path d="M34.3923 62.9474C35.7838 62.9474 36.913 64.1839 36.913 65.7062C36.913 67.2311 35.7838 68.4646 34.3923 68.4646C33.0026 68.4646 31.8734 67.2311 31.8734 65.7062C31.8734 64.1839 33.0026 62.9474 34.3923 62.9474ZM32.2199 70.5603H36.5649V85.8745H32.2199V70.56V70.5603Z" fill="white"/>
<path d="M38.9673 70.5621H43.1379V72.6553H43.1958C43.7748 71.4504 45.1943 70.1824 47.3086 70.1824C51.7116 70.1824 52.5223 73.3531 52.5223 77.4759V85.8746H48.1775V78.4286C48.1775 76.6514 48.1477 74.3683 45.9173 74.3683C43.6588 74.3683 43.3121 76.3039 43.3121 78.301V85.8743H38.967V70.5623" fill="white"/>
<path d="M54.726 63.2812H59.0693V76.7871L63.9896 70.5536H69.3148L63.6163 77.644L69.1954 85.8805H63.7354L59.126 78.3104H59.0693V85.8805H54.726V63.2812Z" fill="white"/>
<path d="M82.1377 83.2227C80.7462 85.1584 78.46 86.2694 76.1999 86.2694C71.8562 86.2694 68.3802 83.0959 68.3802 78.18C68.3802 73.264 71.8562 70.0931 76.1999 70.0931C80.257 70.0931 82.8044 73.264 82.8044 78.18V79.6709H72.7248C73.0699 81.4787 74.3169 82.6526 75.9973 82.6526C77.417 82.6526 78.3721 81.8594 79.0967 80.7804L82.1375 83.2227H82.1377ZM78.46 76.4365C78.4885 74.8503 77.3591 73.5184 75.7937 73.5184C73.8827 73.5184 72.8397 74.9459 72.7251 76.4365H78.4603H78.46Z" fill="white"/>
<path d="M99.3283 85.872H95.3299V83.8413H95.2736C94.6054 84.9513 92.9271 86.2524 90.9569 86.2524C86.7848 86.2524 84.0337 82.9549 84.0337 78.2918C84.0337 74.0091 86.4666 70.0764 90.4632 70.0764C92.2604 70.0764 93.9402 70.6153 94.9251 72.1057H94.9824V63.2812H99.3283V85.872V85.872ZM91.8524 74.2632C89.6818 74.2632 88.3787 75.8507 88.3787 78.1638C88.3787 80.4818 89.6818 82.0656 91.8524 82.0656C94.0269 82.0656 95.3299 80.4818 95.3299 78.164C95.3299 75.8507 94.0269 74.2635 91.8524 74.2635V74.2632Z" fill="white"/>
<path d="M130.808 58.5366H105.836C104.643 58.5366 103.673 59.5723 103.673 60.8497V88.3109C103.673 89.589 104.643 90.6265 105.836 90.6265H130.808C132.003 90.6265 132.977 89.589 132.977 88.3109V60.8494C132.977 59.5723 132.003 58.5366 130.808 58.5366" fill="#006087"/>
<path d="M110.192 62.9544C111.582 62.9544 112.711 64.1909 112.711 65.7133C112.711 67.2366 111.582 68.4736 110.192 68.4736C108.799 68.4736 107.672 67.2366 107.672 65.7133C107.672 64.1909 108.799 62.9544 110.192 62.9544ZM108.018 70.5671H112.364V85.8813H108.018V70.5671Z" fill="white"/>
<path d="M115.09 70.5673H119.26V72.6595H119.317C119.898 71.4559 121.315 70.1861 123.43 70.1861C127.831 70.1861 128.644 73.3579 128.644 77.4813V85.8815H124.3V78.4343C124.3 76.6574 124.27 74.3732 122.042 74.3732C119.78 74.3732 119.434 76.3079 119.434 78.3055V85.8813H115.09V70.5675" fill="white"/>
</g>
<defs>
<clipPath id="clip0_544_273">
<rect width="115.789" height="32.1951" fill="white" transform="translate(17.3334 58.5366)"/>
</clipPath>
</defs>
</svg>
