<svg width="51" height="50" viewBox="0 0 51 50" fill="none" xmlns="http://www.w3.org/2000/svg">
<path d="M42.8132 42.6083H35.3716V31.0063C35.3716 28.2396 35.3151 24.6792 31.4938 24.6792C27.6139 24.6792 27.0213 27.6896 27.0213 30.8021V42.6083H19.5797V18.75H26.7282V22.0021H26.8245C27.8232 20.1271 30.2521 18.1479 33.8808 18.1479C41.4208 18.1479 42.8153 23.0854 42.8153 29.5125L42.8132 42.6083ZM11.1749 15.4854C10.6073 15.4857 10.0451 15.3746 9.5206 15.1584C8.99612 14.9423 8.51963 14.6253 8.1184 14.2257C7.71718 13.8261 7.39909 13.3517 7.18236 12.8297C6.96562 12.3076 6.85448 11.7482 6.85531 11.1833C6.85572 10.3329 7.10959 9.50163 7.58481 8.79473C8.06004 8.08783 8.73527 7.53701 9.52512 7.21194C10.315 6.88686 11.184 6.80213 12.0222 6.96845C12.8605 7.13477 13.6303 7.54467 14.2344 8.14633C14.8386 8.74799 15.2498 9.51437 15.4161 10.3486C15.5825 11.1828 15.4965 12.0473 15.169 12.8329C14.8415 13.6184 14.2873 14.2897 13.5763 14.7619C12.8654 15.234 12.0297 15.4858 11.1749 15.4854ZM14.9062 42.6083H7.44368V18.75H14.9062V42.6083ZM46.5361 0H3.70823C1.65834 0 0 1.6125 0 3.60208V46.3979C0 48.3896 1.65834 50 3.70823 50H46.5298C48.5776 50 50.2527 48.3896 50.2527 46.3979V3.60208C50.2527 1.6125 48.5776 0 46.5298 0H46.5361Z" fill="#045885"/>
</svg>
