<svg width="225" height="205" viewBox="0 0 225 205" fill="none" xmlns="http://www.w3.org/2000/svg">
<ellipse cx="112.5" cy="102.5" rx="112.5" ry="102.5" fill="#8257E5"/>
<g clip-path="url(#clip0)">
<path d="M47.5235 76.4014H24.2992C18.119 76.4014 15 79.4013 15 85.3435V117.146C15 117.925 15.4184 118.404 16.3197 118.404H23.3401C24.1802 118.404 24.721 117.925 24.721 117.146V115.938C24.721 112.993 25.9625 111.387 29.0475 111.078H47.5235C54.3024 111.078 57.3636 108.139 57.3636 101.717V85.7618C57.3636 79.3401 54.3024 76.4014 47.5235 76.4014ZM47.6527 99.0168C47.6527 102.5 46.8637 103.217 42.7209 103.217H32.8808C28.7414 103.217 26.0985 104.598 24.7176 107.299V87.6836C24.7176 84.9829 25.3774 84.2618 28.6767 84.2618H42.7209C46.8637 84.2618 47.6527 84.9829 47.6527 88.4625V99.0168Z" fill="white"/>
<path d="M79.6253 93.983C74.2854 93.983 72.003 96.6837 72.003 101.245V117.265C72.003 117.986 71.6422 118.405 70.8023 118.405H64.4419C63.6015 118.405 63.1831 117.986 63.1831 117.265V87.9831C63.1831 87.262 63.6015 86.8402 64.4419 86.8402H69.7818C70.564 86.8402 70.9824 87.262 70.9824 87.9831V92.7075C72.003 88.8096 74.9451 86.8267 80.1662 86.8267H82.3261C83.1048 86.8267 83.5232 87.2484 83.5232 87.9695V92.8436C83.5232 93.6225 83.1048 93.983 82.3261 93.983H79.6253Z" fill="white"/>
<path d="M121.026 109.823C121.026 115.765 118.387 118.404 112.088 118.404H96.4858C90.2443 118.404 87.5435 115.765 87.5435 109.823V95.4285C87.5435 89.4897 90.2443 86.8469 96.4858 86.8469H112.088C118.387 86.8469 121.026 89.4897 121.026 95.4285V109.823ZM112.206 97.704C112.206 94.5815 111.608 93.9829 107.887 93.9829H100.744C96.9654 93.9829 96.3633 94.5815 96.3633 97.704V107.544C96.3633 110.663 96.9654 111.265 100.744 111.265H107.887C111.608 111.265 112.206 110.663 112.206 107.544V97.704Z" fill="white"/>
<path d="M129.907 93.9828H126.904C126.121 93.9828 125.703 93.6223 125.703 92.8434V87.9829C125.703 87.2618 126.121 86.84 126.904 86.84H129.904V82.9421C129.907 77 133.026 74 139.206 74H146.587C147.427 74 147.788 74.4218 147.788 75.1394V80C147.788 80.7823 147.427 81.1394 146.587 81.1394H142.689C139.387 81.1394 138.727 81.8605 138.727 84.5611V86.84H146.587C147.427 86.84 147.788 87.2618 147.788 87.9829V92.8434C147.788 93.6223 147.427 93.9828 146.587 93.9828H138.727V117.265C138.727 117.986 138.308 118.404 137.468 118.404H131.108C130.268 118.404 129.907 117.986 129.907 117.265V93.9828Z" fill="white"/>
<path d="M154.39 93.9828H151.393C150.614 93.9828 150.196 93.6223 150.196 92.8434V87.9829C150.196 87.2618 150.614 86.84 151.393 86.84H154.397V82.9421C154.39 77 157.516 74 163.689 74H171.07C171.91 74 172.27 74.4218 172.27 75.1394V80C172.27 80.7823 171.91 81.1394 171.07 81.1394H167.169C163.869 81.1394 163.21 81.8605 163.21 84.5611V86.84H171.07C171.91 86.84 172.27 87.2618 172.27 87.9829V92.8434C172.27 93.6223 171.91 93.9828 171.07 93.9828H163.21V117.265C163.21 117.986 162.788 118.404 161.948 118.404H155.587C154.747 118.404 154.39 117.986 154.39 117.265V93.9828Z" fill="white"/>
<path d="M199.09 130.646H186.009C180.131 130.646 177.611 128.367 177.611 122.724V122.125C177.593 121.965 177.612 121.801 177.667 121.649C177.721 121.496 177.808 121.357 177.924 121.244C178.039 121.13 178.178 121.043 178.331 120.99C178.484 120.937 178.647 120.919 178.808 120.938H184.93C185.77 120.938 186.189 121.36 186.189 122.139V122.438C186.189 123.639 186.852 124.119 188.172 124.119H195.733C199.332 124.119 200.233 123.221 200.233 120.16V110.694C198.852 113.394 196.212 114.775 192.07 114.775H185.947C179.706 114.775 176.944 112.136 176.944 106.194V87.9829C176.936 87.8257 176.962 87.6685 177.02 87.5222C177.078 87.3759 177.168 87.244 177.282 87.1354C177.396 87.0269 177.532 86.9443 177.681 86.8933C177.83 86.8423 177.988 86.8242 178.144 86.8401H184.567C185.345 86.8401 185.767 87.2618 185.767 87.9829V103.932C185.767 107.051 186.427 107.653 190.148 107.653H194.709C198.668 107.653 200.23 106.03 200.23 102.731V87.9829C200.23 87.2618 200.648 86.8401 201.43 86.8401H207.855C208.009 86.8252 208.164 86.8446 208.309 86.8969C208.455 86.9491 208.586 87.0329 208.695 87.1421C208.804 87.2514 208.888 87.3835 208.939 87.5289C208.991 87.6743 209.01 87.8293 208.995 87.9829V121.105C208.991 127.401 205.631 130.646 199.09 130.646Z" fill="white"/>
</g>
<defs>
<clipPath id="clip0">
<rect width="194" height="56.7696" fill="white" transform="translate(15 74)"/>
</clipPath>
</defs>
</svg>
