<svg width="231" height="150" viewBox="0 0 231 150" fill="none" xmlns="http://www.w3.org/2000/svg">
<rect width="231" height="150" rx="5" fill="#F2D0DD"/>
<path d="M91.6971 114V104.2H94.9311C95.5891 104.2 96.1678 104.305 96.6671 104.515C97.1665 104.725 97.5538 105.063 97.8291 105.53C98.1091 105.997 98.2491 106.613 98.2491 107.378C98.2491 108.129 98.1091 108.741 97.8291 109.212C97.5538 109.679 97.1665 110.022 96.6671 110.241C96.1678 110.46 95.5891 110.57 94.9311 110.57H93.0971V114H91.6971ZM93.0971 109.38H94.7351C95.4491 109.38 95.9835 109.219 96.3381 108.897C96.6975 108.57 96.8771 108.069 96.8771 107.392C96.8771 106.711 96.7068 106.207 96.3661 105.88C96.0301 105.553 95.4865 105.39 94.7351 105.39H93.0971V109.38ZM102.261 114.14C101.542 114.14 100.929 113.981 100.42 113.664C99.9161 113.342 99.5288 112.913 99.2581 112.376C98.9921 111.835 98.8591 111.233 98.8591 110.57C98.8591 109.907 98.9921 109.308 99.2581 108.771C99.5288 108.23 99.9161 107.8 100.42 107.483C100.929 107.161 101.542 107 102.261 107C102.975 107 103.586 107.161 104.095 107.483C104.604 107.8 104.991 108.23 105.257 108.771C105.528 109.308 105.663 109.907 105.663 110.57C105.663 111.233 105.528 111.835 105.257 112.376C104.991 112.913 104.604 113.342 104.095 113.664C103.586 113.981 102.975 114.14 102.261 114.14ZM102.261 113.02C102.942 113.02 103.465 112.805 103.829 112.376C104.193 111.942 104.375 111.34 104.375 110.57C104.375 109.8 104.193 109.2 103.829 108.771C103.465 108.337 102.942 108.12 102.261 108.12C101.584 108.12 101.062 108.337 100.693 108.771C100.329 109.2 100.147 109.8 100.147 110.57C100.147 111.34 100.329 111.942 100.693 112.376C101.062 112.805 101.584 113.02 102.261 113.02ZM106.962 114V107.14H107.998L108.152 108.274C108.502 107.84 108.836 107.52 109.153 107.315C109.475 107.105 109.818 107 110.182 107C110.299 107 110.406 107.014 110.504 107.042L110.378 108.428C110.318 108.414 110.252 108.405 110.182 108.4C110.117 108.391 110.042 108.386 109.958 108.386C109.594 108.386 109.258 108.468 108.95 108.631C108.647 108.79 108.432 108.965 108.306 109.156V114H106.962ZM113.758 114.14C113.324 114.14 112.976 114.061 112.715 113.902C112.454 113.743 112.262 113.54 112.141 113.293C112.024 113.041 111.966 112.777 111.966 112.502V108.12H110.79L110.902 107.14H111.966V105.446L113.226 105.32V107.14H115.032V108.12H113.226V111.732C113.226 112.171 113.252 112.488 113.303 112.684C113.354 112.88 113.48 113.004 113.681 113.055C113.886 113.106 114.215 113.132 114.668 113.132H114.99L114.892 114.14H113.758ZM116.585 114V108.12H115.395L115.563 107.14H116.585V105.516C116.585 104.905 116.748 104.417 117.075 104.053C117.402 103.684 117.882 103.5 118.517 103.5C118.75 103.5 118.953 103.516 119.126 103.549C119.303 103.582 119.464 103.626 119.609 103.682L119.413 104.746C119.301 104.704 119.191 104.674 119.084 104.655C118.977 104.632 118.853 104.62 118.713 104.62C118.442 104.62 118.23 104.697 118.076 104.851C117.922 105 117.845 105.25 117.845 105.6V107.14H119.693V108.12H117.845V114H116.585ZM123.603 114.14C122.884 114.14 122.271 113.981 121.762 113.664C121.258 113.342 120.871 112.913 120.6 112.376C120.334 111.835 120.201 111.233 120.201 110.57C120.201 109.907 120.334 109.308 120.6 108.771C120.871 108.23 121.258 107.8 121.762 107.483C122.271 107.161 122.884 107 123.603 107C124.317 107 124.928 107.161 125.437 107.483C125.946 107.8 126.333 108.23 126.599 108.771C126.87 109.308 127.005 109.907 127.005 110.57C127.005 111.233 126.87 111.835 126.599 112.376C126.333 112.913 125.946 113.342 125.437 113.664C124.928 113.981 124.317 114.14 123.603 114.14ZM123.603 113.02C124.284 113.02 124.807 112.805 125.171 112.376C125.535 111.942 125.717 111.34 125.717 110.57C125.717 109.8 125.535 109.2 125.171 108.771C124.807 108.337 124.284 108.12 123.603 108.12C122.926 108.12 122.404 108.337 122.035 108.771C121.671 109.2 121.489 109.8 121.489 110.57C121.489 111.34 121.671 111.942 122.035 112.376C122.404 112.805 122.926 113.02 123.603 113.02ZM122.301 105.936V105.082L124.919 103.542V104.914L122.301 105.936ZM130.068 114.14C129.625 114.14 129.273 114.061 129.011 113.902C128.755 113.739 128.57 113.531 128.458 113.279C128.346 113.027 128.29 112.763 128.29 112.488V103.5H129.55V111.76C129.55 112.152 129.576 112.446 129.627 112.642C129.679 112.838 129.781 112.969 129.935 113.034C130.094 113.099 130.334 113.132 130.656 113.132L130.474 114.14H130.068ZM131.613 114V107.14H132.873V114H131.613ZM131.613 105.6V104.2H132.873V105.6H131.613ZM137.576 114.14C136.857 114.14 136.243 113.981 135.735 113.664C135.231 113.342 134.843 112.913 134.573 112.376C134.307 111.835 134.174 111.233 134.174 110.57C134.174 109.907 134.307 109.308 134.573 108.771C134.843 108.23 135.231 107.8 135.735 107.483C136.243 107.161 136.857 107 137.576 107C138.29 107 138.901 107.161 139.41 107.483C139.918 107.8 140.306 108.23 140.572 108.771C140.842 109.308 140.978 109.907 140.978 110.57C140.978 111.233 140.842 111.835 140.572 112.376C140.306 112.913 139.918 113.342 139.41 113.664C138.901 113.981 138.29 114.14 137.576 114.14ZM137.576 113.02C138.257 113.02 138.78 112.805 139.144 112.376C139.508 111.942 139.69 111.34 139.69 110.57C139.69 109.8 139.508 109.2 139.144 108.771C138.78 108.337 138.257 108.12 137.576 108.12C136.899 108.12 136.376 108.337 136.008 108.771C135.644 109.2 135.462 109.8 135.462 110.57C135.462 111.34 135.644 111.942 136.008 112.376C136.376 112.805 136.899 113.02 137.576 113.02Z" fill="#313131"/>
<path d="M72.2285 25.1504H72.375C74.9466 25.248 76.2324 25.6061 76.2324 26.2246V27.2012C76.0046 27.6895 75.5977 28.0312 75.0117 28.2266L72.8633 28.0801H71.7891V28.2266C72.2448 54.3659 72.9609 67.4355 73.9375 67.4355L79.1621 66.7031C79.8783 67.0286 80.2363 67.4844 80.2363 68.0703V68.2168C80.2363 69.2585 78.2344 69.9421 74.2305 70.2676C71.5612 70.7559 69.5104 71 68.0781 71C67.362 70.707 67.0039 70.235 67.0039 69.584C67.0039 68.4772 68.2246 67.9238 70.666 67.9238V67.7285C69.8522 62.4225 69.25 49.304 68.8594 28.373H68.6641L64.2207 29.1543C63.4069 28.7962 63 28.2428 63 27.4941C63 26.5501 65.0508 25.8828 69.1523 25.4922C69.1523 25.3294 70.1777 25.2155 72.2285 25.1504ZM83.8496 53.3242L85.8027 53.8125H87.8535C92.1504 53.8125 94.2988 54.5286 94.2988 55.9609C93.3874 58.1745 91.4017 61.8691 88.3418 67.0449L88 67.9238V68.1191L90.2949 68.2656H93.2246C94.5918 68.2656 96.1868 68.0052 98.0098 67.4844C98.8236 67.9076 99.2305 68.3796 99.2305 68.9004C99.2305 70.2025 97.2285 70.9674 93.2246 71.1953H91.5156C86.6979 71.1953 84.2891 70.5768 84.2891 69.3398C84.2891 68.4935 86.4538 64.4408 90.7832 57.1816V56.8398L90.6367 56.7422H86.4863C83.7845 56.5469 82.4336 55.9284 82.4336 54.8867C82.4336 54.1706 82.9056 53.6497 83.8496 53.3242ZM109.484 54.6426L112.414 55.1309V54.9844C113.13 54.9844 113.684 55.554 114.074 56.6934L113.928 59.7695V61.918C113.928 65.0755 114.383 67.4355 115.295 68.998C115.035 69.8118 114.53 70.2188 113.781 70.2188C112.707 70.2188 111.926 68.9818 111.438 66.5078L111.34 65.7266H110.9C109.729 68.4935 108.068 70.3327 105.92 71.2441L105.188 71.4395C102.388 70.6582 100.988 68.6074 100.988 65.2871V64.9941C100.988 60.86 102.99 57.5723 106.994 55.1309L109.484 54.6426ZM103.918 65.9219C104.146 67.5495 104.667 68.3633 105.48 68.3633H105.627C106.766 68.3633 108.557 64.929 110.998 58.0605V57.9141L109.582 57.6211H109.484C106.88 57.6211 105.025 59.8672 103.918 64.3594V65.9219ZM118.371 26.6152C119.413 26.778 119.934 27.2337 119.934 27.9824L119.592 30.8145V31.5469C120.113 43.5911 120.845 51.5827 121.789 55.5215L121.887 55.7168H122.082C122.896 54.903 123.921 54.3659 125.158 54.1055C128.771 55.1471 130.578 57.7839 130.578 62.0156V63.2363C130.415 68.2168 128.853 71.293 125.891 72.4648L124.719 72.6113H124.23L124.035 72.4648L123.596 72.6113V73.3926C123.596 73.946 123.286 74.3529 122.668 74.6133H122.082C121.04 74.6133 120.52 73.4902 120.52 71.2441C120.324 69.877 119.868 68.5749 119.152 67.3379V66.8984L119.592 66.1172L119.299 63.0898L119.494 61.3809C117.606 47.0905 116.662 36.9993 116.662 31.1074C116.662 28.1126 117.232 26.6152 118.371 26.6152ZM122.57 61.5762C122.57 66.8496 123.124 69.4863 124.23 69.4863L124.426 69.6816H125.305C126.932 68.4121 127.746 66.1172 127.746 62.7969C127.746 60.0951 127.03 58.2396 125.598 57.2305H124.523C123.221 58.2396 122.57 59.6882 122.57 61.5762ZM137.756 53.5684C139.579 53.5684 140.816 55.2122 141.467 58.5C140.62 62.1784 138.879 64.0176 136.242 64.0176H136.047V64.1641C136.568 67.1263 137.951 68.6074 140.197 68.6074C141.923 68.6074 143.322 67.1263 144.396 64.1641L145.471 63.7246C146.187 63.7246 146.643 64.278 146.838 65.3848C146.838 67.403 145.259 69.3073 142.102 71.0977L139.758 71.5371C136.958 71.5371 134.859 69.5352 133.459 65.5312C133.068 63.9362 132.873 62.6178 132.873 61.5762V60.9414C132.873 57.6211 134.257 55.2122 137.023 53.7148L137.756 53.5684ZM135.949 59.7207V59.8184L137.023 60.9414C137.512 60.9414 137.967 60.2741 138.391 58.9395V58.1582C138.228 57.1491 138.016 56.6445 137.756 56.6445H137.463C136.975 56.6445 136.47 57.6699 135.949 59.7207ZM151.525 27.7383C152.014 27.7708 152.469 28.1777 152.893 28.959C152.665 29.3171 152.518 29.9681 152.453 30.9121L152.404 31.5469L152.697 50.7852C152.535 59.5091 152.632 65.9056 152.99 69.9746L153.088 70.3652C152.795 70.9837 152.323 71.2767 151.672 71.2441C150.207 71.1465 149.621 69.1283 149.914 65.1895C149.719 63.041 149.621 53.1615 149.621 35.5508C149.426 34.4766 149.377 33.0605 149.475 31.3027V31.1074C149.637 28.7962 150.321 27.6732 151.525 27.7383ZM165.197 54.6426L168.127 55.1309V54.9844C168.843 54.9844 169.396 55.554 169.787 56.6934L169.641 59.7695V61.918C169.641 65.0755 170.096 67.4355 171.008 68.998C170.747 69.8118 170.243 70.2188 169.494 70.2188C168.42 70.2188 167.639 68.9818 167.15 66.5078L167.053 65.7266H166.613C165.441 68.4935 163.781 70.3327 161.633 71.2441L160.9 71.4395C158.101 70.6582 156.701 68.6074 156.701 65.2871V64.9941C156.701 60.86 158.703 57.5723 162.707 55.1309L165.197 54.6426ZM159.631 65.9219C159.859 67.5495 160.38 68.3633 161.193 68.3633H161.34C162.479 68.3633 164.27 64.929 166.711 58.0605V57.9141L165.295 57.6211H165.197C162.593 57.6211 160.738 59.8672 159.631 64.3594V65.9219Z" fill="#313131"/>
</svg>
