<svg width="107" height="107" viewBox="0 0 107 107" fill="none" xmlns="http://www.w3.org/2000/svg">
<g id="Frame 53">
<rect width="107" height="107" rx="5" fill="#F2D0DD"/>
<g id="vscode-icons:file-type-reactjs">
<path id="Vector" d="M54 47.711C56.0711 47.711 57.75 46.0321 57.75 43.961C57.75 41.8899 56.0711 40.211 54 40.211C51.9289 40.211 50.25 41.8899 50.25 43.961C50.25 46.0321 51.9289 47.711 54 47.711Z" fill="#53C1DE"/>
<path id="Vector_2" d="M54 52.559C49.4927 52.668 44.9967 52.0604 40.68 50.759C38.6859 50.1269 36.8261 49.1311 35.1945 47.822C34.5719 47.3748 34.0534 46.7981 33.6746 46.1317C33.2958 45.4652 33.0657 44.7247 33 43.961C33 41.4815 35.724 39.0515 40.287 37.4615C44.7191 36.0526 49.3499 35.3698 54 35.4395C58.5881 35.3754 63.1568 36.0458 67.533 37.4255C69.4534 38.0377 71.2502 38.9854 72.84 40.2245C73.452 40.6508 73.9627 41.2066 74.3359 41.8523C74.7092 42.498 74.9359 43.2179 75 43.961C75 46.538 71.955 49.1495 67.05 50.7725C62.8169 52.0315 58.4157 52.634 54 52.559ZM54 37.2335C49.5512 37.174 45.1212 37.8231 40.8765 39.1565C36.6765 40.622 34.794 42.626 34.794 43.9565C34.794 45.3485 36.8175 47.537 41.2605 49.0565C45.3901 50.2953 49.6899 50.8719 54 50.765C58.2246 50.8405 62.4359 50.2689 66.4875 49.07C71.1 47.5415 73.2 45.35 73.2 43.961C73.1243 43.4843 72.9506 43.0285 72.6898 42.6224C72.4291 42.2163 72.0869 41.8687 71.685 41.6015C70.2626 40.5022 68.6576 39.6623 66.9435 39.1205C62.757 37.8061 58.3875 37.1691 54 37.2335Z" fill="#53C1DE"/>
<path id="Vector_3" d="M45.4799 62.6645C44.7802 62.6806 44.0887 62.5108 43.4759 62.1725C41.3279 60.9335 40.5839 57.3605 41.4854 52.613C42.4794 48.0697 44.2016 43.717 46.5854 39.7235C48.8215 35.7172 51.6842 32.0944 55.0649 28.9925C56.5546 27.6346 58.2732 26.5513 60.1409 25.793C60.8164 25.4764 61.5534 25.3123 62.2994 25.3123C63.0454 25.3123 63.7824 25.4764 64.4579 25.793C66.6914 27.08 67.4309 31.022 66.3884 36.0815C65.3637 40.3784 63.6862 44.4927 61.4144 48.281C59.257 52.2401 56.4845 55.8313 53.2004 58.9205C51.6566 60.3317 49.8649 61.4449 47.9159 62.204C47.1356 62.4936 46.312 62.6493 45.4799 62.6645ZM48.1394 40.6145C45.8655 44.4385 44.2149 48.6001 43.2494 52.943C42.4199 57.3155 43.2164 59.945 44.3744 60.614C45.5744 61.3085 48.4874 60.65 52.0244 57.56C55.1594 54.6004 57.8058 51.1628 59.8649 47.375C62.0413 43.7533 63.6504 39.8197 64.6364 35.711C65.6174 30.9485 64.7699 28.0325 63.5669 27.3395C63.116 27.1668 62.6342 27.0894 62.1519 27.1124C61.6696 27.1354 61.1973 27.2582 60.7649 27.473C59.1024 28.159 57.574 29.133 56.2499 30.35C53.0199 33.3212 50.2854 36.7894 48.1499 40.6235L48.1394 40.6145Z" fill="#53C1DE"/>
<path id="Vector_4" d="M62.5156 62.684C60.4831 62.684 57.9016 61.454 55.2136 59.1425C51.7736 56.0124 48.8625 52.3466 46.5931 48.287C44.2392 44.3486 42.5306 40.0588 41.5321 35.5805C41.099 33.6103 41.0188 31.5788 41.2951 29.5805C41.3589 28.8392 41.5847 28.121 41.9563 27.4764C42.328 26.8319 42.8365 26.2767 43.4461 25.85C45.6766 24.5585 49.4611 25.886 53.3236 29.315C56.5345 32.3483 59.2612 35.8561 61.4086 39.716C63.761 43.5625 65.4875 47.7583 66.5236 52.1465C66.9752 54.1891 67.0449 56.2976 66.7291 58.3655C66.6539 59.1281 66.4147 59.8655 66.0279 60.527C65.6411 61.1885 65.1158 61.7586 64.4881 62.198C63.8853 62.5321 63.2045 62.6998 62.5156 62.684ZM48.1456 47.384C50.3227 51.2637 53.1035 54.7721 56.3836 57.7775C59.7571 60.68 62.4331 61.304 63.5836 60.6275C64.7836 59.93 65.6686 57.083 64.7566 52.4765C63.7574 48.2869 62.1014 44.2819 59.8501 40.61C57.8008 36.9157 55.1982 33.5568 52.1326 30.65C48.4966 27.422 45.5476 26.7005 44.3461 27.3965C43.9716 27.7009 43.6643 28.0795 43.4435 28.5086C43.2228 28.9377 43.0934 29.4079 43.0636 29.8895C42.8251 31.6717 42.9028 33.4819 43.2931 35.237C44.2535 39.5197 45.8922 43.6215 48.1471 47.387L48.1456 47.384Z" fill="#53C1DE"/>
</g>
<path id="React Native" d="M19.3553 88V79.6H22.0793C22.6633 79.6 23.1733 79.69 23.6093 79.87C24.0453 80.05 24.3833 80.328 24.6233 80.704C24.8633 81.08 24.9833 81.564 24.9833 82.156C24.9833 82.732 24.8573 83.214 24.6053 83.602C24.3573 83.99 23.9953 84.296 23.5193 84.52L25.4033 88H24.0113L22.3073 84.724C22.2953 84.724 22.2853 84.724 22.2773 84.724C22.2693 84.724 22.2593 84.724 22.2473 84.724H20.5553V88H19.3553ZM20.5553 83.704H22.0673C22.6393 83.704 23.0693 83.566 23.3573 83.29C23.6493 83.014 23.7953 82.636 23.7953 82.156C23.7953 81.668 23.6493 81.29 23.3573 81.022C23.0693 80.754 22.6393 80.62 22.0673 80.62H20.5553V83.704ZM29.5551 88.12C28.8631 88.12 28.2811 87.978 27.8091 87.694C27.3371 87.41 26.9791 87.034 26.7351 86.566C26.4951 86.094 26.3751 85.576 26.3751 85.012C26.3751 84.464 26.4871 83.962 26.7111 83.506C26.9391 83.05 27.2671 82.686 27.6951 82.414C28.1271 82.138 28.6471 82 29.2551 82C29.7431 82 30.1771 82.098 30.5571 82.294C30.9411 82.486 31.2411 82.768 31.4571 83.14C31.6771 83.508 31.7871 83.956 31.7871 84.484C31.7871 84.568 31.7831 84.66 31.7751 84.76C31.7711 84.856 31.7591 84.956 31.7391 85.06H27.4791C27.5311 85.604 27.6611 86.028 27.8691 86.332C28.0771 86.636 28.3391 86.85 28.6551 86.974C28.9711 87.098 29.3151 87.16 29.6871 87.16C29.9591 87.16 30.2431 87.132 30.5391 87.076C30.8351 87.02 31.1151 86.932 31.3791 86.812L31.5231 87.664C31.2951 87.764 31.0171 87.866 30.6891 87.97C30.3611 88.07 29.9831 88.12 29.5551 88.12ZM27.5751 84.316H30.6711C30.6711 84.04 30.6191 83.8 30.5151 83.596C30.4111 83.392 30.2531 83.236 30.0411 83.128C29.8291 83.016 29.5591 82.96 29.2311 82.96C28.7511 82.96 28.3811 83.08 28.1211 83.32C27.8651 83.556 27.6831 83.888 27.5751 84.316ZM34.8438 88.12C34.4798 88.12 34.1618 88.046 33.8898 87.898C33.6178 87.75 33.4058 87.548 33.2538 87.292C33.1058 87.036 33.0318 86.744 33.0318 86.416C33.0318 86.084 33.1038 85.8 33.2478 85.564C33.3958 85.324 33.5918 85.126 33.8358 84.97C34.0838 84.81 34.3598 84.684 34.6638 84.592C34.9678 84.496 35.2818 84.428 35.6058 84.388C35.9338 84.344 36.2478 84.32 36.5478 84.316C36.5478 83.756 36.4378 83.39 36.2178 83.218C35.9978 83.046 35.6798 82.96 35.2638 82.96C35.0438 82.96 34.8078 82.994 34.5558 83.062C34.3078 83.13 34.0278 83.272 33.7158 83.488L33.5598 82.612C33.7958 82.432 34.0898 82.286 34.4418 82.174C34.7938 82.058 35.1638 82 35.5518 82C36.0478 82 36.4478 82.088 36.7518 82.264C37.0558 82.436 37.2778 82.728 37.4178 83.14C37.5578 83.552 37.6278 84.112 37.6278 84.82V86.02C37.6278 86.3 37.6398 86.532 37.6638 86.716C37.6918 86.896 37.7518 87.032 37.8438 87.124C37.9398 87.212 38.0918 87.256 38.2998 87.256H38.4078L38.2398 88.12H38.1558C37.8078 88.12 37.5378 88.086 37.3458 88.018C37.1578 87.95 37.0138 87.852 36.9138 87.724C36.8138 87.596 36.7238 87.44 36.6438 87.256C36.4238 87.512 36.1638 87.72 35.8638 87.88C35.5638 88.04 35.2238 88.12 34.8438 88.12ZM35.0478 87.256C35.3358 87.256 35.6138 87.184 35.8818 87.04C36.1538 86.896 36.3758 86.704 36.5478 86.464V85.06C35.9758 85.08 35.5118 85.136 35.1558 85.228C34.8038 85.32 34.5458 85.458 34.3818 85.642C34.2178 85.826 34.1358 86.064 34.1358 86.356C34.1358 86.672 34.2198 86.902 34.3878 87.046C34.5598 87.186 34.7798 87.256 35.0478 87.256ZM42.5414 88.12C41.8774 88.12 41.3194 87.986 40.8674 87.718C40.4194 87.446 40.0794 87.082 39.8474 86.626C39.6194 86.166 39.5054 85.656 39.5054 85.096C39.5054 84.512 39.6154 83.986 39.8354 83.518C40.0594 83.05 40.4014 82.68 40.8614 82.408C41.3214 82.136 41.9094 82 42.6254 82C42.9334 82 43.2234 82.032 43.4954 82.096C43.7714 82.156 44.0174 82.24 44.2334 82.348L44.0654 83.296C43.8454 83.192 43.6114 83.11 43.3634 83.05C43.1194 82.99 42.8654 82.96 42.6014 82.96C41.9534 82.96 41.4594 83.144 41.1194 83.512C40.7794 83.88 40.6094 84.392 40.6094 85.048C40.6094 85.688 40.7714 86.202 41.0954 86.59C41.4194 86.978 41.9134 87.172 42.5774 87.172C42.8494 87.172 43.1094 87.14 43.3574 87.076C43.6094 87.012 43.8494 86.924 44.0774 86.812L44.2214 87.676C44.0614 87.788 43.8274 87.89 43.5194 87.982C43.2114 88.074 42.8854 88.12 42.5414 88.12ZM47.9186 88.12C47.5466 88.12 47.2486 88.052 47.0246 87.916C46.8006 87.78 46.6366 87.606 46.5326 87.394C46.4326 87.178 46.3826 86.952 46.3826 86.716V82.96H45.3746L45.4706 82.12H46.3826V80.668L47.4626 80.56V82.12H49.0106V82.96H47.4626V86.056C47.4626 86.432 47.4846 86.704 47.5286 86.872C47.5726 87.04 47.6806 87.146 47.8526 87.19C48.0286 87.234 48.3106 87.256 48.6986 87.256H48.9746L48.8906 88.12H47.9186ZM54.0569 88V79.6H55.2929L59.4329 85.888V79.6H60.5849V88H59.6129L55.1969 81.364V88H54.0569ZM64.1289 88.12C63.7649 88.12 63.4469 88.046 63.1749 87.898C62.9029 87.75 62.6909 87.548 62.5389 87.292C62.3909 87.036 62.3169 86.744 62.3169 86.416C62.3169 86.084 62.3889 85.8 62.5329 85.564C62.6809 85.324 62.8769 85.126 63.1209 84.97C63.3689 84.81 63.6449 84.684 63.9489 84.592C64.2529 84.496 64.5669 84.428 64.8909 84.388C65.2189 84.344 65.5329 84.32 65.8329 84.316C65.8329 83.756 65.7229 83.39 65.5029 83.218C65.2829 83.046 64.9649 82.96 64.5489 82.96C64.3289 82.96 64.0929 82.994 63.8409 83.062C63.5929 83.13 63.3129 83.272 63.0009 83.488L62.8449 82.612C63.0809 82.432 63.3749 82.286 63.7269 82.174C64.0789 82.058 64.4489 82 64.8369 82C65.3329 82 65.7329 82.088 66.0369 82.264C66.3409 82.436 66.5629 82.728 66.7029 83.14C66.8429 83.552 66.9129 84.112 66.9129 84.82V86.02C66.9129 86.3 66.9249 86.532 66.9489 86.716C66.9769 86.896 67.0369 87.032 67.1289 87.124C67.2249 87.212 67.3769 87.256 67.5849 87.256H67.6929L67.5249 88.12H67.4409C67.0929 88.12 66.8229 88.086 66.6309 88.018C66.4429 87.95 66.2989 87.852 66.1989 87.724C66.0989 87.596 66.0089 87.44 65.9289 87.256C65.7089 87.512 65.4489 87.72 65.1489 87.88C64.8489 88.04 64.5089 88.12 64.1289 88.12ZM64.3329 87.256C64.6209 87.256 64.8989 87.184 65.1669 87.04C65.4389 86.896 65.6609 86.704 65.8329 86.464V85.06C65.2609 85.08 64.7969 85.136 64.4409 85.228C64.0889 85.32 63.8309 85.458 63.6669 85.642C63.5029 85.826 63.4209 86.064 63.4209 86.356C63.4209 86.672 63.5049 86.902 63.6729 87.046C63.8449 87.186 64.0649 87.256 64.3329 87.256ZM71.0373 88.12C70.6653 88.12 70.3673 88.052 70.1433 87.916C69.9193 87.78 69.7553 87.606 69.6513 87.394C69.5513 87.178 69.5013 86.952 69.5013 86.716V82.96H68.4933L68.5893 82.12H69.5013V80.668L70.5813 80.56V82.12H72.1293V82.96H70.5813V86.056C70.5813 86.432 70.6033 86.704 70.6473 86.872C70.6913 87.04 70.7993 87.146 70.9713 87.19C71.1473 87.234 71.4293 87.256 71.8173 87.256H72.0933L72.0093 88.12H71.0373ZM73.6523 88V82.12H74.7323V88H73.6523ZM73.6523 80.8V79.6H74.7323V80.8H73.6523ZM78.4153 88L76.1713 82.12H77.3713L79.0153 86.812L80.6473 82.12H81.8593L79.6273 88H78.4153ZM86.0161 88.12C85.3241 88.12 84.7421 87.978 84.2701 87.694C83.7981 87.41 83.4401 87.034 83.1961 86.566C82.9561 86.094 82.8361 85.576 82.8361 85.012C82.8361 84.464 82.9481 83.962 83.1721 83.506C83.4001 83.05 83.7281 82.686 84.1561 82.414C84.5881 82.138 85.1081 82 85.7161 82C86.2041 82 86.6381 82.098 87.0181 82.294C87.4021 82.486 87.7021 82.768 87.9181 83.14C88.1381 83.508 88.2481 83.956 88.2481 84.484C88.2481 84.568 88.2441 84.66 88.2361 84.76C88.2321 84.856 88.2201 84.956 88.2001 85.06H83.9401C83.9921 85.604 84.1221 86.028 84.3301 86.332C84.5381 86.636 84.8001 86.85 85.1161 86.974C85.4321 87.098 85.7761 87.16 86.1481 87.16C86.4201 87.16 86.7041 87.132 87.0001 87.076C87.2961 87.02 87.5761 86.932 87.8401 86.812L87.9841 87.664C87.7561 87.764 87.4781 87.866 87.1501 87.97C86.8221 88.07 86.4441 88.12 86.0161 88.12ZM84.0361 84.316H87.1321C87.1321 84.04 87.0801 83.8 86.9761 83.596C86.8721 83.392 86.7141 83.236 86.5021 83.128C86.2901 83.016 86.0201 82.96 85.6921 82.96C85.2121 82.96 84.8421 83.08 84.5821 83.32C84.3261 83.556 84.1441 83.888 84.0361 84.316Z" fill="#2E394A"/>
</g>
</svg>
