<svg width="107" height="107" viewBox="0 0 107 107" fill="none" xmlns="http://www.w3.org/2000/svg">
<g id="Frame 55">
<rect width="107" height="107" rx="5" fill="#F2D0DD"/>
<path id="Docker" d="M35.0889 89V80.6H38.1969C39.0089 80.6 39.7289 80.766 40.3569 81.098C40.9849 81.43 41.4769 81.91 41.8329 82.538C42.1929 83.162 42.3729 83.916 42.3729 84.8C42.3729 85.684 42.1929 86.44 41.8329 87.068C41.4769 87.692 40.9849 88.17 40.3569 88.502C39.7289 88.834 39.0089 89 38.1969 89H35.0889ZM36.2289 87.968H38.1969C38.8369 87.968 39.3729 87.836 39.8049 87.572C40.2409 87.304 40.5689 86.932 40.7889 86.456C41.0129 85.98 41.1249 85.428 41.1249 84.8C41.1249 84.172 41.0129 83.62 40.7889 83.144C40.5689 82.668 40.2409 82.298 39.8049 82.034C39.3729 81.766 38.8369 81.632 38.1969 81.632H36.2289V87.968ZM46.6773 89.12C46.0613 89.12 45.5353 88.984 45.0993 88.712C44.6673 88.436 44.3353 88.068 44.1033 87.608C43.8753 87.144 43.7613 86.628 43.7613 86.06C43.7613 85.492 43.8753 84.978 44.1033 84.518C44.3353 84.054 44.6673 83.686 45.0993 83.414C45.5353 83.138 46.0613 83 46.6773 83C47.2893 83 47.8133 83.138 48.2493 83.414C48.6853 83.686 49.0173 84.054 49.2453 84.518C49.4773 84.978 49.5933 85.492 49.5933 86.06C49.5933 86.628 49.4773 87.144 49.2453 87.608C49.0173 88.068 48.6853 88.436 48.2493 88.712C47.8133 88.984 47.2893 89.12 46.6773 89.12ZM46.6773 88.16C47.2613 88.16 47.7093 87.976 48.0213 87.608C48.3333 87.236 48.4893 86.72 48.4893 86.06C48.4893 85.4 48.3333 84.886 48.0213 84.518C47.7093 84.146 47.2613 83.96 46.6773 83.96C46.0973 83.96 45.6493 84.146 45.3333 84.518C45.0213 84.886 44.8653 85.4 44.8653 86.06C44.8653 86.72 45.0213 87.236 45.3333 87.608C45.6493 87.976 46.0973 88.16 46.6773 88.16ZM54.007 89.12C53.343 89.12 52.785 88.986 52.333 88.718C51.885 88.446 51.545 88.082 51.313 87.626C51.085 87.166 50.971 86.656 50.971 86.096C50.971 85.512 51.081 84.986 51.301 84.518C51.525 84.05 51.867 83.68 52.327 83.408C52.787 83.136 53.375 83 54.091 83C54.399 83 54.689 83.032 54.961 83.096C55.237 83.156 55.483 83.24 55.699 83.348L55.531 84.296C55.311 84.192 55.077 84.11 54.829 84.05C54.585 83.99 54.331 83.96 54.067 83.96C53.419 83.96 52.925 84.144 52.585 84.512C52.245 84.88 52.075 85.392 52.075 86.048C52.075 86.688 52.237 87.202 52.561 87.59C52.885 87.978 53.379 88.172 54.043 88.172C54.315 88.172 54.575 88.14 54.823 88.076C55.075 88.012 55.315 87.924 55.543 87.812L55.687 88.676C55.527 88.788 55.293 88.89 54.985 88.982C54.677 89.074 54.351 89.12 54.007 89.12ZM57.3442 89V80H58.4242V85.772L60.5842 83.12H61.9042L59.5642 85.856L61.9642 89H60.6442L58.4242 86.012V89H57.3442ZM65.8856 89.12C65.1936 89.12 64.6116 88.978 64.1396 88.694C63.6676 88.41 63.3096 88.034 63.0656 87.566C62.8256 87.094 62.7056 86.576 62.7056 86.012C62.7056 85.464 62.8176 84.962 63.0416 84.506C63.2696 84.05 63.5976 83.686 64.0256 83.414C64.4576 83.138 64.9776 83 65.5856 83C66.0736 83 66.5076 83.098 66.8876 83.294C67.2716 83.486 67.5716 83.768 67.7876 84.14C68.0076 84.508 68.1176 84.956 68.1176 85.484C68.1176 85.568 68.1136 85.66 68.1056 85.76C68.1016 85.856 68.0896 85.956 68.0696 86.06H63.8096C63.8616 86.604 63.9916 87.028 64.1996 87.332C64.4076 87.636 64.6696 87.85 64.9856 87.974C65.3016 88.098 65.6456 88.16 66.0176 88.16C66.2896 88.16 66.5736 88.132 66.8696 88.076C67.1656 88.02 67.4456 87.932 67.7096 87.812L67.8536 88.664C67.6256 88.764 67.3476 88.866 67.0196 88.97C66.6916 89.07 66.3136 89.12 65.8856 89.12ZM63.9056 85.316H67.0016C67.0016 85.04 66.9496 84.8 66.8456 84.596C66.7416 84.392 66.5836 84.236 66.3716 84.128C66.1596 84.016 65.8896 83.96 65.5616 83.96C65.0816 83.96 64.7116 84.08 64.4516 84.32C64.1956 84.556 64.0136 84.888 63.9056 85.316ZM69.8062 89V83.12H70.6942L70.8262 84.092C71.1262 83.72 71.4122 83.446 71.6842 83.27C71.9602 83.09 72.2542 83 72.5662 83C72.6662 83 72.7582 83.012 72.8422 83.036L72.7342 84.224C72.6822 84.212 72.6262 84.204 72.5662 84.2C72.5102 84.192 72.4462 84.188 72.3742 84.188C72.0622 84.188 71.7742 84.258 71.5102 84.398C71.2502 84.534 71.0662 84.684 70.9582 84.848V89H69.8062Z" fill="#2E394A"/>
<g id="&#240;&#159;&#166;&#134; icon &#34;docker&#34;">
<path id="Vector" d="M57.966 35.378H62.204C62.3023 35.378 62.3966 35.3391 62.4664 35.2697C62.5361 35.2004 62.5755 35.1063 62.576 35.008V31.234C62.576 31.1353 62.5368 31.0407 62.4671 30.9709C62.3973 30.9012 62.3027 30.862 62.204 30.862H57.966C57.8679 30.862 57.7738 30.901 57.7044 30.9704C57.635 31.0398 57.596 31.1339 57.596 31.232V35.008C57.596 35.212 57.762 35.378 57.966 35.378ZM52.058 24.518H56.294C56.3927 24.518 56.4873 24.4788 56.5571 24.409C56.6268 24.3393 56.666 24.2447 56.666 24.146V20.37C56.6655 20.2717 56.6261 20.1776 56.5564 20.1082C56.4866 20.0389 56.3923 20 56.294 20H52.058C51.9599 20 51.8658 20.039 51.7964 20.1084C51.727 20.1778 51.688 20.2719 51.688 20.37V24.146C51.688 24.35 51.852 24.518 52.058 24.518ZM52.058 29.948H56.294C56.3925 29.9475 56.4868 29.9081 56.5565 29.8385C56.6261 29.7688 56.6655 29.6745 56.666 29.576V25.802C56.6655 25.7037 56.6261 25.6096 56.5564 25.5402C56.4866 25.4709 56.3923 25.432 56.294 25.432H52.058C51.9599 25.432 51.8658 25.471 51.7964 25.5404C51.727 25.6098 51.688 25.7039 51.688 25.802V29.576C51.688 29.78 51.852 29.946 52.058 29.948ZM46.198 29.948H50.438C50.536 29.9469 50.6296 29.9073 50.6985 29.8376C50.7674 29.768 50.806 29.674 50.806 29.576V25.802C50.806 25.7039 50.767 25.6098 50.6976 25.5404C50.6283 25.471 50.5342 25.432 50.436 25.432H46.2C46.1019 25.432 46.0078 25.471 45.9384 25.5404C45.869 25.6098 45.83 25.7039 45.83 25.802V29.576C45.83 29.78 45.996 29.946 46.2 29.948M40.272 29.948H44.51C44.6083 29.9475 44.7024 29.908 44.7718 29.8383C44.8411 29.7686 44.88 29.6743 44.88 29.576V25.802C44.88 25.7039 44.841 25.6098 44.7717 25.5404C44.7023 25.471 44.6082 25.432 44.51 25.432H40.272C40.1737 25.432 40.0794 25.4709 40.0097 25.5402C39.94 25.6096 39.9006 25.7037 39.9 25.802V29.576C39.9 29.78 40.068 29.946 40.272 29.948ZM52.058 35.378H56.294C56.3923 35.378 56.4866 35.3391 56.5564 35.2697C56.6261 35.2004 56.6655 35.1063 56.666 35.008V31.234C56.666 31.1353 56.6268 31.0407 56.5571 30.9709C56.4873 30.9012 56.3927 30.862 56.294 30.862H52.058C51.9599 30.862 51.8658 30.901 51.7964 30.9704C51.727 31.0398 51.688 31.1339 51.688 31.232V35.008C51.688 35.212 51.852 35.378 52.058 35.378ZM46.198 35.378H50.438C50.5358 35.3775 50.6294 35.3382 50.6984 35.2689C50.7673 35.1996 50.806 35.1058 50.806 35.008V31.234C50.8063 31.1854 50.797 31.1372 50.7786 31.0922C50.7603 31.0473 50.7332 31.0063 50.6991 30.9718C50.6649 30.9372 50.6243 30.9098 50.5795 30.8909C50.5347 30.8721 50.4866 30.8623 50.438 30.862H46.198C46.1002 30.8625 46.0066 30.9017 45.9377 30.9711C45.8687 31.0404 45.83 31.1342 45.83 31.232V35.008C45.83 35.212 45.996 35.378 46.2 35.378M40.272 35.378H44.51C44.6082 35.378 44.7023 35.339 44.7717 35.2696C44.841 35.2002 44.88 35.1061 44.88 35.008V31.234C44.8803 31.1854 44.871 31.1372 44.8526 31.0922C44.8343 31.0473 44.8072 31.0063 44.7731 30.9718C44.7389 30.9372 44.6983 30.9098 44.6535 30.8909C44.6087 30.8721 44.5606 30.8623 44.512 30.862H40.272C40.1734 30.862 40.0787 30.9012 40.009 30.9709C39.9392 31.0407 39.9 31.1353 39.9 31.234V35.008C39.9 35.212 40.068 35.378 40.272 35.378ZM34.432 35.378H38.672C38.7698 35.3775 38.8634 35.3382 38.9324 35.2689C39.0013 35.1996 39.04 35.1058 39.04 35.008V31.234C39.0403 31.1854 39.031 31.1372 39.0126 31.0922C38.9943 31.0473 38.9672 31.0063 38.9331 30.9718C38.8989 30.9372 38.8583 30.9098 38.8135 30.8909C38.7687 30.8721 38.7206 30.8623 38.672 30.862H34.432C34.3342 30.8625 34.2406 30.9017 34.1717 30.9711C34.1027 31.0404 34.064 31.1342 34.064 31.232V35.008C34.064 35.212 34.226 35.378 34.432 35.378ZM77.526 33.002C77.396 32.9 76.182 31.982 73.618 31.982C72.942 31.984 72.266 32.042 71.598 32.156C71.102 28.756 68.292 27.096 68.166 27.024L67.478 26.626L67.026 27.28C66.458 28.156 66.046 29.124 65.802 30.14C65.342 32.08 65.622 33.904 66.608 35.462C65.418 36.126 63.508 36.288 63.12 36.302H31.502C31.1051 36.3025 30.7244 36.4602 30.4434 36.7405C30.1623 37.0208 30.0036 37.401 30.002 37.798C29.965 40.5677 30.434 43.3208 31.386 45.922C32.476 48.778 34.096 50.882 36.206 52.17C38.566 53.616 42.406 54.444 46.756 54.444C48.7217 54.45 50.6836 54.2719 52.616 53.912C55.3017 53.4186 57.886 52.4797 60.262 51.134C62.2206 50.0003 63.9833 48.5577 65.482 46.862C67.986 44.026 69.478 40.868 70.588 38.062H71.03C73.774 38.062 75.46 36.964 76.39 36.044C77.008 35.458 77.49 34.744 77.804 33.952L78 33.376L77.526 33.002Z" fill="#2396ED"/>
</g>
</g>
</svg>
