<svg width="107" height="107" viewBox="0 0 107 107" fill="none" xmlns="http://www.w3.org/2000/svg">
<g id="Frame 45">
<rect width="107" height="107" rx="5" fill="#F2D0DD"/>
<g id="vscode-icons:file-type-html">
<path id="Vector" d="M38.8529 60.8015L35.4824 23H72.5174L69.1424 60.7955L53.9774 65L38.8529 60.8015Z" fill="#E44F26"/>
<path id="Vector_2" d="M54 61.787L66.255 58.3895L69.138 26.0915H54V61.787Z" fill="#F1662A"/>
<path id="Vector_3" d="M54 40.1105H47.865L47.442 35.363H54V30.7265H42.375L42.486 31.9715L43.6245 44.747H54V40.1105ZM54 52.151L53.979 52.157L48.816 50.7635L48.486 47.066H43.8315L44.481 54.344L53.979 56.981L54 56.975V52.151Z" fill="#EBEBEB"/>
<path id="Vector_4" d="M53.9834 40.1105V44.747H59.6924L59.1554 50.7605L53.9834 52.1555V56.9795L63.4889 54.344L63.5579 53.561L64.6469 41.3555L64.7609 40.1105H53.9834ZM53.9834 30.7265V35.363H65.1824L65.2754 34.322L65.4869 31.9715L65.5979 30.7265H53.9834Z" fill="white"/>
</g>
<path id="HTML" d="M38.437 87V78.6H39.577V82.068H43.849V78.6H44.989V87H43.849V83.148H39.577V87H38.437ZM49.1776 87V79.632H46.7296V78.6H52.7656V79.632H50.3176V87H49.1776ZM53.8076 87L54.9356 78.6H55.9076L58.1156 82.764L60.2996 78.6H61.2836L62.3996 87H61.1996L60.3476 80.148L60.6476 80.196L58.1276 85.008L55.5596 80.196L55.8596 80.148L55.0076 87H53.8076ZM64.4713 87V78.6H65.6113V85.968H69.4633V87H64.4713Z" fill="#2E394A"/>
</g>
</svg>
