<svg width="107" height="107" viewBox="0 0 107 107" fill="none" xmlns="http://www.w3.org/2000/svg">
<g id="Frame 56">
<rect width="107" height="107" rx="5" fill="#F2D0DD"/>
<path id="Typescript" d="M27.0999 86V78.632H24.6519V77.6H30.6879V78.632H28.2399V86H27.0999ZM31.6268 88.904L32.9828 85.736L30.5348 80.12H31.7348L33.5708 84.488L35.2268 80.12H36.4268L32.8268 88.904H31.6268ZM37.8414 88.904V80.12H38.6814L38.8734 81.464L38.5734 81.248C38.8214 80.864 39.1274 80.56 39.4914 80.336C39.8554 80.112 40.3014 80 40.8294 80C41.3654 80 41.8254 80.136 42.2094 80.408C42.5934 80.68 42.8874 81.048 43.0914 81.512C43.2954 81.972 43.3974 82.488 43.3974 83.06C43.3974 83.632 43.3014 84.15 43.1094 84.614C42.9174 85.074 42.6314 85.44 42.2514 85.712C41.8714 85.984 41.3974 86.12 40.8294 86.12C40.3614 86.12 39.9374 86.024 39.5574 85.832C39.1814 85.636 38.9094 85.344 38.7414 84.956L38.9214 84.74V88.904H37.8414ZM40.6254 85.16C41.1494 85.16 41.5574 84.976 41.8494 84.608C42.1454 84.236 42.2934 83.72 42.2934 83.06C42.2934 82.4 42.1454 81.886 41.8494 81.518C41.5574 81.146 41.1494 80.96 40.6254 80.96C40.3014 80.96 40.0054 81.038 39.7374 81.194C39.4734 81.346 39.2614 81.578 39.1014 81.89C38.9414 82.198 38.8614 82.588 38.8614 83.06C38.8614 83.552 38.9414 83.952 39.1014 84.26C39.2614 84.568 39.4734 84.796 39.7374 84.944C40.0054 85.088 40.3014 85.16 40.6254 85.16ZM47.9411 86.12C47.2491 86.12 46.6671 85.978 46.1951 85.694C45.7231 85.41 45.3651 85.034 45.1211 84.566C44.8811 84.094 44.7611 83.576 44.7611 83.012C44.7611 82.464 44.8731 81.962 45.0971 81.506C45.3251 81.05 45.6531 80.686 46.0811 80.414C46.5131 80.138 47.0331 80 47.6411 80C48.1291 80 48.5631 80.098 48.9431 80.294C49.3271 80.486 49.6271 80.768 49.8431 81.14C50.0631 81.508 50.1731 81.956 50.1731 82.484C50.1731 82.568 50.1691 82.66 50.1611 82.76C50.1571 82.856 50.1451 82.956 50.1251 83.06H45.8651C45.9171 83.604 46.0471 84.028 46.2551 84.332C46.4631 84.636 46.7251 84.85 47.0411 84.974C47.3571 85.098 47.7011 85.16 48.0731 85.16C48.3451 85.16 48.6291 85.132 48.9251 85.076C49.2211 85.02 49.5011 84.932 49.7651 84.812L49.9091 85.664C49.6811 85.764 49.4031 85.866 49.0751 85.97C48.7471 86.07 48.3691 86.12 47.9411 86.12ZM45.9611 82.316H49.0571C49.0571 82.04 49.0051 81.8 48.9011 81.596C48.7971 81.392 48.6391 81.236 48.4271 81.128C48.2151 81.016 47.9451 80.96 47.6171 80.96C47.1371 80.96 46.7671 81.08 46.5071 81.32C46.2511 81.556 46.0691 81.888 45.9611 82.316ZM53.5297 86.12C53.0097 86.12 52.5777 86.058 52.2337 85.934C51.8937 85.81 51.6537 85.7 51.5137 85.604L51.6457 84.56C51.7737 84.672 51.9997 84.8 52.3237 84.944C52.6477 85.088 53.0337 85.16 53.4817 85.16C53.8617 85.16 54.1517 85.096 54.3517 84.968C54.5557 84.84 54.6577 84.66 54.6577 84.428C54.6577 84.224 54.5917 84.06 54.4597 83.936C54.3317 83.808 54.1757 83.708 53.9917 83.636C53.8117 83.56 53.6417 83.5 53.4817 83.456C53.2137 83.384 52.9357 83.294 52.6477 83.186C52.3637 83.074 52.1237 82.908 51.9277 82.688C51.7317 82.468 51.6337 82.16 51.6337 81.764C51.6337 81.464 51.7057 81.18 51.8497 80.912C51.9937 80.64 52.2277 80.42 52.5517 80.252C52.8757 80.084 53.3057 80 53.8417 80C54.2337 80 54.5517 80.042 54.7957 80.126C55.0437 80.206 55.2577 80.292 55.4377 80.384L55.3057 81.368C55.1337 81.224 54.9337 81.102 54.7057 81.002C54.4777 80.902 54.1977 80.852 53.8657 80.852C53.5297 80.852 53.2557 80.916 53.0437 81.044C52.8317 81.168 52.7257 81.368 52.7257 81.644C52.7257 81.92 52.8377 82.116 53.0617 82.232C53.2897 82.348 53.6337 82.476 54.0937 82.616C54.2377 82.656 54.4037 82.714 54.5917 82.79C54.7837 82.866 54.9697 82.968 55.1497 83.096C55.3297 83.224 55.4777 83.392 55.5937 83.6C55.7137 83.804 55.7737 84.06 55.7737 84.368C55.7737 84.628 55.7117 84.894 55.5877 85.166C55.4637 85.434 55.2397 85.66 54.9157 85.844C54.5917 86.028 54.1297 86.12 53.5297 86.12ZM60.1304 86.12C59.4664 86.12 58.9084 85.986 58.4564 85.718C58.0084 85.446 57.6684 85.082 57.4364 84.626C57.2084 84.166 57.0944 83.656 57.0944 83.096C57.0944 82.512 57.2044 81.986 57.4244 81.518C57.6484 81.05 57.9904 80.68 58.4504 80.408C58.9104 80.136 59.4984 80 60.2144 80C60.5224 80 60.8124 80.032 61.0844 80.096C61.3604 80.156 61.6064 80.24 61.8224 80.348L61.6544 81.296C61.4344 81.192 61.2004 81.11 60.9524 81.05C60.7084 80.99 60.4544 80.96 60.1904 80.96C59.5424 80.96 59.0484 81.144 58.7084 81.512C58.3684 81.88 58.1984 82.392 58.1984 83.048C58.1984 83.688 58.3604 84.202 58.6844 84.59C59.0084 84.978 59.5024 85.172 60.1664 85.172C60.4384 85.172 60.6984 85.14 60.9464 85.076C61.1984 85.012 61.4384 84.924 61.6664 84.812L61.8104 85.676C61.6504 85.788 61.4164 85.89 61.1084 85.982C60.8004 86.074 60.4744 86.12 60.1304 86.12ZM63.4797 86V80.12H64.3677L64.4997 81.092C64.7997 80.72 65.0857 80.446 65.3577 80.27C65.6337 80.09 65.9277 80 66.2397 80C66.3397 80 66.4317 80.012 66.5157 80.036L66.4077 81.224C66.3557 81.212 66.2997 81.204 66.2397 81.2C66.1837 81.192 66.1197 81.188 66.0477 81.188C65.7357 81.188 65.4477 81.258 65.1837 81.398C64.9237 81.534 64.7397 81.684 64.6317 81.848V86H63.4797ZM67.8765 86V80.12H68.9565V86H67.8765ZM67.8765 78.8V77.6H68.9565V78.8H67.8765ZM71.0195 88.904V80.12H71.8595L72.0515 81.464L71.7515 81.248C71.9995 80.864 72.3055 80.56 72.6695 80.336C73.0335 80.112 73.4795 80 74.0075 80C74.5435 80 75.0035 80.136 75.3875 80.408C75.7715 80.68 76.0655 81.048 76.2695 81.512C76.4735 81.972 76.5755 82.488 76.5755 83.06C76.5755 83.632 76.4795 84.15 76.2875 84.614C76.0955 85.074 75.8095 85.44 75.4295 85.712C75.0495 85.984 74.5755 86.12 74.0075 86.12C73.5395 86.12 73.1155 86.024 72.7355 85.832C72.3595 85.636 72.0875 85.344 71.9195 84.956L72.0995 84.74V88.904H71.0195ZM73.8035 85.16C74.3275 85.16 74.7355 84.976 75.0275 84.608C75.3235 84.236 75.4715 83.72 75.4715 83.06C75.4715 82.4 75.3235 81.886 75.0275 81.518C74.7355 81.146 74.3275 80.96 73.8035 80.96C73.4795 80.96 73.1835 81.038 72.9155 81.194C72.6515 81.346 72.4395 81.578 72.2795 81.89C72.1195 82.198 72.0395 82.588 72.0395 83.06C72.0395 83.552 72.1195 83.952 72.2795 84.26C72.4395 84.568 72.6515 84.796 72.9155 84.944C73.1835 85.088 73.4795 85.16 73.8035 85.16ZM80.2452 86.12C79.8732 86.12 79.5752 86.052 79.3512 85.916C79.1272 85.78 78.9632 85.606 78.8592 85.394C78.7592 85.178 78.7092 84.952 78.7092 84.716V80.96H77.7012L77.7972 80.12H78.7092V78.668L79.7892 78.56V80.12H81.3372V80.96H79.7892V84.056C79.7892 84.432 79.8112 84.704 79.8552 84.872C79.8992 85.04 80.0072 85.146 80.1792 85.19C80.3552 85.234 80.6372 85.256 81.0252 85.256H81.3012L81.2172 86.12H80.2452Z" fill="#2E394A"/>
<g id="&#240;&#159;&#166;&#134; icon &#34;typescript&#34;">
<path id="Vector" d="M30 44V68H78V20H30V44ZM68.682 42.088C69.902 42.392 70.83 42.934 71.684 43.818C72.126 44.29 72.782 45.15 72.834 45.358C72.85 45.418 70.762 46.818 69.498 47.604C69.452 47.634 69.268 47.436 69.064 47.132C68.444 46.232 67.798 45.844 66.808 45.776C65.352 45.676 64.416 46.438 64.424 47.71C64.4107 48.0228 64.4812 48.3335 64.628 48.61C64.948 49.272 65.544 49.67 67.408 50.476C70.846 51.956 72.316 52.93 73.23 54.316C74.25 55.862 74.48 58.332 73.786 60.168C73.026 62.164 71.136 63.52 68.476 63.968C67.654 64.114 65.704 64.092 64.82 63.932C62.892 63.588 61.064 62.636 59.936 61.386C59.494 60.9 58.632 59.626 58.686 59.536C58.8246 59.43 58.9718 59.3357 59.126 59.254C59.342 59.132 60.148 58.666 60.91 58.224L62.29 57.424L62.58 57.852C62.984 58.468 63.866 59.314 64.4 59.596C65.932 60.404 68.034 60.29 69.07 59.36C69.2783 59.1845 69.4432 58.9632 69.5518 58.7134C69.6604 58.4636 69.7098 58.192 69.696 57.92C69.696 57.364 69.626 57.12 69.336 56.7C68.964 56.168 68.202 55.72 66.038 54.78C63.562 53.714 62.496 53.052 61.52 52C60.9108 51.3057 60.461 50.4866 60.202 49.6C60.02 48.922 59.974 47.222 60.118 46.538C60.628 44.144 62.434 42.478 65.04 41.982C65.886 41.822 67.852 41.882 68.682 42.088ZM57.414 44.092L57.43 46.058H51.18V63.81H46.76V46.058H40.516V44.13C40.516 43.062 40.538 42.17 40.568 42.15C40.592 42.118 44.394 42.102 49.002 42.11L57.392 42.134L57.414 44.092Z" fill="#3178C6"/>
</g>
</g>
</svg>
