<svg width="107" height="107" viewBox="0 0 107 107" fill="none" xmlns="http://www.w3.org/2000/svg">
<g id="Frame 49">
<rect width="107" height="107" rx="5" fill="#F2D0DD"/>
<g id="&#240;&#159;&#166;&#134; icon &#34;mysql&#34;">
<path id="Vector" d="M62.81 23.2999C62.58 23.2999 62.424 23.3279 62.262 23.3659V23.3919H62.29C62.398 23.5999 62.582 23.7519 62.718 23.9379C62.826 24.1519 62.918 24.3659 63.026 24.5779L63.054 24.5479C63.242 24.4159 63.334 24.2039 63.334 23.8819C63.254 23.7879 63.242 23.6939 63.174 23.6019C63.094 23.4679 62.922 23.4019 62.814 23.2959L62.81 23.2999ZM41.54 49.6879H39.686C39.6339 46.7414 39.4537 43.7987 39.146 40.8679H39.13L36.31 49.6879H34.9L32.1 40.8679H32.08C31.861 43.8033 31.7309 46.7446 31.69 49.6879H30C30.11 45.7559 30.384 42.0679 30.82 38.6279H33.12L35.79 46.7559H35.806L38.5 38.6279H40.69C41.174 42.6579 41.458 46.3479 41.546 49.6879H41.54ZM49.574 41.5279C48.818 45.6179 47.822 48.5939 46.59 50.4479C45.626 51.8799 44.57 52.5939 43.424 52.5939C43.118 52.5939 42.744 52.5019 42.292 52.3179V51.3299C42.512 51.3639 42.772 51.3819 43.064 51.3819C43.6 51.3819 44.03 51.2319 44.358 50.9379C44.752 50.5779 44.948 50.1739 44.948 49.7279C44.948 49.4179 44.794 48.7879 44.488 47.8399L42.46 41.5279H44.28L45.734 46.2479C46.062 47.3199 46.2 48.0679 46.144 48.4939C46.944 46.3659 47.5 44.0399 47.814 41.5279H49.574ZM74.224 49.6879H68.964V38.6279H70.734V48.3279H74.224V49.6879ZM67.584 49.9579L65.552 48.9579C65.732 48.8059 65.906 48.6419 66.062 48.4579C66.928 47.4459 67.358 45.9419 67.358 43.9519C67.358 40.2919 65.922 38.4599 63.048 38.4599C61.64 38.4599 60.54 38.9239 59.748 39.8539C58.888 40.8699 58.456 42.3659 58.456 44.3439C58.456 46.2879 58.836 47.7159 59.604 48.6239C60.304 49.4439 61.358 49.8539 62.77 49.8539C63.298 49.8539 63.782 49.7879 64.22 49.6579L66.87 51.2019L67.59 49.9579H67.584ZM61 47.4739C60.55 46.7539 60.326 45.5939 60.326 44.0019C60.326 41.2159 61.174 39.8219 62.866 39.8219C63.752 39.8219 64.406 40.1559 64.82 40.8219C65.268 41.5459 65.492 42.6939 65.492 44.2679C65.492 47.0759 64.644 48.4839 62.952 48.4839C62.062 48.4839 61.412 48.1499 60.996 47.4839L61 47.4739ZM57.684 46.6239C57.684 47.5639 57.34 48.3359 56.652 48.9359C55.964 49.5359 55.046 49.8359 53.884 49.8359C52.798 49.8359 51.756 49.4919 50.738 48.8059L51.212 47.8539C52.088 48.2939 52.878 48.5099 53.592 48.5099C54.256 48.5099 54.778 48.3639 55.158 48.0699C55.3479 47.9267 55.5013 47.7406 55.6056 47.5268C55.7098 47.3131 55.7621 47.0777 55.758 46.8399C55.758 46.1799 55.298 45.6199 54.462 45.1499C53.686 44.7239 52.136 43.8359 52.136 43.8359C51.292 43.2219 50.872 42.5639 50.872 41.4819C50.872 40.5819 51.186 39.8619 51.812 39.3119C52.442 38.7559 53.252 38.4819 54.252 38.4819C55.276 38.4819 56.212 38.7539 57.052 39.3019L56.626 40.2539C55.9548 39.959 55.231 39.8026 54.498 39.7939C53.932 39.7939 53.494 39.9299 53.19 40.2059C53.0357 40.3337 52.9114 40.4937 52.8257 40.6748C52.74 40.8559 52.695 41.0535 52.694 41.2539C52.694 41.9099 53.162 42.4739 54.026 42.9539C54.812 43.3839 56.4 44.2939 56.4 44.2939C57.266 44.9039 57.696 45.5539 57.696 46.6299L57.684 46.6239ZM76.448 34.9199C75.378 34.8919 74.548 34.9999 73.854 35.2959C73.654 35.3759 73.334 35.3759 73.306 35.6299C73.416 35.7359 73.432 35.9099 73.526 36.0579C73.686 36.3259 73.962 36.6839 74.218 36.8719C74.498 37.0919 74.778 37.3039 75.072 37.4919C75.592 37.8119 76.182 38.0019 76.692 38.3239C76.982 38.5119 77.278 38.7499 77.572 38.9499C77.718 39.0499 77.812 39.2299 78 39.2939V39.2539C77.908 39.1339 77.88 38.9599 77.79 38.8259C77.656 38.6919 77.522 38.5719 77.39 38.4399C76.9973 37.9224 76.5287 37.4673 76 37.0899C75.572 36.7979 74.636 36.3899 74.46 35.8999L74.434 35.8719C74.726 35.8459 75.074 35.7399 75.354 35.6599C75.808 35.5399 76.224 35.5659 76.694 35.4479C76.906 35.3939 77.12 35.3279 77.334 35.2599V35.1399C77.094 34.8999 76.914 34.5739 76.666 34.3499C75.9738 33.7448 75.2356 33.1945 74.458 32.7039C74.038 32.4359 73.506 32.2639 73.064 32.0359C72.904 31.9559 72.636 31.9159 72.544 31.7819C72.304 31.4899 72.164 31.1019 71.994 30.7539C71.6013 29.992 71.2364 29.2162 70.9 28.4279C70.66 27.9039 70.514 27.3819 70.22 26.9019C68.84 24.6279 67.346 23.2499 65.048 21.9019C64.554 21.6219 63.962 21.5019 63.336 21.3539C63.002 21.3379 62.668 21.3139 62.336 21.2999C62.116 21.2059 61.904 20.9519 61.716 20.8299C60.956 20.3499 58.988 19.3099 58.428 20.6859C58.068 21.5539 58.962 22.4099 59.272 22.8499C59.502 23.1559 59.792 23.5059 59.952 23.8499C60.046 24.0819 60.072 24.3199 60.166 24.5619C60.378 25.1499 60.58 25.8059 60.86 26.3559C61.006 26.6359 61.166 26.9299 61.354 27.1819C61.462 27.3279 61.646 27.3959 61.688 27.6359C61.5 27.9079 61.488 28.3039 61.38 28.6359C60.9 30.1499 61.088 32.0219 61.768 33.1359C61.982 33.4679 62.492 34.2039 63.174 33.9219C63.774 33.6819 63.642 32.9219 63.814 32.2519C63.854 32.0919 63.828 31.9859 63.91 31.8779V31.9079C64.098 32.2839 64.286 32.6419 64.458 33.0179C64.87 33.6739 65.59 34.3539 66.192 34.8079C66.512 35.0479 66.766 35.4639 67.166 35.6119V35.5719H67.136C67.05 35.4559 66.936 35.3999 66.828 35.3059C66.5744 35.0576 66.3404 34.7902 66.128 34.5059C65.5645 33.7359 65.0648 32.9212 64.634 32.0699C64.414 31.6499 64.23 31.1979 64.054 30.7839C63.974 30.6239 63.974 30.3839 63.84 30.3039C63.64 30.5959 63.346 30.8499 63.2 31.2099C62.946 31.7859 62.92 32.4939 62.824 33.2299C62.77 33.2439 62.796 33.2299 62.77 33.2579C62.342 33.1539 62.196 32.7099 62.036 32.3379C61.636 31.3879 61.57 29.8619 61.916 28.7679C62.01 28.4879 62.41 27.6039 62.25 27.3359C62.166 27.0819 61.902 26.9359 61.756 26.7299C61.5682 26.4617 61.4074 26.1757 61.276 25.8759C60.956 25.1279 60.796 24.2999 60.448 23.5519C60.288 23.2059 60.008 22.8439 59.78 22.5259C59.526 22.1659 59.246 21.9119 59.044 21.4859C58.978 21.3399 58.884 21.0979 58.99 20.9379C59.018 20.8299 59.074 20.7879 59.178 20.7579C59.354 20.6139 59.848 20.8019 60.022 20.8819C60.516 21.0819 60.932 21.2699 61.346 21.5499C61.534 21.6819 61.736 21.9359 61.976 22.0019H62.256C62.684 22.0959 63.166 22.0299 63.566 22.1479C64.276 22.3759 64.916 22.7079 65.49 23.0679C67.2587 24.1977 68.6973 25.775 69.66 27.6399C69.82 27.9479 69.89 28.2299 70.036 28.5499C70.316 29.2099 70.662 29.8759 70.946 30.5139C71.226 31.1439 71.496 31.7859 71.898 32.3079C72.098 32.5879 72.902 32.7339 73.262 32.8799C73.528 32.9999 73.942 33.1099 74.182 33.2559C74.642 33.5359 75.09 33.8559 75.522 34.1639C75.742 34.3159 76.408 34.6499 76.448 34.9199Z" fill="black"/>
</g>
<path id="MySQL" d="M33.9912 89L35.1192 80.6H36.0912L38.2992 84.764L40.4832 80.6H41.4672L42.5832 89H41.3832L40.5312 82.148L40.8312 82.196L38.3112 87.008L35.7432 82.196L36.0432 82.148L35.1912 89H33.9912ZM44.6483 91.904L46.0043 88.736L43.5563 83.12H44.7563L46.5923 87.488L48.2483 83.12H49.4483L45.8483 91.904H44.6483ZM53.4909 89.168C53.1429 89.168 52.7949 89.142 52.4469 89.09C52.0989 89.038 51.7769 88.972 51.4809 88.892C51.1849 88.808 50.9389 88.72 50.7429 88.628L50.8989 87.416C51.1149 87.52 51.3749 87.628 51.6789 87.74C51.9869 87.852 52.3189 87.946 52.6749 88.022C53.0309 88.098 53.3909 88.136 53.7549 88.136C54.2949 88.136 54.7229 88.038 55.0389 87.842C55.3589 87.642 55.5189 87.332 55.5189 86.912C55.5189 86.596 55.4389 86.338 55.2789 86.138C55.1189 85.934 54.8769 85.76 54.5529 85.616C54.2329 85.472 53.8309 85.328 53.3469 85.184C52.8869 85.048 52.4629 84.888 52.0749 84.704C51.6869 84.516 51.3749 84.266 51.1389 83.954C50.9069 83.638 50.7909 83.22 50.7909 82.7C50.7909 82.256 50.9049 81.864 51.1329 81.524C51.3649 81.18 51.7029 80.912 52.1469 80.72C52.5949 80.528 53.1429 80.432 53.7909 80.432C54.3429 80.432 54.8489 80.492 55.3089 80.612C55.7729 80.732 56.1549 80.864 56.4549 81.008L56.3349 82.22C55.8789 81.948 55.4429 81.754 55.0269 81.638C54.6149 81.522 54.1869 81.464 53.7429 81.464C53.2509 81.464 52.8429 81.556 52.5189 81.74C52.1989 81.924 52.0389 82.224 52.0389 82.64C52.0389 82.92 52.1109 83.15 52.2549 83.33C52.3989 83.506 52.6129 83.658 52.8969 83.786C53.1809 83.91 53.5349 84.036 53.9589 84.164C54.5429 84.34 55.0449 84.542 55.4649 84.77C55.8849 84.994 56.2069 85.272 56.4309 85.604C56.6549 85.932 56.7669 86.34 56.7669 86.828C56.7669 87.188 56.6989 87.512 56.5629 87.8C56.4269 88.088 56.2229 88.334 55.9509 88.538C55.6789 88.742 55.3369 88.898 54.9249 89.006C54.5169 89.114 54.0389 89.168 53.4909 89.168ZM63.0307 86.576L63.6787 85.916L66.3187 88.508L65.6707 89.168L63.0307 86.576ZM62.3587 89.168C61.5587 89.168 60.8467 88.99 60.2227 88.634C59.5987 88.274 59.1087 87.768 58.7527 87.116C58.3967 86.46 58.2187 85.688 58.2187 84.8C58.2187 83.912 58.3967 83.142 58.7527 82.49C59.1087 81.834 59.5987 81.328 60.2227 80.972C60.8467 80.612 61.5587 80.432 62.3587 80.432C63.1587 80.432 63.8707 80.612 64.4947 80.972C65.1187 81.328 65.6087 81.834 65.9647 82.49C66.3207 83.142 66.4987 83.912 66.4987 84.8C66.4987 85.688 66.3207 86.46 65.9647 87.116C65.6087 87.768 65.1187 88.274 64.4947 88.634C63.8707 88.99 63.1587 89.168 62.3587 89.168ZM62.3587 88.064C63.0027 88.064 63.5407 87.92 63.9727 87.632C64.4047 87.34 64.7287 86.948 64.9447 86.456C65.1647 85.96 65.2747 85.408 65.2747 84.8C65.2747 84.192 65.1647 83.642 64.9447 83.15C64.7287 82.654 64.4047 82.262 63.9727 81.974C63.5407 81.682 63.0027 81.536 62.3587 81.536C61.7147 81.536 61.1767 81.682 60.7447 81.974C60.3127 82.262 59.9867 82.654 59.7667 83.15C59.5507 83.642 59.4427 84.192 59.4427 84.8C59.4427 85.408 59.5507 85.96 59.7667 86.456C59.9867 86.948 60.3127 87.34 60.7447 87.632C61.1767 87.92 61.7147 88.064 62.3587 88.064ZM68.533 89V80.6H69.673V87.968H73.525V89H68.533Z" fill="#2E394A"/>
</g>
</svg>
