<svg width="107" height="107" viewBox="0 0 107 107" fill="none" xmlns="http://www.w3.org/2000/svg">
<g id="Frame 52">
<rect width="107" height="107" rx="5" fill="#F2D0DD"/>
<g id="vscode-icons:file-type-python">
<path id="Vector" d="M53.8275 23.15C43.1775 23.15 43.851 27.755 43.851 27.755V32.54H53.979V34.04H39.8175C39.8175 34.04 33 33.2 33 44.0075C33 54.815 39.0195 54.3755 39.0195 54.3755H42.495V49.334C42.495 49.334 42.3 43.3145 48.345 43.3145H58.488C58.488 43.3145 64.146 43.4045 64.146 37.8365V28.7C64.146 28.7 65.004 23.132 53.883 23.132L53.8275 23.15ZM48.2295 26.3555C48.5896 26.3464 48.9442 26.4443 49.2486 26.6368C49.5531 26.8293 49.7936 27.1078 49.9397 27.4369C50.0859 27.7661 50.1312 28.1313 50.0698 28.4862C50.0084 28.8411 49.8432 29.1698 49.595 29.4308C49.3468 29.6918 49.0268 29.8734 48.6754 29.9525C48.324 30.0316 47.9571 30.0047 47.621 29.8753C47.2849 29.7458 46.9947 29.5196 46.7871 29.2252C46.5796 28.9309 46.464 28.5816 46.455 28.2215V28.1915C46.455 27.7086 46.6469 27.2454 46.9884 26.9039C47.3299 26.5624 47.793 26.3705 48.276 26.3705L48.2295 26.3555Z" fill="url(#paint0_linear_950_850)"/>
<path id="Vector_2" d="M54.1275 64.865C64.7775 64.865 64.104 60.245 64.104 60.245V55.475H53.9775V53.975H68.1825C68.1825 53.975 75 54.737 75 43.9925C75 33.248 68.9805 33.6245 68.9805 33.6245H65.46V38.6C65.46 38.6 65.655 44.6195 59.61 44.6195H49.4625C49.4625 44.6195 43.8 44.534 43.8 50.102V59.3C43.8 59.3 42.942 64.868 54.063 64.868H54.123L54.1275 64.865ZM59.7255 61.6445C59.3654 61.6536 59.0108 61.5557 58.7064 61.3632C58.4019 61.1707 58.1614 60.8923 58.0153 60.5631C57.8691 60.2339 57.8238 59.8688 57.8852 59.5139C57.9466 59.159 58.1118 58.8302 58.36 58.5692C58.6082 58.3082 58.9282 58.1267 59.2796 58.0476C59.631 57.9685 59.9979 57.9953 60.334 58.1248C60.6701 58.2542 60.9603 58.4804 61.1679 58.7748C61.3754 59.0692 61.491 59.4185 61.5 59.7785V59.8235C61.5 60.3065 61.3081 60.7697 60.9666 61.1112C60.6251 61.4527 60.162 61.6445 59.679 61.6445H59.724H59.7255Z" fill="url(#paint1_linear_950_850)"/>
</g>
<path id="Python" d="M34.0733 86V77.6H36.8453C37.4093 77.6 37.9053 77.69 38.3333 77.87C38.7613 78.05 39.0933 78.34 39.3293 78.74C39.5693 79.14 39.6893 79.668 39.6893 80.324C39.6893 80.968 39.5693 81.492 39.3293 81.896C39.0933 82.296 38.7613 82.59 38.3333 82.778C37.9053 82.966 37.4093 83.06 36.8453 83.06H35.2733V86H34.0733ZM35.2733 82.04H36.6773C37.2893 82.04 37.7473 81.902 38.0513 81.626C38.3593 81.346 38.5133 80.916 38.5133 80.336C38.5133 79.752 38.3673 79.32 38.0753 79.04C37.7873 78.76 37.3213 78.62 36.6773 78.62H35.2733V82.04ZM41.7565 88.904L43.1125 85.736L40.6645 80.12H41.8645L43.7005 84.488L45.3565 80.12H46.5565L42.9565 88.904H41.7565ZM49.9991 86.12C49.6271 86.12 49.3291 86.052 49.1051 85.916C48.8811 85.78 48.7171 85.606 48.6131 85.394C48.5131 85.178 48.4631 84.952 48.4631 84.716V80.96H47.4551L47.5511 80.12H48.4631V78.668L49.5431 78.56V80.12H51.0911V80.96H49.5431V84.056C49.5431 84.432 49.5651 84.704 49.6091 84.872C49.6531 85.04 49.7611 85.146 49.9331 85.19C50.1091 85.234 50.3911 85.256 50.7791 85.256H51.0551L50.9711 86.12H49.9991ZM52.602 86V77H53.694V81.14L53.31 81.116C53.586 80.768 53.882 80.496 54.198 80.3C54.518 80.1 54.926 80 55.422 80C55.93 80 56.354 80.114 56.694 80.342C57.034 80.57 57.288 80.888 57.456 81.296C57.628 81.704 57.714 82.18 57.714 82.724V86H56.634V82.856C56.634 82.208 56.514 81.73 56.274 81.422C56.038 81.114 55.674 80.96 55.182 80.96C54.81 80.96 54.48 81.06 54.192 81.26C53.908 81.46 53.682 81.728 53.514 82.064L53.694 81.404V86H52.602ZM62.2859 86.12C61.6699 86.12 61.1439 85.984 60.7079 85.712C60.2759 85.436 59.9439 85.068 59.7119 84.608C59.4839 84.144 59.3699 83.628 59.3699 83.06C59.3699 82.492 59.4839 81.978 59.7119 81.518C59.9439 81.054 60.2759 80.686 60.7079 80.414C61.1439 80.138 61.6699 80 62.2859 80C62.8979 80 63.4219 80.138 63.8579 80.414C64.2939 80.686 64.6259 81.054 64.8539 81.518C65.0859 81.978 65.2019 82.492 65.2019 83.06C65.2019 83.628 65.0859 84.144 64.8539 84.608C64.6259 85.068 64.2939 85.436 63.8579 85.712C63.4219 85.984 62.8979 86.12 62.2859 86.12ZM62.2859 85.16C62.8699 85.16 63.3179 84.976 63.6299 84.608C63.9419 84.236 64.0979 83.72 64.0979 83.06C64.0979 82.4 63.9419 81.886 63.6299 81.518C63.3179 81.146 62.8699 80.96 62.2859 80.96C61.7059 80.96 61.2579 81.146 60.9419 81.518C60.6299 81.886 60.4739 82.4 60.4739 83.06C60.4739 83.72 60.6299 84.236 60.9419 84.608C61.2579 84.976 61.7059 85.16 62.2859 85.16ZM66.9156 86V80.12H67.7556L67.9716 81.248L67.5516 81.068C67.9476 80.628 68.3336 80.34 68.7096 80.204C69.0896 80.068 69.4596 80 69.8196 80C70.6796 80 71.2936 80.248 71.6616 80.744C72.0336 81.24 72.2196 81.912 72.2196 82.76V86H71.1396V82.76C71.1396 82.136 71.0236 81.68 70.7916 81.392C70.5596 81.104 70.1636 80.96 69.6036 80.96C69.2076 80.96 68.8436 81.048 68.5116 81.224C68.1836 81.396 67.9676 81.672 67.8636 82.052L67.9956 81.392V86H66.9156Z" fill="#2E394A"/>
</g>
<defs>
<linearGradient id="paint0_linear_950_850" x1="37.1507" y1="27.2344" x2="57.0807" y2="47.1192" gradientUnits="userSpaceOnUse">
<stop stop-color="#387EB8"/>
<stop offset="1" stop-color="#366994"/>
</linearGradient>
<linearGradient id="paint1_linear_950_850" x1="48.9412" y1="40.1879" x2="71.7115" y2="60.0668" gradientUnits="userSpaceOnUse">
<stop stop-color="#FFE052"/>
<stop offset="1" stop-color="#FFC331"/>
</linearGradient>
</defs>
</svg>
