<svg width="107" height="107" viewBox="0 0 107 107" fill="none" xmlns="http://www.w3.org/2000/svg">
<g id="Frame 50">
<rect width="107" height="107" rx="5" fill="#F2D0DD"/>
<g id="vscode-icons:file-type-node">
<path id="Vector" d="M54 65C53.4334 65.0002 52.8767 64.8512 52.386 64.568L47.25 61.5275C46.4835 61.0985 46.857 60.947 47.1105 60.8585C47.9257 60.6067 48.7062 60.2539 49.434 59.8085C49.4949 59.7803 49.562 59.7682 49.6289 59.7732C49.6958 59.7781 49.7604 59.8001 49.8165 59.837L53.763 62.1815C53.8364 62.2204 53.9183 62.2407 54.0014 62.2407C54.0846 62.2407 54.1665 62.2204 54.24 62.1815L69.63 53.2985C69.702 53.2554 69.7615 53.1943 69.8028 53.1212C69.8441 53.0481 69.8657 52.9655 69.8655 52.8815V35.1125C69.8655 35.0272 69.8436 34.9434 69.8018 34.869C69.76 34.7947 69.6998 34.7323 69.6269 34.688L54.237 25.8125C54.1644 25.7717 54.0825 25.7502 53.9992 25.7502C53.9159 25.7502 53.834 25.7717 53.7615 25.8125L38.3805 34.691C38.3071 34.7344 38.2462 34.796 38.2036 34.8699C38.161 34.9437 38.1382 35.0273 38.1375 35.1125V52.874C38.1377 52.9578 38.1601 53.04 38.2026 53.1122C38.245 53.1844 38.3059 53.2441 38.379 53.285L42.6 55.721C44.8875 56.864 46.2885 55.517 46.2885 54.164V36.6275C46.2885 36.5082 46.3359 36.3937 46.4203 36.3093C46.5046 36.2249 46.6191 36.1775 46.7385 36.1775H48.6885C48.8078 36.1775 48.9223 36.2249 49.0066 36.3093C49.091 36.3937 49.1385 36.5082 49.1385 36.6275V54.1655C49.1385 57.218 47.4765 58.9655 44.5815 58.9655C43.3325 58.9873 42.1032 58.6533 41.037 58.0025L36.9915 55.682C36.5003 55.396 36.0928 54.9862 35.8096 54.4935C35.5264 54.0007 35.3774 53.4424 35.3775 52.874V35.1125C35.376 34.5433 35.5244 33.9838 35.8077 33.4901C36.091 32.9964 36.4993 32.5859 36.9915 32.3L52.383 23.414C52.8787 23.1428 53.4348 23.0006 54 23.0006C54.5651 23.0006 55.1212 23.1428 55.617 23.414L71.007 32.3C71.498 32.5855 71.9056 32.9947 72.1891 33.4869C72.4726 33.9791 72.622 34.537 72.6225 35.105V52.874C72.6216 53.4423 72.4721 54.0006 72.1886 54.4932C71.9052 54.9858 71.4978 55.3956 71.007 55.682L55.617 64.568C55.1253 64.8517 54.5676 65.0007 54 65Z" fill="#83CD29"/>
<path id="Vector_2" d="M51.0811 46.9296C51.0811 46.8102 51.1285 46.6957 51.2129 46.6114C51.2972 46.527 51.4117 46.4796 51.5311 46.4796H53.5216C53.6279 46.4799 53.7307 46.5179 53.8117 46.5868C53.8927 46.6557 53.9467 46.7511 53.9641 46.8561C54.2641 48.8826 55.1641 49.9041 59.2336 49.9041C62.4751 49.9041 63.8566 49.1706 63.8566 47.4501C63.8566 46.4586 63.4651 45.7221 58.4266 45.2286C54.2146 44.8116 51.6106 43.8786 51.6106 40.5126C51.6106 37.4076 54.2281 35.5551 58.6156 35.5551C63.5461 35.5551 65.9866 37.2666 66.2956 40.9386C66.3003 40.9999 66.2924 41.0615 66.2724 41.1196C66.2523 41.1777 66.2206 41.2312 66.1792 41.2766C66.1377 41.322 66.0874 41.3584 66.0313 41.3836C65.9752 41.4088 65.9145 41.4222 65.8531 41.4231H63.8491C63.7485 41.4216 63.6514 41.3866 63.5731 41.3235C63.4948 41.2605 63.4398 41.173 63.4171 41.0751C62.9386 38.9436 61.7671 38.2626 58.6171 38.2626C55.0771 38.2626 54.6661 39.4956 54.6661 40.4196C54.6661 41.5386 55.1521 41.8656 59.9311 42.4971C64.6606 43.1226 66.9076 44.0076 66.9076 47.3316C66.9076 50.6856 64.1116 52.6056 59.2351 52.6056C52.4926 52.6146 51.0811 49.5231 51.0811 46.9296Z" fill="#83CD29"/>
</g>
<path id="Node.js" d="M33.3163 89V80.6H34.5523L38.6923 86.888V80.6H39.8443V89H38.8723L34.4563 82.364V89H33.3163ZM44.5414 89.12C43.9254 89.12 43.3994 88.984 42.9634 88.712C42.5314 88.436 42.1994 88.068 41.9674 87.608C41.7394 87.144 41.6254 86.628 41.6254 86.06C41.6254 85.492 41.7394 84.978 41.9674 84.518C42.1994 84.054 42.5314 83.686 42.9634 83.414C43.3994 83.138 43.9254 83 44.5414 83C45.1534 83 45.6774 83.138 46.1134 83.414C46.5494 83.686 46.8814 84.054 47.1094 84.518C47.3414 84.978 47.4574 85.492 47.4574 86.06C47.4574 86.628 47.3414 87.144 47.1094 87.608C46.8814 88.068 46.5494 88.436 46.1134 88.712C45.6774 88.984 45.1534 89.12 44.5414 89.12ZM44.5414 88.16C45.1254 88.16 45.5734 87.976 45.8854 87.608C46.1974 87.236 46.3534 86.72 46.3534 86.06C46.3534 85.4 46.1974 84.886 45.8854 84.518C45.5734 84.146 45.1254 83.96 44.5414 83.96C43.9614 83.96 43.5134 84.146 43.1974 84.518C42.8854 84.886 42.7294 85.4 42.7294 86.06C42.7294 86.72 42.8854 87.236 43.1974 87.608C43.5134 87.976 43.9614 88.16 44.5414 88.16ZM51.4991 89.12C50.9991 89.12 50.5471 88.984 50.1431 88.712C49.7391 88.44 49.4171 88.074 49.1771 87.614C48.9411 87.154 48.8231 86.64 48.8231 86.072C48.8231 85.532 48.9311 85.028 49.1471 84.56C49.3671 84.092 49.6771 83.716 50.0771 83.432C50.4771 83.144 50.9511 83 51.4991 83C51.8911 83 52.2691 83.086 52.6331 83.258C53.0011 83.426 53.2991 83.708 53.5271 84.104L53.2991 84.26V80H54.3791V89H53.4191L53.2151 87.752L53.4911 87.944C53.3191 88.332 53.0491 88.626 52.6811 88.826C52.3131 89.022 51.9191 89.12 51.4991 89.12ZM51.6911 88.16C51.9631 88.16 52.2311 88.09 52.4951 87.95C52.7631 87.81 52.9831 87.588 53.1551 87.284C53.3311 86.976 53.4191 86.572 53.4191 86.072C53.4191 85.608 53.3311 85.22 53.1551 84.908C52.9831 84.592 52.7631 84.356 52.4951 84.2C52.2311 84.04 51.9631 83.96 51.6911 83.96C51.3231 83.96 51.0071 84.052 50.7431 84.236C50.4791 84.42 50.2771 84.672 50.1371 84.992C49.9971 85.308 49.9271 85.668 49.9271 86.072C49.9271 86.452 49.9971 86.8 50.1371 87.116C50.2771 87.432 50.4791 87.686 50.7431 87.878C51.0071 88.066 51.3231 88.16 51.6911 88.16ZM59.2473 89.12C58.5553 89.12 57.9733 88.978 57.5013 88.694C57.0293 88.41 56.6713 88.034 56.4273 87.566C56.1873 87.094 56.0673 86.576 56.0673 86.012C56.0673 85.464 56.1793 84.962 56.4033 84.506C56.6313 84.05 56.9593 83.686 57.3873 83.414C57.8193 83.138 58.3393 83 58.9473 83C59.4353 83 59.8693 83.098 60.2493 83.294C60.6333 83.486 60.9333 83.768 61.1493 84.14C61.3693 84.508 61.4793 84.956 61.4793 85.484C61.4793 85.568 61.4753 85.66 61.4673 85.76C61.4633 85.856 61.4513 85.956 61.4313 86.06H57.1713C57.2233 86.604 57.3533 87.028 57.5613 87.332C57.7693 87.636 58.0313 87.85 58.3473 87.974C58.6633 88.098 59.0073 88.16 59.3793 88.16C59.6513 88.16 59.9353 88.132 60.2313 88.076C60.5273 88.02 60.8073 87.932 61.0713 87.812L61.2153 88.664C60.9873 88.764 60.7093 88.866 60.3813 88.97C60.0533 89.07 59.6753 89.12 59.2473 89.12ZM57.2673 85.316H60.3633C60.3633 85.04 60.3113 84.8 60.2073 84.596C60.1033 84.392 59.9453 84.236 59.7333 84.128C59.5213 84.016 59.2513 83.96 58.9233 83.96C58.4433 83.96 58.0733 84.08 57.8133 84.32C57.5573 84.556 57.3753 84.888 57.2673 85.316ZM63.0359 89V87.728H64.3319V89H63.0359ZM65.508 91.904L65.388 91.076C65.624 91.052 65.804 91.006 65.928 90.938C66.056 90.874 66.144 90.76 66.192 90.596C66.24 90.432 66.264 90.192 66.264 89.876V83.12H67.344V90.284C67.344 90.66 67.262 90.956 67.098 91.172C66.938 91.388 66.744 91.546 66.516 91.646C66.288 91.746 66.072 91.812 65.868 91.844L65.508 91.904ZM66.264 81.8V80.6H67.344V81.8H66.264ZM71.075 89.12C70.555 89.12 70.123 89.058 69.779 88.934C69.439 88.81 69.199 88.7 69.059 88.604L69.191 87.56C69.319 87.672 69.545 87.8 69.869 87.944C70.193 88.088 70.579 88.16 71.027 88.16C71.407 88.16 71.697 88.096 71.897 87.968C72.101 87.84 72.203 87.66 72.203 87.428C72.203 87.224 72.137 87.06 72.005 86.936C71.877 86.808 71.721 86.708 71.537 86.636C71.357 86.56 71.187 86.5 71.027 86.456C70.759 86.384 70.481 86.294 70.193 86.186C69.909 86.074 69.669 85.908 69.473 85.688C69.277 85.468 69.179 85.16 69.179 84.764C69.179 84.464 69.251 84.18 69.395 83.912C69.539 83.64 69.773 83.42 70.097 83.252C70.421 83.084 70.851 83 71.387 83C71.779 83 72.097 83.042 72.341 83.126C72.589 83.206 72.803 83.292 72.983 83.384L72.851 84.368C72.679 84.224 72.479 84.102 72.251 84.002C72.023 83.902 71.743 83.852 71.411 83.852C71.075 83.852 70.801 83.916 70.589 84.044C70.377 84.168 70.271 84.368 70.271 84.644C70.271 84.92 70.383 85.116 70.607 85.232C70.835 85.348 71.179 85.476 71.639 85.616C71.783 85.656 71.949 85.714 72.137 85.79C72.329 85.866 72.515 85.968 72.695 86.096C72.875 86.224 73.023 86.392 73.139 86.6C73.259 86.804 73.319 87.06 73.319 87.368C73.319 87.628 73.257 87.894 73.133 88.166C73.009 88.434 72.785 88.66 72.461 88.844C72.137 89.028 71.675 89.12 71.075 89.12Z" fill="#2E394A"/>
</g>
</svg>
