<svg width="107" height="107" viewBox="0 0 107 107" fill="none" xmlns="http://www.w3.org/2000/svg">
<g id="Frame 44">
<rect width="107" height="107" rx="5" fill="#F2D0DD"/>
<g id="vscode-icons:file-type-js-official">
<path id="Vector" d="M33 23H75V65H33V23Z" fill="#F5DE19"/>
<path id="Vector_2" d="M61.2136 55.8125C61.5715 56.5394 62.1274 57.1503 62.8175 57.575C63.5075 57.9996 64.3034 58.2206 65.1136 58.2125C66.7486 58.2125 67.7941 57.395 67.7941 56.2625C67.7941 54.9125 66.7201 54.4295 64.9201 53.642L63.9331 53.219C61.0831 52.0055 59.1931 50.486 59.1931 47.273C59.1931 44.3135 61.4431 42.059 64.9726 42.059C66.1152 41.9765 67.2567 42.2322 68.2549 42.7942C69.2531 43.3563 70.0637 44.1998 70.5856 45.2195L67.5001 47.192C67.2991 46.6864 66.9492 46.2538 66.4967 45.9516C66.0443 45.6494 65.5106 45.4919 64.9666 45.5C64.7292 45.4762 64.4895 45.5022 64.2628 45.5762C64.036 45.6501 63.8271 45.7706 63.6494 45.9298C63.4718 46.0889 63.3292 46.2834 63.2308 46.5007C63.1325 46.718 63.0805 46.9534 63.0781 47.192C63.0781 48.3755 63.8116 48.8555 65.5051 49.592L66.4921 50.015C69.8461 51.4535 71.7421 52.919 71.7421 56.2145C71.7421 59.768 68.9506 61.715 65.2021 61.715C63.7416 61.808 62.2853 61.4764 61.009 60.7602C59.7328 60.0439 58.6911 58.9736 58.0096 57.6785L61.2136 55.8125ZM47.2711 56.1545C47.8906 57.254 48.4546 58.184 49.8106 58.184C51.1066 58.184 51.9256 57.677 51.9256 55.7045V42.284H55.8721V55.757C55.8721 59.843 53.4721 61.703 49.9786 61.703C48.7437 61.7705 47.5173 61.4627 46.4606 60.8202C45.4039 60.1777 44.5664 59.2304 44.0581 58.103L47.2711 56.1545Z" fill="black"/>
</g>
<path id="Javascript" d="M27.968 88.064L27.812 87.08C28.244 87.08 28.552 86.986 28.736 86.798C28.92 86.61 29.012 86.312 29.012 85.904V77.6H30.152V86.168C30.152 86.828 29.998 87.308 29.69 87.608C29.382 87.912 28.912 88.064 28.28 88.064H27.968ZM33.6934 86.12C33.3294 86.12 33.0114 86.046 32.7394 85.898C32.4674 85.75 32.2554 85.548 32.1034 85.292C31.9554 85.036 31.8814 84.744 31.8814 84.416C31.8814 84.084 31.9534 83.8 32.0974 83.564C32.2454 83.324 32.4414 83.126 32.6854 82.97C32.9334 82.81 33.2094 82.684 33.5134 82.592C33.8174 82.496 34.1314 82.428 34.4554 82.388C34.7834 82.344 35.0974 82.32 35.3974 82.316C35.3974 81.756 35.2874 81.39 35.0674 81.218C34.8474 81.046 34.5294 80.96 34.1134 80.96C33.8934 80.96 33.6574 80.994 33.4054 81.062C33.1574 81.13 32.8774 81.272 32.5654 81.488L32.4094 80.612C32.6454 80.432 32.9394 80.286 33.2914 80.174C33.6434 80.058 34.0134 80 34.4014 80C34.8974 80 35.2974 80.088 35.6014 80.264C35.9054 80.436 36.1274 80.728 36.2674 81.14C36.4074 81.552 36.4774 82.112 36.4774 82.82V84.02C36.4774 84.3 36.4894 84.532 36.5134 84.716C36.5414 84.896 36.6014 85.032 36.6934 85.124C36.7894 85.212 36.9414 85.256 37.1494 85.256H37.2574L37.0894 86.12H37.0054C36.6574 86.12 36.3874 86.086 36.1954 86.018C36.0074 85.95 35.8634 85.852 35.7634 85.724C35.6634 85.596 35.5734 85.44 35.4934 85.256C35.2734 85.512 35.0134 85.72 34.7134 85.88C34.4134 86.04 34.0734 86.12 33.6934 86.12ZM33.8974 85.256C34.1854 85.256 34.4634 85.184 34.7314 85.04C35.0034 84.896 35.2254 84.704 35.3974 84.464V83.06C34.8254 83.08 34.3614 83.136 34.0054 83.228C33.6534 83.32 33.3954 83.458 33.2314 83.642C33.0674 83.826 32.9854 84.064 32.9854 84.356C32.9854 84.672 33.0694 84.902 33.2374 85.046C33.4094 85.186 33.6294 85.256 33.8974 85.256ZM40.1 86L37.856 80.12H39.056L40.7 84.812L42.332 80.12H43.544L41.312 86H40.1ZM46.284 86.12C45.92 86.12 45.602 86.046 45.33 85.898C45.058 85.75 44.846 85.548 44.694 85.292C44.546 85.036 44.472 84.744 44.472 84.416C44.472 84.084 44.544 83.8 44.688 83.564C44.836 83.324 45.032 83.126 45.276 82.97C45.524 82.81 45.8 82.684 46.104 82.592C46.408 82.496 46.722 82.428 47.046 82.388C47.374 82.344 47.688 82.32 47.988 82.316C47.988 81.756 47.878 81.39 47.658 81.218C47.438 81.046 47.12 80.96 46.704 80.96C46.484 80.96 46.248 80.994 45.996 81.062C45.748 81.13 45.468 81.272 45.156 81.488L45 80.612C45.236 80.432 45.53 80.286 45.882 80.174C46.234 80.058 46.604 80 46.992 80C47.488 80 47.888 80.088 48.192 80.264C48.496 80.436 48.718 80.728 48.858 81.14C48.998 81.552 49.068 82.112 49.068 82.82V84.02C49.068 84.3 49.08 84.532 49.104 84.716C49.132 84.896 49.192 85.032 49.284 85.124C49.38 85.212 49.532 85.256 49.74 85.256H49.848L49.68 86.12H49.596C49.248 86.12 48.978 86.086 48.786 86.018C48.598 85.95 48.454 85.852 48.354 85.724C48.254 85.596 48.164 85.44 48.084 85.256C47.864 85.512 47.604 85.72 47.304 85.88C47.004 86.04 46.664 86.12 46.284 86.12ZM46.488 85.256C46.776 85.256 47.054 85.184 47.322 85.04C47.594 84.896 47.816 84.704 47.988 84.464V83.06C47.416 83.08 46.952 83.136 46.596 83.228C46.244 83.32 45.986 83.458 45.822 83.642C45.658 83.826 45.576 84.064 45.576 84.356C45.576 84.672 45.66 84.902 45.828 85.046C46 85.186 46.22 85.256 46.488 85.256ZM52.9496 86.12C52.4296 86.12 51.9976 86.058 51.6536 85.934C51.3136 85.81 51.0736 85.7 50.9336 85.604L51.0656 84.56C51.1936 84.672 51.4196 84.8 51.7436 84.944C52.0676 85.088 52.4536 85.16 52.9016 85.16C53.2816 85.16 53.5716 85.096 53.7716 84.968C53.9756 84.84 54.0776 84.66 54.0776 84.428C54.0776 84.224 54.0116 84.06 53.8796 83.936C53.7516 83.808 53.5956 83.708 53.4116 83.636C53.2316 83.56 53.0616 83.5 52.9016 83.456C52.6336 83.384 52.3556 83.294 52.0676 83.186C51.7836 83.074 51.5436 82.908 51.3476 82.688C51.1516 82.468 51.0536 82.16 51.0536 81.764C51.0536 81.464 51.1256 81.18 51.2696 80.912C51.4136 80.64 51.6476 80.42 51.9716 80.252C52.2956 80.084 52.7256 80 53.2616 80C53.6536 80 53.9716 80.042 54.2156 80.126C54.4636 80.206 54.6776 80.292 54.8576 80.384L54.7256 81.368C54.5536 81.224 54.3536 81.102 54.1256 81.002C53.8976 80.902 53.6176 80.852 53.2856 80.852C52.9496 80.852 52.6756 80.916 52.4636 81.044C52.2516 81.168 52.1456 81.368 52.1456 81.644C52.1456 81.92 52.2576 82.116 52.4816 82.232C52.7096 82.348 53.0536 82.476 53.5136 82.616C53.6576 82.656 53.8236 82.714 54.0116 82.79C54.2036 82.866 54.3896 82.968 54.5696 83.096C54.7496 83.224 54.8976 83.392 55.0136 83.6C55.1336 83.804 55.1936 84.06 55.1936 84.368C55.1936 84.628 55.1316 84.894 55.0076 85.166C54.8836 85.434 54.6596 85.66 54.3356 85.844C54.0116 86.028 53.5496 86.12 52.9496 86.12ZM59.5504 86.12C58.8864 86.12 58.3284 85.986 57.8764 85.718C57.4284 85.446 57.0884 85.082 56.8564 84.626C56.6284 84.166 56.5144 83.656 56.5144 83.096C56.5144 82.512 56.6244 81.986 56.8444 81.518C57.0684 81.05 57.4104 80.68 57.8704 80.408C58.3304 80.136 58.9184 80 59.6344 80C59.9424 80 60.2324 80.032 60.5044 80.096C60.7804 80.156 61.0264 80.24 61.2424 80.348L61.0744 81.296C60.8544 81.192 60.6204 81.11 60.3724 81.05C60.1284 80.99 59.8744 80.96 59.6104 80.96C58.9624 80.96 58.4684 81.144 58.1284 81.512C57.7884 81.88 57.6184 82.392 57.6184 83.048C57.6184 83.688 57.7804 84.202 58.1044 84.59C58.4284 84.978 58.9224 85.172 59.5864 85.172C59.8584 85.172 60.1184 85.14 60.3664 85.076C60.6184 85.012 60.8584 84.924 61.0864 84.812L61.2304 85.676C61.0704 85.788 60.8364 85.89 60.5284 85.982C60.2204 86.074 59.8944 86.12 59.5504 86.12ZM62.8996 86V80.12H63.7876L63.9196 81.092C64.2196 80.72 64.5056 80.446 64.7776 80.27C65.0536 80.09 65.3476 80 65.6596 80C65.7596 80 65.8516 80.012 65.9356 80.036L65.8276 81.224C65.7756 81.212 65.7196 81.204 65.6596 81.2C65.6036 81.192 65.5396 81.188 65.4676 81.188C65.1556 81.188 64.8676 81.258 64.6036 81.398C64.3436 81.534 64.1596 81.684 64.0516 81.848V86H62.8996ZM67.2965 86V80.12H68.3765V86H67.2965ZM67.2965 78.8V77.6H68.3765V78.8H67.2965ZM70.4394 88.904V80.12H71.2794L71.4714 81.464L71.1714 81.248C71.4194 80.864 71.7254 80.56 72.0894 80.336C72.4534 80.112 72.8994 80 73.4274 80C73.9634 80 74.4234 80.136 74.8074 80.408C75.1914 80.68 75.4854 81.048 75.6894 81.512C75.8934 81.972 75.9954 82.488 75.9954 83.06C75.9954 83.632 75.8994 84.15 75.7074 84.614C75.5154 85.074 75.2294 85.44 74.8494 85.712C74.4694 85.984 73.9954 86.12 73.4274 86.12C72.9594 86.12 72.5354 86.024 72.1554 85.832C71.7794 85.636 71.5074 85.344 71.3394 84.956L71.5194 84.74V88.904H70.4394ZM73.2234 85.16C73.7474 85.16 74.1554 84.976 74.4474 84.608C74.7434 84.236 74.8914 83.72 74.8914 83.06C74.8914 82.4 74.7434 81.886 74.4474 81.518C74.1554 81.146 73.7474 80.96 73.2234 80.96C72.8994 80.96 72.6034 81.038 72.3354 81.194C72.0714 81.346 71.8594 81.578 71.6994 81.89C71.5394 82.198 71.4594 82.588 71.4594 83.06C71.4594 83.552 71.5394 83.952 71.6994 84.26C71.8594 84.568 72.0714 84.796 72.3354 84.944C72.6034 85.088 72.8994 85.16 73.2234 85.16ZM79.6651 86.12C79.2931 86.12 78.9951 86.052 78.7711 85.916C78.5471 85.78 78.3831 85.606 78.2791 85.394C78.1791 85.178 78.1291 84.952 78.1291 84.716V80.96H77.1211L77.2171 80.12H78.1291V78.668L79.2091 78.56V80.12H80.7571V80.96H79.2091V84.056C79.2091 84.432 79.2311 84.704 79.2751 84.872C79.3191 85.04 79.4271 85.146 79.5991 85.19C79.7751 85.234 80.0571 85.256 80.4451 85.256H80.7211L80.6371 86.12H79.6651Z" fill="#2E394A"/>
</g>
</svg>
