<svg width="107" height="107" viewBox="0 0 107 107" fill="none" xmlns="http://www.w3.org/2000/svg">
<g id="Frame 54">
<rect width="107" height="107" rx="5" fill="#F2D0DD"/>
<path id="Figma" d="M37.2561 89V80.6H42.3801V81.632H38.3961V84.092H41.4681V85.124H38.3961V89H37.2561ZM43.8273 89V83.12H44.9073V89H43.8273ZM43.8273 81.8V80.6H44.9073V81.8H43.8273ZM49.3463 92C48.8103 92 48.3303 91.934 47.9063 91.802C47.4863 91.67 47.1543 91.474 46.9103 91.214C46.6703 90.954 46.5503 90.632 46.5503 90.248C46.5503 89.928 46.6403 89.652 46.8203 89.42C47.0043 89.192 47.2543 89.008 47.5703 88.868C47.3823 88.776 47.2383 88.668 47.1383 88.544C47.0423 88.416 46.9943 88.276 46.9943 88.124C46.9943 87.944 47.0483 87.782 47.1563 87.638C47.2683 87.49 47.4463 87.368 47.6903 87.272C47.3623 87.068 47.1103 86.794 46.9343 86.45C46.7583 86.102 46.6703 85.716 46.6703 85.292C46.6703 84.864 46.7663 84.478 46.9583 84.134C47.1503 83.786 47.4263 83.51 47.7863 83.306C48.1503 83.102 48.5863 83 49.0943 83C49.3663 83 49.6223 83.04 49.8623 83.12C50.1063 83.2 50.3303 83.312 50.5343 83.456C50.7143 83.352 50.9263 83.266 51.1703 83.198C51.4183 83.13 51.6943 83.096 51.9983 83.096C52.0183 83.096 52.0343 83.096 52.0463 83.096C52.0623 83.096 52.0783 83.096 52.0943 83.096L51.9623 83.816C51.9143 83.816 51.8683 83.816 51.8243 83.816C51.7803 83.816 51.7343 83.816 51.6863 83.816C51.6463 83.816 51.5543 83.822 51.4103 83.834C51.2663 83.846 51.1343 83.868 51.0143 83.9C51.1783 84.092 51.3043 84.308 51.3923 84.548C51.4843 84.784 51.5303 85.032 51.5303 85.292C51.5303 85.74 51.4323 86.142 51.2363 86.498C51.0443 86.85 50.7663 87.13 50.4023 87.338C50.0383 87.542 49.6023 87.644 49.0943 87.644C48.9503 87.644 48.8123 87.636 48.6803 87.62C48.5483 87.6 48.4223 87.572 48.3023 87.536C48.1183 87.596 48.0263 87.7 48.0263 87.848C48.0263 87.936 48.0783 88.014 48.1823 88.082C48.2863 88.146 48.4543 88.196 48.6863 88.232L50.2583 88.484C50.8943 88.584 51.3843 88.768 51.7283 89.036C52.0763 89.304 52.2503 89.684 52.2503 90.176C52.2503 90.584 52.1303 90.922 51.8903 91.19C51.6543 91.462 51.3183 91.664 50.8823 91.796C50.4463 91.932 49.9343 92 49.3463 92ZM49.4423 91.04C49.9943 91.04 50.4183 90.968 50.7143 90.824C51.0103 90.684 51.1583 90.476 51.1583 90.2C51.1583 89.984 51.0643 89.814 50.8763 89.69C50.6923 89.566 50.4263 89.472 50.0783 89.408L48.4043 89.126C48.1843 89.222 47.9923 89.35 47.8283 89.51C47.6643 89.674 47.5823 89.864 47.5823 90.08C47.5823 90.416 47.7503 90.66 48.0863 90.812C48.4263 90.964 48.8783 91.04 49.4423 91.04ZM49.0943 86.78C49.5503 86.78 49.8983 86.644 50.1383 86.372C50.3783 86.096 50.4983 85.74 50.4983 85.304C50.4983 84.884 50.3783 84.54 50.1383 84.272C49.8983 84 49.5503 83.864 49.0943 83.864C48.6383 83.864 48.2923 84 48.0563 84.272C47.8203 84.54 47.7023 84.884 47.7023 85.304C47.7023 85.74 47.8203 86.096 48.0563 86.372C48.2923 86.644 48.6383 86.78 49.0943 86.78ZM53.5468 89V83.12H54.3868L54.6028 84.248L54.1948 84.056C54.5628 83.66 54.9208 83.386 55.2688 83.234C55.6168 83.078 55.9828 83 56.3668 83C56.6548 83 56.9308 83.048 57.1948 83.144C57.4628 83.236 57.7028 83.4 57.9148 83.636C58.1308 83.868 58.3028 84.192 58.4308 84.608L58.1308 84.476C58.3068 84.02 58.5768 83.66 58.9408 83.396C59.3048 83.132 59.7948 83 60.4108 83C60.9028 83 61.3168 83.092 61.6528 83.276C61.9888 83.456 62.2408 83.734 62.4088 84.11C62.5808 84.482 62.6668 84.956 62.6668 85.532V89H61.5868V85.544C61.5868 84.992 61.4788 84.59 61.2628 84.338C61.0468 84.086 60.6948 83.96 60.2068 83.96C59.8628 83.96 59.5868 84.014 59.3788 84.122C59.1708 84.226 59.0128 84.362 58.9048 84.53C58.8008 84.698 58.7308 84.876 58.6948 85.064C58.6628 85.252 58.6468 85.428 58.6468 85.592V89H57.5668V85.76C57.5668 85.28 57.5088 84.91 57.3928 84.65C57.2768 84.39 57.1148 84.21 56.9068 84.11C56.6988 84.01 56.4588 83.96 56.1868 83.96C55.7908 83.96 55.4368 84.048 55.1248 84.224C54.8128 84.396 54.6028 84.672 54.4948 85.052L54.6268 84.464V89H53.5468ZM66.0383 89.12C65.6743 89.12 65.3563 89.046 65.0843 88.898C64.8123 88.75 64.6003 88.548 64.4483 88.292C64.3003 88.036 64.2263 87.744 64.2263 87.416C64.2263 87.084 64.2983 86.8 64.4423 86.564C64.5903 86.324 64.7863 86.126 65.0303 85.97C65.2783 85.81 65.5543 85.684 65.8583 85.592C66.1623 85.496 66.4763 85.428 66.8003 85.388C67.1283 85.344 67.4423 85.32 67.7423 85.316C67.7423 84.756 67.6323 84.39 67.4123 84.218C67.1923 84.046 66.8743 83.96 66.4583 83.96C66.2383 83.96 66.0023 83.994 65.7503 84.062C65.5023 84.13 65.2223 84.272 64.9103 84.488L64.7543 83.612C64.9903 83.432 65.2843 83.286 65.6363 83.174C65.9883 83.058 66.3583 83 66.7463 83C67.2423 83 67.6423 83.088 67.9463 83.264C68.2503 83.436 68.4723 83.728 68.6123 84.14C68.7523 84.552 68.8223 85.112 68.8223 85.82V87.02C68.8223 87.3 68.8343 87.532 68.8583 87.716C68.8863 87.896 68.9463 88.032 69.0383 88.124C69.1343 88.212 69.2863 88.256 69.4943 88.256H69.6023L69.4343 89.12H69.3503C69.0023 89.12 68.7323 89.086 68.5403 89.018C68.3523 88.95 68.2083 88.852 68.1083 88.724C68.0083 88.596 67.9183 88.44 67.8383 88.256C67.6183 88.512 67.3583 88.72 67.0583 88.88C66.7583 89.04 66.4183 89.12 66.0383 89.12ZM66.2423 88.256C66.5303 88.256 66.8083 88.184 67.0763 88.04C67.3483 87.896 67.5703 87.704 67.7423 87.464V86.06C67.1703 86.08 66.7063 86.136 66.3503 86.228C65.9983 86.32 65.7403 86.458 65.5763 86.642C65.4123 86.826 65.3303 87.064 65.3303 87.356C65.3303 87.672 65.4143 87.902 65.5823 88.046C65.7543 88.186 65.9743 88.256 66.2423 88.256Z" fill="#2E394A"/>
<g id="figma-svgrepo-com 1">
<path id="Vector" fill-rule="evenodd" clip-rule="evenodd" d="M54 44C54 40.6863 56.6863 38 60 38C63.3137 38 66 40.6863 66 44C66 47.3137 63.3137 50 60 50C56.6863 50 54 47.3137 54 44Z" fill="#1ABCFE"/>
<path id="Vector_2" fill-rule="evenodd" clip-rule="evenodd" d="M42 56C42 52.6863 44.6863 50 48 50H54V56C54 59.3137 51.3137 62 48 62C44.6863 62 42 59.3137 42 56Z" fill="#0ACF83"/>
<path id="Vector_3" fill-rule="evenodd" clip-rule="evenodd" d="M54 26V38H60C63.3137 38 66 35.3137 66 32C66 28.6863 63.3137 26 60 26H54Z" fill="#FF7262"/>
<path id="Vector_4" fill-rule="evenodd" clip-rule="evenodd" d="M42 32C42 35.3137 44.6863 38 48 38H54V26H48C44.6863 26 42 28.6863 42 32Z" fill="#F24E1E"/>
<path id="Vector_5" fill-rule="evenodd" clip-rule="evenodd" d="M42 44C42 47.3137 44.6863 50 48 50H54V38H48C44.6863 38 42 40.6863 42 44Z" fill="#A259FF"/>
</g>
</g>
</svg>
