<svg width="107" height="107" viewBox="0 0 107 107" fill="none" xmlns="http://www.w3.org/2000/svg">
<g id="Frame 46">
<rect width="107" height="107" rx="5" fill="#F2D0DD"/>
<g id="vscode-icons:file-type-css">
<path id="Vector" d="M38.8529 60.8015L35.4839 23H72.5159L69.1424 60.7955L53.9774 65L38.8529 60.8015Z" fill="#1572B6"/>
<path id="Vector_2" d="M54 61.787L66.255 58.3895L69.138 26.0915H54V61.787Z" fill="#33A9DC"/>
<path id="Vector_3" d="M54 39.7865H60.135L60.558 35.039H54V30.4025H65.625L65.514 31.646L64.3755 44.423H54V39.7865Z" fill="white"/>
<path id="Vector_4" d="M54.0284 51.827L54.0074 51.833L48.8444 50.438L48.5144 46.7405H43.8599L44.5094 54.02L54.0059 56.657L54.0284 56.651V51.827Z" fill="#EBEBEB"/>
<path id="Vector_5" d="M59.7407 44.2265L59.1827 50.435L54.0122 51.83V56.654L63.5162 54.02L63.5867 53.237L64.3922 44.2265H59.7407Z" fill="white"/>
<path id="Vector_6" d="M54.0164 30.4025V35.039H42.8174L42.7244 33.9965L42.5129 31.646L42.4019 30.4025H54.0164ZM53.9999 39.7865V44.423H48.9014L48.8084 43.3805L48.5984 41.03L48.4874 39.7865H53.9999Z" fill="#EBEBEB"/>
</g>
<path id="CSS" d="M47.8989 87.168C47.0829 87.168 46.3549 86.99 45.7149 86.634C45.0789 86.274 44.5769 85.768 44.2089 85.116C43.8449 84.46 43.6629 83.688 43.6629 82.8C43.6629 81.912 43.8469 81.142 44.2149 80.49C44.5869 79.834 45.0949 79.328 45.7389 78.972C46.3869 78.612 47.1229 78.432 47.9469 78.432C48.3749 78.432 48.7829 78.478 49.1709 78.57C49.5589 78.662 49.8989 78.78 50.1909 78.924L50.0709 79.98C49.7709 79.836 49.4409 79.714 49.0809 79.614C48.7209 79.514 48.3389 79.464 47.9349 79.464C47.2749 79.464 46.7209 79.614 46.2729 79.914C45.8249 80.21 45.4849 80.61 45.2529 81.114C45.0249 81.618 44.9109 82.18 44.9109 82.8C44.9109 83.42 45.0229 83.982 45.2469 84.486C45.4749 84.99 45.8109 85.392 46.2549 85.692C46.7029 85.988 47.2549 86.136 47.9109 86.136C48.3269 86.136 48.7109 86.092 49.0629 86.004C49.4189 85.912 49.7549 85.788 50.0709 85.632L50.1909 86.688C49.8909 86.824 49.5529 86.938 49.1769 87.03C48.8009 87.122 48.3749 87.168 47.8989 87.168ZM54.5495 87.168C54.2015 87.168 53.8535 87.142 53.5055 87.09C53.1575 87.038 52.8355 86.972 52.5395 86.892C52.2435 86.808 51.9975 86.72 51.8015 86.628L51.9575 85.416C52.1735 85.52 52.4335 85.628 52.7375 85.74C53.0455 85.852 53.3775 85.946 53.7335 86.022C54.0895 86.098 54.4495 86.136 54.8135 86.136C55.3535 86.136 55.7815 86.038 56.0975 85.842C56.4175 85.642 56.5775 85.332 56.5775 84.912C56.5775 84.596 56.4975 84.338 56.3375 84.138C56.1775 83.934 55.9355 83.76 55.6115 83.616C55.2915 83.472 54.8895 83.328 54.4055 83.184C53.9455 83.048 53.5215 82.888 53.1335 82.704C52.7455 82.516 52.4335 82.266 52.1975 81.954C51.9655 81.638 51.8495 81.22 51.8495 80.7C51.8495 80.256 51.9635 79.864 52.1915 79.524C52.4235 79.18 52.7615 78.912 53.2055 78.72C53.6535 78.528 54.2015 78.432 54.8495 78.432C55.4015 78.432 55.9075 78.492 56.3675 78.612C56.8315 78.732 57.2135 78.864 57.5135 79.008L57.3935 80.22C56.9375 79.948 56.5015 79.754 56.0855 79.638C55.6735 79.522 55.2455 79.464 54.8015 79.464C54.3095 79.464 53.9015 79.556 53.5775 79.74C53.2575 79.924 53.0975 80.224 53.0975 80.64C53.0975 80.92 53.1695 81.15 53.3135 81.33C53.4575 81.506 53.6715 81.658 53.9555 81.786C54.2395 81.91 54.5935 82.036 55.0175 82.164C55.6015 82.34 56.1035 82.542 56.5235 82.77C56.9435 82.994 57.2655 83.272 57.4895 83.604C57.7135 83.932 57.8255 84.34 57.8255 84.828C57.8255 85.188 57.7575 85.512 57.6215 85.8C57.4855 86.088 57.2815 86.334 57.0095 86.538C56.7375 86.742 56.3955 86.898 55.9835 87.006C55.5755 87.114 55.0975 87.168 54.5495 87.168ZM62.1573 87.168C61.8093 87.168 61.4613 87.142 61.1133 87.09C60.7653 87.038 60.4433 86.972 60.1473 86.892C59.8513 86.808 59.6053 86.72 59.4093 86.628L59.5653 85.416C59.7813 85.52 60.0413 85.628 60.3453 85.74C60.6533 85.852 60.9853 85.946 61.3413 86.022C61.6973 86.098 62.0573 86.136 62.4213 86.136C62.9613 86.136 63.3893 86.038 63.7053 85.842C64.0253 85.642 64.1853 85.332 64.1853 84.912C64.1853 84.596 64.1053 84.338 63.9453 84.138C63.7853 83.934 63.5433 83.76 63.2193 83.616C62.8993 83.472 62.4973 83.328 62.0133 83.184C61.5533 83.048 61.1293 82.888 60.7413 82.704C60.3533 82.516 60.0413 82.266 59.8053 81.954C59.5733 81.638 59.4573 81.22 59.4573 80.7C59.4573 80.256 59.5713 79.864 59.7993 79.524C60.0313 79.18 60.3693 78.912 60.8133 78.72C61.2613 78.528 61.8093 78.432 62.4573 78.432C63.0093 78.432 63.5153 78.492 63.9753 78.612C64.4393 78.732 64.8213 78.864 65.1213 79.008L65.0013 80.22C64.5453 79.948 64.1093 79.754 63.6933 79.638C63.2813 79.522 62.8533 79.464 62.4093 79.464C61.9173 79.464 61.5093 79.556 61.1853 79.74C60.8653 79.924 60.7053 80.224 60.7053 80.64C60.7053 80.92 60.7773 81.15 60.9213 81.33C61.0653 81.506 61.2793 81.658 61.5633 81.786C61.8473 81.91 62.2013 82.036 62.6253 82.164C63.2093 82.34 63.7113 82.542 64.1313 82.77C64.5513 82.994 64.8733 83.272 65.0973 83.604C65.3213 83.932 65.4333 84.34 65.4333 84.828C65.4333 85.188 65.3653 85.512 65.2293 85.8C65.0933 86.088 64.8893 86.334 64.6173 86.538C64.3453 86.742 64.0033 86.898 63.5913 87.006C63.1833 87.114 62.7053 87.168 62.1573 87.168Z" fill="#2E394A"/>
</g>
</svg>
