<svg width="107" height="107" viewBox="0 0 107 107" fill="none" xmlns="http://www.w3.org/2000/svg">
<g id="Frame 51">
<rect width="107" height="107" rx="5" fill="#F2D0DD"/>
<g id="vscode-icons:file-type-pgsql">
<path id="Vector" d="M74.2606 48.1595C74.1339 47.7908 73.9056 47.4655 73.602 47.2211C73.2983 46.9766 72.9318 46.823 72.5446 46.778C72.0871 46.723 71.6236 46.7489 71.1751 46.8545C70.4814 47.0077 69.7758 47.1005 69.0661 47.132C70.9639 43.9301 72.4134 40.4829 73.3741 36.887C74.8036 31.3535 74.0401 28.8335 73.1476 27.692C71.9624 26.1925 70.4455 24.9884 68.7162 24.1742C66.987 23.3601 65.0924 22.9581 63.1816 23C61.4286 22.9835 59.683 23.2282 58.0021 23.726C57.0009 23.5543 55.9878 23.462 54.9721 23.45C53.1259 23.3799 51.2973 23.8305 49.6951 24.7505C48.48 24.3396 47.234 24.0266 45.9691 23.8145C44.4945 23.4607 42.9646 23.401 41.4669 23.6389C39.9692 23.8767 38.5331 24.4073 37.2406 25.2005C34.6396 27.0365 33.4336 30.2285 33.6571 34.688C34.0573 38.0148 34.7632 41.2977 35.7661 44.495C36.3436 46.4921 37.1038 48.4318 38.0371 50.2895C38.7263 51.9841 40.0365 53.3518 41.7001 54.113C42.3099 54.3139 42.9623 54.3481 43.5897 54.212C44.2172 54.0759 44.7968 53.7745 45.2686 53.339C45.4827 53.5925 45.7359 53.8102 46.0186 53.984C46.4568 54.2559 46.9344 54.4583 47.4346 54.584C49.0717 55.04 50.8145 54.9344 52.3846 54.284C52.3936 54.5405 52.4011 54.7865 52.4056 54.9995C52.4146 55.343 52.4251 55.6805 52.4371 55.997C52.4193 57.6701 52.6421 59.3372 53.0986 60.947C53.1226 61.0115 53.1541 61.1075 53.1871 61.211C53.4506 62.1962 53.9624 63.0975 54.6736 63.8285C55.5263 64.6115 56.6515 65.0298 57.8086 64.994C58.3015 64.9908 58.7926 64.936 59.2741 64.8305C60.1867 64.7159 61.0672 64.4197 61.8635 63.9593C62.6598 63.4989 63.3559 62.8837 63.9106 62.15C65.1271 60.4175 65.7196 57.809 65.8261 53.6975L65.8651 53.3645L65.8906 53.147L66.1771 53.1725H66.2506C67.8727 53.2412 69.4906 52.9609 70.9951 52.3505C71.9416 51.911 74.9761 50.309 74.2606 48.1505" fill="black"/>
<path id="Vector_2" d="M71.5335 48.5795C66.789 49.5575 66.4635 47.9525 66.4635 47.9525C71.472 40.52 73.566 31.085 71.7585 28.7765C66.8295 22.4765 58.296 25.457 58.1535 25.5335L58.107 25.5425C57.0647 25.3333 56.005 25.2228 54.942 25.2125C53.1493 25.1225 51.3803 25.6522 49.932 26.7125C49.932 26.7125 34.71 20.441 35.418 34.5995C35.568 37.6115 39.735 57.3905 44.7045 51.416C46.521 49.232 48.276 47.384 48.276 47.384C49.1599 47.9805 50.2233 48.252 51.285 48.152L51.3705 48.08C51.3454 48.3638 51.357 48.6496 51.405 48.9305C50.124 50.3615 50.505 50.612 47.9415 51.1385C45.3525 51.6725 46.8735 52.622 47.8665 52.871C48.9215 53.2123 50.0574 53.2115 51.112 52.8689C52.1666 52.5262 53.086 51.8592 53.739 50.963L53.664 51.263C54.165 51.665 54.5175 53.876 54.459 55.8815C54.2954 57.373 54.397 58.8818 54.759 60.338C55.155 61.4135 55.548 63.8315 58.9125 63.1115C60.1089 62.9933 61.2217 62.4446 62.0439 61.5675C62.8661 60.6904 63.3418 59.5445 63.3825 58.343C63.5325 56.492 63.852 56.765 63.8715 55.1105L64.1325 54.3275C64.4325 51.818 64.1805 51.008 65.9115 51.3845L66.333 51.422C67.6722 51.4782 69.0084 51.2534 70.2555 50.762C72.3645 49.784 73.614 48.149 71.535 48.5795" fill="#336791"/>
<path id="Vector_3" d="M50.8231 35.9465C50.479 35.8741 50.1204 35.9273 49.8121 36.0965C49.7719 36.1254 49.738 36.162 49.7122 36.2043C49.6865 36.2465 49.6694 36.2935 49.6621 36.3425C49.6621 36.5154 49.7244 36.6826 49.8376 36.8135C50.0389 37.0899 50.3394 37.2775 50.6761 37.337C50.7208 37.3431 50.766 37.3462 50.8111 37.346C51.034 37.3489 51.2523 37.2832 51.4366 37.1579C51.6209 37.0326 51.7623 36.8537 51.8416 36.6455C51.8941 36.2735 51.3526 36.0245 50.8276 35.951L50.8231 35.9465ZM64.9906 35.963C64.9501 35.6705 64.4296 35.588 63.9406 35.663C63.4516 35.738 62.9701 35.954 63.0106 36.2465C63.0869 36.43 63.2161 36.5866 63.3817 36.6964C63.5473 36.8062 63.7419 36.8642 63.9406 36.863C63.9823 36.8629 64.0239 36.8599 64.0651 36.854C64.3252 36.8083 64.563 36.678 64.7416 36.4835C64.8909 36.3523 64.9821 36.1673 64.9951 35.969" fill="white"/>
<path id="Vector_4" d="M73.1116 48.4685C72.9301 47.921 72.3481 47.7455 71.3806 47.945C68.5081 48.545 67.4806 48.1265 67.1416 47.879C69.4163 44.3872 71.1239 40.5573 72.2011 36.5315C72.6371 34.9391 72.8888 33.3019 72.9511 31.652C73.0667 30.498 72.7984 29.338 72.1876 28.352C71.1065 26.9914 69.7243 25.9005 68.1497 25.1651C66.5752 24.4298 64.8513 24.0701 63.1141 24.1145C61.3296 24.0866 59.5537 24.3662 57.8641 24.941C56.8978 24.7026 55.9074 24.5752 54.9121 24.5615C53.1216 24.4828 51.3517 24.9704 49.8541 25.955C48.521 25.4676 47.1449 25.107 45.7441 24.878C43.0663 24.23 40.2411 24.6639 37.8811 26.0855C35.6311 27.6815 34.5811 30.5345 34.7896 34.565C35.1836 37.7953 35.873 40.9826 36.8491 44.087C38.4541 49.3445 40.1986 52.322 42.0346 52.937C42.272 53.017 42.5207 53.058 42.7711 53.0585C43.2372 53.0296 43.6906 52.895 44.0968 52.6647C44.503 52.4344 44.8515 52.1146 45.1156 51.7295C46.1576 50.4795 47.2351 49.2605 48.3481 48.0725C49.0636 48.4597 49.8599 48.674 50.6731 48.698V48.761C50.5331 48.927 50.3966 49.096 50.2636 49.268C49.7011 49.9805 49.5856 50.129 47.7766 50.5025C47.2621 50.609 45.8956 50.891 45.8761 51.8525C45.8551 52.9025 47.4916 53.339 47.6761 53.3855C48.2883 53.5429 48.9175 53.6245 49.5496 53.6285C50.9321 53.654 52.2725 53.1532 53.2996 52.2275C53.1462 55.0821 53.3381 57.9449 53.8711 60.7535C54.1174 61.6527 54.6504 62.4469 55.3893 63.0154C56.1281 63.584 57.0324 63.8958 57.9646 63.9035C58.4271 63.9021 58.8882 63.8518 59.3401 63.7535C60.5741 63.6469 61.7294 63.1028 62.5975 62.2193C63.4656 61.3358 63.9893 60.1712 64.0741 58.9355C64.3396 57.3965 64.7956 53.723 65.0101 51.752C65.5522 51.901 66.1131 51.9702 66.6751 51.9575C67.9696 51.9668 69.2533 51.7222 70.4536 51.2375C71.5216 50.741 73.4536 49.526 73.0981 48.4685H73.1116ZM66.0766 35.15C66.0574 35.7069 65.9993 36.2617 65.9026 36.8105C65.7911 37.4554 65.721 38.1067 65.6926 38.7605C65.6875 39.4982 65.7377 40.2353 65.8426 40.9655C66.1666 42.4601 66.0472 44.0168 65.4991 45.4445C65.3827 45.238 65.279 45.0246 65.1886 44.8055C65.1016 44.594 64.9111 44.2535 64.6501 43.784C63.6301 41.954 61.2391 37.667 62.4631 35.918C62.8276 35.3975 63.7531 34.868 66.0751 35.15H66.0766ZM63.2611 25.2965C64.7965 25.2651 66.3182 25.5904 67.7066 26.2469C69.095 26.9033 70.312 27.8729 71.2621 29.0795C72.7246 30.947 71.1121 39.4475 66.4546 46.7795L66.3136 46.601L66.2551 46.5275C67.1804 44.779 67.4496 42.7572 67.0141 40.8275C66.9138 40.1562 66.8637 39.4783 66.8641 38.7995C66.8913 38.193 66.9569 37.5887 67.0606 36.9905C67.1956 36.2519 67.2574 35.5018 67.2451 34.751C67.2695 34.6479 67.2761 34.5413 67.2646 34.436C66.7676 32.4274 65.7824 30.5725 64.3966 29.036C63.1514 27.5686 61.5939 26.3981 59.8381 25.61C60.9625 25.3755 62.1097 25.2679 63.2581 25.289L63.2611 25.2965ZM44.2186 50.981C43.2781 52.112 42.6271 51.896 42.4186 51.824C41.0266 51.359 39.4096 48.416 37.9861 43.748C37.0409 40.7349 36.3682 37.643 35.9761 34.5095C35.7961 30.9095 36.6691 28.3985 38.5711 27.0485C41.6656 24.854 46.7551 26.168 48.7996 26.834C48.7696 26.8625 48.7396 26.8895 48.7111 26.9195C45.3556 30.308 45.4351 36.098 45.4441 36.452C45.4441 36.5885 45.4546 36.782 45.4711 37.052C45.5941 38.665 45.5534 40.2862 45.3496 41.891C45.2102 42.8099 45.2818 43.7484 45.5591 44.6354C45.8364 45.5225 46.3121 46.3347 46.9501 47.0105C47.0831 47.1485 47.2221 47.2795 47.3671 47.4035C46.2833 48.5658 45.2329 49.7588 44.2171 50.981H44.2186ZM47.8036 46.196C47.2863 45.6491 46.9006 44.9914 46.6757 44.2729C46.4509 43.5545 46.3929 42.7942 46.5061 42.05C46.7211 40.3683 46.7648 38.6691 46.6366 36.9785C46.6287 36.8571 46.6217 36.7356 46.6156 36.614C47.8721 35.667 49.4315 35.2119 51.0001 35.3345C51.361 35.4163 51.6875 35.6084 51.9343 35.8842C52.181 36.16 52.3358 36.5058 52.3771 36.8735C53.3461 41.357 52.5046 43.2245 51.8296 44.726C51.6901 45.035 51.5581 45.326 51.4471 45.626L51.3601 45.86C51.1445 46.4035 50.9602 46.9589 50.8081 47.5235C50.2442 47.5155 49.6877 47.3935 49.1721 47.1648C48.6566 46.9362 48.1926 46.6056 47.8081 46.193L47.8036 46.196ZM47.9731 52.241C47.6948 52.1725 47.4297 52.0585 47.1886 51.9035C47.4567 51.789 47.737 51.7054 48.0241 51.6545C50.1511 51.2165 50.4796 50.9045 51.1981 49.997C51.3631 49.7885 51.5491 49.547 51.8071 49.2635C52.1911 48.833 52.3681 48.9065 52.6861 49.0385C52.837 49.1204 52.9692 49.2327 53.0745 49.3682C53.1799 49.5037 53.256 49.6596 53.2981 49.826C53.34 49.9468 53.355 50.0753 53.3421 50.2025C53.3291 50.3298 53.2885 50.4526 53.2231 50.5625C52.6416 51.3654 51.8187 51.9615 50.8745 52.2638C49.9304 52.566 48.9143 52.5585 47.9746 52.2425L47.9731 52.241ZM59.1091 62.6C58.6882 62.7464 58.241 62.8023 57.797 62.7641C57.353 62.726 56.9219 62.5946 56.5321 62.3786C56.1423 62.1626 55.8024 61.8668 55.5346 61.5105C55.2668 61.1543 55.0772 60.7455 54.9781 60.311C54.4499 56.9115 54.299 53.4641 54.5281 50.0315C54.5296 49.9685 54.521 49.9057 54.5026 49.8455C54.4869 49.7289 54.4628 49.6136 54.4306 49.5005C54.3418 49.1631 54.1799 48.8493 53.9565 48.5813C53.7331 48.3133 53.4535 48.0976 53.1376 47.9495C52.7693 47.7669 52.3502 47.714 51.9481 47.7995C52.0902 47.2793 52.2615 46.7675 52.4611 46.2665L52.5481 46.031C52.6471 45.7655 52.7701 45.491 52.9006 45.2C53.6071 43.6295 54.5761 41.477 53.5246 36.617C53.4581 36.2036 53.3075 35.8082 53.0823 35.4552C52.8571 35.1022 52.562 34.7991 52.2151 34.5645C51.8683 34.3299 51.477 34.1689 51.0656 34.0913C50.6541 34.0138 50.2311 34.0213 49.8226 34.1135C48.8346 34.2417 47.8767 34.5417 46.9921 35C46.8751 35.06 46.7671 35.117 46.6681 35.1725C46.7816 32.4469 47.7931 29.8354 49.5451 27.7445C50.2488 27.0558 51.0887 26.5218 52.0109 26.1767C52.9331 25.8316 53.9172 25.683 54.9001 25.7405C56.5607 25.7549 58.1979 26.1335 59.6962 26.8496C61.1945 27.5657 62.5174 28.6019 63.5716 29.885C64.6005 31.0864 65.4043 32.4634 65.9446 33.95C63.7501 33.7265 62.2576 34.16 61.5016 35.2415C59.8516 37.5935 62.4016 42.1595 63.6256 44.354C63.8506 44.756 64.0441 45.104 64.1041 45.254C64.4274 46.0086 64.8628 46.71 65.3956 47.3345C65.5111 47.4845 65.6236 47.618 65.7076 47.741C65.0431 47.933 63.8491 48.3755 63.9586 50.591C63.8716 51.701 63.2476 56.8985 62.9296 58.736C62.5111 61.1615 61.6186 62.066 59.1076 62.6045L59.1091 62.6ZM69.9721 50.168C69.0487 50.5344 68.0686 50.7374 67.0756 50.768C66.4149 50.8653 65.7402 50.7786 65.1256 50.5175C65.0581 49.139 65.5756 48.995 66.1156 48.842C66.2011 48.818 66.2836 48.794 66.3646 48.767C66.4176 48.8097 66.4726 48.8498 66.5296 48.887C67.4881 49.52 69.1996 49.5875 71.6146 49.0895H71.6416C71.1424 49.5334 70.5778 49.8976 69.9676 50.1695L69.9721 50.168Z" fill="white"/>
</g>
<path id="PostgreSQL" d="M21.178 89V80.6H23.95C24.514 80.6 25.01 80.69 25.438 80.87C25.866 81.05 26.198 81.34 26.434 81.74C26.674 82.14 26.794 82.668 26.794 83.324C26.794 83.968 26.674 84.492 26.434 84.896C26.198 85.296 25.866 85.59 25.438 85.778C25.01 85.966 24.514 86.06 23.95 86.06H22.378V89H21.178ZM22.378 85.04H23.782C24.394 85.04 24.852 84.902 25.156 84.626C25.464 84.346 25.618 83.916 25.618 83.336C25.618 82.752 25.472 82.32 25.18 82.04C24.892 81.76 24.426 81.62 23.782 81.62H22.378V85.04ZM30.8328 89.12C30.2168 89.12 29.6908 88.984 29.2548 88.712C28.8228 88.436 28.4908 88.068 28.2588 87.608C28.0308 87.144 27.9168 86.628 27.9168 86.06C27.9168 85.492 28.0308 84.978 28.2588 84.518C28.4908 84.054 28.8228 83.686 29.2548 83.414C29.6908 83.138 30.2168 83 30.8328 83C31.4448 83 31.9688 83.138 32.4048 83.414C32.8408 83.686 33.1728 84.054 33.4008 84.518C33.6328 84.978 33.7488 85.492 33.7488 86.06C33.7488 86.628 33.6328 87.144 33.4008 87.608C33.1728 88.068 32.8408 88.436 32.4048 88.712C31.9688 88.984 31.4448 89.12 30.8328 89.12ZM30.8328 88.16C31.4168 88.16 31.8648 87.976 32.1768 87.608C32.4888 87.236 32.6448 86.72 32.6448 86.06C32.6448 85.4 32.4888 84.886 32.1768 84.518C31.8648 84.146 31.4168 83.96 30.8328 83.96C30.2528 83.96 29.8048 84.146 29.4888 84.518C29.1768 84.886 29.0208 85.4 29.0208 86.06C29.0208 86.72 29.1768 87.236 29.4888 87.608C29.8048 87.976 30.2528 88.16 30.8328 88.16ZM37.1305 89.12C36.6105 89.12 36.1785 89.058 35.8345 88.934C35.4945 88.81 35.2545 88.7 35.1145 88.604L35.2465 87.56C35.3745 87.672 35.6005 87.8 35.9245 87.944C36.2485 88.088 36.6345 88.16 37.0825 88.16C37.4625 88.16 37.7525 88.096 37.9525 87.968C38.1565 87.84 38.2585 87.66 38.2585 87.428C38.2585 87.224 38.1925 87.06 38.0605 86.936C37.9325 86.808 37.7765 86.708 37.5925 86.636C37.4125 86.56 37.2425 86.5 37.0825 86.456C36.8145 86.384 36.5365 86.294 36.2485 86.186C35.9645 86.074 35.7245 85.908 35.5285 85.688C35.3325 85.468 35.2345 85.16 35.2345 84.764C35.2345 84.464 35.3065 84.18 35.4505 83.912C35.5945 83.64 35.8285 83.42 36.1525 83.252C36.4765 83.084 36.9065 83 37.4425 83C37.8345 83 38.1525 83.042 38.3965 83.126C38.6445 83.206 38.8585 83.292 39.0385 83.384L38.9065 84.368C38.7345 84.224 38.5345 84.102 38.3065 84.002C38.0785 83.902 37.7985 83.852 37.4665 83.852C37.1305 83.852 36.8565 83.916 36.6445 84.044C36.4325 84.168 36.3265 84.368 36.3265 84.644C36.3265 84.92 36.4385 85.116 36.6625 85.232C36.8905 85.348 37.2345 85.476 37.6945 85.616C37.8385 85.656 38.0045 85.714 38.1925 85.79C38.3845 85.866 38.5705 85.968 38.7505 86.096C38.9305 86.224 39.0785 86.392 39.1945 86.6C39.3145 86.804 39.3745 87.06 39.3745 87.368C39.3745 87.628 39.3125 87.894 39.1885 88.166C39.0645 88.434 38.8405 88.66 38.5165 88.844C38.1925 89.028 37.7305 89.12 37.1305 89.12ZM43.0592 89.12C42.6872 89.12 42.3892 89.052 42.1652 88.916C41.9412 88.78 41.7772 88.606 41.6732 88.394C41.5732 88.178 41.5232 87.952 41.5232 87.716V83.96H40.5152L40.6112 83.12H41.5232V81.668L42.6032 81.56V83.12H44.1512V83.96H42.6032V87.056C42.6032 87.432 42.6252 87.704 42.6692 87.872C42.7132 88.04 42.8212 88.146 42.9932 88.19C43.1692 88.234 43.4512 88.256 43.8392 88.256H44.1152L44.0312 89.12H43.0592ZM48.0502 92C47.5142 92 47.0342 91.934 46.6102 91.802C46.1902 91.67 45.8582 91.474 45.6142 91.214C45.3742 90.954 45.2542 90.632 45.2542 90.248C45.2542 89.928 45.3442 89.652 45.5242 89.42C45.7082 89.192 45.9582 89.008 46.2742 88.868C46.0862 88.776 45.9422 88.668 45.8422 88.544C45.7462 88.416 45.6982 88.276 45.6982 88.124C45.6982 87.944 45.7522 87.782 45.8602 87.638C45.9722 87.49 46.1502 87.368 46.3942 87.272C46.0662 87.068 45.8142 86.794 45.6382 86.45C45.4622 86.102 45.3742 85.716 45.3742 85.292C45.3742 84.864 45.4702 84.478 45.6622 84.134C45.8542 83.786 46.1302 83.51 46.4902 83.306C46.8542 83.102 47.2902 83 47.7982 83C48.0702 83 48.3262 83.04 48.5662 83.12C48.8102 83.2 49.0342 83.312 49.2382 83.456C49.4182 83.352 49.6302 83.266 49.8742 83.198C50.1222 83.13 50.3982 83.096 50.7022 83.096C50.7222 83.096 50.7382 83.096 50.7502 83.096C50.7662 83.096 50.7822 83.096 50.7982 83.096L50.6662 83.816C50.6182 83.816 50.5722 83.816 50.5282 83.816C50.4842 83.816 50.4382 83.816 50.3902 83.816C50.3502 83.816 50.2582 83.822 50.1142 83.834C49.9702 83.846 49.8382 83.868 49.7182 83.9C49.8822 84.092 50.0082 84.308 50.0962 84.548C50.1882 84.784 50.2342 85.032 50.2342 85.292C50.2342 85.74 50.1362 86.142 49.9402 86.498C49.7482 86.85 49.4702 87.13 49.1062 87.338C48.7422 87.542 48.3062 87.644 47.7982 87.644C47.6542 87.644 47.5162 87.636 47.3842 87.62C47.2522 87.6 47.1262 87.572 47.0062 87.536C46.8222 87.596 46.7302 87.7 46.7302 87.848C46.7302 87.936 46.7822 88.014 46.8862 88.082C46.9902 88.146 47.1582 88.196 47.3902 88.232L48.9622 88.484C49.5982 88.584 50.0882 88.768 50.4322 89.036C50.7802 89.304 50.9542 89.684 50.9542 90.176C50.9542 90.584 50.8342 90.922 50.5942 91.19C50.3582 91.462 50.0222 91.664 49.5862 91.796C49.1502 91.932 48.6382 92 48.0502 92ZM48.1462 91.04C48.6982 91.04 49.1222 90.968 49.4182 90.824C49.7142 90.684 49.8622 90.476 49.8622 90.2C49.8622 89.984 49.7682 89.814 49.5802 89.69C49.3962 89.566 49.1302 89.472 48.7822 89.408L47.1082 89.126C46.8882 89.222 46.6962 89.35 46.5322 89.51C46.3682 89.674 46.2862 89.864 46.2862 90.08C46.2862 90.416 46.4542 90.66 46.7902 90.812C47.1302 90.964 47.5822 91.04 48.1462 91.04ZM47.7982 86.78C48.2542 86.78 48.6022 86.644 48.8422 86.372C49.0822 86.096 49.2022 85.74 49.2022 85.304C49.2022 84.884 49.0822 84.54 48.8422 84.272C48.6022 84 48.2542 83.864 47.7982 83.864C47.3422 83.864 46.9962 84 46.7602 84.272C46.5242 84.54 46.4062 84.884 46.4062 85.304C46.4062 85.74 46.5242 86.096 46.7602 86.372C46.9962 86.644 47.3422 86.78 47.7982 86.78ZM52.2507 89V83.12H53.1387L53.2707 84.092C53.5707 83.72 53.8567 83.446 54.1287 83.27C54.4047 83.09 54.6987 83 55.0107 83C55.1107 83 55.2027 83.012 55.2867 83.036L55.1787 84.224C55.1267 84.212 55.0707 84.204 55.0107 84.2C54.9547 84.192 54.8907 84.188 54.8187 84.188C54.5067 84.188 54.2187 84.258 53.9547 84.398C53.6947 84.534 53.5107 84.684 53.4027 84.848V89H52.2507ZM59.3153 89.12C58.6233 89.12 58.0413 88.978 57.5693 88.694C57.0973 88.41 56.7393 88.034 56.4953 87.566C56.2553 87.094 56.1353 86.576 56.1353 86.012C56.1353 85.464 56.2473 84.962 56.4713 84.506C56.6993 84.05 57.0273 83.686 57.4553 83.414C57.8873 83.138 58.4073 83 59.0153 83C59.5033 83 59.9373 83.098 60.3173 83.294C60.7013 83.486 61.0013 83.768 61.2173 84.14C61.4373 84.508 61.5473 84.956 61.5473 85.484C61.5473 85.568 61.5433 85.66 61.5353 85.76C61.5313 85.856 61.5193 85.956 61.4993 86.06H57.2393C57.2913 86.604 57.4213 87.028 57.6293 87.332C57.8373 87.636 58.0993 87.85 58.4153 87.974C58.7313 88.098 59.0753 88.16 59.4473 88.16C59.7193 88.16 60.0033 88.132 60.2993 88.076C60.5953 88.02 60.8753 87.932 61.1393 87.812L61.2833 88.664C61.0553 88.764 60.7773 88.866 60.4493 88.97C60.1213 89.07 59.7433 89.12 59.3153 89.12ZM57.3353 85.316H60.4313C60.4313 85.04 60.3793 84.8 60.2753 84.596C60.1713 84.392 60.0133 84.236 59.8013 84.128C59.5893 84.016 59.3193 83.96 58.9913 83.96C58.5113 83.96 58.1413 84.08 57.8813 84.32C57.6253 84.556 57.4433 84.888 57.3353 85.316ZM65.6881 89.168C65.3401 89.168 64.9921 89.142 64.6441 89.09C64.2961 89.038 63.9741 88.972 63.6781 88.892C63.3821 88.808 63.1361 88.72 62.9401 88.628L63.0961 87.416C63.3121 87.52 63.5721 87.628 63.8761 87.74C64.1841 87.852 64.5161 87.946 64.8721 88.022C65.2281 88.098 65.5881 88.136 65.9521 88.136C66.4921 88.136 66.9201 88.038 67.2361 87.842C67.5561 87.642 67.7161 87.332 67.7161 86.912C67.7161 86.596 67.6361 86.338 67.4761 86.138C67.3161 85.934 67.0741 85.76 66.7501 85.616C66.4301 85.472 66.0281 85.328 65.5441 85.184C65.0841 85.048 64.6601 84.888 64.2721 84.704C63.8841 84.516 63.5721 84.266 63.3361 83.954C63.1041 83.638 62.9881 83.22 62.9881 82.7C62.9881 82.256 63.1021 81.864 63.3301 81.524C63.5621 81.18 63.9001 80.912 64.3441 80.72C64.7921 80.528 65.3401 80.432 65.9881 80.432C66.5401 80.432 67.0461 80.492 67.5061 80.612C67.9701 80.732 68.3521 80.864 68.6521 81.008L68.5321 82.22C68.0761 81.948 67.6401 81.754 67.2241 81.638C66.8121 81.522 66.3841 81.464 65.9401 81.464C65.4481 81.464 65.0401 81.556 64.7161 81.74C64.3961 81.924 64.2361 82.224 64.2361 82.64C64.2361 82.92 64.3081 83.15 64.4521 83.33C64.5961 83.506 64.8101 83.658 65.0941 83.786C65.3781 83.91 65.7321 84.036 66.1561 84.164C66.7401 84.34 67.2421 84.542 67.6621 84.77C68.0821 84.994 68.4041 85.272 68.6281 85.604C68.8521 85.932 68.9641 86.34 68.9641 86.828C68.9641 87.188 68.8961 87.512 68.7601 87.8C68.6241 88.088 68.4201 88.334 68.1481 88.538C67.8761 88.742 67.5341 88.898 67.1221 89.006C66.7141 89.114 66.2361 89.168 65.6881 89.168ZM75.2279 86.576L75.8759 85.916L78.5159 88.508L77.8679 89.168L75.2279 86.576ZM74.5559 89.168C73.7559 89.168 73.0439 88.99 72.4199 88.634C71.7959 88.274 71.3059 87.768 70.9499 87.116C70.5939 86.46 70.4159 85.688 70.4159 84.8C70.4159 83.912 70.5939 83.142 70.9499 82.49C71.3059 81.834 71.7959 81.328 72.4199 80.972C73.0439 80.612 73.7559 80.432 74.5559 80.432C75.3559 80.432 76.0679 80.612 76.6919 80.972C77.3159 81.328 77.8059 81.834 78.1619 82.49C78.5179 83.142 78.6959 83.912 78.6959 84.8C78.6959 85.688 78.5179 86.46 78.1619 87.116C77.8059 87.768 77.3159 88.274 76.6919 88.634C76.0679 88.99 75.3559 89.168 74.5559 89.168ZM74.5559 88.064C75.1999 88.064 75.7379 87.92 76.1699 87.632C76.6019 87.34 76.9259 86.948 77.1419 86.456C77.3619 85.96 77.4719 85.408 77.4719 84.8C77.4719 84.192 77.3619 83.642 77.1419 83.15C76.9259 82.654 76.6019 82.262 76.1699 81.974C75.7379 81.682 75.1999 81.536 74.5559 81.536C73.9119 81.536 73.3739 81.682 72.9419 81.974C72.5099 82.262 72.1839 82.654 71.9639 83.15C71.7479 83.642 71.6399 84.192 71.6399 84.8C71.6399 85.408 71.7479 85.96 71.9639 86.456C72.1839 86.948 72.5099 87.34 72.9419 87.632C73.3739 87.92 73.9119 88.064 74.5559 88.064ZM80.7303 89V80.6H81.8703V87.968H85.7223V89H80.7303Z" fill="#2E394A"/>
</g>
</svg>
