<svg width="107" height="107" viewBox="0 0 107 107" fill="none" xmlns="http://www.w3.org/2000/svg">
<g id="Frame 48">
<rect width="107" height="107" rx="5" fill="#F2D0DD"/>
<g id="logos:java" clip-path="url(#clip0_950_821)">
<path id="Vector" d="M42.9003 57.1061C42.9003 57.1061 40.8385 58.1708 44.3678 58.5311C48.6435 58.9642 50.8286 58.9022 55.5405 58.1102C55.5405 58.1102 56.7794 58.8 58.5093 59.3975C47.9467 63.4174 34.6038 59.1646 42.9003 57.1061ZM41.6096 51.8602C41.6096 51.8602 39.297 53.3804 42.8289 53.7048C47.3964 54.1232 51.0033 54.1574 57.2448 53.0902C57.2448 53.0902 58.1081 53.8674 59.4656 54.2924C46.6946 57.6086 32.4701 54.5539 41.6096 51.8602Z" fill="#68AFDE"/>
<path id="Vector_2" d="M52.4907 42.9616C55.0934 45.6224 51.8069 48.0169 51.8069 48.0169C51.8069 48.0169 58.4154 44.9875 55.3804 41.1938C52.5459 37.6562 50.372 35.8983 62.14 29.8378C62.14 29.8378 43.6682 33.9344 52.4907 42.9615" fill="#E76F00"/>
<path id="Vector_3" d="M66.4607 60.9861C66.4607 60.9861 67.9865 62.1025 64.7802 62.9662C58.6833 64.6064 39.4041 65.1017 34.0484 63.0315C32.1232 62.288 35.7336 61.2558 36.8692 61.0391C38.0536 60.8111 38.7305 60.8536 38.7305 60.8536C36.5894 59.5142 24.8915 63.4835 32.7886 64.6201C54.3248 67.7215 72.0468 63.2237 66.4607 60.9861ZM43.8917 46.4249C43.8917 46.4249 34.0853 48.4934 40.4191 49.2443C43.0934 49.5623 48.4246 49.4904 53.3905 49.1208C57.449 48.817 61.5241 48.1706 61.5241 48.1706C61.5241 48.1706 60.0931 48.7148 59.0578 49.3425C49.0993 51.6683 29.8614 50.5864 35.3997 48.2073C40.0835 46.1969 43.8919 46.4249 43.8919 46.4249H43.8917ZM61.4836 55.1568C71.6071 50.4855 66.9264 45.9965 63.6594 46.6014C62.8586 46.7493 62.5016 46.8775 62.5016 46.8775C62.5016 46.8775 62.7989 46.4641 63.3666 46.2851C69.8297 44.2673 74.8003 52.2361 61.2802 55.3922C61.2802 55.3923 61.4369 55.268 61.4836 55.1568Z" fill="#68AFDE"/>
<path id="Vector_4" d="M55.3804 20.0515C55.3804 20.0515 60.9869 25.0318 50.063 32.6898C41.3033 38.8329 48.0655 42.3355 50.0594 46.3374C44.9461 42.2408 41.1936 38.6344 43.7112 35.278C47.4061 30.3508 57.6424 27.962 55.3804 20.0513" fill="#E76F00"/>
<path id="Vector_5" d="M44.8866 67.8148C54.6037 68.3672 69.5253 67.5083 69.8787 63.4254C69.8787 63.4254 69.1994 64.9733 61.848 66.2025C53.5543 67.5884 43.3253 67.4266 37.2583 66.5383C37.2585 66.5383 38.5003 67.4512 44.8868 67.8148" fill="#68AFDE"/>
</g>
<path id="Java" d="M41.9672 88.064L41.8112 87.08C42.2432 87.08 42.5512 86.986 42.7352 86.798C42.9192 86.61 43.0112 86.312 43.0112 85.904V77.6H44.1512V86.168C44.1512 86.828 43.9972 87.308 43.6892 87.608C43.3812 87.912 42.9112 88.064 42.2792 88.064H41.9672ZM47.6926 86.12C47.3286 86.12 47.0106 86.046 46.7386 85.898C46.4666 85.75 46.2546 85.548 46.1026 85.292C45.9546 85.036 45.8806 84.744 45.8806 84.416C45.8806 84.084 45.9526 83.8 46.0966 83.564C46.2446 83.324 46.4406 83.126 46.6846 82.97C46.9326 82.81 47.2086 82.684 47.5126 82.592C47.8166 82.496 48.1306 82.428 48.4546 82.388C48.7826 82.344 49.0966 82.32 49.3966 82.316C49.3966 81.756 49.2866 81.39 49.0666 81.218C48.8466 81.046 48.5286 80.96 48.1126 80.96C47.8926 80.96 47.6566 80.994 47.4046 81.062C47.1566 81.13 46.8766 81.272 46.5646 81.488L46.4086 80.612C46.6446 80.432 46.9386 80.286 47.2906 80.174C47.6426 80.058 48.0126 80 48.4006 80C48.8966 80 49.2966 80.088 49.6006 80.264C49.9046 80.436 50.1266 80.728 50.2666 81.14C50.4066 81.552 50.4766 82.112 50.4766 82.82V84.02C50.4766 84.3 50.4886 84.532 50.5126 84.716C50.5406 84.896 50.6006 85.032 50.6926 85.124C50.7886 85.212 50.9406 85.256 51.1486 85.256H51.2566L51.0886 86.12H51.0046C50.6566 86.12 50.3866 86.086 50.1946 86.018C50.0066 85.95 49.8626 85.852 49.7626 85.724C49.6626 85.596 49.5726 85.44 49.4926 85.256C49.2726 85.512 49.0126 85.72 48.7126 85.88C48.4126 86.04 48.0726 86.12 47.6926 86.12ZM47.8966 85.256C48.1846 85.256 48.4626 85.184 48.7306 85.04C49.0026 84.896 49.2246 84.704 49.3966 84.464V83.06C48.8246 83.08 48.3606 83.136 48.0046 83.228C47.6526 83.32 47.3946 83.458 47.2306 83.642C47.0666 83.826 46.9846 84.064 46.9846 84.356C46.9846 84.672 47.0686 84.902 47.2366 85.046C47.4086 85.186 47.6286 85.256 47.8966 85.256ZM54.0993 86L51.8553 80.12H53.0553L54.6993 84.812L56.3313 80.12H57.5433L55.3113 86H54.0993ZM60.2832 86.12C59.9192 86.12 59.6012 86.046 59.3292 85.898C59.0572 85.75 58.8452 85.548 58.6932 85.292C58.5452 85.036 58.4712 84.744 58.4712 84.416C58.4712 84.084 58.5432 83.8 58.6872 83.564C58.8352 83.324 59.0312 83.126 59.2752 82.97C59.5232 82.81 59.7992 82.684 60.1032 82.592C60.4072 82.496 60.7212 82.428 61.0452 82.388C61.3732 82.344 61.6872 82.32 61.9872 82.316C61.9872 81.756 61.8772 81.39 61.6572 81.218C61.4372 81.046 61.1192 80.96 60.7032 80.96C60.4832 80.96 60.2472 80.994 59.9952 81.062C59.7472 81.13 59.4672 81.272 59.1552 81.488L58.9992 80.612C59.2352 80.432 59.5292 80.286 59.8812 80.174C60.2332 80.058 60.6032 80 60.9912 80C61.4872 80 61.8872 80.088 62.1912 80.264C62.4952 80.436 62.7172 80.728 62.8572 81.14C62.9972 81.552 63.0672 82.112 63.0672 82.82V84.02C63.0672 84.3 63.0792 84.532 63.1032 84.716C63.1312 84.896 63.1912 85.032 63.2832 85.124C63.3792 85.212 63.5312 85.256 63.7392 85.256H63.8472L63.6792 86.12H63.5952C63.2472 86.12 62.9772 86.086 62.7852 86.018C62.5972 85.95 62.4532 85.852 62.3532 85.724C62.2532 85.596 62.1632 85.44 62.0832 85.256C61.8632 85.512 61.6032 85.72 61.3032 85.88C61.0032 86.04 60.6632 86.12 60.2832 86.12ZM60.4872 85.256C60.7752 85.256 61.0532 85.184 61.3212 85.04C61.5932 84.896 61.8152 84.704 61.9872 84.464V83.06C61.4152 83.08 60.9512 83.136 60.5952 83.228C60.2432 83.32 59.9852 83.458 59.8212 83.642C59.6572 83.826 59.5752 84.064 59.5752 84.356C59.5752 84.672 59.6592 84.902 59.8272 85.046C59.9992 85.186 60.2192 85.256 60.4872 85.256Z" fill="#2E394A"/>
</g>
<defs>
<clipPath id="clip0_950_821">
<rect width="40" height="48" fill="white" transform="translate(30 20)"/>
</clipPath>
</defs>
</svg>
