<svg width="107" height="107" viewBox="0 0 107 107" fill="none" xmlns="http://www.w3.org/2000/svg">
<g id="Frame 47">
<rect width="107" height="107" rx="5" fill="#F2D0DD"/>
<g id="vscode-icons:file-type-reactjs">
<path id="Vector" d="M54 47.711C56.0711 47.711 57.75 46.0321 57.75 43.961C57.75 41.8899 56.0711 40.211 54 40.211C51.9289 40.211 50.25 41.8899 50.25 43.961C50.25 46.0321 51.9289 47.711 54 47.711Z" fill="#53C1DE"/>
<path id="Vector_2" d="M54 52.559C49.4927 52.668 44.9967 52.0604 40.68 50.759C38.6859 50.1269 36.8261 49.1311 35.1945 47.822C34.5719 47.3748 34.0534 46.7981 33.6746 46.1317C33.2958 45.4652 33.0657 44.7247 33 43.961C33 41.4815 35.724 39.0515 40.287 37.4615C44.7191 36.0526 49.3499 35.3698 54 35.4395C58.5881 35.3754 63.1568 36.0458 67.533 37.4255C69.4534 38.0377 71.2502 38.9854 72.84 40.2245C73.452 40.6508 73.9627 41.2066 74.3359 41.8523C74.7092 42.498 74.9359 43.2179 75 43.961C75 46.538 71.955 49.1495 67.05 50.7725C62.8169 52.0315 58.4157 52.634 54 52.559ZM54 37.2335C49.5512 37.174 45.1212 37.8231 40.8765 39.1565C36.6765 40.622 34.794 42.626 34.794 43.9565C34.794 45.3485 36.8175 47.537 41.2605 49.0565C45.3901 50.2953 49.6899 50.8719 54 50.765C58.2246 50.8405 62.4359 50.2689 66.4875 49.07C71.1 47.5415 73.2 45.35 73.2 43.961C73.1243 43.4843 72.9506 43.0285 72.6898 42.6224C72.4291 42.2163 72.0869 41.8687 71.685 41.6015C70.2626 40.5022 68.6576 39.6623 66.9435 39.1205C62.757 37.8061 58.3875 37.1691 54 37.2335Z" fill="#53C1DE"/>
<path id="Vector_3" d="M45.4799 62.6645C44.7802 62.6806 44.0887 62.5108 43.4759 62.1725C41.3279 60.9335 40.5839 57.3605 41.4854 52.613C42.4794 48.0697 44.2016 43.717 46.5854 39.7235C48.8215 35.7172 51.6842 32.0944 55.0649 28.9925C56.5546 27.6346 58.2732 26.5513 60.1409 25.793C60.8164 25.4764 61.5534 25.3123 62.2994 25.3123C63.0454 25.3123 63.7824 25.4764 64.4579 25.793C66.6914 27.08 67.4309 31.022 66.3884 36.0815C65.3637 40.3784 63.6862 44.4927 61.4144 48.281C59.257 52.2401 56.4845 55.8313 53.2004 58.9205C51.6566 60.3317 49.8649 61.4449 47.9159 62.204C47.1356 62.4936 46.312 62.6493 45.4799 62.6645ZM48.1394 40.6145C45.8655 44.4385 44.2149 48.6001 43.2494 52.943C42.4199 57.3155 43.2164 59.945 44.3744 60.614C45.5744 61.3085 48.4874 60.65 52.0244 57.56C55.1594 54.6004 57.8058 51.1628 59.8649 47.375C62.0413 43.7533 63.6504 39.8197 64.6364 35.711C65.6174 30.9485 64.7699 28.0325 63.5669 27.3395C63.116 27.1668 62.6342 27.0894 62.1519 27.1124C61.6696 27.1354 61.1973 27.2582 60.7649 27.473C59.1024 28.159 57.574 29.133 56.2499 30.35C53.0199 33.3212 50.2854 36.7894 48.1499 40.6235L48.1394 40.6145Z" fill="#53C1DE"/>
<path id="Vector_4" d="M62.5156 62.684C60.4831 62.684 57.9016 61.454 55.2136 59.1425C51.7736 56.0124 48.8625 52.3466 46.5931 48.287C44.2392 44.3486 42.5306 40.0588 41.5321 35.5805C41.099 33.6103 41.0188 31.5788 41.2951 29.5805C41.3589 28.8392 41.5847 28.121 41.9563 27.4764C42.328 26.8319 42.8365 26.2767 43.4461 25.85C45.6766 24.5585 49.4611 25.886 53.3236 29.315C56.5345 32.3483 59.2612 35.8561 61.4086 39.716C63.761 43.5625 65.4875 47.7583 66.5236 52.1465C66.9752 54.1891 67.0449 56.2976 66.7291 58.3655C66.6539 59.1281 66.4147 59.8655 66.0279 60.527C65.6411 61.1885 65.1158 61.7586 64.4881 62.198C63.8853 62.5321 63.2045 62.6998 62.5156 62.684ZM48.1456 47.384C50.3227 51.2637 53.1035 54.7721 56.3836 57.7775C59.7571 60.68 62.4331 61.304 63.5836 60.6275C64.7836 59.93 65.6686 57.083 64.7566 52.4765C63.7574 48.2869 62.1014 44.2819 59.8501 40.61C57.8008 36.9157 55.1982 33.5568 52.1326 30.65C48.4966 27.422 45.5476 26.7005 44.3461 27.3965C43.9716 27.7009 43.6643 28.0795 43.4435 28.5086C43.2228 28.9377 43.0934 29.4079 43.0636 29.8895C42.8251 31.6717 42.9028 33.4819 43.2931 35.237C44.2535 39.5197 45.8922 43.6215 48.1471 47.387L48.1456 47.384Z" fill="#53C1DE"/>
</g>
<path id="ReactJS" d="M33.9705 88V79.6H36.6945C37.2785 79.6 37.7885 79.69 38.2245 79.87C38.6605 80.05 38.9985 80.328 39.2385 80.704C39.4785 81.08 39.5985 81.564 39.5985 82.156C39.5985 82.732 39.4725 83.214 39.2205 83.602C38.9725 83.99 38.6105 84.296 38.1345 84.52L40.0185 88H38.6265L36.9225 84.724C36.9105 84.724 36.9005 84.724 36.8925 84.724C36.8845 84.724 36.8745 84.724 36.8625 84.724H35.1705V88H33.9705ZM35.1705 83.704H36.6825C37.2545 83.704 37.6845 83.566 37.9725 83.29C38.2645 83.014 38.4105 82.636 38.4105 82.156C38.4105 81.668 38.2645 81.29 37.9725 81.022C37.6845 80.754 37.2545 80.62 36.6825 80.62H35.1705V83.704ZM44.1704 88.12C43.4784 88.12 42.8964 87.978 42.4244 87.694C41.9524 87.41 41.5944 87.034 41.3504 86.566C41.1104 86.094 40.9904 85.576 40.9904 85.012C40.9904 84.464 41.1024 83.962 41.3264 83.506C41.5544 83.05 41.8824 82.686 42.3104 82.414C42.7424 82.138 43.2624 82 43.8704 82C44.3584 82 44.7924 82.098 45.1724 82.294C45.5564 82.486 45.8564 82.768 46.0724 83.14C46.2924 83.508 46.4024 83.956 46.4024 84.484C46.4024 84.568 46.3984 84.66 46.3904 84.76C46.3864 84.856 46.3744 84.956 46.3544 85.06H42.0944C42.1464 85.604 42.2764 86.028 42.4844 86.332C42.6924 86.636 42.9544 86.85 43.2704 86.974C43.5864 87.098 43.9304 87.16 44.3024 87.16C44.5744 87.16 44.8584 87.132 45.1544 87.076C45.4504 87.02 45.7304 86.932 45.9944 86.812L46.1384 87.664C45.9104 87.764 45.6324 87.866 45.3044 87.97C44.9764 88.07 44.5984 88.12 44.1704 88.12ZM42.1904 84.316H45.2864C45.2864 84.04 45.2344 83.8 45.1304 83.596C45.0264 83.392 44.8684 83.236 44.6564 83.128C44.4444 83.016 44.1744 82.96 43.8464 82.96C43.3664 82.96 42.9964 83.08 42.7364 83.32C42.4804 83.556 42.2984 83.888 42.1904 84.316ZM49.459 88.12C49.095 88.12 48.777 88.046 48.505 87.898C48.233 87.75 48.021 87.548 47.869 87.292C47.721 87.036 47.647 86.744 47.647 86.416C47.647 86.084 47.719 85.8 47.863 85.564C48.011 85.324 48.207 85.126 48.451 84.97C48.699 84.81 48.975 84.684 49.279 84.592C49.583 84.496 49.897 84.428 50.221 84.388C50.549 84.344 50.863 84.32 51.163 84.316C51.163 83.756 51.053 83.39 50.833 83.218C50.613 83.046 50.295 82.96 49.879 82.96C49.659 82.96 49.423 82.994 49.171 83.062C48.923 83.13 48.643 83.272 48.331 83.488L48.175 82.612C48.411 82.432 48.705 82.286 49.057 82.174C49.409 82.058 49.779 82 50.167 82C50.663 82 51.063 82.088 51.367 82.264C51.671 82.436 51.893 82.728 52.033 83.14C52.173 83.552 52.243 84.112 52.243 84.82V86.02C52.243 86.3 52.255 86.532 52.279 86.716C52.307 86.896 52.367 87.032 52.459 87.124C52.555 87.212 52.707 87.256 52.915 87.256H53.023L52.855 88.12H52.771C52.423 88.12 52.153 88.086 51.961 88.018C51.773 87.95 51.629 87.852 51.529 87.724C51.429 87.596 51.339 87.44 51.259 87.256C51.039 87.512 50.779 87.72 50.479 87.88C50.179 88.04 49.839 88.12 49.459 88.12ZM49.663 87.256C49.951 87.256 50.229 87.184 50.497 87.04C50.769 86.896 50.991 86.704 51.163 86.464V85.06C50.591 85.08 50.127 85.136 49.771 85.228C49.419 85.32 49.161 85.458 48.997 85.642C48.833 85.826 48.751 86.064 48.751 86.356C48.751 86.672 48.835 86.902 49.003 87.046C49.175 87.186 49.395 87.256 49.663 87.256ZM57.1566 88.12C56.4926 88.12 55.9346 87.986 55.4826 87.718C55.0346 87.446 54.6946 87.082 54.4626 86.626C54.2346 86.166 54.1206 85.656 54.1206 85.096C54.1206 84.512 54.2306 83.986 54.4506 83.518C54.6746 83.05 55.0166 82.68 55.4766 82.408C55.9366 82.136 56.5246 82 57.2406 82C57.5486 82 57.8386 82.032 58.1106 82.096C58.3866 82.156 58.6326 82.24 58.8486 82.348L58.6806 83.296C58.4606 83.192 58.2266 83.11 57.9786 83.05C57.7346 82.99 57.4806 82.96 57.2166 82.96C56.5686 82.96 56.0746 83.144 55.7346 83.512C55.3946 83.88 55.2246 84.392 55.2246 85.048C55.2246 85.688 55.3866 86.202 55.7106 86.59C56.0346 86.978 56.5286 87.172 57.1926 87.172C57.4646 87.172 57.7246 87.14 57.9726 87.076C58.2246 87.012 58.4646 86.924 58.6926 86.812L58.8366 87.676C58.6766 87.788 58.4426 87.89 58.1346 87.982C57.8266 88.074 57.5006 88.12 57.1566 88.12ZM62.5338 88.12C62.1618 88.12 61.8638 88.052 61.6398 87.916C61.4158 87.78 61.2518 87.606 61.1478 87.394C61.0478 87.178 60.9978 86.952 60.9978 86.716V82.96H59.9898L60.0858 82.12H60.9978V80.668L62.0778 80.56V82.12H63.6258V82.96H62.0778V86.056C62.0778 86.432 62.0998 86.704 62.1438 86.872C62.1878 87.04 62.2958 87.146 62.4678 87.19C62.6438 87.234 62.9258 87.256 63.3138 87.256H63.5898L63.5058 88.12H62.5338ZM64.239 90.064L64.083 89.08C64.515 89.08 64.823 88.986 65.007 88.798C65.191 88.61 65.283 88.312 65.283 87.904V79.6H66.423V88.168C66.423 88.828 66.269 89.308 65.961 89.608C65.653 89.912 65.183 90.064 64.551 90.064H64.239ZM71.3416 88.168C70.9936 88.168 70.6456 88.142 70.2976 88.09C69.9496 88.038 69.6276 87.972 69.3316 87.892C69.0356 87.808 68.7896 87.72 68.5936 87.628L68.7496 86.416C68.9656 86.52 69.2256 86.628 69.5296 86.74C69.8376 86.852 70.1696 86.946 70.5256 87.022C70.8816 87.098 71.2416 87.136 71.6056 87.136C72.1456 87.136 72.5736 87.038 72.8896 86.842C73.2096 86.642 73.3696 86.332 73.3696 85.912C73.3696 85.596 73.2896 85.338 73.1296 85.138C72.9696 84.934 72.7276 84.76 72.4036 84.616C72.0836 84.472 71.6816 84.328 71.1976 84.184C70.7376 84.048 70.3136 83.888 69.9256 83.704C69.5376 83.516 69.2256 83.266 68.9896 82.954C68.7576 82.638 68.6416 82.22 68.6416 81.7C68.6416 81.256 68.7556 80.864 68.9836 80.524C69.2156 80.18 69.5536 79.912 69.9976 79.72C70.4456 79.528 70.9936 79.432 71.6416 79.432C72.1936 79.432 72.6996 79.492 73.1596 79.612C73.6236 79.732 74.0056 79.864 74.3056 80.008L74.1856 81.22C73.7296 80.948 73.2936 80.754 72.8776 80.638C72.4656 80.522 72.0376 80.464 71.5936 80.464C71.1016 80.464 70.6936 80.556 70.3696 80.74C70.0496 80.924 69.8896 81.224 69.8896 81.64C69.8896 81.92 69.9616 82.15 70.1056 82.33C70.2496 82.506 70.4636 82.658 70.7476 82.786C71.0316 82.91 71.3856 83.036 71.8096 83.164C72.3936 83.34 72.8956 83.542 73.3156 83.77C73.7356 83.994 74.0576 84.272 74.2816 84.604C74.5056 84.932 74.6176 85.34 74.6176 85.828C74.6176 86.188 74.5496 86.512 74.4136 86.8C74.2776 87.088 74.0736 87.334 73.8016 87.538C73.5296 87.742 73.1876 87.898 72.7756 88.006C72.3676 88.114 71.8896 88.168 71.3416 88.168Z" fill="#2E394A"/>
</g>
</svg>
