<svg width="100" height="100" viewBox="0 0 100 100" fill="none" xmlns="http://www.w3.org/2000/svg">
<circle cx="50" cy="50" r="50" fill="url(#paint0_linear_737_373)"/>
<path d="M49.8275 29.1501C39.1775 29.1501 39.851 33.7551 39.851 33.7551V38.5401H49.979V40.0401H35.8175C35.8175 40.0401 29 39.2001 29 50.0076C29 60.8151 35.0195 60.3756 35.0195 60.3756H38.495V55.3341C38.495 55.3341 38.3 49.3146 44.345 49.3146H54.488C54.488 49.3146 60.146 49.4046 60.146 43.8366V34.7001C60.146 34.7001 61.004 29.1321 49.883 29.1321L49.8275 29.1501ZM44.2295 32.3556C44.5896 32.3465 44.9442 32.4444 45.2486 32.6369C45.5531 32.8294 45.7936 33.1078 45.9397 33.437C46.0859 33.7662 46.1312 34.1313 46.0698 34.4862C46.0084 34.8411 45.8432 35.1699 45.595 35.4309C45.3468 35.6919 45.0268 35.8734 44.6754 35.9525C44.324 36.0316 43.9571 36.0048 43.621 35.8753C43.2849 35.7459 42.9947 35.5197 42.7871 35.2253C42.5796 34.9309 42.464 34.5816 42.455 34.2216V34.1916C42.455 33.7086 42.6469 33.2454 42.9884 32.9039C43.3299 32.5624 43.793 32.3706 44.276 32.3706L44.2295 32.3556Z" fill="url(#paint1_linear_737_373)"/>
<path d="M50.1275 70.8649C60.7775 70.8649 60.104 66.2449 60.104 66.2449V61.4749H49.9775V59.9749H64.1825C64.1825 59.9749 71 60.7369 71 49.9924C71 39.2479 64.9805 39.6244 64.9805 39.6244H61.46V44.5999C61.46 44.5999 61.655 50.6194 55.61 50.6194H45.4625C45.4625 50.6194 39.8 50.5339 39.8 56.1019V65.2999C39.8 65.2999 38.942 70.8679 50.063 70.8679H50.123L50.1275 70.8649ZM55.7255 67.6444C55.3654 67.6535 55.0108 67.5556 54.7064 67.3631C54.4019 67.1706 54.1614 66.8922 54.0153 66.563C53.8691 66.2338 53.8238 65.8687 53.8852 65.5138C53.9466 65.1589 54.1118 64.8301 54.36 64.5691C54.6082 64.3081 54.9282 64.1266 55.2796 64.0475C55.631 63.9684 55.9979 63.9952 56.334 64.1247C56.6701 64.2541 56.9603 64.4803 57.1679 64.7747C57.3754 65.069 57.491 65.4184 57.5 65.7784V65.8234C57.5 66.3064 57.3081 66.7696 56.9666 67.1111C56.6251 67.4526 56.162 67.6444 55.679 67.6444H55.724H55.7255Z" fill="url(#paint2_linear_737_373)"/>
<defs>
<linearGradient id="paint0_linear_737_373" x1="50" y1="0" x2="50" y2="100" gradientUnits="userSpaceOnUse">
<stop stop-color="#155A83"/>
<stop offset="0.963542" stop-color="#3184B6" stop-opacity="0"/>
</linearGradient>
<linearGradient id="paint1_linear_737_373" x1="33.1507" y1="33.2344" x2="53.0807" y2="53.1193" gradientUnits="userSpaceOnUse">
<stop stop-color="#387EB8"/>
<stop offset="1" stop-color="#366994"/>
</linearGradient>
<linearGradient id="paint2_linear_737_373" x1="44.9412" y1="46.1878" x2="67.7115" y2="66.0666" gradientUnits="userSpaceOnUse">
<stop stop-color="#FFE052"/>
<stop offset="1" stop-color="#FFC331"/>
</linearGradient>
</defs>
</svg>
