<svg width="100" height="100" viewBox="0 0 100 100" fill="none" xmlns="http://www.w3.org/2000/svg">
<circle cx="50" cy="50" r="50" fill="url(#paint0_linear_737_373)"/>
<path d="M34.8529 66.8015L31.4824 29H68.5174L65.1424 66.7955L49.9774 71L34.8529 66.8015Z" fill="#E44F26"/>
<path d="M50 67.7871L62.255 64.3896L65.138 32.0916H50V67.7871Z" fill="#F1662A"/>
<path d="M50 46.1106H43.865L43.442 41.3631H50V36.7266H38.375L38.486 37.9716L39.6245 50.7471H50V46.1106V46.1106ZM50 58.1511L49.979 58.1571L44.816 56.7636L44.486 53.0661H39.8315L40.481 60.3441L49.979 62.9811L50 62.9751V58.1511Z" fill="#EBEBEB"/>
<path d="M49.9834 46.1106V50.7471H55.6924L55.1554 56.7606L49.9834 58.1556V62.9796L59.4889 60.3441L59.5579 59.5611L60.6469 47.3556L60.7609 46.1106H49.9834V46.1106ZM49.9834 36.7266V41.3631H61.1824L61.2754 40.3221L61.4869 37.9716L61.5979 36.7266H49.9834V36.7266Z" fill="white"/>
<defs>
<linearGradient id="paint0_linear_737_373" x1="50" y1="0" x2="50" y2="100" gradientUnits="userSpaceOnUse">
<stop stop-color="#155A83"/>
<stop offset="0.963542" stop-color="#3184B6" stop-opacity="0"/>
</linearGradient>
</defs>
</svg>
