<svg width="100" height="100" viewBox="0 0 100 100" fill="none" xmlns="http://www.w3.org/2000/svg">
<circle cx="50" cy="50" r="50" fill="url(#paint0_linear_737_373)"/>
<path d="M69.5 41.348C69.5144 40.6941 69.3494 40.0487 69.023 39.482C68.6805 38.9255 68.1958 38.4704 67.619 38.1635C62.425 35.2955 57.2285 32.429 52.0295 29.564C51.4026 29.1869 50.6836 28.9906 49.9521 28.997C49.2206 29.0033 48.5052 29.212 47.885 29.6C45.818 30.7685 35.4725 36.4475 32.3885 38.159C31.8016 38.4538 31.3117 38.9108 30.9769 39.4758C30.6422 40.0409 30.4766 40.6901 30.5 41.3465V58.655C30.4848 59.2941 30.6401 59.9257 30.95 60.485C31.2945 61.0574 31.7894 61.5244 32.381 61.835C35.465 63.5465 45.812 69.2255 47.879 70.394C48.4989 70.7823 49.2142 70.9916 49.9457 70.9985C50.6772 71.0053 51.3964 70.8096 52.0235 70.433C57.2135 67.562 62.4065 64.6955 67.6025 61.8335C68.1941 61.5225 68.6895 61.0556 69.035 60.4835C69.3448 59.9242 69.5001 59.2926 69.485 58.6535V41.348" fill="#A9B9CB"/>
<path d="M68.8235 60.7564C68.902 60.6696 68.9756 60.5784 69.044 60.4834C69.3538 59.9242 69.5092 59.2926 69.494 58.6534V41.3479C69.5084 40.6941 69.3434 40.0487 69.017 39.4819C68.963 39.3934 68.8835 39.3244 68.822 39.2419L50 49.9999L68.8235 60.7564Z" fill="#8B97A3"/>
<path d="M68.8235 60.7565L50 50L31.1765 60.7565C31.4948 61.203 31.9096 61.5722 32.39 61.8365C35.474 63.548 45.821 69.227 47.888 70.3955C48.5079 70.7839 49.2233 70.9931 49.9548 71C50.6863 71.0069 51.4054 70.8112 52.0325 70.4345C57.2225 67.5635 62.4155 64.697 67.6115 61.835C68.0914 61.5711 68.5057 61.2025 68.8235 60.7565V60.7565Z" fill="#7F8B99"/>
<path d="M55.4001 53.0299C54.7319 54.2182 53.6896 55.1523 52.4355 55.6867C51.1813 56.2212 49.7857 56.3261 48.4658 55.9851C47.1458 55.6441 45.9757 54.8763 45.1373 53.8013C44.299 52.7262 43.8396 51.4042 43.8306 50.041C43.8216 48.6777 44.2635 47.3497 45.0875 46.2637C45.9116 45.1777 47.0715 44.3945 48.3868 44.0361C49.7021 43.6777 51.099 43.7641 52.3601 44.282C53.6212 44.7998 54.6757 45.72 55.3596 46.8994L60.7821 43.7899C59.4057 41.4278 57.2909 39.5838 54.7634 38.542C52.2359 37.5001 49.4359 37.3181 46.7948 38.0241C44.1538 38.73 41.8181 40.2848 40.1475 42.4488C38.477 44.6129 37.5643 47.2661 37.5501 49.9999C37.5474 52.1677 38.1165 54.2978 39.2001 56.1754C40.2973 58.0718 41.8745 59.6459 43.7731 60.7394C45.6717 61.8329 47.8247 62.4072 50.0157 62.4046C52.2066 62.402 54.3583 61.8226 56.2543 60.7247C58.1503 59.6267 59.7238 58.0489 60.8166 56.1499L55.4001 53.0299Z" fill="white"/>
<defs>
<linearGradient id="paint0_linear_737_373" x1="50" y1="0" x2="50" y2="100" gradientUnits="userSpaceOnUse">
<stop stop-color="#155A83"/>
<stop offset="0.963542" stop-color="#3184B6" stop-opacity="0"/>
</linearGradient>
</defs>
</svg>
