<svg width="100" height="100" viewBox="0 0 100 100" fill="none" xmlns="http://www.w3.org/2000/svg">
<circle cx="50" cy="50" r="50" fill="url(#paint0_linear_737_373)"/>
<path fill-rule="evenodd" clip-rule="evenodd" d="M39.1775 36.2974C38.7802 36.2961 38.3843 36.3465 38 36.4474V36.4999H38.057C38.3323 36.9154 38.6392 37.3091 38.975 37.6774C39.206 38.1364 39.407 38.5939 39.6365 39.0529L39.6935 38.9944C39.9066 38.8252 40.0734 38.6049 40.1783 38.3539C40.2832 38.1029 40.3228 37.8294 40.2935 37.5589C40.1679 37.3652 40.0527 37.1649 39.9485 36.9589C39.776 36.6724 39.4025 36.5284 39.173 36.2989" fill="white"/>
<path fill-rule="evenodd" clip-rule="evenodd" d="M67.67 61.3296C65.7779 61.1967 63.8793 61.4708 62.102 62.1336C61.6715 62.3061 60.9845 62.3061 60.9245 62.8506C61.1555 63.0801 61.1825 63.4506 61.385 63.7701C61.7779 64.4352 62.2828 65.0275 62.8775 65.5206C63.4775 65.9796 64.0775 66.4371 64.715 66.8391C65.8325 67.5306 67.097 67.9311 68.186 68.6196C68.819 69.0216 69.449 69.5376 70.082 69.9696C70.397 70.1991 70.5965 70.5696 70.9985 70.7196V70.6326C70.8804 70.3138 70.7344 70.0061 70.562 69.7131C70.2755 69.4281 69.9875 69.1686 69.6995 68.8821C68.8581 67.7695 67.8515 66.7922 66.7145 65.9841C65.795 65.3511 63.785 64.4841 63.4145 63.4341L63.356 63.3756C64.0289 63.2802 64.6919 63.1256 65.3375 62.9136C66.3125 62.6556 67.202 62.7141 68.2055 62.4636C68.666 62.3481 69.4985 62.0616 69.4985 62.0616V61.6116C68.9855 61.1016 68.618 60.4191 68.078 59.9376C66.6089 58.6552 65.0433 57.4877 63.395 56.4456C62.5145 55.8771 61.379 55.5111 60.4415 55.0266C60.1025 54.8556 59.5415 54.7716 59.336 54.4866C58.8698 53.8025 58.4795 53.0697 58.172 52.3011C57.3328 50.6853 56.5567 49.0376 55.8455 47.3616C55.4265 46.2558 54.9431 45.1755 54.398 44.1261C51.7675 39.6538 47.9706 35.9808 43.4135 33.5001C42.2637 32.9435 41.0412 32.5517 39.782 32.3361C39.071 32.3061 38.363 32.2506 37.6535 32.2236C37.1955 31.9235 36.7599 31.5907 36.35 31.2276C34.727 30.2001 30.557 27.9921 29.363 30.9156C28.598 32.7621 30.5 34.5771 31.1525 35.5146C31.7027 36.1756 32.1875 36.8884 32.6 37.6431C32.7995 38.1261 32.8565 38.6376 33.05 39.1431C33.4664 40.4407 33.9608 41.7121 34.5305 42.9501C34.8353 43.562 35.1863 44.1497 35.5805 44.7081C35.81 45.0216 36.206 45.1581 36.2915 45.6756C35.977 46.3517 35.7569 47.0679 35.6375 47.8041C35.1417 49.3699 34.9592 51.0181 35.1005 52.6545C35.2418 54.2909 35.7041 55.8834 36.461 57.3411C36.911 58.0506 37.994 59.6121 39.4415 59.0151C40.718 58.5051 40.4345 56.8866 40.8035 55.4691C40.8875 55.1256 40.832 54.9006 41.0015 54.6741V54.9501C41.0015 54.9501 41.726 56.5416 42.086 57.3501C43.0651 58.8336 44.2813 60.1461 45.686 61.2351C46.2417 61.7202 46.6893 62.3166 47 62.9856V63.5001H47.6405C47.6272 63.2681 47.5629 63.0419 47.4522 62.8376C47.3415 62.6333 47.1871 62.4559 47 62.3181C46.4748 61.7775 45.9938 61.1956 45.5615 60.5781C44.3874 58.9059 43.352 57.1405 42.4655 55.2996C42.0155 54.3996 41.636 53.4126 41.276 52.5141C41.111 52.1676 41.111 51.6441 40.8335 51.4641C40.3211 52.0703 39.8765 52.7307 39.5075 53.4336C39.0596 54.8541 38.7989 56.3271 38.732 57.8151C38.6225 57.8451 38.6765 57.8151 38.6225 57.8721C37.739 57.6396 37.4345 56.6841 37.1015 55.8741C36.2413 53.3759 36.1545 50.6763 36.8525 48.1281C37.0445 47.5206 37.877 45.6066 37.544 45.0261C37.3775 44.4726 36.824 44.1561 36.521 43.7196C36.1342 43.1324 35.8014 42.5113 35.5265 41.8641C34.868 40.2501 34.535 38.4501 33.818 36.8241C33.4211 36.0421 32.959 35.2949 32.4365 34.5906C31.8586 33.887 31.3488 33.1301 30.914 32.3301C30.776 32.0106 30.5825 31.4886 30.803 31.1406C30.8179 31.0439 30.8639 30.9547 30.934 30.8865C31.0041 30.8183 31.0945 30.7748 31.1915 30.7626C31.5485 30.4446 32.573 30.8496 32.9315 31.0236C33.8951 31.4029 34.8128 31.8895 35.6675 32.4741C36.0545 32.7651 36.9665 33.5016 36.9665 33.5016H37.2365C38.1545 33.7011 39.1865 33.5571 40.0505 33.8166C41.5053 34.3015 42.8936 34.9667 44.183 35.7966C47.9836 38.2193 51.0732 41.6071 53.1365 45.6141C53.4815 46.2726 53.627 46.8771 53.942 47.5641C54.542 48.9741 55.292 50.4141 55.892 51.7851C56.4214 53.1415 57.1059 54.4321 57.932 55.6311C58.361 56.2311 60.0845 56.5491 60.86 56.8641C61.5335 57.0971 62.1944 57.3649 62.84 57.6666C63.8165 58.2666 64.79 58.9581 65.7095 59.6166C66.167 59.9616 67.6025 60.6786 67.6895 61.2531" fill="white"/>
<defs>
<linearGradient id="paint0_linear_737_373" x1="50" y1="0" x2="50" y2="100" gradientUnits="userSpaceOnUse">
<stop stop-color="#155A83"/>
<stop offset="0.963542" stop-color="#3184B6" stop-opacity="0"/>
</linearGradient>
</defs>
</svg>
