<svg width="100" height="100" viewBox="0 0 100 100" fill="none" xmlns="http://www.w3.org/2000/svg">
<circle cx="50" cy="50" r="50" fill="url(#paint0_linear_737_373)"/>
<path d="M70.2606 54.1595C70.1339 53.7909 69.9056 53.4656 69.602 53.2211C69.2983 52.9767 68.9318 52.8231 68.5446 52.778C68.0871 52.723 67.6236 52.7489 67.1751 52.8545C66.4814 53.0078 65.7758 53.1006 65.0661 53.132C66.9639 49.9302 68.4134 46.483 69.3741 42.887C70.8036 37.3535 70.0401 34.8335 69.1476 33.692C67.9624 32.1926 66.4455 30.9884 64.7162 30.1743C62.987 29.3601 61.0924 28.9582 59.1816 29C57.4286 28.9836 55.683 29.2283 54.0021 29.726C53.0009 29.5544 51.9878 29.4621 50.9721 29.45C49.1259 29.3799 47.2973 29.8306 45.6951 30.7505C44.48 30.3397 43.234 30.0267 41.9691 29.8145C40.4945 29.4608 38.9646 29.4011 37.4669 29.6389C35.9692 29.8767 34.5331 30.4074 33.2406 31.2005C30.6396 33.0365 29.4336 36.2285 29.6571 40.688C30.0573 44.0149 30.7632 47.2978 31.7661 50.495C32.3436 52.4921 33.1038 54.4318 34.0371 56.2895C34.7263 57.9842 36.0365 59.3518 37.7001 60.113C38.3099 60.3139 38.9623 60.3481 39.5897 60.212C40.2172 60.0759 40.7968 59.7745 41.2686 59.339C41.4827 59.5925 41.7359 59.8103 42.0186 59.984C42.4568 60.256 42.9344 60.4584 43.4346 60.584C45.0717 61.04 46.8145 60.9344 48.3846 60.284C48.3936 60.5405 48.4011 60.7865 48.4056 60.9995C48.4146 61.343 48.4251 61.6805 48.4371 61.997C48.4193 63.6702 48.6421 65.3372 49.0986 66.947C49.1226 67.0115 49.1541 67.1075 49.1871 67.211C49.4506 68.1963 49.9624 69.0975 50.6736 69.8285C51.5263 70.6115 52.6515 71.0298 53.8086 70.994C54.3015 70.9909 54.7926 70.9361 55.2741 70.8305C56.1867 70.7159 57.0672 70.4197 57.8635 69.9594C58.6598 69.499 59.3559 68.8838 59.9106 68.15C61.1271 66.4175 61.7196 63.809 61.8261 59.6975L61.8651 59.3645L61.8906 59.147L62.1771 59.1725H62.2506C63.8727 59.2412 65.4906 58.9609 66.9951 58.3505C67.9416 57.911 70.9761 56.309 70.2606 54.1505" fill="black"/>
<path d="M67.5335 54.5794C62.789 55.5574 62.4635 53.9524 62.4635 53.9524C67.472 46.5199 69.566 37.0849 67.7585 34.7764C62.8295 28.4764 54.296 31.4569 54.1535 31.5334L54.107 31.5424C53.0647 31.3332 52.005 31.2227 50.942 31.2124C49.1493 31.1225 47.3803 31.6521 45.932 32.7124C45.932 32.7124 30.71 26.4409 31.418 40.5994C31.568 43.6114 35.735 63.3904 40.7045 57.4159C42.521 55.2319 44.276 53.3839 44.276 53.3839C45.1599 53.9805 46.2233 54.2519 47.285 54.1519L47.3705 54.0799C47.3454 54.3637 47.357 54.6496 47.405 54.9304C46.124 56.3614 46.505 56.6119 43.9415 57.1384C41.3525 57.6724 42.8735 58.6219 43.8665 58.8709C44.9215 59.2122 46.0574 59.2115 47.112 58.8688C48.1666 58.5262 49.086 57.8591 49.739 56.9629L49.664 57.2629C50.165 57.6649 50.5175 59.8759 50.459 61.8814C50.2954 63.373 50.397 64.8817 50.759 66.3379C51.155 67.4134 51.548 69.8314 54.9125 69.1114C56.1089 68.9932 57.2217 68.4446 58.0439 67.5674C58.8661 66.6903 59.3418 65.5445 59.3825 64.3429C59.5325 62.4919 59.852 62.7649 59.8715 61.1104L60.1325 60.3274C60.4325 57.8179 60.1805 57.0079 61.9115 57.3844L62.333 57.4219C63.6722 57.4782 65.0084 57.2533 66.2555 56.7619C68.3645 55.7839 69.614 54.1489 67.535 54.5794" fill="#336791"/>
<path d="M46.8231 41.9466C46.479 41.8742 46.1204 41.9274 45.8121 42.0966C45.7719 42.1255 45.738 42.1621 45.7122 42.2044C45.6865 42.2467 45.6694 42.2936 45.6621 42.3426C45.6621 42.5156 45.7244 42.6828 45.8376 42.8136C46.0389 43.09 46.3394 43.2776 46.6761 43.3371C46.7208 43.3433 46.766 43.3463 46.8111 43.3461C47.034 43.349 47.2523 43.2833 47.4366 43.1581C47.6209 43.0328 47.7623 42.8539 47.8416 42.6456C47.8941 42.2736 47.3526 42.0246 46.8276 41.9511L46.8231 41.9466ZM60.9906 41.9631C60.9501 41.6706 60.4296 41.5881 59.9406 41.6631C59.4516 41.7381 58.9701 41.9541 59.0106 42.2466C59.0869 42.4301 59.2161 42.5867 59.3817 42.6965C59.5473 42.8063 59.7419 42.8643 59.9406 42.8631C59.9823 42.863 60.0239 42.86 60.0651 42.8541C60.3252 42.8084 60.563 42.6782 60.7416 42.4836C60.8909 42.3524 60.9821 42.1674 60.9951 41.9691" fill="white"/>
<path d="M69.1116 54.4685C68.9301 53.921 68.3481 53.7455 67.3806 53.945C64.5081 54.545 63.4806 54.1265 63.1416 53.879C65.4163 50.3872 67.1239 46.5573 68.2011 42.5315C68.6371 40.9391 68.8888 39.3019 68.9511 37.652C69.0667 36.498 68.7983 35.338 68.1876 34.352C67.1065 32.9914 65.7243 31.9005 64.1497 31.1651C62.5752 30.4298 60.8513 30.0701 59.1141 30.1145C57.3296 30.0866 55.5537 30.3662 53.8641 30.941C52.8978 30.7026 51.9074 30.5752 50.9121 30.5615C49.1216 30.4828 47.3517 30.9704 45.8541 31.955C44.521 31.4676 43.1449 31.107 41.7441 30.878C39.0663 30.23 36.2411 30.6639 33.8811 32.0855C31.6311 33.6815 30.5811 36.5345 30.7896 40.565C31.1836 43.7953 31.873 46.9826 32.8491 50.087C34.4541 55.3445 36.1986 58.322 38.0346 58.937C38.272 59.017 38.5207 59.058 38.7711 59.0585C39.2372 59.0296 39.6906 58.895 40.0968 58.6647C40.503 58.4344 40.8515 58.1146 41.1156 57.7295C42.1576 56.4795 43.2351 55.2605 44.3481 54.0725C45.0636 54.4597 45.8599 54.674 46.6731 54.698V54.761C46.5331 54.927 46.3966 55.096 46.2636 55.268C45.7011 55.9805 45.5856 56.129 43.7766 56.5025C43.2621 56.609 41.8956 56.891 41.8761 57.8525C41.8551 58.9025 43.4916 59.339 43.6761 59.3855C44.2883 59.5429 44.9175 59.6245 45.5496 59.6285C46.9321 59.654 48.2725 59.1532 49.2996 58.2275C49.1462 61.0821 49.3381 63.9449 49.8711 66.7535C50.1174 67.6527 50.6504 68.4469 51.3893 69.0154C52.1281 69.584 53.0324 69.8958 53.9646 69.9035C54.4271 69.9021 54.8882 69.8518 55.3401 69.7535C56.5741 69.6469 57.7294 69.1028 58.5975 68.2193C59.4656 67.3358 59.9893 66.1712 60.0741 64.9355C60.3396 63.3965 60.7956 59.723 61.0101 57.752C61.5522 57.901 62.1131 57.9702 62.6751 57.9575C63.9696 57.9668 65.2533 57.7222 66.4536 57.2375C67.5216 56.741 69.4536 55.526 69.0981 54.4685H69.1116ZM62.0766 41.15C62.0574 41.7069 61.9993 42.2617 61.9026 42.8105C61.7911 43.4554 61.721 44.1067 61.6926 44.7605C61.6875 45.4982 61.7377 46.2353 61.8426 46.9655C62.1666 48.4601 62.0472 50.0168 61.4991 51.4445C61.3827 51.238 61.279 51.0246 61.1886 50.8055C61.1016 50.594 60.9111 50.2535 60.6501 49.784C59.6301 47.954 57.2391 43.667 58.4631 41.918C58.8276 41.3975 59.7531 40.868 62.0751 41.15H62.0766ZM59.2611 31.2965C60.7965 31.2651 62.3182 31.5904 63.7066 32.2469C65.095 32.9033 66.312 33.8729 67.2621 35.0795C68.7246 36.947 67.1121 45.4475 62.4546 52.7795L62.3136 52.601L62.2551 52.5275C63.1804 50.779 63.4496 48.7572 63.0141 46.8275C62.9138 46.1562 62.8637 45.4783 62.8641 44.7995C62.8913 44.193 62.9569 43.5887 63.0606 42.9905C63.1956 42.2519 63.2574 41.5018 63.2451 40.751C63.2695 40.6479 63.2761 40.5413 63.2646 40.436C62.7676 38.4274 61.7824 36.5725 60.3966 35.036C59.1514 33.5686 57.5939 32.3981 55.8381 31.61C56.9625 31.3755 58.1097 31.2679 59.2581 31.289L59.2611 31.2965ZM40.2186 56.981C39.2781 58.112 38.6271 57.896 38.4186 57.824C37.0266 57.359 35.4096 54.416 33.9861 49.748C33.0409 46.7349 32.3682 43.643 31.9761 40.5095C31.7961 36.9095 32.6691 34.3985 34.5711 33.0485C37.6656 30.854 42.7551 32.168 44.7996 32.834C44.7696 32.8625 44.7396 32.8895 44.7111 32.9195C41.3556 36.308 41.4351 42.098 41.4441 42.452C41.4441 42.5885 41.4546 42.782 41.4711 43.052C41.5941 44.665 41.5534 46.2862 41.3496 47.891C41.2102 48.8099 41.2818 49.7484 41.5591 50.6354C41.8364 51.5225 42.3121 52.3347 42.9501 53.0105C43.0831 53.1485 43.2221 53.2795 43.3671 53.4035C42.2833 54.5658 41.2329 55.7588 40.2171 56.981H40.2186ZM43.8036 52.196C43.2863 51.6491 42.9006 50.9914 42.6757 50.2729C42.4509 49.5545 42.3929 48.7942 42.5061 48.05C42.7211 46.3683 42.7648 44.6691 42.6366 42.9785C42.6287 42.8571 42.6217 42.7356 42.6156 42.614C43.8721 41.667 45.4315 41.2119 47.0001 41.3345C47.361 41.4163 47.6875 41.6084 47.9343 41.8842C48.181 42.16 48.3358 42.5058 48.3771 42.8735C49.3461 47.357 48.5046 49.2245 47.8296 50.726C47.6901 51.035 47.5581 51.326 47.4471 51.626L47.3601 51.86C47.1445 52.4035 46.9602 52.9589 46.8081 53.5235C46.2442 53.5155 45.6877 53.3935 45.1721 53.1648C44.6566 52.9362 44.1926 52.6056 43.8081 52.193L43.8036 52.196ZM43.9731 58.241C43.6948 58.1725 43.4297 58.0585 43.1886 57.9035C43.4567 57.789 43.737 57.7054 44.0241 57.6545C46.1511 57.2165 46.4796 56.9045 47.1981 55.997C47.3631 55.7885 47.5491 55.547 47.8071 55.2635C48.1911 54.833 48.3681 54.9065 48.6861 55.0385C48.837 55.1204 48.9692 55.2327 49.0745 55.3682C49.1799 55.5037 49.256 55.6596 49.2981 55.826C49.34 55.9468 49.355 56.0753 49.3421 56.2025C49.3291 56.3298 49.2885 56.4526 49.2231 56.5625C48.6416 57.3654 47.8187 57.9615 46.8745 58.2638C45.9304 58.566 44.9143 58.5585 43.9746 58.2425L43.9731 58.241ZM55.1091 68.6C54.6882 68.7464 54.241 68.8023 53.797 68.7641C53.353 68.726 52.9219 68.5946 52.5321 68.3786C52.1423 68.1626 51.8024 67.8668 51.5346 67.5105C51.2668 67.1543 51.0772 66.7455 50.9781 66.311C50.4499 62.9115 50.299 59.4641 50.5281 56.0315C50.5296 55.9685 50.521 55.9057 50.5026 55.8455C50.4869 55.7289 50.4628 55.6136 50.4306 55.5005C50.3418 55.1631 50.1799 54.8493 49.9565 54.5813C49.7331 54.3133 49.4535 54.0976 49.1376 53.9495C48.7693 53.7669 48.3502 53.714 47.9481 53.7995C48.0902 53.2793 48.2615 52.7675 48.4611 52.2665L48.5481 52.031C48.6471 51.7655 48.7701 51.491 48.9006 51.2C49.6071 49.6295 50.5761 47.477 49.5246 42.617C49.4581 42.2036 49.3075 41.8082 49.0823 41.4552C48.8571 41.1022 48.562 40.7991 48.2151 40.5645C47.8683 40.3299 47.477 40.1689 47.0656 40.0913C46.6541 40.0138 46.2311 40.0213 45.8226 40.1135C44.8346 40.2417 43.8767 40.5417 42.9921 41C42.8751 41.06 42.7671 41.117 42.6681 41.1725C42.7816 38.4469 43.7931 35.8354 45.5451 33.7445C46.2488 33.0558 47.0887 32.5218 48.0109 32.1767C48.933 31.8316 49.9172 31.683 50.9001 31.7405C52.5607 31.7549 54.1979 32.1335 55.6962 32.8496C57.1945 33.5657 58.5174 34.6019 59.5716 35.885C60.6005 37.0864 61.4043 38.4634 61.9446 39.95C59.7501 39.7265 58.2576 40.16 57.5016 41.2415C55.8516 43.5935 58.4016 48.1595 59.6256 50.354C59.8506 50.756 60.0441 51.104 60.1041 51.254C60.4274 52.0086 60.8628 52.71 61.3956 53.3345C61.5111 53.4845 61.6236 53.618 61.7076 53.741C61.0431 53.933 59.8491 54.3755 59.9586 56.591C59.8716 57.701 59.2476 62.8985 58.9296 64.736C58.5111 67.1615 57.6186 68.066 55.1076 68.6045L55.1091 68.6ZM65.9721 56.168C65.0487 56.5344 64.0686 56.7374 63.0756 56.768C62.4149 56.8653 61.7402 56.7786 61.1256 56.5175C61.0581 55.139 61.5756 54.995 62.1156 54.842C62.2011 54.818 62.2836 54.794 62.3646 54.767C62.4176 54.8097 62.4726 54.8498 62.5296 54.887C63.4881 55.52 65.1996 55.5875 67.6146 55.0895H67.6416C67.1424 55.5334 66.5778 55.8976 65.9676 56.1695L65.9721 56.168Z" fill="white"/>
<defs>
<linearGradient id="paint0_linear_737_373" x1="50" y1="0" x2="50" y2="100" gradientUnits="userSpaceOnUse">
<stop stop-color="#155A83"/>
<stop offset="0.963542" stop-color="#3184B6" stop-opacity="0"/>
</linearGradient>
</defs>
</svg>
