<svg width="100" height="100" viewBox="0 0 100 100" fill="none" xmlns="http://www.w3.org/2000/svg">
<circle cx="50" cy="50" r="50" fill="url(#paint0_linear_737_373)"/>
<path d="M42.9001 63.106C42.9001 63.106 40.8382 64.1707 44.3675 64.531C48.6433 64.9641 50.8284 64.9021 55.5403 64.1101C55.5403 64.1101 56.7792 64.7999 58.5091 65.3974C47.9465 69.4173 34.6036 65.1644 42.9001 63.106V63.106ZM41.6094 57.8601C41.6094 57.8601 39.2967 59.3803 42.8287 59.7046C47.3961 60.123 51.003 60.1573 57.2446 59.0901C57.2446 59.0901 58.1079 59.8672 59.4653 60.2923C46.6943 63.6085 32.4698 60.5538 41.6094 57.8601" fill="#68AFDE"/>
<path d="M52.4905 48.9617C55.0932 51.6225 51.8067 54.017 51.8067 54.017C51.8067 54.017 58.4152 50.9876 55.3802 47.1939C52.5456 43.6563 50.3717 41.8984 62.1397 35.8379C62.1397 35.8379 43.6679 39.9345 52.4905 48.9616" fill="#E76F00"/>
<path d="M66.4604 66.9863C66.4604 66.9863 67.9863 68.1026 64.7799 68.9663C58.683 70.6065 39.4039 71.1018 34.0482 69.0317C32.123 68.2881 35.7334 67.2559 36.869 67.0393C38.0533 66.8112 38.7302 66.8538 38.7302 66.8538C36.5892 65.5143 24.8913 69.4836 32.7883 70.6202C54.3245 73.7217 72.0466 69.2238 66.4604 66.9863ZM43.8915 52.4251C43.8915 52.4251 34.085 54.4935 40.4189 55.2444C43.0931 55.5624 48.4243 55.4905 53.3903 55.121C57.4487 54.8171 61.5239 54.1707 61.5239 54.1707C61.5239 54.1707 60.0928 54.7149 59.0575 55.3427C49.0991 57.6684 29.8612 56.5865 35.3995 54.2074C40.0833 52.197 43.8916 52.4251 43.8916 52.4251H43.8915ZM61.4834 61.1569C71.6068 56.4856 66.9261 51.9967 63.6591 52.6015C62.8583 52.7494 62.5014 52.8776 62.5014 52.8776C62.5014 52.8776 62.7987 52.4642 63.3664 52.2852C69.8294 50.2674 74.8001 58.2362 61.28 61.3923C61.28 61.3925 61.4367 61.2682 61.4834 61.1569Z" fill="#68AFDE"/>
<path d="M55.3802 26.0514C55.3802 26.0514 60.9867 31.0318 50.0627 38.6897C41.303 44.8329 48.0652 48.3355 50.0592 52.3374C44.9459 48.2407 41.1934 44.6343 43.7109 41.278C47.4058 36.3507 57.6422 33.962 55.3802 26.0513" fill="#E76F00"/>
<path d="M44.8864 73.8149C54.6035 74.3673 69.525 73.5085 69.8784 69.4255C69.8784 69.4255 69.1991 70.9735 61.8478 72.2026C53.5541 73.5885 43.3251 73.4267 37.2581 72.5385C37.2582 72.5385 38.5 73.4513 44.8865 73.8149" fill="#68AFDE"/>
<defs>
<linearGradient id="paint0_linear_737_373" x1="50" y1="0" x2="50" y2="100" gradientUnits="userSpaceOnUse">
<stop stop-color="#155A83"/>
<stop offset="0.963542" stop-color="#3184B6" stop-opacity="0"/>
</linearGradient>
</defs>
</svg>
