<svg width="226" height="205" viewBox="0 0 226 205" fill="none" xmlns="http://www.w3.org/2000/svg">
<ellipse cx="113" cy="102.5" rx="112.5" ry="102.5" fill="white"/>
<g clip-path="url(#clip0)">
<path d="M75.7439 153.488V100.189L59.5349 85.0675L45 76.6758V144.082C45 149.287 49.1348 153.488 54.2234 153.488H75.7439V153.488Z" fill="#4285F4"/>
<path d="M149.529 153.488H171.049C176.153 153.488 180.273 149.271 180.273 144.082V76.6763L163.81 86.2879L149.529 100.189V153.488V153.488Z" fill="#34A853"/>
<path d="M75.7439 100.189L73.5383 79.364L75.7439 59.4321L112.636 87.649L149.529 59.4321L151.996 78.2879L149.529 100.189L112.636 128.406L75.7439 100.189Z" fill="#EA4335"/>
<path d="M149.529 59.4323V100.19L180.273 76.6758V64.1349C180.273 52.5036 167.253 45.8729 158.138 52.8485L149.529 59.4323Z" fill="#FBBC04"/>
<path d="M45 76.6756L59.1397 87.4905L75.7439 100.189V59.432L67.1351 52.8483C58.0041 45.8722 45 52.5034 45 64.1341V76.675V76.6756Z" fill="#C5221F"/>
</g>
<defs>
<clipPath id="clip0">
<rect width="135.273" height="104" fill="white" transform="translate(45 50)"/>
</clipPath>
</defs>
</svg>
