<svg width="50" height="50" viewBox="0 0 50 50" fill="none" xmlns="http://www.w3.org/2000/svg">
<path fill-rule="evenodd" clip-rule="evenodd" d="M25 3.125C19.1984 3.125 13.6344 5.42968 9.53204 9.53204C5.42968 13.6344 3.125 19.1984 3.125 25C3.125 30.8016 5.42968 36.3656 9.53204 40.468C13.6344 44.5703 19.1984 46.875 25 46.875C30.8016 46.875 36.3656 44.5703 40.468 40.468C44.5703 36.3656 46.875 30.8016 46.875 25C46.875 19.1984 44.5703 13.6344 40.468 9.53204C36.3656 5.42968 30.8016 3.125 25 3.125ZM25 0C18.3696 0 12.0107 2.63392 7.32233 7.32233C2.63392 12.0107 0 18.3696 0 25C0 31.6304 2.63392 37.9893 7.32233 42.6777C12.0107 47.3661 18.3696 50 25 50C31.6304 50 37.9893 47.3661 42.6777 42.6777C47.3661 37.9893 50 31.6304 50 25C50 18.3696 47.3661 12.0107 42.6777 7.32233C37.9893 2.63392 31.6304 0 25 0Z" fill="black"/>
<path fill-rule="evenodd" clip-rule="evenodd" d="M26.1064 14.5187C26.2519 14.6639 26.3673 14.8363 26.4461 15.0261C26.5249 15.216 26.5654 15.4195 26.5654 15.625C26.5654 15.8305 26.5249 16.034 26.4461 16.2238C26.3673 16.4137 26.2519 16.5861 26.1064 16.7312L17.8345 25L26.1064 33.2687C26.2517 33.414 26.3669 33.5865 26.4455 33.7763C26.5241 33.9661 26.5646 34.1695 26.5646 34.375C26.5646 34.5804 26.5241 34.7839 26.4455 34.9737C26.3669 35.1635 26.2517 35.336 26.1064 35.4812C25.9611 35.6265 25.7886 35.7417 25.5988 35.8204C25.409 35.899 25.2056 35.9395 25.0001 35.9395C24.7947 35.9395 24.5912 35.899 24.4014 35.8204C24.2116 35.7417 24.0392 35.6265 23.8939 35.4812L14.5189 26.1062C14.3734 25.9611 14.2579 25.7887 14.1792 25.5988C14.1004 25.409 14.0598 25.2055 14.0598 25C14.0598 24.7945 14.1004 24.591 14.1792 24.4011C14.2579 24.2113 14.3734 24.0389 14.5189 23.8937L23.8939 14.5187C24.039 14.3732 24.2115 14.2578 24.4013 14.179C24.5911 14.1002 24.7946 14.0597 25.0001 14.0597C25.2057 14.0597 25.4092 14.1002 25.599 14.179C25.7888 14.2578 25.9612 14.3732 26.1064 14.5187Z" fill="black"/>
<path fill-rule="evenodd" clip-rule="evenodd" d="M35.9375 25C35.9375 25.4144 35.7729 25.8118 35.4799 26.1049C35.1868 26.3979 34.7894 26.5625 34.375 26.5625L18.75 26.5625C18.3356 26.5625 17.9382 26.3979 17.6451 26.1049C17.3521 25.8118 17.1875 25.4144 17.1875 25C17.1875 24.5856 17.3521 24.1882 17.6451 23.8951C17.9382 23.6021 18.3356 23.4375 18.75 23.4375L34.375 23.4375C34.7894 23.4375 35.1868 23.6021 35.4799 23.8951C35.7729 24.1882 35.9375 24.5856 35.9375 25Z" fill="black"/>
</svg>
