<svg width="100" height="100" viewBox="0 0 100 100" fill="none" xmlns="http://www.w3.org/2000/svg">
<circle cx="50" cy="50" r="50" fill="url(#paint0_linear_737_373)"/>
<path d="M34.8529 66.8015L31.4839 29H68.5159L65.1424 66.7955L49.9774 71L34.8529 66.8015Z" fill="#1572B6"/>
<path d="M50 67.7871L62.255 64.3896L65.138 32.0916H50V67.7871Z" fill="#33A9DC"/>
<path d="M50 45.7866H56.135L56.558 41.0391H50V36.4026H61.625L61.514 37.6461L60.3755 50.4231H50V45.7866V45.7866Z" fill="white"/>
<path d="M50.0286 57.827L50.0076 57.833L44.8446 56.438L44.5146 52.7405H39.8601L40.5096 60.02L50.0061 62.657L50.0286 62.651V57.827V57.827Z" fill="#EBEBEB"/>
<path d="M55.7405 50.2266L55.1825 56.4351L50.012 57.8301V62.6541L59.516 60.0201L59.5865 59.2371L60.392 50.2266H55.7405V50.2266Z" fill="white"/>
<path d="M50.0166 36.4026V41.0391H38.8176L38.7246 39.9966L38.5131 37.6461L38.4021 36.4026H50.0166V36.4026ZM50.0001 45.7866V50.4231H44.9016L44.8086 49.3806L44.5986 47.0301L44.4876 45.7866H50.0001V45.7866Z" fill="#EBEBEB"/>
<defs>
<linearGradient id="paint0_linear_737_373" x1="50" y1="0" x2="50" y2="100" gradientUnits="userSpaceOnUse">
<stop stop-color="#155A83"/>
<stop offset="0.963542" stop-color="#3184B6" stop-opacity="0"/>
</linearGradient>
</defs>
</svg>
