<svg width="100" height="100" viewBox="0 0 100 100" fill="none" xmlns="http://www.w3.org/2000/svg">
<circle cx="50" cy="50" r="50" fill="url(#paint0_linear_737_373)"/>
<path d="M29 29H71V71H29V29Z" fill="#F5DE19"/>
<path d="M57.2136 61.8126C57.5715 62.5395 58.1274 63.1505 58.8175 63.5751C59.5075 63.9997 60.3034 64.2207 61.1136 64.2126C62.7486 64.2126 63.7941 63.3951 63.7941 62.2626C63.7941 60.9126 62.7201 60.4296 60.9201 59.6421L59.9331 59.2191C57.0831 58.0056 55.1931 56.4861 55.1931 53.2731C55.1931 50.3136 57.4431 48.0591 60.9726 48.0591C62.1152 47.9766 63.2567 48.2323 64.2549 48.7943C65.2531 49.3564 66.0637 50.1999 66.5856 51.2196L63.5001 53.1921C63.2991 52.6865 62.9492 52.2539 62.4967 51.9517C62.0443 51.6495 61.5106 51.492 60.9666 51.5001C60.7292 51.4763 60.4895 51.5023 60.2628 51.5763C60.036 51.6503 59.8271 51.7707 59.6494 51.9299C59.4718 52.0891 59.3292 52.2835 59.2308 52.5008C59.1325 52.7181 59.0805 52.9536 59.0781 53.1921C59.0781 54.3756 59.8116 54.8556 61.5051 55.5921L62.4921 56.0151C65.8461 57.4536 67.7421 58.9191 67.7421 62.2146C67.7421 65.7681 64.9506 67.7151 61.2021 67.7151C59.7416 67.8082 58.2853 67.4766 57.009 66.7603C55.7328 66.0441 54.6911 64.9738 54.0096 63.6786L57.2136 61.8126ZM43.2711 62.1546C43.8906 63.2541 44.4546 64.1841 45.8106 64.1841C47.1066 64.1841 47.9256 63.6771 47.9256 61.7046V48.2841H51.8721V61.7571C51.8721 65.8431 49.4721 67.7031 45.9786 67.7031C44.7437 67.7706 43.5173 67.4629 42.4606 66.8203C41.4039 66.1778 40.5664 65.2305 40.0581 64.1031L43.2711 62.1546Z" fill="black"/>
<defs>
<linearGradient id="paint0_linear_737_373" x1="50" y1="0" x2="50" y2="100" gradientUnits="userSpaceOnUse">
<stop stop-color="#155A83"/>
<stop offset="0.963542" stop-color="#3184B6" stop-opacity="0"/>
</linearGradient>
</defs>
</svg>
