<svg width="100" height="100" viewBox="0 0 100 100" fill="none" xmlns="http://www.w3.org/2000/svg">
<circle cx="50" cy="50" r="50" fill="url(#paint0_linear_737_373)"/>
<path d="M70.2079 48.1294L51.8705 29.7919C51.6196 29.5402 51.3216 29.3405 50.9934 29.2042C50.6652 29.068 50.3133 28.9978 49.958 28.9978C49.6026 28.9978 49.2507 29.068 48.9225 29.2042C48.5944 29.3405 48.2963 29.5402 48.0455 29.7919L44.237 33.6004L49.067 38.4304C49.6365 38.2366 50.2491 38.2067 50.8348 38.344C51.4206 38.4814 51.9559 38.7805 52.38 39.2074C52.804 39.6342 53.0996 40.1715 53.233 40.7582C53.3665 41.3448 53.3325 41.9572 53.1349 42.5254L57.7849 47.1754C58.48 46.9367 59.2359 46.9433 59.9267 47.1941C60.6175 47.445 61.2014 47.9251 61.5813 48.5542C61.9611 49.1834 62.1138 49.9237 62.0141 50.6519C61.9143 51.38 61.5681 52.052 61.033 52.5558C60.498 53.0596 59.8064 53.3649 59.0736 53.4207C58.3408 53.4766 57.611 53.2796 57.0057 52.8627C56.4005 52.4458 55.9564 51.834 55.7475 51.1294C55.5385 50.4248 55.5774 49.6699 55.8575 48.9904L51.515 44.6479V56.0734C52.1728 56.3994 52.6991 56.9408 53.0062 57.6076C53.3133 58.2744 53.3827 59.0263 53.2028 59.7381C53.0229 60.4498 52.6045 61.0784 52.0175 61.5192C51.4304 61.96 50.71 62.1864 49.9764 62.1606C49.2427 62.1348 48.54 61.8584 47.9853 61.3775C47.4307 60.8966 47.0575 60.2401 46.928 59.5175C46.7985 58.7949 46.9205 58.0497 47.2737 57.4061C47.6269 56.7625 48.1899 56.2594 48.869 55.9804V44.4499C48.4761 44.2887 48.119 44.0514 47.8183 43.7516C47.5175 43.4518 47.2791 43.0955 47.1166 42.7032C46.9542 42.3108 46.871 41.8902 46.8718 41.4656C46.8727 41.0409 46.9575 40.6206 47.1215 40.2289L42.3665 35.4709L29.792 48.0499C29.54 48.3008 29.3401 48.599 29.2037 48.9273C29.0673 49.2556 28.9971 49.6076 28.9971 49.9632C28.9971 50.3187 29.0673 50.6708 29.2037 50.9991C29.3401 51.3274 29.54 51.6256 29.792 51.8764L48.1295 70.2079C48.3803 70.4596 48.6784 70.6594 49.0065 70.7956C49.3347 70.9319 49.6866 71.0021 50.042 71.0021C50.3973 71.0021 50.7492 70.9319 51.0774 70.7956C51.4056 70.6594 51.7036 70.4596 51.9545 70.2079L70.2079 51.9499C70.4599 51.6991 70.6598 51.4009 70.7962 51.0726C70.9326 50.7443 71.0028 50.3922 71.0028 50.0367C71.0028 49.6811 70.9326 49.3291 70.7962 49.0008C70.6598 48.6725 70.4599 48.3743 70.2079 48.1234" fill="#DD4C35"/>
<path d="M44.237 33.6006L49.067 38.4306C49.6365 38.2368 50.2491 38.2068 50.8348 38.3442C51.4206 38.4815 51.956 38.7807 52.38 39.2075C52.804 39.6343 53.0996 40.1717 53.2331 40.7583C53.3665 41.345 53.3325 41.9573 53.135 42.5256L57.785 47.1756C58.48 46.9368 59.2359 46.9434 59.9267 47.1943C60.6175 47.4452 61.2014 47.9252 61.5813 48.5544C61.9611 49.1836 62.1138 49.9239 62.0141 50.652C61.9143 51.3802 61.5681 52.0521 61.033 52.556C60.498 53.0598 59.8064 53.3651 59.0736 53.4209C58.3408 53.4767 57.611 53.2798 57.0057 52.8629C56.4005 52.4459 55.9564 51.8342 55.7475 51.1296C55.5385 50.425 55.5774 49.6701 55.8575 48.9906L51.515 44.6481V56.0736C52.1728 56.3995 52.6991 56.941 53.0062 57.6078C53.3133 58.2746 53.3827 59.0265 53.2028 59.7382C53.0229 60.45 52.6045 61.0786 52.0175 61.5194C51.4304 61.9602 50.71 62.1865 49.9764 62.1608C49.2427 62.135 48.54 61.8586 47.9853 61.3777C47.4307 60.8967 47.0575 60.2403 46.928 59.5177C46.7985 58.7951 46.9205 58.0499 47.2737 57.4063C47.6269 56.7627 48.1899 56.2595 48.869 55.9806V44.4501C48.4761 44.2889 48.119 44.0516 47.8183 43.7518C47.5175 43.452 47.2791 43.0957 47.1166 42.7033C46.9542 42.311 46.871 41.8904 46.8718 41.4657C46.8727 41.0411 46.9575 40.6208 47.1215 40.2291L42.3665 35.4711" fill="white"/>
<defs>
<linearGradient id="paint0_linear_737_373" x1="50" y1="0" x2="50" y2="100" gradientUnits="userSpaceOnUse">
<stop stop-color="#155A83"/>
<stop offset="0.963542" stop-color="#3184B6" stop-opacity="0"/>
</linearGradient>
</defs>
</svg>
