<svg width="100" height="100" viewBox="0 0 100 100" fill="none" xmlns="http://www.w3.org/2000/svg">
<circle cx="50" cy="50" r="50" fill="url(#paint0_linear_737_373)"/>
<path d="M50 53.7109C52.0711 53.7109 53.75 52.032 53.75 49.9609C53.75 47.8899 52.0711 46.2109 50 46.2109C47.9289 46.2109 46.25 47.8899 46.25 49.9609C46.25 52.032 47.9289 53.7109 50 53.7109Z" fill="#00D8FF"/>
<path d="M50 58.5589C45.4927 58.6679 40.9967 58.0604 36.68 56.7589C34.6859 56.1268 32.8261 55.131 31.1945 53.8219C30.5719 53.3747 30.0534 52.7981 29.6746 52.1316C29.2958 51.4652 29.0657 50.7247 29 49.9609C29 47.4814 31.724 45.0514 36.287 43.4614C40.7191 42.0525 45.3499 41.3697 50 41.4394C54.5881 41.3753 59.1568 42.0458 63.533 43.4254C65.4534 44.0376 67.2502 44.9853 68.84 46.2244C69.452 46.6508 69.9627 47.2065 70.3359 47.8522C70.7092 48.4979 70.9359 49.2178 71 49.9609C71 52.5379 67.955 55.1494 63.05 56.7724C58.8169 58.0315 54.4157 58.634 50 58.5589V58.5589ZM50 43.2334C45.5512 43.1739 41.1212 43.8231 36.8765 45.1564C32.6765 46.6219 30.794 48.6259 30.794 49.9564C30.794 51.3484 32.8175 53.5369 37.2605 55.0564C41.3901 56.2952 45.6899 56.8718 50 56.7649C54.2246 56.8405 58.4359 56.2688 62.4875 55.0699C67.1 53.5414 69.2 51.3499 69.2 49.9609C69.1243 49.4843 68.9506 49.0285 68.6898 48.6223C68.4291 48.2162 68.0869 47.8686 67.685 47.6014C66.2626 46.5021 64.6575 45.6623 62.9435 45.1204C58.757 43.806 54.3875 43.169 50 43.2334V43.2334Z" fill="#00D8FF"/>
<path d="M41.4799 68.6645C40.7802 68.6805 40.0887 68.5107 39.4759 68.1725C37.3279 66.9335 36.5839 63.3605 37.4854 58.613C38.4794 54.0696 40.2016 49.7169 42.5854 45.7235C44.8215 41.7171 47.6842 38.0943 51.0649 34.9925C52.5546 33.6345 54.2732 32.5513 56.1409 31.793C56.8164 31.4764 57.5534 31.3123 58.2994 31.3123C59.0454 31.3123 59.7824 31.4764 60.4579 31.793C62.6914 33.08 63.4309 37.022 62.3884 42.0815C61.3637 46.3783 59.6862 50.4926 57.4144 54.281C55.257 58.24 52.4845 61.8312 49.2004 64.9205C47.6566 66.3316 45.8649 67.4449 43.9159 68.204C43.1356 68.4936 42.312 68.6492 41.4799 68.6645V68.6645ZM44.1394 46.6145C41.8655 50.4384 40.2149 54.6 39.2494 58.943C38.4199 63.3155 39.2164 65.945 40.3744 66.614C41.5744 67.3085 44.4874 66.65 48.0244 63.56C51.1594 60.6004 53.8058 57.1628 55.8649 53.375C58.0413 49.7532 59.6504 45.8197 60.6364 41.711C61.6174 36.9485 60.7699 34.0325 59.5669 33.3395C59.116 33.1667 58.6342 33.0894 58.1519 33.1123C57.6696 33.1353 57.1973 33.2581 56.7649 33.473C55.1024 34.159 53.574 35.1329 52.2499 36.35C49.0199 39.3211 46.2854 42.7894 44.1499 46.6235L44.1394 46.6145Z" fill="#00D8FF"/>
<path d="M58.5156 68.684C56.4831 68.684 53.9016 67.454 51.2136 65.1425C47.7736 62.0124 44.8625 58.3466 42.5931 54.287C40.2392 50.3485 38.5306 46.0588 37.5321 41.5805C37.099 39.6102 37.0188 37.5788 37.2951 35.5805C37.3589 34.8392 37.5847 34.1209 37.9563 33.4764C38.328 32.8318 38.8365 32.2766 39.4461 31.85C41.6766 30.5585 45.4611 31.886 49.3236 35.315C52.5345 38.3482 55.2612 41.856 57.4086 45.716C59.761 49.5625 61.4875 53.7583 62.5236 58.1465C62.9752 60.189 63.0449 62.2976 62.7291 64.3655C62.6539 65.1281 62.4147 65.8654 62.0279 66.5269C61.6411 67.1885 61.1158 67.7585 60.4881 68.198C59.8853 68.5321 59.2045 68.6998 58.5156 68.684V68.684ZM44.1456 53.384C46.3227 57.2636 49.1035 60.772 52.3836 63.7775C55.7571 66.68 58.4331 67.304 59.5836 66.6275C60.7836 65.93 61.6686 63.083 60.7566 58.4765C59.7574 54.2869 58.1014 50.2818 55.8501 46.61C53.8008 42.9157 51.1982 39.5568 48.1326 36.65C44.4966 33.422 41.5476 32.7005 40.3461 33.3965C39.9716 33.7008 39.6643 34.0795 39.4435 34.5085C39.2228 34.9376 39.0934 35.4078 39.0636 35.8895C38.8251 37.6716 38.9028 39.4818 39.2931 41.237C40.2535 45.5197 41.8922 49.6214 44.1471 53.387L44.1456 53.384Z" fill="#00D8FF"/>
<defs>
<linearGradient id="paint0_linear_737_373" x1="50" y1="0" x2="50" y2="100" gradientUnits="userSpaceOnUse">
<stop stop-color="#155A83"/>
<stop offset="0.963542" stop-color="#3184B6" stop-opacity="0"/>
</linearGradient>
</defs>
</svg>
