<svg width="100" height="100" viewBox="0 0 100 100" fill="none" xmlns="http://www.w3.org/2000/svg">
<circle cx="50" cy="50" r="50" fill="url(#paint0_linear_737_373)"/>
<path d="M50 70.9999C49.4334 71.0001 48.8767 70.8511 48.386 70.5679L43.25 67.5274C42.4835 67.0984 42.857 66.9469 43.1105 66.8584C43.9257 66.6066 44.7062 66.2538 45.434 65.8084C45.4949 65.7802 45.562 65.7681 45.6289 65.773C45.6958 65.778 45.7604 65.8 45.8165 65.8369L49.763 68.1814C49.8364 68.2203 49.9183 68.2406 50.0015 68.2406C50.0846 68.2406 50.1665 68.2203 50.24 68.1814L65.63 59.2984C65.702 59.2553 65.7615 59.1941 65.8028 59.121C65.8441 59.0479 65.8657 58.9654 65.8655 58.8814V41.1124C65.8655 41.0271 65.8436 40.9433 65.8018 40.8689C65.76 40.7946 65.6998 40.7322 65.627 40.6879L50.237 31.8124C50.1644 31.7715 50.0825 31.7501 49.9992 31.7501C49.9159 31.7501 49.834 31.7715 49.7615 31.8124L34.3805 40.6909C34.3071 40.7343 34.2462 40.7959 34.2036 40.8697C34.161 40.9436 34.1382 41.0272 34.1375 41.1124V58.8739C34.1377 58.9577 34.1601 59.0399 34.2026 59.1121C34.245 59.1843 34.3059 59.244 34.379 59.2849L38.6 61.7209C40.8875 62.8639 42.2885 61.5169 42.2885 60.1639V42.6274C42.2885 42.5081 42.3359 42.3936 42.4203 42.3092C42.5046 42.2248 42.6191 42.1774 42.7385 42.1774H44.6885C44.8078 42.1774 44.9223 42.2248 45.0066 42.3092C45.091 42.3936 45.1385 42.5081 45.1385 42.6274V60.1654C45.1385 63.2179 43.4765 64.9654 40.5815 64.9654C39.3325 64.9872 38.1032 64.6532 37.037 64.0024L32.9915 61.6819C32.5003 61.3959 32.0928 60.9861 31.8096 60.4934C31.5264 60.0006 31.3774 59.4422 31.3775 58.8739V41.1124C31.376 40.5432 31.5244 39.9836 31.8077 39.4899C32.091 38.9963 32.4993 38.5858 32.9915 38.2999L48.383 29.4139C48.8787 29.1427 49.4348 29.0005 50 29.0005C50.5651 29.0005 51.1212 29.1427 51.617 29.4139L67.007 38.2999C67.498 38.5853 67.9056 38.9946 68.1891 39.4868C68.4726 39.979 68.622 40.5369 68.6225 41.1049V58.8739C68.6216 59.4422 68.4721 60.0004 68.1886 60.493C67.9052 60.9857 67.4978 61.3955 67.007 61.6819L51.617 70.5679C51.1253 70.8516 50.5676 71.0006 50 70.9999V70.9999Z" fill="#83CD29"/>
<path d="M47.0811 52.9294C47.0811 52.8101 47.1285 52.6956 47.2129 52.6112C47.2972 52.5268 47.4117 52.4794 47.5311 52.4794H49.5216C49.6279 52.4798 49.7307 52.5178 49.8117 52.5867C49.8927 52.6556 49.9467 52.751 49.9641 52.8559C50.2641 54.8824 51.1641 55.9039 55.2336 55.9039C58.4751 55.9039 59.8566 55.1704 59.8566 53.4499C59.8566 52.4584 59.4651 51.7219 54.4266 51.2284C50.2146 50.8114 47.6106 49.8784 47.6106 46.5124C47.6106 43.4074 50.2281 41.5549 54.6156 41.5549C59.5461 41.5549 61.9866 43.2664 62.2956 46.9384C62.3003 46.9997 62.2924 47.0614 62.2724 47.1195C62.2523 47.1776 62.2206 47.231 62.1792 47.2764C62.1377 47.3218 62.0874 47.3583 62.0313 47.3835C61.9752 47.4087 61.9145 47.4221 61.8531 47.4229H59.8491C59.7485 47.4215 59.6514 47.3865 59.5731 47.3234C59.4948 47.2603 59.4398 47.1729 59.4171 47.0749C58.9386 44.9434 57.7671 44.2624 54.6171 44.2624C51.0771 44.2624 50.6661 45.4954 50.6661 46.4194C50.6661 47.5384 51.1521 47.8654 55.9311 48.4969C60.6606 49.1224 62.9076 50.0074 62.9076 53.3314C62.9076 56.6854 60.1116 58.6054 55.2351 58.6054C48.4926 58.6144 47.0811 55.5229 47.0811 52.9294V52.9294Z" fill="#83CD29"/>
<defs>
<linearGradient id="paint0_linear_737_373" x1="50" y1="0" x2="50" y2="100" gradientUnits="userSpaceOnUse">
<stop stop-color="#155A83"/>
<stop offset="0.963542" stop-color="#3184B6" stop-opacity="0"/>
</linearGradient>
</defs>
</svg>
